<svg id="Capa_1" enable-background="new 0 0 510.406 510.406" height="512" viewBox="0 0 510.406 510.406" width="512" xmlns="http://www.w3.org/2000/svg"><g><g><g><g id="XMLID_167_"><g><path d="m443.318 68.696c10.3 5.15 15.53 16.84 12.51 27.95l-49.62 182.42-1.84 81.28c-.51 22.49-7.6 44.34-20.39 62.85l-14.04 20.32v44.404c0 8.277-6.71 14.986-14.986 14.986h-144.948c-8.277 0-14.986-6.71-14.986-14.986v-52.474c-22.31-10.64-38.24-31.24-42.92-55.51l-1.42-7.36-77.98-42.8c-11.16-6.13-17.49-17.66-17.49-29.57 0-5.37 1.28-10.81 3.99-15.87 8.38-15.66 27.48-22.12 43.65-14.77l59.92 27.24 3.3-4.46c3.45-4.66 7.25-9.04 11.39-13.08 4.13-4.04 8.58-7.75 13.32-11.09l-56.54-207.86c-.69-2.53-1.02-5.08-1.02-7.59 0-11.81 7.3-22.78 18.86-27.05 15.17-5.6 31.97 2.35 37.26 17.62l61.3 176.93v-186.68c0-7.66 3.1-14.6 8.12-19.62s11.95-8.12 19.61-8.12c15.06 0 27.37 12.02 27.73 27.07l4.19 173.65 25.69-166.68c1.96-12.68 12.88-21.63 25.18-21.63 1.79 0 3.61.19 5.43.58 12.52 2.72 21.09 14.29 20.02 27.06l-13.45 160.67 36.19-123.04c3.14-10.69 12.88-17.35 23.19-17.35 3.61 0 7.29.82 10.78 2.56z" fill="#ffdfcf"/></g></g><path d="m190.774 268.179c13.733-11.202 19.59-29.443 14.938-46.544l-48.775-179.312c-.69-2.53-1.02-5.08-1.02-7.59 0-3.654.703-7.227 2.01-10.547-1.958.286-3.917.777-5.849 1.491-11.56 4.27-18.86 15.24-18.86 27.05 0 2.51.33 5.06 1.02 7.59l56.54 207.86c-.003.001-.008.005-.004.002z" fill="#ffcebf"/><path d="m249.531 248.922c-.002 0-.004.001-.005.002-.004.002.001 0 .005-.002z" fill="#ffcebf"/><g><path d="m223.65 421.593c0-5.56-2.922-10.675-7.641-13.613-18.28-11.381-31.152-29.927-35.279-51.326-.9-4.662-3.829-8.682-7.991-10.967l-71.409-39.193c-11.16-6.13-17.49-17.66-17.49-29.57 0-3.41.529-6.853 1.6-10.204-10.777 1.124-20.786 7.421-26.242 17.616-2.71 5.06-3.99 10.5-3.99 15.87 0 11.91 6.33 23.44 17.49 29.57l77.98 42.8 1.42 7.36c4.68 24.27 20.61 44.87 42.92 55.51v52.474c0 8.277 6.71 14.986 14.986 14.986h13.646z" fill="#ffcebf"/></g><g fill="#fef6ad"><path d="m398.986 328.958c-5.435 8.701-13.215 16.059-23.102 22.209-4.516 2.809-4.779 9.313-.431 12.375 9.05 6.375 16.782 13.896 22.955 22.772 2.979 4.283 9.248 4.323 12.225.04 6.572-9.456 14.347-17.255 23.305-23.424 4.29-2.955 4.374-9.197.144-12.237-9.052-6.507-16.672-13.887-22.787-22.184-3.127-4.243-9.517-4.021-12.309.449z"/><path d="m233.928 372.211c-3.91 6.259-9.506 11.552-16.618 15.976-3.248 2.021-3.438 6.699-.31 8.902 6.51 4.586 12.072 9.996 16.513 16.381 2.143 3.081 6.652 3.11 8.794.028 4.728-6.802 10.321-12.412 16.764-16.85 3.086-2.126 3.146-6.616.103-8.803-6.512-4.681-11.993-9.99-16.392-15.958-2.249-3.05-6.846-2.891-8.854.324z"/><path d="m152.743 144.984c-4.809 7.7-11.693 14.21-20.443 19.652-3.996 2.485-4.229 8.241-.382 10.951 8.008 5.641 14.85 12.296 20.313 20.151 2.636 3.79 8.183 3.826 10.818.035 5.816-8.367 12.695-15.268 20.622-20.728 3.796-2.615 3.87-8.138.127-10.828-8.01-5.758-14.752-12.288-20.163-19.63-2.767-3.755-8.421-3.558-10.892.397z"/></g></g><g fill="#ffcebf"><path d="m250.638 220.321c14.183 0 25.7-11.46 25.771-25.642l.861-172.44c.011-2.622.374-5.168 1.045-7.587.857-3.091 2.22-5.977 3.992-8.563-1.287-.183-2.601-.282-3.938-.282-7.66 0-14.59 3.1-19.61 8.12s-8.12 11.96-8.069 19.624z"/><path d="m310.408 205.748c14.961 0 27.678-10.931 29.926-25.722l23.159-152.431c.392-2.593 1.122-5.059 2.137-7.354.225-.508.488-1 .741-1.491-1.745-.358-3.496-.534-5.213-.534-12.3 0-23.22 8.95-25.18 21.63z"/><path d="m373.482 205.748c14.904 0 27.977-9.942 31.959-24.304l31.02-111.892c.276-.996.619-1.966.984-2.906-1.631-.342-3.28-.51-4.906-.51-10.31 0-20.05 6.66-23.19 17.35l-34.055 115.782z"/></g></g><g><path d="m445.165 63.684c-8.408-4.204-18.172-4.464-26.79-.712-8.619 3.751-15.083 11.075-17.736 20.093l-15.361 52.228 7.292-87.119c1.378-16.461-9.758-31.513-25.902-35.011-8.855-1.917-18.218-.075-25.687 5.059-7.467 5.133-12.542 13.214-13.923 22.17l-12.822 83.169-2.148-89.172c-.465-19.284-15.938-34.389-35.227-34.389-19.43 0-35.237 15.807-35.237 35.237v142.123l-46.712-134.826c-3.225-9.305-9.903-16.749-18.806-20.96s-18.895-4.651-28.132-1.24c-17.799 6.572-27.466 25.333-22.485 43.642l14.384 52.877c1.087 3.997 5.206 6.355 9.206 5.268 3.997-1.087 6.355-5.208 5.268-9.206l-14.384-52.877c-2.925-10.753 2.752-21.772 13.207-25.633 5.427-2.003 11.294-1.745 16.523.729 5.229 2.473 9.152 6.845 11.045 12.311l61.298 176.929c1.06 3.059 3.935 5.046 7.082 5.045.413 0 .831-.034 1.25-.104 3.611-.608 6.255-3.734 6.255-7.396v-186.682c0-11.159 9.079-20.237 20.237-20.237 11.078 0 19.964 8.675 20.23 19.75l4.185 173.646c.094 3.884 3.138 7.054 7.015 7.304 3.872.249 7.304-2.501 7.896-6.342l25.696-166.681c.764-4.958 3.462-9.253 7.596-12.095 4.134-2.841 9.11-3.822 14.013-2.759 8.808 1.908 14.883 10.12 14.131 19.1l-13.448 160.667c-.321 3.835 2.313 7.291 6.096 7.998 3.78.703 7.487-1.564 8.573-5.256l36.187-123.035c1.396-4.745 4.797-8.598 9.332-10.572 4.535-1.973 9.672-1.836 14.096.375 7.072 3.535 10.698 11.639 8.623 19.269l-7.921 29.121c-1.087 3.997 1.272 8.118 5.269 9.206 3.995 1.086 8.118-1.272 9.205-5.269l7.921-29.121c3.943-14.501-2.95-29.903-16.39-36.622z"/><path d="m439.973 151.07c-3.999-1.087-8.118 1.272-9.205 5.269l-33.308 122.455c-.145.532-.23 1.079-.255 1.63-.289 6.388-.931 16.267-.931 16.729 0 4.142 3.358 7.5 7.5 7.5 2.573 0 7.062-1.595 7.566-7.573.042-.489.747-13.739.812-15.148l33.09-121.656c1.087-3.997-1.272-8.118-5.269-9.206z"/><path d="m195.014 478.366c-4.142 0-7.5 3.358-7.5 7.5v17.04c0 4.142 3.358 7.5 7.5 7.5s7.5-3.358 7.5-7.5v-17.04c0-4.142-3.357-7.5-7.5-7.5z"/><path d="m198.245 428.682c-20.069-9.579-34.567-28.333-38.781-50.168l-1.42-7.359c-.423-2.191-1.799-4.08-3.755-5.154l-77.984-42.803c-12.527-6.876-17.233-22.72-10.49-35.319 6.495-12.136 21.401-17.18 33.93-11.484l8.93 4.059c3.772 1.713 8.217.047 9.931-3.724s.046-8.217-3.724-9.931l-8.93-4.059c-19.705-8.957-43.146-1.024-53.362 18.062-10.605 19.815-3.205 44.733 16.497 55.547l74.896 41.108.752 3.9c4.809 24.916 20.654 46.524 42.779 58.674v13.874c0 4.142 3.358 7.5 7.5 7.5s7.5-3.358 7.5-7.5v-18.455c0-2.89-1.661-5.523-4.269-6.768z"/><path d="m160.349 287.465-16.123-7.329c-3.77-1.714-8.218-.046-9.931 3.724-1.714 3.771-.047 8.217 3.724 9.931l21.648 9.84c1 .455 2.056.673 3.1.673 2.321 0 4.583-1.079 6.035-3.042l3.297-4.461c6.427-8.696 14.167-16.267 23.004-22.501 2.577-1.818 3.741-5.054 2.913-8.097l-12.5-45.951c-1.086-3.997-5.206-6.355-9.206-5.268-3.997 1.087-6.355 5.208-5.268 9.206l11.155 41.005c-8.253 6.405-15.585 13.876-21.848 22.27z"/><path d="m392.381 409.48c-3.573-2.093-8.168-.895-10.263 2.678-1.36 2.321-2.811 4.599-4.31 6.769l-14.043 20.32c-.866 1.253-1.33 2.741-1.33 4.264v59.395c0 4.142 3.358 7.5 7.5 7.5s7.5-3.358 7.5-7.5v-57.056l12.713-18.396c1.71-2.476 3.363-5.07 4.911-7.711 2.094-3.573.895-8.168-2.678-10.263z"/><path d="m438.459 344.602c-8.447-6.072-15.555-12.984-21.127-20.544-2.95-4.001-7.659-6.271-12.625-6.086-4.941.19-9.458 2.812-12.082 7.012-4.702 7.527-11.667 14.193-20.703 19.813-4.287 2.667-6.933 7.268-7.077 12.309-.143 4.995 2.208 9.693 6.288 12.567 8.542 6.018 15.647 13.057 21.117 20.923 2.809 4.04 7.409 6.451 12.304 6.451 4.872 0 9.446-2.397 12.237-6.412 6.006-8.642 13.207-15.885 21.4-21.528 4.029-2.775 6.463-7.337 6.512-12.205.051-4.856-2.284-9.453-6.244-12.3zm-33.926 37.384c-6.439-9.248-14.724-17.483-24.633-24.486 10.939-6.814 19.483-15.053 25.397-24.489 6.495 8.8 14.707 16.798 24.386 23.741-9.652 6.648-18.107 15.13-25.15 25.234z"/><path d="m263.551 381.756c-5.897-4.239-10.854-9.056-14.731-14.317-2.536-3.441-6.598-5.398-10.856-5.233-4.253.164-8.14 2.418-10.397 6.033-3.209 5.139-7.993 9.708-14.218 13.58-3.686 2.292-5.959 6.248-6.083 10.581-.124 4.301 1.901 8.346 5.415 10.821 5.943 4.187 10.881 9.077 14.675 14.532 2.414 3.472 6.369 5.544 10.579 5.543 4.193 0 8.13-2.063 10.531-5.517 4.175-6.007 9.174-11.038 14.859-14.954 3.462-2.384 5.554-6.306 5.596-10.492.041-4.176-1.966-8.13-5.37-10.577zm-25.638 25.022c-3.909-5.126-8.608-9.795-14.021-13.932 5.994-4.098 10.919-8.829 14.694-14.116 3.915 4.874 8.558 9.382 13.853 13.453-5.424 4.081-10.293 8.973-14.526 14.595z"/><path d="m188.176 158.126c-7.4-5.32-13.626-11.373-18.504-17.991-2.779-3.771-7.217-5.903-11.899-5.735-4.659.179-8.917 2.65-11.391 6.61-4.09 6.548-10.16 12.354-18.042 17.256-4.04 2.513-6.533 6.849-6.669 11.599-.135 4.71 2.082 9.141 5.93 11.852 7.475 5.265 13.69 11.422 18.475 18.301 2.647 3.806 6.981 6.078 11.595 6.078h.002c4.593-.001 8.906-2.261 11.535-6.044 5.255-7.561 11.553-13.896 18.718-18.832 3.796-2.615 6.09-6.915 6.136-11.502.046-4.575-2.155-8.909-5.886-11.592zm-29.072-9.169c0 .001 0 .001-.001.001 0 0 .001 0 .001-.001zm-1.452 41.455c-5.418-7.537-12.223-14.299-20.253-20.127 8.871-5.705 15.919-12.491 20.983-20.202 5.447 7.162 12.176 13.709 20.029 19.488-7.897 5.611-14.872 12.613-20.759 20.841z"/></g></g></svg>