<svg id="Capa_1" enable-background="new 0 0 512.099 512.099" height="512" viewBox="0 0 512.099 512.099" width="512" xmlns="http://www.w3.org/2000/svg"><g><g><g id="XMLID_168_"><g><path d="m439.678 70.388c10.3 5.15 15.53 16.84 12.51 27.95l-49.62 182.42-1.84 81.28c-.51 22.49-7.6 44.34-20.39 62.85l-14.04 20.32v44.404c0 8.277-6.71 14.986-14.986 14.986h-144.948c-8.277 0-14.986-6.71-14.986-14.986v-52.474c-22.31-10.64-38.24-31.24-42.92-55.51l-1.42-7.36-77.98-42.8c-11.16-6.13-17.49-17.66-17.49-29.57 0-5.37 1.28-10.81 3.99-15.87 8.38-15.66 27.48-22.12 43.65-14.77l59.92 27.24 3.3-4.46c3.45-4.66 7.25-9.04 11.39-13.08 4.13-4.04 8.58-7.75 13.32-11.09l-56.54-207.86c-.69-2.53-1.02-5.08-1.02-7.59 0-11.81 7.3-22.78 18.86-27.05 15.17-5.6 31.97 2.35 37.26 17.62l61.3 176.93v-186.68c0-7.66 3.1-14.6 8.12-19.62s11.95-8.12 19.61-8.12c15.06 0 27.37 12.02 27.73 27.07l4.19 173.65 25.69-166.68c1.96-12.68 12.88-21.63 25.18-21.63 1.79 0 3.61.19 5.43.58 12.52 2.72 21.09 14.29 20.02 27.06l-13.45 160.67 36.19-123.04c3.14-10.69 12.88-17.35 23.19-17.35 3.61 0 7.29.82 10.78 2.56z" fill="#ffdfcf"/></g></g><g><path d="m220.009 423.285c0-5.56-2.922-10.675-7.641-13.613-18.28-11.381-31.152-29.927-35.279-51.326-.9-4.662-3.829-8.682-7.991-10.967l-71.409-39.193c-11.16-6.13-17.49-17.66-17.49-29.57 0-3.41.529-6.853 1.6-10.204-10.777 1.124-20.786 7.421-26.242 17.616-2.71 5.06-3.99 10.5-3.99 15.87 0 11.91 6.33 23.44 17.49 29.57l77.98 42.8 1.42 7.36c4.68 24.27 20.61 44.87 42.92 55.51v52.474c0 8.277 6.71 14.986 14.986 14.986h13.646z" fill="#ffcebf"/></g><g><circle cx="217.994" cy="366.009" fill="#f37c7c" r="24.358"/></g><path d="m187.133 269.871c13.733-11.202 19.59-29.443 14.938-46.544l-48.774-179.313c-.69-2.53-1.02-5.08-1.02-7.59 0-3.654.713-7.227 2.021-10.547-1.958.286-3.927.777-5.86 1.491-11.56 4.27-18.86 15.24-18.86 27.05 0 2.51.33 5.06 1.02 7.59l56.54 207.86c-.004.002-.009.006-.005.003z" fill="#ffcebf"/><circle cx="136.4" cy="171.067" fill="#a8d3d8" r="41.328"/><g><circle cx="402.569" cy="367.233" fill="#b0e7c9" r="42.39"/></g><g fill="#ffcebf"><path d="m246.997 222.013c14.183 0 25.7-11.46 25.771-25.642l.861-172.44c.011-2.622.374-5.168 1.045-7.587.857-3.091 2.22-5.977 3.992-8.563-1.287-.183-2.601-.282-3.938-.282-7.66 0-14.59 3.1-19.61 8.12s-8.12 11.96-8.069 19.624z"/><path d="m306.768 207.44c14.961 0 27.678-10.931 29.926-25.722l23.159-152.431c.392-2.593 1.122-5.059 2.137-7.354.225-.508.488-1 .741-1.491-1.745-.358-3.496-.534-5.213-.534-12.3 0-23.22 8.95-25.18 21.63z"/><path d="m369.842 207.44c14.904 0 27.977-9.942 31.959-24.304l31.02-111.892c.276-.996.619-1.966.984-2.906-1.631-.342-3.28-.51-4.906-.51-10.31 0-20.05 6.66-23.19 17.35l-34.056 115.782z"/></g></g><g><path d="m379.197 427.842c-3.409-2.355-8.08-1.5-10.434 1.906l-7.734 11.191c-.866 1.253-1.33 2.741-1.33 4.264v59.396c0 4.142 3.358 7.5 7.5 7.5s7.5-3.358 7.5-7.5v-57.056l6.404-9.266c2.354-3.408 1.501-8.08-1.906-10.435z"/><path d="m131.991 92.378c1.087 3.997 5.207 6.355 9.206 5.268 3.997-1.087 6.355-5.208 5.268-9.206l-8.312-30.557c-2.618-9.625 2.392-19.674 11.654-23.376 4.968-1.987 10.397-1.879 15.284.302 4.888 2.182 8.592 6.151 10.432 11.177l65.333 178.509c1.096 2.996 3.939 4.923 7.039 4.923.434 0 .874-.038 1.313-.116 3.581-.635 6.191-3.748 6.191-7.385v-126.168c0-4.142-3.358-7.5-7.5-7.5s-7.5 3.358-7.5 7.5v83.855l-50.79-138.773c-3.245-8.867-9.781-15.871-18.404-19.719s-18.199-4.038-26.966-.533c-16.341 6.532-25.179 24.263-20.56 41.243z"/><path d="m348.051 30.323c3.979-2.736 8.773-3.68 13.49-2.658l.601.13c8.888 1.925 15.021 10.156 14.267 19.145-4.097 48.803-13.458 160.649-13.458 160.649-.321 3.835 2.313 7.291 6.096 7.998.464.086.927.128 1.384.128 3.268 0 6.237-2.146 7.189-5.385l36.186-123.034c1.396-4.745 4.797-8.598 9.332-10.572 4.536-1.973 9.672-1.836 14.096.375 7.072 3.535 10.698 11.639 8.623 19.269l-9.375 34.469c-1.087 3.997 1.272 8.118 5.269 9.206 3.996 1.086 8.118-1.272 9.206-5.269l9.375-34.469c3.944-14.5-2.949-29.902-16.389-36.622-8.406-4.204-18.172-4.463-26.791-.712s-15.083 11.075-17.735 20.093l-15.358 52.218c2.617-31.246 5.478-65.395 7.299-87.088 1.383-16.472-9.811-31.544-26.036-35.059l-.601-.13c-8.675-1.88-17.85-.073-25.167 4.957-7.315 5.03-12.286 12.947-13.637 21.721l-12.906 83.802-2.147-89.097c-.466-19.283-15.939-34.388-35.228-34.388-19.43 0-35.237 15.807-35.237 35.237v28.549c0 4.142 3.358 7.5 7.5 7.5s7.5-3.358 7.5-7.5v-28.549c0-11.159 9.079-20.237 20.237-20.237 11.078 0 19.964 8.675 20.23 19.75l4.185 173.646c.094 3.884 3.138 7.054 7.016 7.304 3.882.254 7.304-2.503 7.895-6.343l25.779-167.39c.734-4.773 3.33-8.908 7.31-11.644z"/><path d="m437.292 156.424c-3.997-1.09-8.119 1.271-9.205 5.269l-31.852 117.102c-1.087 3.997 1.271 8.118 5.269 9.205.659.18 1.321.265 1.973.265 3.3 0 6.325-2.196 7.232-5.534l31.852-117.102c1.087-3.997-1.272-8.118-5.269-9.205z"/><path d="m195.509 430.374c-20.069-9.579-34.567-28.333-38.781-50.168l-1.42-7.359c-.423-2.192-1.801-4.083-3.759-5.156l-38.81-21.274c-3.632-1.992-8.191-.661-10.182 2.972-1.991 3.632-.661 8.19 2.972 10.182l35.719 19.58.752 3.898c4.809 24.916 20.653 46.524 42.779 58.674v62.876c0 4.142 3.358 7.5 7.5 7.5s7.5-3.358 7.5-7.5v-67.456c0-2.892-1.661-5.524-4.27-6.769z"/><path d="m63.002 289.713c6.545-12.229 21.494-17.338 34.034-11.631 25.888 11.783 59.896 27.242 59.896 27.242 3.224 1.466 7.032.477 9.135-2.37l3.297-4.461c6.427-8.696 14.167-16.267 23.004-22.501 2.577-1.818 3.741-5.054 2.913-8.097l-8.008-29.44c-1.087-3.997-5.207-6.358-9.206-5.268-3.997 1.087-6.355 5.208-5.268 9.206l6.663 24.495c-8.254 6.405-15.586 13.876-21.849 22.27-10.681-4.856-34.833-15.837-54.364-24.727-19.717-8.974-43.205-.978-53.473 18.206l-.383.716c-10.37 19.375-3.129 43.731 16.141 54.294l11.552 6.333c1.145.627 2.38.925 3.599.925 2.65 0 5.22-1.408 6.583-3.896 1.991-3.632.661-8.19-2.972-10.182l-11.553-6.333c-12.089-6.627-16.632-21.907-10.126-34.063z"/><path d="m250.959 358.509h-2.007c-.787-3.249-2.068-6.307-3.768-9.083l1.423-1.423c2.929-2.929 2.929-7.678 0-10.606-2.929-2.929-7.678-2.929-10.606 0l-1.423 1.423c-2.777-1.7-5.835-2.98-9.083-3.768v-2.007c0-4.142-3.358-7.5-7.5-7.5s-7.5 3.358-7.5 7.5v2.007c-3.249.787-6.307 2.068-9.083 3.768l-1.423-1.423c-2.929-2.929-7.678-2.929-10.606 0-2.929 2.929-2.929 7.678 0 10.606l1.423 1.423c-1.7 2.777-2.981 5.835-3.768 9.083h-2.007c-4.142 0-7.5 3.358-7.5 7.5s3.358 7.5 7.5 7.5h2.007c.787 3.249 2.068 6.307 3.768 9.084l-1.423 1.423c-2.929 2.929-2.929 7.678 0 10.606 1.464 1.464 3.384 2.197 5.303 2.197s3.839-.732 5.303-2.197l1.423-1.423c2.777 1.7 5.835 2.981 9.084 3.768v2.007c0 4.142 3.358 7.5 7.5 7.5s7.5-3.358 7.5-7.5v-2.007c3.249-.787 6.307-2.068 9.084-3.768l1.423 1.423c1.464 1.464 3.384 2.197 5.303 2.197s3.839-.732 5.303-2.197c2.929-2.929 2.929-7.678 0-10.606l-1.423-1.423c1.7-2.777 2.981-5.835 3.768-9.084h2.007c4.142 0 7.5-3.358 7.5-7.5s-3.36-7.5-7.502-7.5zm-32.965 24.358c-9.295 0-16.858-7.563-16.858-16.858s7.563-16.857 16.858-16.857 16.858 7.562 16.858 16.857-7.563 16.858-16.858 16.858z"/><path d="m125.776 166.452h4.566c4.142 0 7.5-3.358 7.5-7.5s-3.358-7.5-7.5-7.5h-4.566c-4.142 0-7.5 3.358-7.5 7.5s3.358 7.5 7.5 7.5z"/><path d="m144.778 187.76h3.653c4.142 0 7.5-3.358 7.5-7.5s-3.358-7.5-7.5-7.5h-3.653c-4.142 0-7.5 3.358-7.5 7.5s3.358 7.5 7.5 7.5z"/><path d="m80.469 178.567h7.68c1.219 7.875 4.333 15.129 8.85 21.294l-5.452 5.452c-2.929 2.929-2.929 7.678 0 10.606 1.464 1.464 3.384 2.197 5.303 2.197s3.839-.732 5.303-2.197l5.452-5.452c6.165 4.517 13.419 7.631 21.294 8.85v7.68c0 4.142 3.358 7.5 7.5 7.5s7.5-3.358 7.5-7.5v-7.68c7.875-1.219 15.129-4.333 21.294-8.85l5.452 5.452c1.464 1.464 3.384 2.197 5.303 2.197s3.839-.732 5.303-2.197c2.929-2.929 2.929-7.678 0-10.606l-5.452-5.452c4.517-6.165 7.631-13.419 8.85-21.294h7.68c4.142 0 7.5-3.358 7.5-7.5s-3.358-7.5-7.5-7.5h-7.68c-1.219-7.875-4.333-15.129-8.85-21.294l5.452-5.452c2.929-2.929 2.929-7.678 0-10.606-2.929-2.93-7.678-2.929-10.606 0l-5.452 5.452c-6.165-4.518-13.419-7.631-21.294-8.85v-7.68c0-4.142-3.358-7.5-7.5-7.5s-7.5 3.358-7.5 7.5v7.68c-7.875 1.219-15.13 4.333-21.294 8.85l-5.452-5.452c-2.928-2.93-7.677-2.929-10.606 0s-2.929 7.677 0 10.606l5.452 5.452c-4.517 6.165-7.631 13.419-8.85 21.294h-7.68c-4.142 0-7.5 3.358-7.5 7.5s3.358 7.5 7.5 7.5zm55.931-41.328c18.653 0 33.828 15.175 33.828 33.828s-15.175 33.828-33.828 33.828-33.828-15.175-33.828-33.828 15.175-33.828 33.828-33.828z"/><path d="m407.325 352.576c0-4.142-3.358-7.5-7.5-7.5h-4.689c-4.142 0-7.5 3.358-7.5 7.5s3.358 7.5 7.5 7.5h4.689c4.142 0 7.5-3.358 7.5-7.5z"/><path d="m412.811 369.605h-4.329c-4.142 0-7.5 3.358-7.5 7.5s3.358 7.5 7.5 7.5h4.329c4.142 0 7.5-3.358 7.5-7.5s-3.358-7.5-7.5-7.5z"/><path d="m459.938 359.733h-8.044c-1.236-8.166-4.463-15.685-9.163-22.055l5.707-5.707c2.929-2.929 2.929-7.678 0-10.606-2.929-2.929-7.678-2.929-10.606 0l-5.707 5.707c-6.37-4.7-13.889-7.927-22.055-9.164v-8.044c0-4.142-3.358-7.5-7.5-7.5s-7.5 3.358-7.5 7.5v8.044c-8.166 1.237-15.686 4.463-22.055 9.164l-5.707-5.707c-2.929-2.929-7.678-2.929-10.606 0-2.929 2.929-2.929 7.678 0 10.606l5.707 5.707c-4.7 6.37-7.927 13.889-9.163 22.055h-8.046c-4.142 0-7.5 3.358-7.5 7.5s3.358 7.5 7.5 7.5h8.044c1.236 8.166 4.463 15.685 9.163 22.055l-5.708 5.708c-2.929 2.929-2.929 7.678 0 10.606 1.464 1.464 3.384 2.197 5.303 2.197s3.839-.732 5.303-2.197l5.708-5.708c6.37 4.7 13.889 7.927 22.055 9.163v8.044c0 4.142 3.358 7.5 7.5 7.5s7.5-3.358 7.5-7.5v-8.044c8.166-1.236 15.685-4.463 22.055-9.163l5.708 5.708c1.464 1.464 3.384 2.197 5.303 2.197s3.839-.732 5.303-2.197c2.929-2.929 2.929-7.678 0-10.606l-5.708-5.708c4.7-6.37 7.927-13.889 9.163-22.055h8.044c4.142 0 7.5-3.358 7.5-7.5s-3.356-7.5-7.498-7.5zm-57.369 42.39c-19.238 0-34.89-15.651-34.89-34.89s15.651-34.89 34.89-34.89 34.89 15.652 34.89 34.89-15.652 34.89-34.89 34.89z"/></g></g></svg>