<svg id="Capa_1" enable-background="new 0 0 512.01 512.01" height="512" viewBox="0 0 512.01 512.01" width="512" xmlns="http://www.w3.org/2000/svg"><g><g><path d="m404.879 146.131 1.113 16.997-168.576 39.694-4.45 12.25 80.53 122.652h76.792l21.898-12.702 35.65-28.28c11.02-8.75 18.85-20.89 22.26-34.54l33.101-24.405c.823-.607 1.309-1.569 1.309-2.592v-126.781z" fill="#ffeee6"/><g><path d="m314.345 367.882c.57.46 1.12.95 1.64 1.46l9.54 7.75c4.55 3.69 10.01 5.48 15.44 5.48 7.4 0 14.74-3.34 19.57-9.73 7.55-9.97 6.32-23.92-2.54-32.44 0 0-.5-.49 0 0l9.89 8.07c4.52 3.69 9.97 5.48 15.38 5.48 7.09 0 14.11-3.07 18.92-9 8.55-10.53 6.86-26.01-3.76-34.44l-114.177-90.65-47.915-30.787 30.485-47.445 45.905 29.495 9.773-13.124-66.22-39.54-6.218-3.749c-3.496-2.108-7.5-3.221-11.582-3.221h-70.4c-9.98 0-19.7 3.13-27.8 8.96l-19.28 13.87c-3.49 2.51-8.11 2.77-11.85.68l-93.165-52.081c-3.797-2.122-8.476.622-8.476 4.972v140.806c0 5.718 2.814 11.07 7.524 14.312l27.886 19.192 3.37 8.07c4.62 11.07 12.09 20.74 21.65 28l172.12 130.91c10.03 7.63 24.33 5.65 31.91-4.4 3.09-4.09 4.58-8.9 4.58-13.68 0-6.53-2.8-13-8.17-17.46l-.23-.2c.08.06.15.13.23.2l15.15 12.3c4.54 3.68 10 5.48 15.43 5.48 7.12 0 14.18-3.09 19.02-9.05 8.08-9.95 7.06-24.31-1.99-33.03" fill="#ffdfcf"/><g><path d="m236.333 189.075 30.485-47.445 45.905 29.495 9.773-13.124-66.22-39.54-6.218-3.749c-3.285-1.98-7.02-3.07-10.846-3.196l-51.467 31.047c-10.004 6.028-16.965 16.077-19.102 27.589-1.998 10.844-5.076 27.515-7.678 41.503-4.079 22.071 9.874 43.48 31.687 48.722l.697.171c3.168.759 6.419 1.145 9.662 1.145h.002c17.341 0 32.972-10.961 38.893-27.276l2.985-8.227c2.406-6.631 7.993-11.601 14.859-13.218l10.082-2.374z" fill="#ffcebf"/><path d="m499.743 82.779-96.558 52.672c-3.33 1.82-7.42 1.57-10.5-.65l-19.95-14.35c-8.1-5.83-17.82-8.96-27.8-8.96h-70.4c-4.08 0-8.08 1.11-11.58 3.22l-67.47 40.7c-6.34 3.82-10.74 10.18-12.09 17.46-2 10.85-5.08 27.53-7.68 41.51-2.63 14.23 6.33 28.02 20.52 31.43l.61.15c13.06 3.13 26.38-4.04 30.96-16.66l4.84-13.34.32-.89 4.45-12.25 21.299-5.015 245.791-57.875v-54.325c0-2.444-2.616-3.997-4.762-2.827z" fill="#ffeee6"/></g><g><circle cx="322.493" cy="109.674" fill="#b0e7c9" r="17.223"/></g><g><circle cx="407.641" cy="209.862" fill="#f79595" r="21.481"/></g><g><circle cx="56.911" cy="191.989" fill="#a8d3d8" r="21.481"/></g></g><g><path d="m250.021 409.093-172.12-130.91c-9.56-7.26-17.03-16.93-21.65-28l-3.37-8.07-45.376-36.479v23.063c0 5.718 2.814 11.07 7.524 14.312l27.886 19.192 3.37 8.07c4.62 11.07 12.09 20.74 21.65 28l172.12 130.91c10.03 7.63 24.33 5.65 31.91-4.4 3.09-4.09 4.58-8.9 4.58-13.68 0-.427-.013-.853-.037-1.279-7.849 5.309-18.512 5.337-26.487-.729z" fill="#ffcebf"/></g><path d="m221.012 414.698 3.761-4.634c12.068-14.869 9.79-36.785-5.12-48.887-3.944-3.202-8.543-5.478-13.421-6.708-.472-10.276-5.018-20.173-13.416-26.989l-.089-.074c-3.846-3.121-8.311-5.401-13.07-6.742.493-10.786-3.96-21.672-12.999-29.009-6.245-5.07-14.109-7.862-22.145-7.862-3.109 0-6.154.415-9.08 1.192-2.274-4.172-5.37-7.978-9.274-11.147l-.118-.097c-6.714-5.449-15.167-8.45-23.803-8.45-11.483 0-22.205 5.12-29.416 14.048l-11.025 13.652c1.936 1.872 3.98 3.639 6.138 5.278z" fill="#ffcebf"/><g fill="#ffeee6"><path d="m105.382 335.453 14.584-17.968c7.933-9.773 6.441-24.127-3.333-32.06l-.044-.036c-9.791-7.947-24.173-6.434-32.095 3.377l-14.541 18.004c-8.172 10.119-6.232 25.015 4.259 32.704 9.801 7.182 23.512 5.413 31.17-4.021z"/><path d="m135.196 362.525 25.015-30.82c7.016-8.645 5.697-21.34-2.948-28.357l-.058-.047c-8.656-7.026-21.371-5.692-28.38 2.977l-24.957 30.866c-7.315 9.046-5.475 22.389 4.014 29.119 8.668 6.149 20.618 4.513 27.314-3.738z"/><path d="m172.528 388.043 13.151-16.202c8.333-10.266 7.274-24.931-2.366-32.755l-.039-.032c-9.657-7.838-24.257-5.835-32.58 4.47l-13.112 16.234c-8.57 10.611-7.095 25.788 3.242 33.352 9.689 7.091 23.647 4.86 31.704-5.067z"/><path d="m199.222 417.742 13.904-17.131c6.867-8.461 5.576-20.887-2.885-27.755l-.041-.033c-8.475-6.879-20.925-5.57-27.784 2.922l-13.864 17.164c-7.084 8.771-5.392 21.684 3.713 28.333 8.484 6.196 20.336 4.657 26.957-3.5z"/></g><path d="m88.062 313.727 14.539-18.003c4.128-5.111 10.039-7.945 16.11-8.387-.642-.666-1.343-1.313-2.08-1.91l-.044-.036c-9.791-7.947-24.173-6.434-32.095 3.377l-14.539 18.002c-8.172 10.119-6.232 25.015 4.259 32.704 4.531 3.32 9.928 4.725 15.146 4.347-7.784-8.117-8.616-21.03-1.296-30.094z" fill="#ffdfcf"/><path d="m121.977 344.103 24.957-30.866c3.368-4.166 8.082-6.613 13.002-7.277-.791-.929-1.69-1.813-2.672-2.61l-.058-.047c-8.656-7.026-21.371-5.692-28.38 2.977l-24.957 30.866c-7.315 9.046-5.475 22.389 4.014 29.119 4.335 3.075 9.492 4.202 14.401 3.528-6.105-7.198-6.531-17.993-.307-25.69z" fill="#ffdfcf"/><path d="m155.691 366.716 13.112-16.234c4.407-5.457 10.625-8.572 16.886-9.145-.716-.789-1.525-1.561-2.375-2.251l-.039-.032c-9.657-7.838-24.257-5.835-32.58 4.47l-13.112 16.234c-8.57 10.611-7.095 25.788 3.242 33.352 4.395 3.216 9.705 4.511 14.908 4.043-7.302-8.103-7.616-21.059-.042-30.437z" fill="#ffdfcf"/><path d="m186.661 399.866 13.864-17.164c3.246-4.019 7.759-6.401 12.495-7.096-.816-.985-1.748-1.913-2.779-2.75l-.041-.033c-8.475-6.879-20.925-5.57-27.784 2.922l-13.864 17.164c-7.084 8.771-5.392 21.684 3.713 28.333 4.349 3.176 9.611 4.316 14.571 3.577-5.826-7.05-6.198-17.496-.175-24.953z" fill="#ffdfcf"/></g><g><path d="m462.707 110.49c1.213 0 2.444-.295 3.585-.917l41.809-22.806c3.636-1.983 4.976-6.539 2.992-10.175-1.983-3.635-6.536-4.976-10.176-2.993l-41.809 22.806c-3.636 1.983-4.976 6.539-2.992 10.175 1.362 2.495 3.935 3.91 6.591 3.91z"/><path d="m365.177 124.484c1.157.678 2.196 1.35 3.177 2.055l19.947 14.349c3.003 2.159 6.58 3.255 10.168 3.255 2.859 0 5.726-.697 8.312-2.107l31.444-17.153c3.636-1.983 4.976-6.539 2.992-10.176-1.982-3.635-6.537-4.976-10.176-2.992l-31.444 17.153c-.8.437-1.797.375-2.537-.158l-19.946-14.348c-1.347-.969-2.813-1.919-4.36-2.824-3.574-2.093-8.169-.891-10.261 2.684-2.093 3.575-.891 8.169 2.684 10.262z"/><path d="m500.059 230.793-34.41 25.368c-1.404 1.035-2.403 2.526-2.826 4.218-2.995 11.981-9.974 22.808-19.648 30.483l-31.232 24.778c-2.057-4.234-5.054-7.988-8.854-11.005l-86.912-69c-3.243-2.575-7.961-2.033-10.537 1.21-2.575 3.244-2.033 7.962 1.211 10.538l86.912 69c3.556 2.822 5.785 6.862 6.278 11.375s-.812 8.938-3.674 12.462c-2.843 3.501-6.88 5.683-11.366 6.143-4.482.461-8.883-.854-12.38-3.706l-54.645-44.542c-3.217-2.611-7.939-2.121-10.551 1.094s-2.121 7.938 1.094 10.55l44.539 36.3c5.944 5.955 6.692 15.397 1.499 22.262-2.811 3.715-6.905 6.069-11.529 6.629-4.631.558-9.162-.75-12.777-3.686l-44.153-35.859c-3.217-2.612-7.939-2.121-10.551 1.094-2.611 3.215-2.121 7.938 1.094 10.55l34.358 27.904c2.737 2.739 4.448 6.298 4.859 10.204.476 4.522-.841 8.956-3.707 12.485-5.904 7.27-16.622 8.382-23.892 2.477l-33.549-27.241c-3.22-2.612-7.94-2.119-10.55 1.097s-2.119 7.939 1.097 10.55l18.217 14.79c6.349 5.202 7.457 14.388 2.509 20.949-2.457 3.258-6.035 5.359-10.077 5.917-4.045.558-8.057-.495-11.304-2.965l-24.859-18.906c8.556-11.621 6.545-28.089-4.815-37.31-4.738-3.846-10.495-5.939-16.496-6.075 1.538-10.281-2.021-20.869-10.344-27.624-.015-.013-.069-.058-.085-.07-4.826-3.917-10.707-6.125-16.91-6.423 3.036-10.382-.205-22.061-9.158-29.328-5.743-4.663-12.953-6.809-20.316-6.033-3.662.384-7.14 1.468-10.284 3.169-1.658-5.703-4.995-10.972-9.936-14.982-.013-.01-.069-.057-.081-.066-6.294-5.107-14.194-7.455-22.26-6.606-8.061.848-15.305 4.788-20.397 11.094l-6.479 8.022c-8.353-6.435-14.913-14.966-18.977-24.7l-3.369-8.069c-.556-1.33-1.481-2.472-2.669-3.289l-35.41-24.368c-3.413-2.349-8.082-1.485-10.431 1.926-2.348 3.413-1.485 8.082 1.927 10.43l33.592 23.117 2.519 6.032c5.035 12.059 13.142 22.634 23.462 30.641-4.323 6.189-6.161 13.635-5.175 21.203 1.079 8.291 5.388 15.579 12.132 20.522 5.395 3.953 11.67 5.869 17.896 5.869 1.422 0 2.84-.111 4.246-.309.038.839.107 1.678.223 2.514 1.038 7.537 5.193 14.384 11.399 18.785 4.825 3.422 10.413 5.078 15.961 5.078 1.697 0 3.389-.164 5.056-.471.042.774.102 1.548.203 2.319 1.056 8.087 5.187 15.138 11.632 19.855 5.157 3.774 11.188 5.596 17.248 5.596 1.011 0 2.022-.059 3.03-.16-.032 1.404.042 2.822.229 4.245.978 7.462 4.863 14.015 10.94 18.453 4.838 3.534 10.464 5.246 16.048 5.246 7.937 0 15.787-3.462 21.155-10.076l5.265-6.486 25.21 19.173c5.317 4.044 11.67 6.174 18.235 6.174 1.393 0 2.796-.096 4.2-.29 8.022-1.108 15.126-5.279 20.002-11.745 3.256-4.318 5.183-9.209 5.857-14.194 4.737 2.55 9.939 3.806 15.121 3.805 9.309 0 18.546-4.035 24.858-11.807 4.36-5.369 6.813-11.85 7.124-18.631 3.199 1.061 6.557 1.612 9.981 1.612 1.303 0 2.616-.079 3.932-.238 8.699-1.053 16.402-5.482 21.689-12.471 4.02-5.314 6.142-11.45 6.476-17.612 3.269 1.116 6.712 1.697 10.222 1.697 1.1 0 2.206-.057 3.315-.17 8.478-.871 16.105-4.993 21.479-11.609 4.172-5.137 6.584-11.291 7.044-17.751.625-.26 37.441-29.312 37.441-29.312 11.528-9.146 20.032-21.823 24.155-35.929l32.308-23.818c3.334-2.458 4.045-7.153 1.587-10.487s-7.158-4.043-10.491-1.585zm-421.413 102.632c-3.404-2.495-5.58-6.174-6.125-10.36-.545-4.185.615-8.299 3.268-11.583l14.539-18.003c2.571-3.184 6.228-5.172 10.297-5.601.546-.058 1.09-.086 1.632-.086 3.493 0 6.85 1.184 9.568 3.391.013.01.068.057.081.066 5.995 4.865 7.325 13.36 3.43 19.786l-16.969 20.985c-5.283 5.177-13.618 5.877-19.721 1.405zm33.575 26.722c-2.883-2.044-4.735-5.098-5.218-8.598-.477-3.462.459-6.863 2.629-9.595.54-.569 1.069-1.155 1.572-1.774l14.584-17.968c.667-.822 1.283-1.668 1.85-2.536l7.02-8.682c2.129-2.633 5.155-4.277 8.523-4.63.448-.047.896-.07 1.342-.07 2.895 0 5.686.988 8.014 2.878 2.626 2.131 4.264 5.157 4.614 8.52s-.632 6.661-2.763 9.287l-25.015 30.82c-4.192 5.166-11.726 6.196-17.152 2.348zm33.032 26.912c-3.103-2.271-5.098-5.712-5.616-9.691-.587-4.495.791-9.195 3.78-12.896l13.111-16.234c2.902-3.594 7.084-5.92 11.471-6.381.545-.057 1.086-.085 1.623-.085 3.303 0 6.419 1.073 8.879 3.069.015.013.069.058.085.07 6.413 5.205 6.982 15.166 1.27 22.205l-1.976 2.435c-.447.479-.884.97-1.299 1.484l-10.378 12.849c-5.603 6.346-14.66 7.778-20.95 3.175zm48.146 25.957c-4.107 5.06-11.447 6.012-16.711 2.169-2.729-1.994-4.475-4.937-4.913-8.289-.439-3.352.488-6.646 2.612-9.275l3.212-3.977c.252-.29.508-.575.752-.875l10.794-13.299c1.972-1.966 4.532-3.196 7.341-3.491.435-.046.868-.068 1.3-.068 2.797 0 5.491.954 7.728 2.769 5.236 4.25 6.039 11.969 1.789 17.205z"/><path d="m76.045 125.089 29.436 16.455c2.81 1.57 5.93 2.346 9.043 2.346 3.824 0 7.639-1.171 10.849-3.48l19.284-13.871c6.863-4.937 14.96-7.547 23.416-7.547 0 0 72.081.08 72.904.22l-49.365 29.776c-8.172 4.93-13.854 13.138-15.587 22.521-2.004 10.85-5.086 27.524-7.679 41.506-3.367 18.154 8.113 35.763 26.137 40.088l.615.147c2.653.637 5.313.943 7.938.943 13.964-.001 26.861-8.676 31.817-22.33l8.284-22.821 11.508-3.105 27.16 21.563c1.379 1.095 3.024 1.626 4.658 1.626 2.209 0 4.398-.972 5.879-2.837 2.575-3.244 2.033-7.962-1.211-10.538l-18.482-14.673 8.115-2.19c3.999-1.079 6.366-5.196 5.287-9.195-1.078-3.999-5.192-6.365-9.195-5.287l-41.393 11.169c-2.36.637-4.262 2.384-5.096 4.682l-9.614 26.487c-3.281 9.04-12.812 14.164-22.154 11.919l-.615-.147c-10.261-2.462-16.801-12.462-14.89-22.767 2.595-13.986 5.677-30.665 7.681-41.517.955-5.166 4.084-9.686 8.585-12.401l67.47-40.697c2.325-1.402 4.989-2.144 7.705-2.144h.781c4.143 0 7.5-3.358 7.5-7.5s-3.357-7.5-7.5-7.5h-.781c-5.445 0-10.789 1.486-15.452 4.299l-2.577 1.555-2.578-1.555c-4.662-2.813-10.006-4.299-15.451-4.299h-70.403c-11.619 0-22.745 3.586-32.176 10.37l-19.283 13.871c-1.116.804-2.614.888-3.814.218l-29.436-16.455c-3.618-2.021-8.186-.729-10.206 2.887s-.73 8.187 2.886 10.208z"/><path d="m3.842 84.729 44.29 24.757c1.158.647 2.413.955 3.652.955 2.629 0 5.18-1.385 6.554-3.842 2.021-3.616.729-8.185-2.888-10.207l-44.29-24.757c-3.618-2.023-8.186-.728-10.206 2.887-2.02 3.616-.728 8.186 2.888 10.207z"/><path d="m298.932 117.162c.428 1.344.971 2.637 1.613 3.872-2.758 2.94-2.709 7.556.162 10.427 1.465 1.464 3.385 2.197 5.304 2.197 1.843 0 3.683-.683 5.124-2.034 1.234.641 2.527 1.185 3.871 1.613.134 4.025 3.43 7.248 7.487 7.248s7.354-3.224 7.487-7.248c1.344-.428 2.637-.971 3.871-1.613 1.441 1.351 3.281 2.034 5.124 2.034 1.919 0 3.839-.732 5.304-2.197 2.871-2.871 2.92-7.487.162-10.427.642-1.234 1.185-2.527 1.613-3.872 4.025-.134 7.248-3.43 7.248-7.487s-3.223-7.353-7.248-7.487c-.428-1.345-.972-2.638-1.613-3.872 2.758-2.94 2.708-7.555-.162-10.426-2.872-2.87-7.488-2.92-10.427-.163-1.234-.641-2.527-1.185-3.872-1.613-.134-4.024-3.43-7.248-7.487-7.248s-7.353 3.224-7.487 7.248c-1.345.428-2.638.972-3.872 1.613-2.939-2.758-7.555-2.708-10.427.163-2.871 2.871-2.92 7.486-.162 10.426-.641 1.234-1.185 2.527-1.613 3.872-4.025.134-7.248 3.43-7.248 7.487s3.223 7.353 7.248 7.487zm23.562-17.211c5.361 0 9.724 4.362 9.724 9.724 0 5.361-4.362 9.723-9.724 9.723s-9.724-4.362-9.724-9.723c0-5.362 4.362-9.724 9.724-9.724z"/><path d="m436.712 217.362c4.143 0 7.5-3.358 7.5-7.5s-3.357-7.5-7.5-7.5h-1.08c-.663-2.473-1.648-4.814-2.904-6.981l.772-.772c2.93-2.929 2.93-7.677.001-10.606s-7.678-2.93-10.606-.001l-.773.773c-2.167-1.256-4.508-2.241-6.981-2.904v-1.08c0-4.142-3.357-7.5-7.5-7.5s-7.5 3.358-7.5 7.5v1.08c-2.473.663-4.814 1.648-6.981 2.904l-.772-.772c-2.93-2.929-7.678-2.929-10.607 0s-2.929 7.678 0 10.606l.772.772c-1.256 2.167-2.241 4.508-2.904 6.981h-1.079c-4.143 0-7.5 3.358-7.5 7.5s3.357 7.5 7.5 7.5h1.079c.663 2.473 1.648 4.814 2.904 6.981l-.772.772c-2.929 2.929-2.929 7.678 0 10.606 1.465 1.464 3.385 2.197 5.304 2.197s3.839-.732 5.304-2.197l.772-.772c2.167 1.256 4.508 2.24 6.981 2.904v1.08c0 4.142 3.357 7.5 7.5 7.5s7.5-3.358 7.5-7.5v-1.08c2.473-.663 4.814-1.648 6.981-2.904l.773.773c1.465 1.464 3.384 2.196 5.303 2.196s3.84-.732 5.304-2.197c2.929-2.929 2.929-7.678-.001-10.606l-.772-.772c1.256-2.167 2.24-4.508 2.904-6.981zm-29.071 6.481c-7.709 0-13.981-6.272-13.981-13.981s6.272-13.981 13.981-13.981 13.98 6.272 13.98 13.981-6.271 13.981-13.98 13.981z"/><path d="m49.412 162.917v1.08c-2.473.663-4.814 1.648-6.98 2.904l-.773-.773c-2.93-2.928-7.679-2.929-10.606 0-2.93 2.929-2.93 7.678-.001 10.607l.773.773c-1.255 2.167-2.24 4.508-2.904 6.98h-1.08c-4.143 0-7.5 3.358-7.5 7.5s3.357 7.5 7.5 7.5h1.08c.663 2.473 1.648 4.814 2.904 6.98l-.773.773c-2.929 2.929-2.929 7.678 0 10.606 1.465 1.464 3.385 2.197 5.304 2.197s3.839-.732 5.304-2.197l.772-.772c2.167 1.256 4.508 2.241 6.98 2.904v1.08c0 4.142 3.357 7.5 7.5 7.5s7.5-3.358 7.5-7.5v-1.08c2.473-.663 4.814-1.648 6.98-2.904l.772.772c1.465 1.464 3.385 2.197 5.304 2.197s3.839-.732 5.304-2.197c2.929-2.929 2.929-7.678 0-10.606l-.773-.773c1.255-2.167 2.24-4.508 2.904-6.98h1.08c4.143 0 7.5-3.358 7.5-7.5s-3.357-7.5-7.5-7.5h-1.08c-.663-2.473-1.648-4.814-2.904-6.98l.773-.773c2.929-2.929 2.929-7.678-.001-10.607-2.928-2.929-7.677-2.928-10.606 0l-.773.773c-2.167-1.255-4.508-2.24-6.98-2.904v-1.08c0-4.142-3.357-7.5-7.5-7.5s-7.5 3.358-7.5 7.5zm21.48 29.072c0 7.709-6.271 13.981-13.98 13.981s-13.98-6.272-13.98-13.981 6.271-13.98 13.98-13.98 13.98 6.271 13.98 13.98z"/></g></g></svg>