<svg id="Capa_1" enable-background="new 0 0 512.369 512.369" height="512" viewBox="0 0 512.369 512.369" width="512" xmlns="http://www.w3.org/2000/svg"><g><g><path d="m453.443 495.514v-69.281h-141.675v69.281c0 5.091 4.127 9.219 9.219 9.219h123.238c5.091 0 9.218-4.127 9.218-9.219z" fill="#ffdfcf"/><path d="m200.601 499.042v-78.809h-141.676v78.809c0 3.143 2.548 5.691 5.691 5.691h130.294c3.143 0 5.691-2.548 5.691-5.691z" fill="#ffdfcf"/><g><g id="XMLID_222_"><g><path d="m207.009 92.273c0-13.58 11.01-24.58 24.59-24.58 6.79 0 12.94 2.75 17.38 7.2 4.45 4.44 7.2 10.59 7.2 17.38v89.48 106.47c0 18.76-7 36.86-19.64 50.73l-18.66 20.48 3.13 84.28c.17 4.65-3.55 8.52-8.21 8.52h-165.51c-4.62 0-8.33-3.81-8.21-8.42l2.37-94.58-2.37-44.25 20.42-37.56v-108.56-99.04c0-6.79 2.75-12.93 7.2-17.38 4.44-4.45 10.59-7.2 17.38-7.2 13.58 0 24.59 11 24.59 24.58v-27.6c0-13.58 11.01-24.59 24.58-24.59 6.79 0 12.94 2.75 17.39 7.2s7.2 10.6 7.2 17.39v33.12c0-13.58 11.01-24.58 24.59-24.58 6.79 0 12.93 2.75 17.38 7.2s7.2 10.59 7.2 17.38z" fill="#b0e7c9"/></g></g><g><path d="m88.654 256.167h-29.155v11.256l-20.42 37.56 2.37 44.25-2.37 94.58c-.12 4.61 3.59 8.42 8.21 8.42h29.155c-4.62 0-8.33-3.81-8.21-8.42l2.37-94.58-2.37-44.25 20.42-37.56z" fill="#91deb6"/></g><path d="m59.499 181.757c11.505 0 20.831-9.326 20.831-20.831v-108.663c0-6.521 2.542-12.439 6.685-16.84-.963-.115-1.942-.18-2.936-.18-6.79 0-12.94 2.75-17.38 7.2-4.45 4.45-7.2 10.59-7.2 17.38v99.04z" fill="#91deb6"/><path d="m129.501 133.763v-111.663c0-5.403 1.748-10.388 4.703-14.443-.317-.012-.634-.024-.954-.024-13.567 0-24.574 11.005-24.58 24.58v99.487 22.894c11.504 0 20.831-9.327 20.831-20.831z" fill="#91deb6"/><g id="XMLID_224_"><g><path d="m403.699 59.823c0-13.58 11.01-24.58 24.59-24.58 6.79 0 12.93 2.75 17.38 7.2s7.2 10.59 7.2 17.38v99.04 82.17l20.42 64.85-2.37 43.35 2.37 94.58c.12 4.61-3.59 8.42-8.21 8.42h-165.51c-4.66 0-8.38-3.87-8.21-8.52l3.13-84.28-18.66-20.48c-12.64-13.87-19.65-31.97-19.65-50.73v-106.47-89.48c0-6.79 2.75-12.94 7.2-17.38 4.45-4.45 10.6-7.2 17.39-7.2 13.58 0 24.59 11 24.59 24.58v-26.93c0-6.79 2.75-12.93 7.2-17.38 4.44-4.45 10.59-7.2 17.38-7.2 13.58 0 24.59 11 24.59 24.58v-33.12c0-6.79 2.75-12.94 7.2-17.39s10.6-7.2 17.39-7.2c13.57 0 24.58 11.01 24.58 24.59z" fill="#b0e7c9"/></g></g><g fill="#91deb6"><path d="m312.896 343.234-10.789-11.841c-12.64-13.87-19.65-31.97-19.65-50.73v-198.95c0-4.367 1.52-9.493 3.658-13.438-1.719-.38-3.513-.582-5.346-.582-6.79 0-12.94 2.75-17.39 7.2-4.45 4.44-7.2 10.59-7.2 17.38v195.95c0 18.76 7.01 36.86 19.65 50.73l18.66 20.48-3.13 84.28c-.17 4.65 3.55 8.52 8.21 8.52h18.163l2.682-88.678c.226-7.493-2.47-14.78-7.518-20.321z"/><path d="m331.638 52.848c0-3.742 1.129-8.04 2.793-11.676-1.454-.268-2.96-.409-4.492-.409-6.79 0-12.94 2.75-17.38 7.2-4.44 4.44-7.186 10.562-7.199 17.334v89.297c14.513 0 26.278-11.765 26.278-26.278z"/><path d="m380.859 21.653c0-4.361 1.532-9.481 3.665-13.423-.936-.21-1.906-.369-2.88-.468-.036-.004-.073-.005-.109-.009-.373-.036-.748-.066-1.126-.086-.208-.01-.418-.012-.627-.017-.213-.006-.424-.016-.638-.016-6.779.007-12.92 2.755-17.364 7.199-4.45 4.44-7.2 10.59-7.2 17.38v122.186c14.513 0 26.278-11.765 26.278-26.278v-106.468z"/><path d="m430.104 46.469c0-3.466.981-7.407 2.445-10.859-1.379-.24-2.811-.368-4.26-.368-12.732 0-23.205 9.669-24.463 22.068v95.905c14.513 0 26.278-11.765 26.278-26.278z"/></g></g><g id="XMLID_221_"><g><path d="m105.915 335.533c16.874 0 30.81-13.537 30.894-30.411.001-.111.001-.222.001-.333v-1.558c0-15.056-3.66-29.977-10.584-43.152-9.257-17.613-22.412-32.797-38.417-44.442-3.535-2.572-5.629-6.677-5.629-11.049v-33.212c0-11.025-3.558-21.842-10.496-30.41-3.508-4.332-7.636-7.905-12.184-10.692v28.588 108.56l-20.42 37.56 1.636 30.55h65.199z" fill="#91deb6"/><path d="m116.809 303.231v1.558c0 26.287-22.031 47.206-48.283 45.846l-27.077-1.403-20.45-19.18c-8.61-8.08-13.5-19.36-13.5-31.17v-75.88-51.761c0-14.976 11.813-27.587 26.786-27.883 7.77-.154 14.813 2.934 19.884 8.005 4.95 4.95 8.01 11.78 8.01 19.33v52.31l5.7 3.41c17.36 10.396 31.363 25.316 40.642 42.972 5.483 10.431 8.288 22.062 8.288 33.846z" fill="#b0e7c9"/><path d="m51.818 334.383c-8.61-8.08-13.5-19.36-13.5-31.17v-75.88-51.761c0-10.763 6.111-20.304 15.103-24.93-5.004-4.637-11.744-7.43-19.135-7.283-14.973.296-26.786 12.907-26.786 27.883v51.761 75.88c0 11.81 4.89 23.09 13.5 31.17l20.45 19.18 27.077 1.403c.214.011 1.827.083 2.04.091z" fill="#91deb6"/></g></g><path d="m157.899 154.594c11.505 0 20.831-9.326 20.831-20.831v-81.96c0-3.963.943-7.7 2.609-11.012-12.531.547-22.623 10.462-23.44 22.92z" fill="#91deb6"/><path d="m207.092 154.594c11.505 0 20.831-9.326 20.831-20.831v-54.098c0-4.345 1.142-8.427 3.121-11.966-12.67.286-22.979 10.151-23.952 22.639z" fill="#91deb6"/><g id="XMLID_223_"><g><path d="m471.668 335.533 1.621-29.65-20.42-64.85v-82.17-28.595c-3.166 1.94-6.126 4.261-8.813 6.953-8.942 8.943-13.867 20.83-13.867 33.472v41.073c-23.709 15.416-41.866 38.354-51.388 65.058-2.152 6.035-3.243 12.392-3.243 18.894 0 .143 0 .286.001.43.126 21.846 18.118 39.386 39.965 39.386h56.144z" fill="#91deb6"/><path d="m504.869 223.003v75.88c0 11.81-4.89 23.09-13.5 31.17l-20.45 19.18-24.168-.738c-28.522-.87-51.192-24.243-51.192-52.778 0-4.147.688-8.271 2.081-12.177 8.496-23.825 25.017-44.054 46.849-57.128l5.7-3.41v-52.31c0-7.55 3.06-14.38 8.01-19.33 9.246-9.265 25.148-11.908 39.903-.261 4.257 3.361 6.767 8.473 6.767 13.896z" fill="#b0e7c9"/></g></g></g><g><path d="m477.529 135.855c-6.234 0-12.087 1.654-17.155 4.535v-32.762c0-4.142-3.358-7.5-7.5-7.5s-7.5 3.358-7.5 7.5c0 0 .013 49.491.019 49.617-1.74 4.141-2.704 8.685-2.704 13.451v48.056l-2.056 1.23c-25.494 15.264-44.061 39.396-52.281 67.95-1.146 3.98 1.152 8.136 5.133 9.282s8.136-1.152 9.282-5.132c7.166-24.89 23.35-45.925 45.572-59.229l5.703-3.415c2.263-1.355 3.647-3.798 3.647-6.435v-52.307c0-10.94 8.9-19.84 19.839-19.84 10.94 0 19.84 8.9 19.84 19.84v128.184c0 9.699-4.057 19.068-11.132 25.704l-20.447 19.18c-1.56 1.463-2.42 3.521-2.367 5.658l2.371 94.578c.005.201-.063.375-.204.519-.14.144-.313.216-.513.216h-165.505c-.202 0-.376-.074-.516-.219-.141-.146-.208-.322-.201-.524l1.013-27.305c.154-4.14-3.077-7.62-7.216-7.773-4.156-.177-7.62 3.077-7.773 7.216l-1.014 27.306c-.159 4.306 1.399 8.385 4.389 11.488s7.009 4.811 11.317 4.811h4.697v45c0 4.142 3.358 7.5 7.5 7.5s7.5-3.358 7.5-7.5v-45h126.675v45c0 4.142 3.358 7.5 7.5 7.5s7.5-3.358 7.5-7.5v-45h4.134c4.272 0 8.269-1.685 11.251-4.743 2.983-3.059 4.567-7.096 4.46-11.368l-2.286-91.218 17.997-16.881c10.085-9.46 15.869-22.817 15.869-36.644v-128.186c.002-19.211-15.627-34.84-34.838-34.84z"/><path d="m286.878 362.22-.814 21.946c-.154 4.139 3.077 7.619 7.217 7.772.095.004.189.005.283.005 4.014 0 7.34-3.177 7.49-7.222l.928-25.009c.073-1.963-.627-3.876-1.95-5.329l-18.659-20.482c-11.406-12.521-17.688-28.745-17.688-45.683v-195.944c0-9.421 7.665-17.086 17.086-17.086s17.086 7.665 17.086 17.086v89.483c0 4.142 3.358 7.5 7.5 7.5s7.5-3.358 7.5-7.5v-116.411c0-9.421 7.665-17.086 17.086-17.086s17.086 7.665 17.086 17.086v116.411c0 4.142 3.358 7.5 7.5 7.5s7.5-3.358 7.5-7.5v-149.536c0-9.421 7.665-17.086 17.086-17.086s17.086 7.665 17.086 17.086v149.536c0 4.142 3.358 7.5 7.5 7.5s7.5-3.358 7.5-7.5v-121.932c0-9.421 7.665-17.086 17.086-17.086s17.086 7.665 17.086 17.086v15.84c0 4.142 3.358 7.5 7.5 7.5s7.5-3.358 7.5-7.5v-15.84c0-17.692-14.394-32.086-32.086-32.086-6.278 0-12.135 1.819-17.086 4.948v-.465c0-17.692-14.394-32.086-32.086-32.086s-32.086 14.394-32.086 32.086v5.986c-4.951-3.128-10.809-4.947-17.086-4.947-17.623 0-31.969 14.282-32.081 31.878-4.952-3.13-10.812-4.951-17.091-4.951-9.862 0-18.696 4.476-24.586 11.499-5.89-7.023-14.724-11.499-24.586-11.499-6.28 0-12.139 1.82-17.092 4.951-.112-17.597-14.458-31.879-32.081-31.879-6.278 0-12.135 1.819-17.086 4.948v-5.987c0-17.692-14.394-32.086-32.086-32.086s-32.086 14.394-32.086 32.086v.465c-4.951-3.128-10.809-4.948-17.086-4.948-17.692 0-32.086 14.394-32.086 32.086v80.565c-5.068-2.88-10.921-4.535-17.155-4.535-19.212.001-34.841 15.63-34.841 34.841v19.716c0 4.142 3.358 7.5 7.5 7.5s7.5-3.358 7.5-7.5v-19.716c0-10.94 8.9-19.84 19.839-19.84 10.94 0 19.84 8.9 19.84 19.84v52.307c0 2.637 1.385 5.08 3.647 6.435l5.703 3.415c22.222 13.305 38.406 34.34 45.572 59.23.946 3.288 3.945 5.427 7.204 5.427.687 0 1.385-.095 2.078-.294 3.98-1.146 6.278-5.302 5.133-9.282-8.221-28.555-26.788-52.686-52.281-67.95l-2.056-1.231v-48.056c0-4.747-.958-9.274-2.685-13.402v-97.469c0-9.421 7.665-17.086 17.086-17.086s17.086 7.665 17.086 17.086v121.932c0 4.142 3.358 7.5 7.5 7.5s7.5-3.358 7.5-7.5v-149.536c0-9.421 7.665-17.086 17.086-17.086s17.086 7.665 17.086 17.086v149.536c0 4.142 3.358 7.5 7.5 7.5s7.5-3.358 7.5-7.5v-116.411c0-9.421 7.665-17.086 17.086-17.086s17.086 7.665 17.086 17.086v116.411c0 4.142 3.358 7.5 7.5 7.5s7.5-3.358 7.5-7.5v-89.483c0-9.421 7.665-17.086 17.086-17.086s17.086 7.665 17.086 17.086v195.945c0 16.938-6.282 33.162-17.688 45.683l-18.659 20.482c-1.323 1.452-2.023 3.366-1.95 5.329l3.126 84.277c.007.202-.06.378-.2.524-.141.146-.314.219-.516.219h-165.504c-.201 0-.373-.073-.513-.216-.14-.144-.208-.317-.203-.519l2.371-94.578c.054-2.137-.807-4.196-2.367-5.658l-20.447-19.18c-7.075-6.635-11.132-16.004-11.132-25.703v-76.505c0-4.142-3.358-7.5-7.5-7.5s-7.5 3.358-7.5 7.5v76.505c0 13.827 5.784 27.183 15.869 36.644l17.997 16.881-2.286 91.218c-.107 4.271 1.476 8.308 4.459 11.367 2.983 3.06 6.979 4.744 11.252 4.744h4.134v45c0 4.142 3.358 7.5 7.5 7.5s7.5-3.358 7.5-7.5v-45h126.675v45c0 4.142 3.358 7.5 7.5 7.5s7.5-3.358 7.5-7.5v-45h4.697c4.309 0 8.328-1.709 11.318-4.812 2.989-3.103 4.548-7.183 4.388-11.488l-3.013-81.214 16.595-18.216c5.84-6.411 10.564-13.624 14.099-21.356 3.536 7.732 8.259 14.945 14.099 21.356z"/></g></g></svg>