<svg id="Capa_1" enable-background="new 0 0 512.099 512.099" height="512" viewBox="0 0 512.099 512.099" width="512" xmlns="http://www.w3.org/2000/svg"><g><g><path d="m443.41 70.372c10.3 5.15 15.53 16.84 12.51 27.95l-49.62 182.42-1.74 81.28c-.51 22.49-7.6 44.34-20.39 62.85l-2.26 3.28-11.2 5.06-.11 11.3-.47.68v44.41c0 8.27-6.71 14.98-14.99 14.98h-144.95c-8.28 0-14.98-6.71-14.98-14.98v-52.48c-22.31-10.64-38.24-31.24-42.92-55.51l-1.42-7.36-77.98-42.8c-11.16-6.13-17.49-17.66-17.49-29.57 0-5.37 1.28-10.81 3.99-15.87 5.85-10.94 16.93-17.39 28.59-17.78.93-.03 1.86-.02 2.79.03 4.1.21 8.22 1.19 12.17 2.98l59.92 27.24.03-.03.07.03 3.3-4.46c3.45-4.66 7.25-9.04 11.39-13.08 4.13-4.04 8.58-7.75 13.32-11.09l-56.54-207.86c-.69-2.53-1.02-5.08-1.02-7.59 0-11.81 7.3-22.78 18.86-27.05 2.89-1.07 5.84-1.65 8.75-1.77.76-.03 1.51-.03 2.27-.01 11.5.45 22.13 7.82 26.14 19.4l61.3 176.93v-.29l.1.29v-186.68c0-7.66 3.1-14.6 8.12-19.62 4.71-4.71 11.09-7.72 18.18-8.08.44-.03.88-.04 1.33-.04.47 0 .94.01 1.4.03 14.42.72 25.98 12.46 26.33 27.04l4.19 173.65.09-.56.01.56 25.69-166.68c1.9-12.28 12.21-21.07 24.03-21.6.8-.05 1.59-.04 2.4.01 1.35.07 2.71.25 4.08.54 12.52 2.72 21.09 14.29 20.02 27.06l-13.45 160.67.14-.48-.04.48 36.19-123.04c3.04-10.36 12.28-16.93 22.22-17.33.29-.01 1.07-.02 1.07-.02.33 0 3.25.25 3.25.25 2.47.36 4.95 1.12 7.33 2.31z" fill="#ffdfcf"/><path d="m373.668 207.441c14.904 0 27.977-9.942 31.959-24.304l31.02-111.892c.276-.996.619-1.966.984-2.906-1.631-.342-3.28-.51-4.906-.51-10.31 0-20.05 6.66-23.19 17.35l-34.055 115.782z" fill="#ffcebf"/><g><g id="XMLID_225_"><g><path d="m381.909 428.168-11.31 16.36.11-11.3z" fill="#ffdfcf"/></g></g><path d="m386.777 451.53-17.634-8.098c-24.754-11.369-40.619-36.113-40.619-63.353v-41.473c0-1.538 1.062-2.872 2.561-3.216l57.553-13.216c.486-.112.991-.112 1.477 0l57.553 13.216c1.499.344 2.561 1.678 2.561 3.216v41.473c0 27.24-15.865 51.984-40.619 63.353l-17.634 8.098c-1.651.758-3.549.758-5.199 0z" fill="#91deb6"/></g><path d="m190.96 269.872c13.732-11.202 19.59-29.443 14.938-46.544l-48.775-179.312c-.69-2.53-1.02-5.08-1.02-7.59 0-3.654.72-7.254 2.028-10.574-1.958.286-3.935.804-5.867 1.518-11.56 4.27-18.86 15.24-18.86 27.05 0 2.51.33 5.06 1.02 7.59l56.54 207.86c-.003.002-.008.005-.004.002z" fill="#ffcebf"/><g><path d="m223.836 423.286c0-5.56-2.922-10.675-7.641-13.613-18.28-11.381-31.152-29.927-35.279-51.326-.9-4.662-3.829-8.682-7.991-10.967l-71.409-39.193c-11.16-6.13-17.49-17.66-17.49-29.57 0-3.41.537-6.873 1.608-10.224-10.777 1.124-20.794 7.441-26.25 17.637-2.71 5.06-3.99 10.5-3.99 15.87 0 11.91 6.33 23.44 17.49 29.57l77.98 42.8 1.42 7.36c4.68 24.27 20.61 44.87 42.92 55.51v52.474c0 8.277 6.71 14.986 14.986 14.986h13.646z" fill="#ffcebf"/></g><g fill="#ffcebf"><path d="m250.824 222.014c14.183 0 25.7-11.46 25.771-25.642l.861-172.44c.011-2.622.374-5.168 1.045-7.587.857-3.091 2.23-5.982 4.003-8.569-1.287-.183-2.612-.277-3.949-.277-7.66 0-14.59 3.1-19.61 8.12s-8.12 11.96-8.069 19.624z"/><path d="m310.594 207.441c14.961 0 27.678-10.931 29.926-25.722l23.159-152.431c.392-2.593 1.122-5.059 2.137-7.354.225-.508.488-1 .741-1.491-1.745-.358-3.496-.534-5.213-.534-12.3 0-23.22 8.95-25.18 21.63z"/></g></g><g><path d="m370.025 469.349c-4.142 0-7.5 3.358-7.5 7.5v27.75c0 4.142 3.358 7.5 7.5 7.5s7.5-3.358 7.5-7.5v-27.75c0-4.142-3.358-7.5-7.5-7.5z"/><path d="m198.336 430.374c-20.069-9.579-34.567-28.333-38.781-50.168l-1.42-7.359c-.423-2.191-1.799-4.08-3.755-5.154l-35.661-19.573c-3.632-1.994-8.19-.665-10.184 2.966-1.993 3.631-.665 8.19 2.966 10.184l32.573 17.878.752 3.9c4.809 24.916 20.654 46.524 42.779 58.674v62.877c0 4.142 3.358 7.5 7.5 7.5s7.5-3.358 7.5-7.5v-67.457c0-2.891-1.661-5.523-4.269-6.768z"/><path d="m99.835 278.086 59.923 27.238c3.224 1.466 7.032.477 9.135-2.37l3.297-4.461c6.427-8.696 14.167-16.267 23.004-22.501 2.577-1.818 3.741-5.054 2.913-8.097l-37.231-136.863c-1.087-3.997-5.205-6.355-9.206-5.268-3.997 1.087-6.355 5.208-5.268 9.206l35.886 131.917c-8.254 6.405-15.586 13.876-21.849 22.27l-54.398-24.726c-19.705-8.958-43.146-1.024-53.362 18.062-10.605 19.815-3.205 44.733 16.497 55.547l14.213 7.801c1.145.628 2.382.927 3.602.927 2.649 0 5.217-1.407 6.582-3.893 1.993-3.631.665-8.19-2.966-10.184l-14.213-7.801c-12.527-6.876-17.233-22.72-10.49-35.319 6.496-12.137 21.401-17.18 33.931-11.485z"/><path d="m446.767 63.684c-8.406-4.204-18.172-4.463-26.791-.712s-15.083 11.075-17.736 20.093l-15.361 52.228 7.292-87.12c1.378-16.461-9.757-31.512-25.902-35.011-8.856-1.917-18.219-.075-25.687 5.059s-12.542 13.214-13.923 22.17l-12.822 83.169-2.148-89.172c-.465-19.283-15.938-34.388-35.227-34.388-19.43 0-35.237 15.807-35.237 35.237v142.123l-46.711-134.826c-3.225-9.306-9.903-16.75-18.806-20.96-8.902-4.211-18.894-4.652-28.132-1.24-17.799 6.572-27.466 25.333-22.485 43.642l10.922 40.149c1.087 3.997 5.208 6.358 9.206 5.268 3.997-1.087 6.355-5.208 5.268-9.206l-10.922-40.149c-2.925-10.753 2.752-21.772 13.207-25.633 5.426-2.003 11.294-1.745 16.523.729 5.229 2.473 9.152 6.845 11.045 12.311l61.298 176.928c1.199 3.461 4.724 5.55 8.332 4.941 3.611-.608 6.255-3.734 6.255-7.396v-186.681c0-11.159 9.079-20.237 20.237-20.237 11.078 0 19.964 8.675 20.23 19.75l4.185 173.646c.094 3.884 3.138 7.054 7.015 7.304 3.871.251 7.304-2.502 7.896-6.342l25.696-166.681c.764-4.958 3.462-9.253 7.596-12.095s9.111-3.823 14.013-2.76c8.807 1.908 14.882 10.12 14.131 19.1l-13.448 160.667c-.321 3.835 2.313 7.291 6.096 7.998 3.78.706 7.487-1.563 8.573-5.256l36.186-123.034c1.396-4.745 4.797-8.598 9.332-10.572 4.536-1.973 9.672-1.836 14.096.375 7.072 3.535 10.698 11.639 8.623 19.269l-49.619 182.425c-.16.586-.248 1.19-.261 1.798l-.324 14.272c-.094 4.141 3.187 7.574 7.328 7.668.058.001.115.002.173.002 4.063 0 7.402-3.247 7.495-7.33l.303-13.356 49.379-181.542c3.944-14.501-2.949-29.903-16.389-36.622z"/><path d="m449.346 328.079-57.549-13.215c-1.583-.364-3.257-.365-4.838 0l-57.553 13.216c-4.936 1.133-8.382 5.462-8.382 10.526v24.511c0 4.142 3.358 7.5 7.5 7.5s7.5-3.358 7.5-7.5v-21.167l53.353-12.251 53.353 12.251v38.128c0 24.232-14.229 46.424-36.25 56.538l-17.103 7.854-17.104-7.854c-17.618-8.092-30.625-24.223-34.794-43.15-.891-4.045-4.89-6.6-8.938-5.711-4.045.891-6.602 4.893-5.711 8.938 5.174 23.492 21.317 43.513 43.183 53.555l17.634 8.099c1.821.836 3.775 1.254 5.73 1.254 1.954 0 3.909-.418 5.729-1.254l17.633-8.099c27.33-12.551 44.99-40.094 44.99-70.168v-41.473c0-5.066-3.447-9.395-8.383-10.528z"/><path d="m384.72 412.907c1.334 1.057 2.978 1.621 4.656 1.621.396 0 .793-.031 1.19-.095 2.076-.334 3.917-1.524 5.074-3.28l31.432-47.728c2.278-3.459 1.321-8.11-2.139-10.389-3.46-2.278-8.11-1.321-10.389 2.139l-26.929 40.891-14.716-11.655c-3.247-2.572-7.964-2.024-10.536 1.223s-2.024 7.964 1.223 10.536z"/></g></g></svg>