<svg id="Capa_1" enable-background="new 0 0 512.902 512.902" height="512" viewBox="0 0 512.902 512.902" width="512" xmlns="http://www.w3.org/2000/svg"><g><g><circle cx="256.455" cy="181.198" fill="#91deb6" r="170.609"/><path d="m158.919 181.198c0-81.682 57.432-149.953 134.098-166.682-11.772-2.569-24.02-3.927-36.562-3.927-94.225 0-170.609 76.384-170.609 170.609s76.384 170.609 170.609 170.609c12.543 0 24.765-1.366 36.537-3.935-76.666-16.729-134.073-84.992-134.073-166.674z" fill="#6ed5a1"/><circle cx="255.645" cy="181.198" fill="#b9eacf" r="135.049"/><path d="m219.117 51.15c-56.842 15.93-98.521 68.119-98.521 130.048 0 61.924 41.679 114.108 98.513 130.044-36.822-31.291-60.189-77.934-60.189-130.044-.001-52.109 23.368-98.755 60.197-130.048z" fill="#91deb6"/><path d="m313.022 155.92h-31.245v-31.245c0-4.063-3.293-7.356-7.356-7.356h-35.843c-4.063 0-7.356 3.294-7.356 7.356v31.245h-31.245c-4.063 0-7.356 3.294-7.356 7.356v35.843c0 4.063 3.294 7.356 7.356 7.356h31.245v31.245c0 4.063 3.293 7.356 7.356 7.356h35.843c4.063 0 7.356-3.294 7.356-7.356v-31.245h31.245c4.063 0 7.356-3.294 7.356-7.356v-35.843c.001-4.062-3.293-7.356-7.356-7.356z" fill="#f3f0f3"/><path d="m174.161 328.712-68.407-68.407c-9.571-9.571-25.09-9.571-34.661 0-9.571 9.571-9.571 25.089 0 34.661l86.323 86.323 67.209 56.921 29.3-36.091z" fill="#ffdfcf"/><path d="m174.647 368.111-86.323-86.323c-7.633-7.633-9.158-19.04-4.617-28.205-4.622.902-9.034 3.141-12.615 6.721-9.571 9.571-9.571 25.089 0 34.661l86.323 86.323 67.209 56.921 13.36-16.457z" fill="#ffcebf"/><path d="m234.192 317.207-71.871-71.871c-9.877-9.877-25.891-9.877-35.768 0-9.877 9.877-9.877 25.891 0 35.768l49.041 49.041 49.03 48.971 35.756-37.371z" fill="#ffdfcf"/><path d="m192.945 318.578-49.041-49.041c-8.488-8.488-9.686-21.51-3.585-31.273-5.044.826-9.876 3.182-13.766 7.072-9.877 9.877-9.877 25.891 0 35.768l49.041 49.041 49.03 48.971 14.137-14.776z" fill="#ffcebf"/><path d="m415.4 327.995c-.73-.7-1.24-1.6-1.51-2.58-7.89-28.54-34.04-49.49-65.09-49.49-25.88 0-48.36 14.57-59.7 35.95-1.73 3.26-5.08 5.33-8.78 5.33h-79c-17.7 0-32.04 14.35-32.04 32.04 0 8.85 3.58 16.86 9.38 22.66s13.81 9.38 22.66 9.38h-43.9l-103.59-103.58c-10.6-10.6-27.78-10.6-38.38 0s-10.6 27.78 0 38.38l128.28 129.28c8.76 8.83 20.68 13.79 33.12 13.79h174.521c2.554 0 5.003 1.015 6.807 2.822l41.358 41.4c1.256 1.257 3.271 1.325 4.608.156l98.492-86.082c1.487-1.3 1.545-3.594.125-4.967z" fill="#ffeee6"/><g><path d="m375.004 437.299c-1.805-1.807-4.254-2.822-6.807-2.822h-174.522c-12.44 0-24.36-4.96-33.12-13.79l-128.28-129.28c-5.41-5.41-8.045-12.541-7.932-19.63-3.232 1.325-6.268 3.303-8.893 5.928-10.6 10.6-10.6 27.78 0 38.38l128.28 129.28c8.76 8.83 20.68 13.79 33.12 13.79h174.521c2.554 0 5.003 1.015 6.808 2.822l41.358 41.4c1.255 1.257 3.271 1.325 4.608.156l19.429-16.981z" fill="#ffdfcf"/></g></g><g><path d="m256.5.049c-99.886 0-181.149 81.263-181.149 181.149 0 14.623 1.765 29.215 5.244 43.37.989 4.022 5.056 6.483 9.074 5.493 4.022-.989 6.481-5.051 5.493-9.074-3.192-12.984-4.811-26.371-4.811-39.789 0-91.615 74.534-166.149 166.149-166.149s166.149 74.534 166.149 166.149c0 28.373-7.286 56.388-21.07 81.016-2.022 3.615-.732 8.185 2.882 10.208 1.159.648 2.416.957 3.656.957 2.627 0 5.177-1.383 6.552-3.838 15.034-26.862 22.98-57.41 22.98-88.342 0-99.887-81.264-181.15-181.149-181.15z"/><path d="m367.1 254.51c1.191.697 2.495 1.029 3.783 1.029 2.575 0 5.083-1.328 6.479-3.711 12.503-21.351 19.111-45.774 19.111-70.63 0-31.553-10.253-61.343-29.649-86.15-2.552-3.263-7.262-3.839-10.528-1.289-3.263 2.551-3.84 7.265-1.288 10.528 17.314 22.144 26.466 48.739 26.466 76.911 0 22.194-5.897 43.996-17.055 63.05-2.094 3.574-.893 8.169 2.681 10.262z"/><path d="m343.88 81.352c2.55-3.264 1.97-7.978-1.295-10.527-24.795-19.364-54.563-29.6-86.086-29.6-77.182 0-139.974 62.792-139.974 139.974 0 10.446 1.178 20.92 3.5 31.129.791 3.479 3.883 5.838 7.306 5.838.551 0 1.11-.061 1.67-.188 4.039-.918 6.568-4.938 5.649-8.977-2.074-9.119-3.126-18.473-3.126-27.802 0-68.911 56.063-124.974 124.974-124.974 28.146 0 54.721 9.137 76.854 26.422 3.266 2.549 7.978 1.97 10.528-1.295z"/><path d="m238.578 252.577h35.843c8.191 0 14.855-6.665 14.855-14.856v-23.745h23.745c8.191 0 14.856-6.665 14.856-14.856v-35.843c0-8.191-6.665-14.856-14.856-14.856h-23.745v-23.745c0-8.191-6.664-14.856-14.855-14.856h-35.843c-8.192 0-14.856 6.665-14.856 14.856v23.745h-23.745c-8.191 0-14.856 6.665-14.856 14.856v35.843c0 8.192 6.665 14.856 14.856 14.856h23.745v23.745c0 8.191 6.664 14.856 14.856 14.856zm-38.457-53.601v-35.556h31.101c4.142 0 7.5-3.358 7.5-7.5v-31.101h35.555v31.101c0 4.142 3.357 7.5 7.5 7.5h31.102v35.556h-31.102c-4.143 0-7.5 3.358-7.5 7.5v31.101h-35.555v-31.101c0-4.142-3.358-7.5-7.5-7.5z"/><path d="m510.616 409.644-53.662-51.895c-2.979-2.882-7.727-2.799-10.605.177-2.879 2.978-2.8 7.726.178 10.605l53.662 51.895c1.456 1.409 3.336 2.109 5.213 2.109 1.962 0 3.921-.765 5.393-2.286 2.877-2.977 2.798-7.725-.179-10.605z"/><path d="m420.995 322.974c-9.097-32.143-38.716-54.548-72.191-54.548-27.857 0-53.272 15.303-66.328 39.939-.438.828-1.264 1.343-2.153 1.343h-43.023l-69.674-69.674c-12.785-12.785-33.589-12.785-46.375 0-4.635 4.635-7.581 10.326-8.855 16.306l-1.337-1.337c-12.48-12.48-32.787-12.48-45.268 0-4.354 4.354-7.29 9.743-8.597 15.611-6.276-5.403-14.186-8.359-22.553-8.359-9.252 0-17.951 3.603-24.494 10.146-6.544 6.541-10.147 15.24-10.147 24.492s3.603 17.951 10.125 24.473l28.023 28.243c2.917 2.94 7.666 2.959 10.606.041 2.94-2.917 2.958-7.666.041-10.606l-28.043-28.264c-7.657-7.658-7.657-20.117 0-27.774 3.709-3.709 8.642-5.752 13.887-5.752 5.246 0 10.178 2.043 13.888 5.752l103.585 103.585c1.406 1.407 3.314 2.197 5.303 2.197h135.465c4.143 0 7.5-3.358 7.5-7.5s-3.357-7.5-7.5-7.5h-91.563c-13.532 0-24.541-11.009-24.541-24.541s11.009-24.541 24.541-24.541h79.004c6.459 0 12.363-3.572 15.408-9.32 10.447-19.714 30.784-31.961 53.073-31.961 26.908 0 50.7 18.089 57.857 43.989.633 2.291 1.853 4.357 3.527 5.976l13.359 12.919c2.978 2.881 7.726 2.798 10.605-.177 2.879-2.978 2.8-7.726-.178-10.605zm-260.473 50.814-84.126-84.126c-3.212-3.212-4.981-7.484-4.981-12.027s1.769-8.814 4.981-12.027c6.632-6.632 17.423-6.632 24.055 0l65.666 65.666c-2.767 5.397-4.339 11.503-4.339 17.974 0 9.267 3.213 17.792 8.571 24.541h-9.827zm14.921-54.401-43.587-43.587c-6.936-6.937-6.936-18.224.001-25.161 6.938-6.937 18.224-6.937 25.161 0l59.067 59.067h-14.768c-9.888.001-18.933 3.659-25.874 9.681z"/><path d="m360.635 453.83c-1.404-1.39-3.301-2.17-5.276-2.17h-178.509c-10.366 0-20.498-4.22-27.799-11.578l-77.681-78.288c-2.917-2.94-7.665-2.959-10.606-.041-2.94 2.917-2.958 7.666-.041 10.606l77.68 78.288c10.097 10.176 24.11 16.013 38.447 16.013h175.425l44.474 44.023c1.462 1.448 3.369 2.17 5.276 2.17 1.932 0 3.863-.742 5.33-2.224 2.914-2.944 2.89-7.692-.054-10.606z"/></g></g></svg>