<svg id="Capa_1" enable-background="new 0 0 512.099 512.099" height="512" viewBox="0 0 512.099 512.099" width="512" xmlns="http://www.w3.org/2000/svg"><g><g><g><path d="m445.429 70.37c10.3 5.15 15.53 16.84 12.51 27.95l-49.62 182.42-.32 14.28.07 1.3-1.49 65.7c-.51 22.49-7.6 44.34-20.39 62.85l-2.26 3.28-11.2 5.06-.11 11.3-.47.68v44.41c0 8.27-6.71 14.98-14.99 14.98h-144.95c-8.28 0-14.98-6.71-14.98-14.98v-52.48c-22.31-10.64-38.24-31.24-42.92-55.51l-1.42-7.36-77.98-42.8c-11.16-6.13-17.49-17.66-17.49-29.57 0-5.37 1.28-10.81 3.99-15.87 5.85-10.94 16.93-17.39 28.59-17.78.93-.03 1.86-.02 2.79.03 4.1.21 8.22 1.19 12.17 2.98l59.92 27.24.03-.03.07.03 3.3-4.46c3.45-4.66 7.25-9.04 11.39-13.08 4.13-4.04 8.58-7.75 13.32-11.09l-56.54-207.86c-.69-2.53-1.02-5.08-1.02-7.59 0-11.81 7.3-22.78 18.86-27.05 2.89-1.07 5.84-1.65 8.75-1.77.76-.03 1.51-.03 2.27-.01 11.5.45 22.13 7.82 26.14 19.4l61.3 176.93v-.29l.1.29v-186.68c0-7.66 3.1-14.6 8.12-19.62 4.71-4.71 11.09-7.72 18.18-8.08.44-.03 2.27-.03 2.73-.01 14.42.72 25.98 12.46 26.33 27.04l4.19 173.65.09-.56.01.56 25.69-166.68c1.9-12.28 12.21-21.07 24.03-21.6.8-.05 1.59-.04 2.4.01 1.35.07 2.71.25 4.08.54 12.52 2.72 21.09 14.29 20.02 27.06l-13.45 160.67.14-.48-.04.48 36.19-123.04c3.04-10.36 12.28-16.93 22.22-17.33.29-.01 4.32.23 4.32.23 2.47.36 4.95 1.12 7.33 2.31z" fill="#ffdfcf"/></g><g fill="#f37c7c"><path d="m263.187 340.201h-19.483v-19.483c0-2.533-2.054-4.587-4.587-4.587h-22.35c-2.533 0-4.587 2.054-4.587 4.587v19.483h-19.483c-2.533 0-4.587 2.054-4.587 4.587v22.35c0 2.533 2.054 4.587 4.587 4.587h19.483v19.483c0 2.533 2.054 4.587 4.587 4.587h22.35c2.533 0 4.587-2.054 4.587-4.587v-19.483h19.483c2.533 0 4.587-2.054 4.587-4.587v-22.35c0-2.533-2.054-4.587-4.587-4.587z"/><path d="m438.432 289.4h-19.483v-19.483c0-2.533-2.054-4.587-4.587-4.587h-22.35c-2.533 0-4.587 2.054-4.587 4.587v19.483h-19.483c-2.533 0-4.587 2.054-4.587 4.587v22.35c0 2.533 2.054 4.587 4.587 4.587h19.483v19.483c0 2.533 2.054 4.587 4.587 4.587h22.35c2.533 0 4.587-2.054 4.587-4.587v-19.483h19.483c2.533 0 4.587-2.054 4.587-4.587v-22.35c0-2.533-2.054-4.587-4.587-4.587z"/></g><path d="m192.978 269.872c13.732-11.202 19.59-29.443 14.938-46.544l-48.775-179.313c-.69-2.53-1.02-5.08-1.02-7.59 0-3.654.704-7.252 2.012-10.572-1.958.286-3.918.802-5.851 1.516-11.56 4.27-18.86 15.24-18.86 27.05 0 2.51.33 5.06 1.02 7.59l56.54 207.86c-.003.002-.008.006-.004.003z" fill="#ffcebf"/><path d="m183.785 147.037h-18.365v-18.365c0-2.388-1.936-4.324-4.324-4.324h-21.068c-2.388 0-4.324 1.936-4.324 4.324v18.365h-18.365c-2.388 0-4.324 1.936-4.324 4.324v21.068c0 2.388 1.936 4.324 4.324 4.324h18.365v18.365c0 2.388 1.936 4.324 4.324 4.324h21.068c2.388 0 4.324-1.936 4.324-4.324v-18.365h18.365c2.388 0 4.324-1.936 4.324-4.324v-21.068c0-2.388-1.936-4.324-4.324-4.324z" fill="#f37c7c"/><g><path d="m225.854 423.286c0-5.56-2.922-10.675-7.641-13.613-18.28-11.381-31.152-29.927-35.279-51.326-.9-4.662-3.829-8.682-7.991-10.967l-71.409-39.193c-11.16-6.13-17.49-17.66-17.49-29.57 0-3.41.539-6.874 1.609-10.225-10.777 1.124-20.795 7.442-26.251 17.637-2.71 5.06-3.99 10.5-3.99 15.87 0 11.91 6.33 23.44 17.49 29.57l77.98 42.8 1.42 7.36c4.68 24.27 20.61 44.87 42.92 55.51v52.474c0 8.277 6.71 14.986 14.986 14.986h13.646z" fill="#ffcebf"/></g><g fill="#ffcebf"><path d="m252.842 222.014c14.183 0 25.7-11.46 25.771-25.642l.861-172.44c.011-2.622.374-5.168 1.045-7.587.857-3.091 2.228-5.983 4.001-8.57-1.287-.183-2.61-.275-3.947-.275-7.66 0-14.59 3.1-19.61 8.12s-8.12 11.96-8.069 19.624z"/><path d="m312.612 207.441c14.961 0 27.678-10.931 29.926-25.722l23.159-152.431c.392-2.593 1.122-5.059 2.137-7.354.225-.508.488-1 .741-1.491-1.745-.358-3.496-.534-5.213-.534-12.3 0-23.22 8.95-25.18 21.63z"/><path d="m375.686 207.441c14.904 0 27.977-9.942 31.959-24.304l31.02-111.892c.276-.996.619-1.966.984-2.906-1.631-.342-3.28-.51-4.906-.51-10.31 0-20.05 6.66-23.19 17.35l-34.055 115.782z"/></g></g><g><path d="m404.436 367.563c-4.107-.559-7.886 2.313-8.445 6.417-2.277 16.678-8.533 32.806-18.092 46.639l-14.043 20.32c-.866 1.253-1.33 2.741-1.33 4.264v59.396c0 4.142 3.357 7.5 7.5 7.5s7.5-3.358 7.5-7.5v-57.056l12.713-18.396c10.893-15.762 18.021-34.137 20.613-53.138.56-4.104-2.313-7.885-6.416-8.446z"/><path d="m198.336 430.374c-20.069-9.578-34.567-28.333-38.781-50.168l-1.42-7.359c-.423-2.191-1.8-4.08-3.756-5.154l-35.929-19.72c-3.631-1.994-8.189-.665-10.184 2.966-1.992 3.631-.665 8.19 2.967 10.184l32.84 18.025.753 3.9c4.809 24.916 20.653 46.524 42.779 58.674v62.877c0 4.142 3.357 7.5 7.5 7.5s7.5-3.358 7.5-7.5v-67.457c.001-2.891-1.661-5.524-4.269-6.768z"/><path d="m99.835 278.086 59.923 27.238c3.221 1.464 7.029.478 9.135-2.369l3.298-4.461c6.428-8.697 14.167-16.268 23.004-22.501 2.577-1.818 3.741-5.054 2.914-8.097l-12.301-45.217c-1.088-3.998-5.212-6.354-9.206-5.268-3.997 1.087-6.355 5.208-5.269 9.206l10.956 40.271c-8.255 6.404-15.587 13.876-21.85 22.271l-54.397-24.727c-19.706-8.959-43.146-1.024-53.361 18.062-10.605 19.815-3.205 44.733 16.497 55.547l13.749 7.546c1.145.628 2.382.927 3.602.927 2.649 0 5.217-1.407 6.582-3.893 1.992-3.631.665-8.19-2.967-10.184l-13.749-7.546c-12.527-6.875-17.232-22.72-10.489-35.319 6.494-12.137 21.399-17.183 33.929-11.486z"/><path d="m135.888 96.316c1.088 3.999 5.213 6.354 9.206 5.269 3.997-1.087 6.355-5.209 5.269-9.206l-8.797-32.342c-2.926-10.753 2.752-21.773 13.206-25.633 5.426-2.003 11.294-1.746 16.522.729 5.229 2.473 9.152 6.845 11.046 12.311l61.298 176.928c1.06 3.059 3.935 5.045 7.082 5.045.413 0 .831-.034 1.25-.104 3.61-.608 6.255-3.734 6.255-7.396v-145.313c0-4.142-3.357-7.5-7.5-7.5s-7.5 3.358-7.5 7.5v100.756l-46.711-134.826c-3.225-9.306-9.903-16.75-18.806-20.96-8.904-4.212-18.895-4.652-28.133-1.24-17.799 6.572-27.465 25.334-22.484 43.641z"/><path d="m446.767 63.684c-8.407-4.204-18.172-4.464-26.791-.712-8.619 3.751-15.083 11.075-17.735 20.093l-15.361 52.229 7.292-87.121c1.378-16.461-9.758-31.512-25.902-35.011-8.859-1.918-18.218-.074-25.686 5.058-7.468 5.133-12.543 13.214-13.924 22.171l-12.822 83.169-2.148-89.172c-.465-19.283-15.939-34.388-35.228-34.388-19.43 0-35.237 15.807-35.237 35.237v9.405c0 4.142 3.357 7.5 7.5 7.5s7.5-3.358 7.5-7.5v-9.405c0-11.159 9.078-20.237 20.237-20.237 11.078 0 19.964 8.675 20.23 19.75l4.185 173.646c.094 3.884 3.138 7.054 7.015 7.304 3.888.251 7.305-2.502 7.896-6.342l25.696-166.681c.765-4.958 3.463-9.253 7.597-12.095 4.135-2.842 9.109-3.822 14.013-2.759 8.808 1.908 14.882 10.12 14.131 19.1l-13.448 160.667c-.321 3.835 2.313 7.291 6.096 7.998.464.087.927.129 1.384.129 3.269 0 6.236-2.146 7.189-5.385l36.187-123.034c1.396-4.745 4.797-8.598 9.331-10.572 4.536-1.974 9.674-1.837 14.097.375 7.071 3.536 10.698 11.639 8.622 19.269l-5.411 19.896c-1.087 3.997 1.272 8.118 5.269 9.206 3.995 1.086 8.118-1.271 9.206-5.269l5.411-19.895c3.943-14.502-2.95-29.905-16.391-36.624z"/><path d="m418.591 243.091c3.3 0 6.324-2.196 7.232-5.534l23.513-86.444c1.087-3.997-1.271-8.118-5.269-9.206-3.991-1.083-8.118 1.271-9.206 5.269l-23.513 86.444c-1.087 3.997 1.271 8.118 5.269 9.206.659.18 1.322.265 1.974.265z"/><path d="m263.187 332.701h-11.983v-11.983c0-6.665-5.422-12.087-12.087-12.087h-22.351c-6.665 0-12.087 5.422-12.087 12.087v11.983h-11.982c-6.665 0-12.088 5.422-12.088 12.087v22.35c0 6.665 5.423 12.087 12.088 12.087h11.982v11.983c0 6.665 5.422 12.087 12.087 12.087h22.351c6.665 0 12.087-5.422 12.087-12.087v-11.983h11.983c6.665 0 12.087-5.422 12.087-12.087v-22.35c-.001-6.665-5.422-12.087-12.087-12.087zm-2.914 31.525h-16.57c-4.143 0-7.5 3.358-7.5 7.5v16.57h-16.524v-16.57c0-4.142-3.357-7.5-7.5-7.5h-16.57v-16.525h16.57c4.143 0 7.5-3.358 7.5-7.5v-16.57h16.524v16.57c0 4.142 3.357 7.5 7.5 7.5h16.57z"/><path d="m438.432 281.9h-11.982v-11.983c0-6.665-5.423-12.087-12.088-12.087h-22.35c-6.665 0-12.088 5.422-12.088 12.087v11.983h-11.982c-6.665 0-12.088 5.422-12.088 12.087v22.351c0 6.665 5.423 12.087 12.088 12.087h11.982v11.983c0 6.665 5.423 12.087 12.088 12.087h22.35c6.665 0 12.088-5.422 12.088-12.087v-11.983h11.982c6.665 0 12.087-5.422 12.087-12.087v-22.351c0-6.665-5.422-12.087-12.087-12.087zm-2.913 31.524h-16.569c-4.143 0-7.5 3.358-7.5 7.5v16.57h-16.525v-16.57c0-4.142-3.357-7.5-7.5-7.5h-16.57v-16.524h16.57c4.143 0 7.5-3.358 7.5-7.5v-16.57h16.525v16.57c0 4.142 3.357 7.5 7.5 7.5h16.569z"/><path d="m117.339 184.253h10.865v10.865c0 6.52 5.305 11.824 11.824 11.824h21.067c6.52 0 11.824-5.304 11.824-11.824v-10.865h10.865c6.52 0 11.823-5.304 11.823-11.824v-21.068c0-6.52-5.304-11.824-11.823-11.824h-10.864v-10.865c0-6.52-5.305-11.824-11.824-11.824h-21.067c-6.52 0-11.824 5.304-11.824 11.824v10.865h-10.865c-6.52 0-11.824 5.304-11.824 11.824v21.068c-.001 6.52 5.303 11.824 11.823 11.824zm3.176-29.716h15.189c4.143 0 7.5-3.358 7.5-7.5v-15.189h14.716v15.189c0 4.142 3.357 7.5 7.5 7.5h15.188v14.716h-15.188c-4.143 0-7.5 3.358-7.5 7.5v15.189h-14.716v-15.189c0-4.142-3.357-7.5-7.5-7.5h-15.189z"/></g></g></svg>