<svg id="Capa_1" enable-background="new 0 0 512.606 512.606" height="512" viewBox="0 0 512.606 512.606" width="512" xmlns="http://www.w3.org/2000/svg"><g><g><path d="m375.303 387.051c3.317 5.794 5.119 12.568 4.865 19.779-.69 19.609-16.946 35.523-36.565 35.822-7.324.112-14.168-1.898-19.965-5.453-3.959-2.428-9.053-1.551-12.155 1.905-5.177 5.768-12.689 9.396-21.05 9.396-12.453 0-23.026-8.046-26.804-19.224 0 0-8.902-61.352-8.576-62.327.325-.976 105.053-25.369 105.053-25.369z" fill="#f9f3f1"/><path d="m186.601 136.534c.382-1.812.583-3.69.583-5.616 0-14.954-12.122-27.076-27.076-27.076-14.286 0-25.979 11.066-26.996 25.092-2.191-.572-4.49-.879-6.86-.879-14.954 0-27.076 12.122-27.076 27.076 0 5.608 1.705 10.817 4.624 15.138l39.38 52.162 79.568-30.431 8.452-34.007z" fill="#f9f3f1"/><g id="XMLID_245_"><g><g id="XMLID_246_"><g><path d="m216.896 344.233-91.839 34.515v16.805l67.78 48.31c18.25 13.01 43.15 11.34 59.5-3.99l43.58-40.86 3.65-3.46 20.875-14.825z" fill="#ffdfcf"/></g></g></g></g><path d="m295.917 375.765-43.58 40.86c-16.35 15.33-41.25 17-59.5 3.99l-61.862-44.092-5.919 2.224v16.805l67.78 48.31c18.25 13.01 43.15 11.34 59.5-3.99l43.58-40.86 3.65-3.46 20.875-14.825-21.694-7.646z" fill="#ffcebf"/><g id="XMLID_380_"><g><path d="m505.107 194.148v144.401c0 6.597-5.348 11.945-11.945 11.945h-36.695l-5.35 5.62c-18.808 19.757-44.893 30.94-72.171 30.94h-56.089l-39.79-.38v-204.47l-68.8-3.8c-17.57-.97-31.31-15.5-31.31-33.09 0-2.72 1-5.23 2.66-7.17 1.67-1.94 4.01-3.29 6.7-3.69l120.45-17.97c47.59-7.1 95.25 12.36 124.27 50.73l11.34 14.99h44.785c6.597-.001 11.945 5.347 11.945 11.944z" fill="#ffcebf"/></g></g><g><path d="m493.162 315.662h-28.936c-4.955 0-9.693 2.031-13.109 5.62-18.808 19.757-44.893 30.94-72.171 30.94l-95.879-.38v34.832l95.879.38c27.278 0 53.363-11.183 72.171-30.94l5.35-5.62h36.695c6.597 0 11.945-5.348 11.945-11.945v-34.832c0 6.597-5.348 11.945-11.945 11.945z" fill="#ffb09e"/></g><path d="m338.821 314.368c3.896 1.367 8.084 2.11 12.447 2.11 20.754 0 37.578-16.824 37.578-37.578 0-12.626-6.233-23.789-15.783-30.603 8.519-9.584 13.701-22.2 13.701-36.032 0-29.973-24.298-54.271-54.271-54.271-18.733 0-35.25 9.491-45.002 23.928l-28.637 55.314v76.026z" fill="#f9f3f1"/><path d="m291.277 237.013h7.689c14.465 0 26.649 11.405 26.945 25.866.154 7.519-2.834 14.343-7.734 19.244-4.78 4.78-11.38 7.74-18.68 7.74h11.7c14.478 0 26.667 11.425 26.945 25.9.144 7.506-2.842 14.307-7.735 19.2-4.78 4.78-11.39 7.74-18.68 7.74h-8.28c14.59 0 26.42 11.83 26.42 26.43 0 7.29-2.96 13.9-7.74 18.68s-11.39 7.74-18.68 7.74h-3.88-111.43-63.08l-75.28-53.65c-3.01-2.14-6.85-2.75-10.37-1.64l-17.457 5.478c-7.16 2.247-14.443-3.101-14.443-10.605v-134.705c0-5.151 3.539-9.627 8.55-10.815l70.39-16.692c3.68-.86 7.46-1.18 11.23-.97l195.1 10.79c7.2.4 13.61 3.58 18.22 8.45 4.62 4.88 7.43 11.45 7.43 18.66 0 14.999-12.15 27.159-27.15 27.159z" fill="#ffdfcf"/><g><path d="m322.127 360.335c-4.78 4.78-11.39 7.74-18.68 7.74h-3.88-111.43-63.08l-75.28-53.65c-3.01-2.14-6.85-2.75-10.37-1.64l-17.457 5.478c-7.16 2.247-14.443-3.101-14.443-10.605v27.479c0 7.504 7.283 12.852 14.443 10.605l17.457-5.478c3.52-1.11 7.36-.5 10.37 1.64l75.28 53.65h63.08 111.43 3.88c7.29 0 13.9-2.96 18.68-7.74s7.74-11.39 7.74-18.68c0-5.035-1.408-9.74-3.85-13.745-1.099 1.801-2.407 3.462-3.89 4.946z" fill="#ffcebf"/></g><g fill="#f9f3f1"><circle cx="446.304" cy="459.496" r="38.424"/><path d="m116.023 254.49c2.689-5 4.098-10.79 3.78-16.934-.834-16.118-13.79-29.314-29.892-30.413-18.805-1.284-34.458 13.59-34.458 32.12 0 15.404 10.82 28.274 25.273 31.443-.422 2.64-.417 5.422.161 8.291 2.061 10.238 10.823 18.014 21.24 18.741 13.669.954 25.054-9.852 25.054-23.317 0-8.432-4.465-15.819-11.158-19.931z"/><circle cx="159.334" cy="56.942" r="17.687"/><circle cx="62.281" cy="43.722" r="29.036"/></g></g><g><path d="m89.576 361.066-35.451-25.265c-4.892-3.487-11.235-4.495-16.968-2.697l-31.9 10.01c-3.952 1.24-6.151 5.449-4.911 9.401 1.241 3.953 5.45 6.152 9.401 4.911l31.901-10.009c1.272-.401 2.684-.177 3.771.599l35.451 25.265c1.32.941 2.841 1.393 4.347 1.393 2.343 0 4.651-1.094 6.114-3.147 2.404-3.374 1.618-8.057-1.755-10.461z"/><path d="m286.056 128.051 27.815-4.149c44.9-6.698 89.803 11.635 117.186 47.841l11.337 14.99c1.417 1.875 3.632 2.976 5.982 2.976h56.73c4.142 0 7.5-3.358 7.5-7.5s-3.358-7.5-7.5-7.5h-52.999l-9.086-12.014c-30.697-40.586-81.033-61.136-131.363-53.629l-27.815 4.149c-4.097.611-6.923 4.428-6.312 8.524s4.43 6.921 8.525 6.312z"/><path d="m505.106 342.995h-48.64c-2.053 0-4.016.842-5.432 2.329l-5.351 5.621c-17.312 18.183-41.64 28.611-66.747 28.611h-43.21c1.064-3.287 1.646-6.789 1.646-10.425 0-8.964-3.501-17.12-9.199-23.191 8.384-4.668 14.59-12.785 16.692-22.422 2.112.301 4.249.461 6.404.461 24.856 0 45.079-20.222 45.079-45.079 0-11.898-4.744-23.254-12.971-31.622 7.064-10.252 10.889-22.436 10.889-35.013 0-34.061-27.71-61.771-61.771-61.771-19.313 0-37.383 8.99-49.051 24.222l-68.773-3.805c-13.581-.755-24.218-12-24.218-25.602 0-1.71 1.275-3.189 2.966-3.441l60.674-9.05c4.097-.611 6.922-4.428 6.312-8.524-.611-4.096-4.423-6.917-8.524-6.312l-57.481 8.574c-2.153-17.012-16.704-30.213-34.291-30.213-15.312 0-28.543 10.154-32.981 24.224-.292-.007-.583-.011-.875-.011-19.065 0-34.576 15.511-34.576 34.576 0 3.184.452 6.312 1.294 9.324-2.767.146-5.524.534-8.252 1.166l-78.948 18.726c-4.03.956-6.522 4.998-5.566 9.028s5 6.524 9.028 5.566l78.908-18.717c2.988-.692 6.06-.956 9.122-.787l195.101 10.794c10.412.576 18.568 9.196 18.568 19.624 0 10.837-8.817 19.654-19.654 19.654h-22.309c-4.142 0-7.5 3.358-7.5 7.5s3.358 7.5 7.5 7.5h30.529c10.435 0 18.924 8.489 18.924 18.923s-8.489 18.924-18.924 18.924h-30.529c-4.142 0-7.5 3.358-7.5 7.5s3.358 7.5 7.5 7.5h42.757c10.435 0 18.923 8.489 18.923 18.924s-8.489 18.924-18.923 18.924h-31.434c-4.142 0-7.5 3.358-7.5 7.5s3.358 7.5 7.5 7.5h23.156c10.435 0 18.923 8.489 18.923 18.924s-8.489 18.924-18.923 18.924h-115.311c-4.142 0-7.5 3.358-7.5 7.5s3.358 7.5 7.5 7.5h20.446l13.72 16.142c1.484 1.745 3.594 2.643 5.718 2.643 1.717 0 3.443-.586 4.854-1.785 3.156-2.683 3.54-7.416.857-10.572l-5.463-6.427h52.364l-33.428 31.346c-13.695 12.842-34.731 14.254-50.021 3.358l-81.56-58.127c-3.373-2.404-8.056-1.618-10.46 1.754-2.404 3.374-1.619 8.057 1.754 10.46l81.56 58.127c9.487 6.761 20.575 10.086 31.626 10.086 13.513 0 26.97-4.974 37.361-14.717l4.155-3.895c6.62 8.985 17.219 14.554 28.814 14.554 10.144 0 19.85-4.332 26.632-11.887.719-.803 1.835-1.021 2.653-.521 7.208 4.42 15.508 6.67 23.999 6.558 23.807-.362 43.11-19.275 43.946-43.058.153-4.346-.337-8.651-1.416-12.799 26.562-1.841 51.855-13.636 70.299-33.008l3.134-3.292h45.425c4.142 0 7.5-3.358 7.5-7.5s-3.358-7.498-7.5-7.498zm-378.853-207.439c1.68 0 3.351.214 4.965.635 2.157.564 4.451.139 6.262-1.159s2.953-3.333 3.114-5.555c.737-10.169 9.31-18.134 19.515-18.134 10.794 0 19.576 8.782 19.576 19.576 0 .345-.016 1.422-.042 2.754-2.617 3.21-4.19 7.278-4.19 11.637 0 8.892 2.874 17.145 7.754 23.861l-73.804-4.083c-1.782-3.006-2.726-6.422-2.726-9.955 0-10.795 8.782-19.577 19.576-19.577zm199.184 149.708c4.977-5.905 7.984-13.521 7.984-21.829 0-12.642-6.956-23.684-17.238-29.518 6.028-6.238 9.748-14.72 9.748-24.059 0-15.344-10.018-28.46-24.002-32.974 8.399-7.257 19.192-11.389 30.564-11.389 25.79 0 46.771 20.981 46.771 46.771 0 11.456-4.193 22.483-11.807 31.049-1.414 1.591-2.085 3.708-1.847 5.822.238 2.115 1.364 4.029 3.097 5.266 7.914 5.647 12.639 14.805 12.639 24.497 0 16.585-13.493 30.079-30.079 30.079-2.238 0-4.44-.268-6.593-.749-2.514-10.289-9.731-18.747-19.237-22.966zm47.236 121.303c-.546 15.526-13.638 28.35-29.184 28.586-5.618.083-11.15-1.417-15.928-4.347-6.99-4.289-16.099-2.904-21.658 3.288-3.94 4.389-9.579 6.906-15.469 6.906-7.354 0-14.015-3.858-17.733-9.939l29.877-28.007h.87c8.59 0 16.44-3.216 22.423-8.499h44.739c1.499 3.789 2.208 7.874 2.063 12.012z"/><path d="m473.298 431.163c-3.377 2.398-4.17 7.081-1.771 10.458 3.729 5.25 5.7 11.431 5.7 17.876 0 17.051-13.873 30.924-30.924 30.924s-30.924-13.873-30.924-30.924 13.873-30.924 30.924-30.924c.922 0 1.865.046 2.884.14 4.12.377 7.777-2.653 8.159-6.778s-2.653-7.777-6.778-8.159c-1.483-.137-2.878-.204-4.265-.204-25.322 0-45.924 20.602-45.924 45.924s20.602 45.924 45.924 45.924 45.924-20.602 45.924-45.924c0-9.575-2.929-18.76-8.472-26.563-2.397-3.376-7.08-4.17-10.457-1.77z"/><path d="m124.86 297.003c6.241-5.821 9.821-14.052 9.821-22.583 0-8.566-3.456-16.521-9.478-22.274 1.638-4.781 2.354-9.864 2.09-14.977-1.035-20.019-16.886-36.144-36.872-37.508-11.129-.763-21.74 3-29.864 10.587-8.01 7.482-12.604 18.058-12.604 29.015 0 16.333 10.21 30.951 25.025 36.88.082 1.452.268 2.899.556 4.333 2.738 13.605 14.281 23.78 28.07 24.743.75.052 1.495.078 2.238.078 7.843 0 15.236-2.901 21.018-8.294zm-36.621-19.487c-.373-1.849-.408-3.742-.107-5.627.627-3.925-1.917-7.658-5.8-8.51-11.229-2.462-19.379-12.604-19.379-24.117 0-6.917 2.786-13.329 7.844-18.053 4.625-4.319 10.549-6.644 16.844-6.644.583 0 1.17.02 1.759.06 12.215.834 22.28 11.076 22.914 23.318.235 4.542-.767 9.035-2.896 12.995-1.882 3.5-.707 7.862 2.68 9.942 4.749 2.918 7.584 7.979 7.584 13.54 0 4.451-1.794 8.576-5.052 11.614-3.253 3.035-7.501 4.533-11.98 4.222-7.075-.494-13-5.733-14.411-12.74z"/><path d="m159.334 82.129c13.888 0 25.187-11.299 25.187-25.187s-11.299-25.187-25.187-25.187-25.187 11.299-25.187 25.187 11.299 25.187 25.187 25.187zm0-35.373c5.617 0 10.187 4.57 10.187 10.187s-4.57 10.187-10.187 10.187-10.187-4.57-10.187-10.187 4.57-10.187 10.187-10.187z"/><path d="m62.281 80.258c20.146 0 36.536-16.39 36.536-36.536s-16.39-36.536-36.536-36.536-36.536 16.39-36.536 36.536 16.39 36.536 36.536 36.536zm0-58.072c11.875 0 21.536 9.661 21.536 21.536s-9.661 21.536-21.536 21.536-21.536-9.661-21.536-21.536 9.661-21.536 21.536-21.536z"/></g></g></svg>