<svg id="Capa_1" enable-background="new 0 0 513.976 513.976" height="512" viewBox="0 0 513.976 513.976" width="512" xmlns="http://www.w3.org/2000/svg"><g><g><path d="m316.104 209.023c0-16.337-13.244-29.582-29.582-29.582-10.748 0-20.156 5.733-25.337 14.308-6.762-6.803-16.126-11.016-26.476-11.016-12.617 0-23.772 6.259-30.53 15.841l-50.876 66.845 54.179 103.603 120.069-16.485z" fill="#f9f3f1"/><g><path d="m383.261 443.823c-3.16-2.317-7.45-2.26-10.586.089-9.58 7.176-21.279 11.107-33.366 11.107h-52.1c-13.7 0-26.91-5.05-37.12-14.19l-15.38-13.76-10.44-27.5 10.44-97.27 2.86-27.85c1.57-15.19 13.19-27.42 28.29-29.75l11.87-1.83 7.92-14.08c6.91-12.29 20.75-18.95 34.66-16.68l25.35 4.12 12.68-10.88c12.04-10.33 29.66-10.83 42.26-1.2l10.07 7.69 11.23-4.02c13.66-4.9 28.93-.46 37.84 11.01l11.77 15.15c20.12 25.89 29.15 58.7 25.14 91.23l-3.22 26.03 8.248 6.497c2.911 2.293 4.171 6.105 3.2 9.681l-34.942 128.661c-1.232 4.535-6.63 6.423-10.42 3.645z" fill="#ffdfcf"/></g><g><path d="m383.261 443.823c-3.16-2.317-7.45-2.26-10.586.089-9.58 7.176-21.279 11.107-33.366 11.107h-52.1c-13.7 0-26.91-5.05-37.12-14.19l-15.38-13.76-10.44-27.5 10.44-97.27 2.86-27.85c1.57-15.19 13.19-27.42 28.29-29.75l11.87-1.83 7.92-14.08c6.91-12.29 20.75-18.95 34.66-16.68l25.35 4.12 12.68-10.88c12.04-10.33 29.66-10.83 42.26-1.2l10.07 7.69 11.23-4.02c13.66-4.9 28.93-.46 37.84 11.01l11.77 15.15c20.12 25.89 29.15 58.7 25.14 91.23l-3.22 26.03 8.248 6.497c2.911 2.293 4.171 6.105 3.2 9.681l-34.942 128.661c-1.232 4.535-6.63 6.423-10.42 3.645z" fill="#ffdfcf"/></g><path d="m469.038 470.023-76.254-55.901c-3.16-2.317-7.45-2.26-10.586.089-9.58 7.176-21.279 11.107-33.366 11.107h-52.1c-5.138 0-12.977-3.19-20.769-7.177-13.63-6.974-15.856-25.563-4.384-35.702 5.53-4.887 9.955-8.726 9.955-8.726l-13.464-89.224-6.525.569-25.278 2.07-1.558 15.171-10.44 97.27 10.44 27.5 15.38 13.76c10.21 9.14 23.42 14.19 37.12 14.19h52.1c12.086 0 23.785-3.931 33.365-11.107 3.136-2.349 7.426-2.405 10.586-.089l76.254 55.901c3.79 2.778 9.188.89 10.42-3.645l7.093-26.118c-2.244 1.685-5.469 1.91-7.989.062z" fill="#ffcebf"/><g><path d="m155.019 96.949c0-13.58 11.01-24.59 24.58-24.59 6.79 0 12.94 2.75 17.39 7.2s7.2 10.6 7.2 17.39v175.42c0 2.153 1.174 4.144 3.074 5.156 7.564 4.029 12.724 10.402 14.276 20.334.48 3.06 3.2 5.26 6.29 5.01l34.94-2.86 7.68-.67c6.18 18.9 8.43 38.79 6.72 58.47l-39.13 32.73c-2.12 1.99-3.33 4.77-3.33 7.68v91.498c0 8.71-7.061 15.772-15.772 15.772h-157.367c-8.71 0-15.772-7.061-15.772-15.772v-56.158l-18.66-20.48c-12.63-13.88-19.64-31.97-19.64-50.74v-232.94c0-6.79 2.75-12.94 7.2-17.39s10.6-7.2 17.39-7.2c13.58 0 24.58 11.01 24.58 24.59v-26.93c0-6.79 2.75-12.93 7.2-17.38s10.6-7.2 17.39-7.2c13.58 0 24.59 11 24.59 24.58v-33.12c0-6.79 2.75-12.94 7.2-17.39 4.543-4.553 10.876-7.327 17.853-7.196 13.487.253 24.117 11.649 24.117 25.139z" fill="#ffdfcf"/></g><g><path d="m73.372 489.717v-56.158l-18.66-20.48c-12.63-13.88-19.64-31.97-19.64-50.74v-232.94c0-6.79 2.75-12.94 7.2-17.39 1.101-1.101 2.306-2.097 3.599-2.974-3.93-2.667-8.673-4.226-13.782-4.226-6.79 0-12.94 2.75-17.39 7.2s-7.2 10.6-7.2 17.39v232.94c0 18.77 7.01 36.86 19.64 50.74l18.66 20.48v56.158c0 8.71 7.061 15.772 15.772 15.772h27.573c-8.711 0-15.772-7.062-15.772-15.772z" fill="#ffcebf"/></g><g fill="#f9f3f1"><path d="m153.153 312.39c-1.477-15.615-14.064-28.223-29.676-29.723-16.681-1.602-31.12 9.187-35.212 24.24-.638 2.346-2.871 3.957-5.296 3.779-1.516-.111-3.072-.076-4.656.122-10.745 1.341-19.301 10.105-20.347 20.883-1.357 13.98 9.594 25.75 23.295 25.75.448 0 .893-.016 1.335-.04-.002.135-.01.268-.01.403 0 15.532 12.682 28.102 28.256 27.919 14.558-.171 26.758-11.839 27.544-26.377.2-3.703-.326-7.257-1.445-10.537-.759-2.226.165-4.64 2.098-5.979 9.431-6.538 15.305-17.846 14.114-30.44z"/><path d="m377.649 288.624c0-16.053-13.526-28.947-29.803-27.908-13.683.874-24.888 11.84-26.03 25.504-.74 8.862 2.656 16.949 8.468 22.546 3.64 3.505 5.54 8.343 5.595 13.396.004.373.019.749.046 1.127.701 10.01 9.338 17.914 19.371 17.735 10.372-.185 18.724-8.651 18.724-19.068 0-2.156-.36-4.226-1.023-6.156-1.558-4.539-1.061-9.58 1.241-13.79 2.174-3.975 3.411-8.535 3.411-13.386z"/><circle cx="370.593" cy="122.926" r="18.108"/><circle cx="288.357" cy="59.776" r="24.941"/><circle cx="412.016" cy="39.759" r="31.268"/></g><g fill="#ffcebf"><path d="m56.663 222.406c15.228 0 27.573-12.345 27.573-27.573v-93.948c0-6.79 2.75-12.94 7.2-17.39.765-.765 1.596-1.458 2.456-2.117-3.693-2.215-8.014-3.49-12.633-3.49-6.79 0-12.94 2.75-17.39 7.2s-7.2 10.59-7.2 17.38v26.93c0-.076-.005-.151-.006-.227z"/><path d="m105.853 222.406c15.228 0 27.573-12.345 27.573-27.573v-127.349c0-6.79 2.75-12.94 7.2-17.39.682-.682 1.417-1.309 2.176-1.907-3.495-2.096-7.544-3.343-11.894-3.424-6.977-.131-13.31 2.642-17.853 7.196-4.45 4.45-7.2 10.6-7.2 17.39z"/><path d="m155.133 222.406c15.228 0 27.573-12.345 27.573-27.573v-110.415c0-4.094 1.018-7.958 2.787-11.354-1.885-.462-3.866-.706-5.894-.706-12.779 0-23.284 9.765-24.58 22.328v127.72z"/></g></g><g><path d="m45.802 469.133c-4.142 0-7.5 3.358-7.5 7.5v28.852c0 4.142 3.358 7.5 7.5 7.5s7.5-3.358 7.5-7.5v-28.852c0-4.142-3.358-7.5-7.5-7.5z"/><path d="m196.689 113.288c0 4.142 3.358 7.5 7.5 7.5s7.5-3.358 7.5-7.5v-16.339c0-17.692-14.394-32.086-32.086-32.086-6.277 0-12.135 1.819-17.086 4.948v-.465c0-17.692-14.394-32.086-32.086-32.086s-32.086 14.392-32.086 32.085v5.987c-4.951-3.129-10.809-4.948-17.086-4.948-17.623 0-31.968 14.282-32.081 31.879-4.953-3.131-10.812-4.951-17.092-4.951-17.692 0-32.086 14.394-32.086 32.086v232.945c0 20.683 7.671 40.494 21.599 55.784l16.703 18.336v8.208c0 4.142 3.358 7.5 7.5 7.5s7.5-3.358 7.5-7.5v-11.112c0-1.868-.697-3.669-1.956-5.051l-18.659-20.483c-11.405-12.52-17.687-28.744-17.687-45.682v-232.945c0-9.421 7.665-17.086 17.086-17.086s17.086 7.665 17.086 17.086v94.483c0 4.142 3.358 7.5 7.5 7.5s7.5-3.358 7.5-7.5v-121.411c0-9.421 7.665-17.086 17.086-17.086s17.086 7.665 17.086 17.086v121.41c0 4.142 3.358 7.5 7.5 7.5s7.5-3.358 7.5-7.5v-154.535c0-9.421 7.665-17.086 17.086-17.086s17.086 7.665 17.086 17.086v154.536c0 4.142 3.358 7.5 7.5 7.5s7.5-3.358 7.5-7.5v-126.932c0-9.421 7.665-17.086 17.086-17.086s17.086 7.665 17.086 17.086v16.339z"/><path d="m511.116 355.623-9.724-7.656 2.697-21.837c3.05-24.702-.951-49.66-11.569-72.176-1.768-3.747-6.237-5.352-9.983-3.584-3.746 1.767-5.351 6.236-3.584 9.983 9.407 19.947 12.951 42.057 10.25 63.939l-3.215 26.033c-.322 2.605.742 5.188 2.804 6.812l13.046 10.272c1.375 1.083 3.011 1.608 4.635 1.608 2.22 0 4.417-.981 5.897-2.861 2.561-3.255 2-7.971-1.254-10.533z"/><path d="m406.11 217.798c2.022 1.545 4.688 1.959 7.085 1.102l11.23-4.024c10.643-3.815 22.453-.377 29.388 8.55l8.684 11.178c2.541 3.271 7.253 3.862 10.524 1.321 3.271-2.542 3.862-7.253 1.321-10.524l-8.684-11.177c-10.925-14.063-29.529-19.473-46.293-13.469l-7.388 2.648-6.822-5.214c-15.324-11.713-37.067-11.094-51.701 1.467l-10.035 8.615-20.037-3.263c-2.009-18.565-17.771-33.066-36.86-33.066-10.177 0-19.612 4.044-26.495 11.111-7.397-5.085-16.144-7.819-25.317-7.819-8.217 0-16.151 2.282-23.021 6.402v-36.384c0-4.142-3.358-7.5-7.5-7.5s-7.5 3.358-7.5 7.5v127.115c0 4.947 2.709 9.466 7.069 11.792 5.99 3.197 9.285 7.917 10.368 14.854 1.023 6.56 6.726 11.373 13.235 11.373.358 0 37.131-3.06 37.652-3.223 4.342 15.297 6.009 31.115 4.971 46.871l-36.76 30.751c-.109.091-.216.185-.319.283-3.619 3.395-5.694 8.188-5.694 13.149v107.269c0 4.142 3.358 7.5 7.5 7.5s7.5-3.358 7.5-7.5v-61.641l2.876 2.575c11.598 10.381 26.558 16.099 42.123 16.099h52.102c14.139 0 27.659-4.668 38.697-13.246l84.936 62.263c1.336.979 2.889 1.452 4.428 1.452 2.308 0 4.585-1.062 6.055-3.066 2.449-3.341 1.726-8.034-1.615-10.483l-82.493-60.472 1.982-1.883c3.003-2.853 3.124-7.6.271-10.603s-7.6-3.124-10.603-.271l-8.487 8.063c-8.99 8.542-20.771 13.247-33.171 13.247h-52.102c-11.869 0-23.275-4.359-32.119-12.275l-12.88-11.53v-25.497c0-.784.309-1.543.852-2.105l23.612-19.752c-1.18 5.087-2.641 10.138-4.404 15.131-1.379 3.906.67 8.19 4.576 9.568.826.292 1.668.43 2.496.43 3.091 0 5.985-1.925 7.072-5.006 13.59-38.505 11.532-80.073-5.794-117.048l-1.058-2.258c-1.758-3.751-6.223-5.367-9.974-3.608-3.751 1.757-5.366 6.223-3.608 9.974l1.058 2.258c1.07 2.283 2.069 4.588 3.01 6.907l-16.954 1.386 1.941-18.872c1.212-11.796 10.244-21.296 21.963-23.105l11.873-1.832c2.276-.351 4.265-1.729 5.394-3.735l7.922-14.085c5.343-9.5 16.16-14.706 26.92-12.955l25.346 4.128c2.186.355 4.413-.271 6.091-1.711l12.682-10.888c9.291-7.975 23.093-8.366 32.821-.932zm-126.998 7.311-6.134 10.906-8.268 1.276c-18.46 2.847-32.688 17.813-34.598 36.395l-1.967 19.135c-2.396-9.398-7.911-16.592-16.457-21.42v-70.295c5.648-6.842 14.091-10.873 23.021-10.873 8 0 15.514 3.126 21.157 8.804 1.628 1.638 3.922 2.434 6.213 2.159 2.293-.275 4.332-1.591 5.525-3.568 4.042-6.691 11.114-10.686 18.917-10.686 10.713 0 19.665 7.67 21.662 17.806-12.039 2.024-22.885 9.363-29.071 20.361z"/><path d="m160.619 311.684c-1.825-19.287-17.144-34.63-36.426-36.483-19.182-1.841-36.803 9.82-42.628 27.925-1.4-.015-2.794.066-4.183.24-14.196 1.772-25.502 13.38-26.883 27.601-.845 8.707 2.022 17.394 7.867 23.833 4.587 5.054 10.708 8.418 17.332 9.634 1.318 7.006 4.723 13.438 9.908 18.563 6.683 6.605 15.509 10.228 24.894 10.228.143 0 .285-.001.428-.002 18.591-.218 33.941-14.92 34.946-33.472.214-3.972-.224-7.888-1.305-11.666 11.264-8.464 17.387-22.266 16.05-36.401zm-25.855 24.982c-4.71 3.266-6.735 9.255-4.924 14.564.843 2.471 1.198 5.065 1.055 7.71-.569 10.509-9.605 19.159-20.143 19.283-5.486.071-10.69-2.029-14.602-5.895-3.913-3.867-6.067-9.025-6.066-14.49l.009-.329c.03-2.081-.806-4.081-2.308-5.521-1.4-1.343-3.262-2.087-5.191-2.087-.14 0-.281.004-.422.012-.303.017-.607.029-.914.029-4.478 0-8.772-1.903-11.785-5.222-3.052-3.363-4.489-7.732-4.045-12.303.708-7.297 6.517-13.254 13.811-14.165 1.062-.132 2.132-.159 3.181-.084 5.996.44 11.499-3.469 13.081-9.292 3.279-12.062 14.738-19.951 27.258-18.742 11.94 1.147 21.797 11.02 22.927 22.963.889 9.401-3.193 18.212-10.922 23.569z"/><path d="m385.149 288.624c0-9.76-4.084-19.189-11.204-25.869-7.221-6.774-16.67-10.158-26.577-9.523-17.379 1.11-31.577 15.024-33.025 32.364-.896 10.724 3.019 21.138 10.739 28.572 2.092 2.015 3.264 4.883 3.298 8.073.005.52.026 1.043.063 1.572.961 13.721 12.813 24.713 26.528 24.713.152 0 .306-.001.458-.004 14.386-.257 26.09-12.174 26.09-26.566 0-2.937-.481-5.827-1.429-8.591-.861-2.509-.596-5.336.728-7.756 2.834-5.182 4.331-11.055 4.331-16.985zm-17.491 9.787c-3.342 6.111-3.982 13.336-1.755 19.823.41 1.193.617 2.445.617 3.722 0 6.267-5.095 11.457-11.358 11.568-6.104.117-11.333-4.719-11.755-10.758-.016-.229-.025-.457-.028-.687-.079-7.244-2.882-13.891-7.892-18.716-4.456-4.291-6.714-10.312-6.196-16.52.834-9.988 9.017-18.003 19.033-18.643.457-.029.911-.044 1.363-.044 5.233 0 10.16 1.939 13.995 5.537 4.17 3.913 6.467 9.215 6.467 14.93 0 3.424-.861 6.808-2.491 9.788z"/><path d="m370.593 148.533c14.12 0 25.607-11.487 25.607-25.607s-11.487-25.608-25.607-25.608-25.608 11.488-25.608 25.608 11.488 25.607 25.608 25.607zm0-36.215c5.849 0 10.607 4.759 10.607 10.608s-4.758 10.607-10.607 10.607-10.608-4.758-10.608-10.607 4.759-10.608 10.608-10.608z"/><path d="m288.357 92.218c17.888 0 32.441-14.553 32.441-32.441s-14.553-32.441-32.441-32.441-32.441 14.553-32.441 32.441 14.553 32.441 32.441 32.441zm0-49.883c9.617 0 17.441 7.824 17.441 17.441s-7.824 17.441-17.441 17.441-17.441-7.824-17.441-17.441 7.824-17.441 17.441-17.441z"/><path d="m412.016 78.527c21.376 0 38.768-17.391 38.768-38.768s-17.392-38.768-38.768-38.768-38.768 17.391-38.768 38.768 17.391 38.768 38.768 38.768zm0-62.536c13.105 0 23.768 10.662 23.768 23.768s-10.662 23.768-23.768 23.768-23.768-10.662-23.768-23.768 10.662-23.768 23.768-23.768z"/></g></g></svg>