<svg id="Capa_1" enable-background="new 0 0 512.888 512.888" height="512" viewBox="0 0 512.888 512.888" width="512" xmlns="http://www.w3.org/2000/svg"><g><g><path d="m382.645 248.373c4.378-5.452 7.003-12.371 7.003-19.907 0-17.576-14.248-31.825-31.825-31.825-7.358 0-14.128 2.504-19.518 6.697l-49.904 45.034 16.359 53.17 63.032-15.397z" fill="#f3eae6"/><path d="m343.117 239.273c1.329-4.085 2.048-8.445 2.048-12.974 0-23.131-18.752-41.883-41.883-41.883-15.256 0-28.603 8.159-35.925 20.35-2.521-.854-5.219-1.324-8.029-1.324-9.138 0-17.128 4.9-21.496 12.213-6.938-5.538-15.725-8.856-25.292-8.856-13.04 0-24.644 6.15-32.069 15.708l-40.204 41.85 90.311 74.064 97.001-23.414z" fill="#f9f3f1"/><path d="m173.618 291.229-68.407-68.407c-9.571-9.571-25.09-9.571-34.661 0-9.571 9.571-9.571 25.089 0 34.661l86.323 86.323 67.209 56.921 29.3-36.091z" fill="#ffdfcf"/><path d="m233.649 279.724-71.871-71.871c-9.877-9.877-25.891-9.877-35.768 0-9.877 9.877-9.877 25.891 0 35.768l49.041 49.041 49.03 48.971 35.756-37.371z" fill="#ffdfcf"/><path d="m174.105 330.628-86.323-86.323c-7.633-7.633-9.158-19.04-4.617-28.205-4.622.902-9.034 3.141-12.615 6.721-9.571 9.571-9.571 25.089 0 34.661l86.323 86.323 67.209 56.921 13.36-16.457z" fill="#ffcebf"/><path d="m192.402 281.096-49.041-49.041c-8.488-8.488-9.686-21.51-3.585-31.273-5.044.826-9.876 3.182-13.766 7.072-9.877 9.877-9.877 25.891 0 35.768l49.041 49.041 49.03 48.971 14.137-14.776z" fill="#ffcebf"/><g><g><path d="m414.857 290.512c-.73-.7-1.24-1.6-1.51-2.58-7.89-28.54-34.04-49.49-65.09-49.49-25.88 0-48.36 14.57-59.7 35.95-1.73 3.26-5.08 5.33-8.78 5.33h-79c-17.7 0-32.04 14.35-32.04 32.04 0 8.85 3.58 16.86 9.38 22.66s13.81 9.38 22.66 9.38h-43.9l-103.59-103.58c-10.6-10.6-27.78-10.6-38.38 0s-10.6 27.78 0 38.38l128.28 129.28c8.76 8.83 20.68 13.79 33.12 13.79h174.521c2.554 0 5.003 1.015 6.807 2.822l41.358 41.4c1.256 1.257 3.271 1.325 4.608.156l98.492-86.082c1.487-1.3 1.545-3.593.125-4.967z" fill="#ffeee6"/></g><g fill="#f9f3f1"><path d="m459.245 313.399c-4.587-16.703-22.385-26.232-39.017-20.407-14.253 4.992-22.651 20.126-19.372 34.867 1.847 8.305 6.905 14.975 13.528 19.078 1.945 1.205 2.993 3.424 2.848 5.707-.167 2.613.133 5.305.964 7.967 3.469 11.109 15.311 17.666 26.571 14.722 11.887-3.108 18.911-15.317 15.667-27.131-.667-2.428-1.717-4.648-3.065-6.614-1.283-1.87-1.509-4.302-.46-6.312 3.392-6.5 4.431-14.249 2.336-21.877z"/><circle cx="241.794" cy="88.617" r="44.429"/><circle cx="345.165" cy="125.414" r="26.789"/></g></g><g><path d="m374.461 399.816c-1.805-1.807-4.254-2.822-6.807-2.822h-174.522c-12.44 0-24.36-4.96-33.12-13.79l-128.28-129.28c-5.41-5.41-8.045-12.541-7.932-19.63-3.232 1.325-6.268 3.303-8.893 5.928-10.6 10.6-10.6 27.78 0 38.38l128.28 129.28c8.76 8.83 20.68 13.79 33.12 13.79h174.521c2.554 0 5.003 1.015 6.808 2.822l41.358 41.4c1.255 1.257 3.271 1.325 4.608.156l19.429-16.981z" fill="#ffdfcf"/></g></g><g><path d="m510.602 372.991-43.917-42.472c1.57-6.229 1.527-12.791-.208-19.106-2.749-10.008-9.599-18.514-18.794-23.336-8.397-4.403-17.848-5.452-26.932-3.07-5.23-15.259-15.322-28.662-28.158-38.205 2.962-5.624 4.556-11.932 4.556-18.335 0-21.684-17.641-39.325-39.324-39.325-6.288 0-12.33 1.462-17.805 4.259-5.105-5.724-11.543-10.305-18.938-13.164-3.864-1.495-8.207.427-9.7 4.291-1.494 3.863.427 8.206 4.29 9.7 13.155 5.086 21.994 17.976 21.994 32.073 0 2.163-.224 4.3-.619 6.4-23.112 3.64-43.392 17.89-54.585 39.011-.438.828-1.264 1.343-2.153 1.343h-43.023l-48.594-48.594c6.222-6.493 14.734-10.161 23.849-10.161 7.569 0 14.697 2.496 20.613 7.218 1.691 1.351 3.885 1.903 6.017 1.518 2.131-.387 3.991-1.675 5.101-3.534 3.201-5.359 8.83-8.559 15.057-8.559 1.914 0 3.807.312 5.623.927 3.344 1.133 7.02-.218 8.836-3.242 3.682-6.131 9.095-10.9 15.653-13.792 3.79-1.671 5.507-6.098 3.836-9.888-1.671-3.791-6.098-5.509-9.889-3.836-7.691 3.392-14.286 8.586-19.325 15.177-1.563-.23-3.145-.346-4.734-.346-8.714 0-17.031 3.563-23.074 9.623-7.195-4.074-15.394-6.267-23.714-6.267-13.151 0-25.44 5.246-34.461 14.549l-10.468-10.468c-12.785-12.785-33.589-12.785-46.375 0-4.635 4.635-7.581 10.326-8.855 16.305l-1.338-1.338c-6.045-6.046-14.084-9.375-22.634-9.375s-16.588 3.33-22.634 9.375c-4.449 4.449-7.304 9.895-8.581 15.625-6.279-5.412-14.195-8.373-22.57-8.373-9.252 0-17.951 3.604-24.494 10.146-13.506 13.506-13.506 35.482-.021 48.967l23.177 23.358c2.917 2.94 7.667 2.959 10.606.041 2.94-2.917 2.958-7.666.041-10.606l-23.198-23.379c-7.657-7.657-7.657-20.117 0-27.775 7.657-7.657 20.118-7.657 27.775 0l103.585 103.586c1.406 1.407 3.314 2.197 5.303 2.197h135.465c4.143 0 7.5-3.358 7.5-7.5s-3.357-7.5-7.5-7.5h-91.563c-13.532 0-24.541-11.009-24.541-24.541s11.009-24.541 24.541-24.541h79.004c6.459 0 12.363-3.572 15.408-9.32 10.447-19.714 30.784-31.961 53.073-31.961 26.908 0 50.7 18.089 57.857 43.989l.292 1.088c-11.045 8.709-16.611 23.224-13.404 37.638 2.159 9.709 7.89 17.975 16.177 23.366-.137 3.376.308 6.734 1.325 9.993 3.885 12.436 15.771 20.674 28.375 20.673 2.408 0 4.844-.301 7.253-.931 7.697-2.013 14.126-6.914 18.102-13.801 2.752-4.766 4.09-10.073 3.957-15.431l31.451 30.416c1.456 1.409 3.336 2.109 5.213 2.109 1.962 0 3.921-.765 5.393-2.286 2.882-2.976 2.803-7.724-.175-10.603zm-350.094-35.856-84.13-84.13c-6.628-6.632-6.626-17.42.004-24.051 6.631-6.632 17.422-6.632 24.055 0l65.666 65.666c-2.767 5.397-4.339 11.503-4.339 17.974 0 9.267 3.213 17.792 8.571 24.541zm14.921-54.401-43.59-43.59c-6.933-6.938-6.932-18.222.004-25.157 6.938-6.937 18.224-6.937 25.161 0l59.067 59.067h-14.768c-9.888 0-18.933 3.658-25.874 9.68zm182.395-78.592c13.412 0 24.324 10.912 24.324 24.325 0 3.72-.837 7.286-2.416 10.545-8.539-4.112-17.813-6.631-27.383-7.135.208-1.845.316-3.705.316-5.577 0-7.084-1.559-13.954-4.388-20.207 2.987-1.281 6.21-1.951 9.547-1.951zm93.952 157.147c-1.955 3.387-5.118 5.797-8.905 6.788-7.386 1.931-15.242-2.422-17.516-9.701-.536-1.719-.751-3.486-.639-5.255.326-5.108-2.12-9.92-6.383-12.56-5.213-3.229-8.819-8.318-10.156-14.33-2.438-10.962 3.943-22.453 14.529-26.161 2.485-.871 5.035-1.302 7.568-1.302 3.595 0 7.155.87 10.441 2.594 5.608 2.941 9.62 7.921 11.296 14.024 1.517 5.517.894 11.349-1.753 16.42-2.318 4.442-1.963 9.816.925 14.024.908 1.324 1.587 2.791 2.018 4.357 1.037 3.772.53 7.715-1.425 11.102z"/><path d="m405.507 462.062-44.858-44.859c-1.407-1.407-3.314-2.197-5.304-2.197h-178.509c-10.366 0-20.498-4.22-27.799-11.578l-82.588-83.233c-2.917-2.939-7.665-2.959-10.606-.041-2.94 2.917-2.958 7.666-.041 10.606l82.588 83.233c10.097 10.176 24.11 16.013 38.447 16.013h175.403l43.995 43.996c1.407 1.407 3.314 2.197 5.304 2.197h.474c4.143 0 7.5-3.358 7.5-7.5-.002-2.879-1.625-5.38-4.006-6.637z"/><path d="m201.323 108.43c3.972-1.175 6.239-5.348 5.064-9.32-1.01-3.413-1.522-6.943-1.522-10.493 0-20.363 16.566-36.929 36.929-36.929 20.362 0 36.929 16.566 36.929 36.929s-16.566 36.929-36.929 36.929c-6.71 0-13.281-1.82-19.003-5.262-3.549-2.136-8.157-.989-10.293 2.561-2.135 3.549-.989 8.157 2.561 10.293 8.056 4.847 17.301 7.409 26.736 7.409 28.634 0 51.929-23.295 51.929-51.929s-23.295-51.929-51.929-51.929-51.929 23.295-51.929 51.929c0 4.991.719 9.953 2.138 14.749 1.174 3.971 5.344 6.239 9.319 5.063z"/><path d="m345.166 159.703c18.906 0 34.288-15.382 34.288-34.289s-15.382-34.289-34.288-34.289c-18.907 0-34.289 15.382-34.289 34.289s15.381 34.289 34.289 34.289zm0-53.577c10.636 0 19.288 8.653 19.288 19.289s-8.652 19.289-19.288 19.289-19.289-8.653-19.289-19.289 8.653-19.289 19.289-19.289z"/></g></g></svg>