<svg id="Capa_1" enable-background="new 0 0 514.527 514.527" height="512" viewBox="0 0 514.527 514.527" width="512" xmlns="http://www.w3.org/2000/svg"><g><g><circle cx="426.955" cy="263.81" fill="#f9f3f1" r="30.896"/><path d="m231.454 507.027h97.535c5.272 0 9.545-4.274 9.545-9.545v-123.429h-116.626v123.429c0 5.271 4.274 9.545 9.546 9.545z" fill="#ffdfcf"/><path d="m253.68 389.779h84.855v-15.726h-116.627v123.429c0 5.272 4.274 9.545 9.545 9.545h22.226v-117.248z" fill="#ffcebf"/><g><g><g id="XMLID_381_"><g><path d="m499.744 428.893c2.793 2.885 2.074 7.637-1.448 9.565l-119.236 65.287c-2.397 1.312-5.375.865-7.28-1.094l-112.636-115.775-85.19-57.22-23.65-24.67-131.81-83.3c-8.02-5.07-11.35-15.09-7.96-23.96 3.08-8.05 10.71-12.81 18.63-12.81 3.49 0 7.03.92 10.27 2.88l90.55 54.66-97.69-90.22c-7.76-7.17-9-18.98-2.9-27.6 4.12-5.82 10.62-8.89 17.2-8.89 4.6 0 9.25 1.51 13.14 4.63l108.49 87.05-94.2-107.93c-8.17-9.36-7.37-23.52 1.78-31.91 4.39-4.03 9.93-6.01 15.45-6.01 6.19 0 12.36 2.5 16.87 7.42l104.01 113.53-61.3-141.75c-5.29-12.23.5-26.43 12.84-31.47 2.94-1.2 5.99-1.77 8.99-1.77 8.67 0 16.96 4.76 21.16 12.89l81.42 157.91c3.78-.48 7.58-.72 11.37-.72 5.74 0 11.47.55 17.12 1.65l4.49.88 21.27-49.95c5.74-13.48 20.95-20.19 34.77-15.33 11.42 4.01 18.59 14.74 18.59 26.22 0 2.96-.48 5.96-1.48 8.92l-23.58 69.48 3.24 5.27c5.64 9.17 8.8 19.48 9.4 29.95l5.17 41.56z" fill="#ffdfcf"/></g></g></g><g><path d="m351.542 155.425 9.669-22.707c2.42-5.684 6.548-10.167 11.521-13.084-2.452-2.02-5.299-3.655-8.468-4.768-13.82-4.86-29.03 1.85-34.77 15.33l-21.27 49.95s36.546-8.817 43.318-24.721z" fill="#ffdfcf"/></g><g fill="#ffcebf"><path d="m169.974 21.786c-2.033-4.541-2.227-9.498-.841-13.983-1.836.277-3.668.771-5.459 1.502-12.34 5.04-18.13 19.24-12.84 31.47l61.3 141.75c13.755-5.348 20.246-21.105 14.244-34.587-19.074-42.847-56.404-126.152-56.404-126.152z"/><path d="m50.07 116.037c-1.153-.194-2.316-.291-3.476-.291-6.58 0-13.08 3.07-17.2 8.89-6.1 8.62-4.86 20.43 2.9 27.6l99.056 91.448c9.397-11.886 7.986-29.019-3.229-39.207l-72.91-66.241c-5.398-4.906-6.767-14.952-5.141-22.199z"/><path d="m168.224 207.426c11.662-7.532 14.044-23.601 5.067-34.191l-75.022-88.507c-4.792-5.654-4.497-15.622-1.784-22.55-1.716-.401-3.473-.603-5.23-.603-5.52 0-11.06 1.98-15.45 6.01-9.15 8.39-9.95 22.55-1.78 31.91z"/></g><path d="m390.711 260.484c14.801-4.169-17.752-2.19-21.922-16.991s-5.989-29.992-9.512-24.104l.001-.014c-3.125-.976-9.712-2.727-13.158-2.727-18.317 0-33.166 14.849-33.166 33.166 0 6.473 1.861 12.509 5.068 17.613-7.47 4.499-12.467 12.685-12.467 22.041 0 14.201 11.512 25.713 25.713 25.713 8.185 0 15.477-3.824 20.186-9.784l.373-4.101c5.401 3.431 12.183 4.64 18.827 2.769 12.392-3.492 23.548-31.187 20.057-43.581" fill="#f9f3f1"/><path d="m404.378 282.839-22.229 22.229c-8.572 8.572-22.47 8.572-31.043 0-8.572-8.572-8.572-22.47 0-31.043l22.229-22.229c8.572-8.572 22.47-8.572 31.043 0 8.572 8.572 8.572 22.471 0 31.043z" fill="#ffeee6"/><path d="m435.42 313.881-22.229 22.229c-8.572 8.572-22.47 8.572-31.043 0-8.572-8.572-8.572-22.47 0-31.043l22.229-22.229c8.572-8.572 22.47-8.572 31.043 0 8.572 8.573 8.572 22.471 0 31.043z" fill="#ffeee6"/><path d="m471.623 379.681c-.604 0-1.331-.023-2.159-.066-1-12.238-11.242-21.859-23.738-21.859-10.532 0-19.461 6.837-22.609 16.312-.065-.009-.102-.015-.102-.015-5.752 4.425-9.46 11.378-9.46 19.197 0 9.132 5.059 17.08 12.525 21.202-1.929 3.475-3.031 7.472-3.031 11.728 0 13.368 10.837 24.205 24.205 24.205 11.801 0 21.624-8.447 23.766-19.623.146.003.292.011.439.011 6.429 0 12.27-2.51 16.604-6.6 5.412-4.638 8.845-11.518 8.845-19.204.002-13.966-11.32-25.288-25.285-25.288z" fill="#f9f3f1"/><path d="m466.463 344.924-22.229 22.229c-8.572 8.572-22.47 8.572-31.043 0-8.572-8.572-8.572-22.47 0-31.043l22.229-22.229c8.572-8.572 22.47-8.572 31.043 0 8.572 8.572 8.572 22.471 0 31.043z" fill="#ffeee6"/><path d="m497.505 375.966-22.229 22.229c-8.572 8.572-22.47 8.572-31.043 0-8.572-8.572-8.572-22.47 0-31.043l22.229-22.229c8.572-8.572 22.47-8.572 31.043 0 8.573 8.573 8.573 22.471 0 31.043z" fill="#ffeee6"/><g fill="#ffdfcf"><path d="m364.493 287.413 22.229-22.229c6.172-6.172 15.097-7.875 22.815-5.16-1.056-3.002-2.759-5.827-5.16-8.228-8.572-8.572-22.47-8.572-31.043 0l-22.229 22.229c-8.572 8.572-8.572 22.47 0 31.043 2.401 2.401 5.226 4.104 8.228 5.16-2.714-7.718-1.011-16.644 5.16-22.815z"/><path d="m395.536 318.455 22.229-22.229c6.172-6.172 15.097-7.875 22.815-5.16-1.056-3.002-2.759-5.827-5.16-8.228-8.572-8.572-22.47-8.572-31.042 0l-22.229 22.229c-8.572 8.572-8.572 22.47 0 31.043 2.401 2.401 5.226 4.104 8.228 5.16-2.716-7.718-1.012-16.643 5.159-22.815z"/><path d="m426.579 349.498 22.229-22.229c6.172-6.172 15.097-7.875 22.815-5.16-1.056-3.002-2.759-5.827-5.16-8.228-8.572-8.572-22.47-8.572-31.043 0l-22.229 22.229c-8.572 8.572-8.572 22.47 0 31.043 2.401 2.401 5.226 4.104 8.228 5.16-2.715-7.718-1.012-16.643 5.16-22.815z"/><path d="m457.621 380.54 22.229-22.229c6.172-6.172 15.097-7.875 22.815-5.16-1.056-3.002-2.759-5.827-5.16-8.228-8.572-8.572-22.47-8.572-31.042 0l-22.229 22.229c-8.572 8.572-8.572 22.47 0 31.043 2.401 2.401 5.226 4.104 8.228 5.16-2.715-7.718-1.012-16.643 5.159-22.815z"/></g><path d="m284.323 361.085 1.199-2.158c11.409-20.532 6.241-46.673-12.725-60.53-7.983-5.833-17.444-8.921-27.292-8.921-13.947 0-27.006 6.189-35.827 16.979-4.118 5.037-11.665 5.469-16.332.935l-15.421-14.983c-2.784-2.904-5.91-5.458-9.311-7.607l-126.69-80.065c-6.686-4.227-10.086-11.898-9.077-19.471-1.221-.231-2.46-.346-3.683-.346-7.92 0-15.55 4.76-18.63 12.81-3.39 8.87-.06 18.89 7.96 23.96l131.81 83.3 23.65 24.67 85.19 57.22 39.037 40.126 73.598 75.65c1.905 1.959 4.883 2.406 7.28 1.094l24.456-13.391s-92.25-91.573-117.236-115.926c-3.588-3.5-4.39-8.966-1.956-13.346z" fill="#ffcebf"/><path d="m216.865 329.26c-2.97-8.971-11.42-15.446-21.387-15.446-12.443 0-22.53 10.087-22.53 22.531v.004c-.053 0-.104-.004-.157-.004-15.631 0-28.303 12.672-28.303 28.303s12.672 28.303 28.303 28.303c5.78 0 11.154-1.737 15.633-4.711l31.821 2.042 7.735-39.707z" fill="#f9f3f1"/><path d="m278.767 437.346c0-18.684-7.001-36.69-19.622-50.467l-.595-.649c-4.119-4.496-4.899-11.122-1.938-16.452l11.83-21.29c6.532-11.754 3.127-26.544-7.886-34.259-11.258-7.888-26.694-5.757-35.395 4.885l-26.175 32.014c-6.831 8.355-10.563 18.815-10.563 29.607v42.906c0 14.315 6.556 27.843 17.792 36.713l27.173 21.451h.92c24.554 0 44.459-19.905 44.459-44.459z" fill="#ffdfcf"/><path d="m233.154 460.353c-11.236-8.87-17.792-22.397-17.792-36.713v-42.906c0-10.792 3.732-21.252 10.563-29.607l26.175-32.014c1.978-2.419 4.317-4.397 6.863-5.918-11.082-6.632-25.506-4.227-33.802 5.918l-26.175 32.014c-6.831 8.355-10.563 18.815-10.563 29.607v42.906c0 14.316 6.556 27.843 17.792 36.713l27.173 21.451h.92c7.195 0 13.984-1.72 19.997-4.754z" fill="#ffcebf"/><circle cx="454.441" cy="155.377" fill="#f9f3f1" r="21.689"/><circle cx="422.381" cy="47.327" fill="#f9f3f1" r="37.304"/><circle cx="79.924" cy="446.422" fill="#f9f3f1" r="30.937"/></g></g><g><path d="m510.686 429.407-27.559-28.455 19.682-19.682c11.482-11.483 11.482-30.167-.001-41.649-6.158-6.158-14.387-9.009-22.465-8.562.03-.55.049-1.101.049-1.656 0-7.867-3.063-15.262-8.626-20.825-6.158-6.158-14.387-9.01-22.465-8.563.03-.549.049-1.101.049-1.655 0-2.821-.4-5.579-1.162-8.216 8.527-6.381 13.753-16.516 13.753-27.426 0-18.872-15.354-34.225-34.225-34.225-10.294 0-19.762 4.5-26.215 12.231-8.104-3.844-17.607-3.779-25.666.186-1.775-7.064-4.591-13.862-8.413-20.083l-1.392-2.265 22.445-66.141c6.188-18.231-3.558-38.254-21.723-44.633-17.493-6.144-36.894 2.407-44.158 19.47l-18.894 44.375c-7.977-1.429-16.067-1.852-24.129-1.265l-54.71-106.11c-1.897-3.683-6.422-5.126-10.104-3.229-3.681 1.898-5.127 6.421-3.229 10.103l57.047 110.642c1.445 2.803 4.495 4.401 7.618 4.002 8.706-1.114 17.49-.826 26.106.854l4.491.876c3.479.677 6.949-1.167 8.336-4.423l21.267-49.95c4.176-9.81 15.329-14.725 25.387-11.193 10.443 3.667 16.046 15.179 12.488 25.66l-21.096 62.167c-2.32-.406-4.677-.618-7.054-.618-22.423 0-40.666 18.243-40.666 40.666 0 5.341 1.046 10.592 3.06 15.477-6.571 6.216-10.459 14.985-10.459 24.177 0 18.313 14.899 33.212 33.213 33.212 7.754 0 15.081-2.665 20.939-7.451 4.355 2.454 9.286 3.767 14.421 3.767.555 0 1.106-.019 1.656-.05-.447 8.079 2.404 16.308 8.562 22.466 5.563 5.563 12.958 8.626 20.824 8.626.549 0 1.096-.019 1.64-.048-.03.544-.048 1.091-.048 1.64 0 7.867 3.063 15.262 8.626 20.825 1.13 1.13 2.332 2.145 3.588 3.052-3.5 5.164-5.419 11.289-5.419 17.741 0 9.24 4.026 17.9 10.821 23.854-.875 2.935-1.327 5.996-1.327 9.077 0 17.482 14.223 31.705 31.704 31.705 13.182 0 24.787-8.149 29.487-20.046 5.445-.905 10.506-3.207 14.753-6.685l8.416 8.689c1.472 1.519 3.429 2.282 5.389 2.282 1.879 0 3.761-.702 5.217-2.113 2.977-2.882 3.053-7.63.171-10.605zm-28.702-83.406c3.7 0 7.401 1.409 10.218 4.226 5.635 5.634 5.635 14.802 0 20.437l-22.229 22.229c-5.633 5.632-14.801 5.634-20.436 0s-5.635-14.802 0-20.437l22.229-22.229h-.001c2.819-2.817 6.518-4.226 10.219-4.226zm-54.268-102.508c10.601 0 19.225 8.625 19.225 19.225 0 5.622-2.472 10.876-6.578 14.474-6.117-5.916-14.181-8.658-22.106-8.219.03-.55.049-1.101.049-1.656 0-6.145-1.877-11.999-5.347-16.919 3.629-4.364 8.962-6.905 14.757-6.905zm-114.611 47.356c-.507-6.974 2.85-13.406 8.757-16.979.589-.356 1.153-.764 1.617-1.272 2.446-2.672 2.634-6.39.894-9.161-2.563-4.081-3.919-8.792-3.919-13.624 0-14.152 11.514-25.666 25.666-25.666.281 0 .631.013 1.035.037 3.077.184 5.874 1.868 7.487 4.494 4.324 7.038 7.062 14.995 8.013 23.191l-16.851 16.852c-5.563 5.562-8.627 12.958-8.627 20.824 0 5.404 1.446 10.585 4.154 15.103-3.581 2.381-7.946 3.454-12.447 2.879-8.478-1.083-15.159-8.154-15.779-16.678zm53.523 13.148c-3.86 0-7.489-1.503-10.218-4.232s-4.233-6.358-4.233-10.218 1.504-7.488 4.233-10.218l22.229-22.229c2.816-2.817 6.518-4.226 10.218-4.226s7.401 1.409 10.219 4.226c2.729 2.729 4.232 6.358 4.232 10.218s-1.504 7.489-4.233 10.218l-22.229 22.229c-2.73 2.729-6.359 4.232-10.218 4.232zm20.824 26.81c-5.634-5.634-5.634-14.802 0-20.436l22.229-22.229c2.816-2.817 6.518-4.226 10.218-4.226s7.401 1.409 10.218 4.226c5.635 5.634 5.635 14.802 0 20.436l-22.229 22.229c-5.634 5.634-14.802 5.634-20.436 0zm53.272-11.623c2.816-2.817 6.517-4.226 10.218-4.226 3.7 0 7.4 1.409 10.217 4.226 2.729 2.729 4.233 6.358 4.233 10.218 0 3.857-1.502 7.482-4.226 10.211-.002.002-.005.004-.007.007l-22.229 22.229c-5.633 5.634-14.803 5.634-20.436 0-5.635-5.634-5.635-14.802 0-20.436zm30.734 104.087c-.002 0-.004 0-.005 0l-.307-.008c-.042 0-.084-.001-.127-.001-3.59 0-6.686 2.55-7.364 6.088-1.503 7.843-8.4 13.535-16.4 13.535-9.211 0-16.704-7.494-16.704-16.705 0-2.831.722-5.628 2.088-8.089.967-1.742 1.201-3.796.65-5.711-.55-1.915-1.839-3.532-3.583-4.495-5.335-2.945-8.649-8.554-8.649-14.636 0-4.727 1.961-9.115 5.401-12.275.751.057 1.503.094 2.255.094.547 0 1.094-.02 1.641-.05-.03.55-.049 1.101-.049 1.656 0 7.867 3.063 15.262 8.627 20.825 5.741 5.741 13.282 8.612 20.823 8.612 3.802 0 7.604-.732 11.176-2.191l10.039 10.365c-2.758 1.918-6.039 2.986-9.512 2.986z"/><path d="m238.037 475.918-27.174-21.451c-6.759-5.335-11.64-12.891-13.743-21.274-1.009-4.018-5.086-6.458-9.1-5.449-4.018 1.008-6.457 5.083-5.449 9.1 2.905 11.579 9.652 22.019 18.997 29.396l12.841 10.137v30.65c0 4.142 3.357 7.5 7.5 7.5s7.5-3.358 7.5-7.5v-18.896c1.227.773 2.6 1.174 3.976 1.174 2.217 0 4.412-.979 5.892-2.854 2.565-3.25 2.011-7.967-1.24-10.533z"/><path d="m260.835 377.62 14.163-25.489c8.425-15.159 4.066-34.095-10.138-44.045-14.395-10.084-34.382-7.325-45.505 6.28l-1.562 1.911c-5.566-6.202-13.588-9.962-22.315-9.962-9.276 0-17.582 4.229-23.095 10.859l-16.663-17.38c-.421-.439-.894-.825-1.407-1.15l-131.81-83.294c-4.984-3.15-7.073-9.434-4.965-14.941 1.318-3.444 4.074-6.108 7.563-7.307 3.49-1.2 7.302-.793 10.459 1.113l90.551 54.66c3.293 1.987 7.56 1.162 9.872-1.916 2.312-3.077 1.92-7.404-.908-10.015l-97.689-90.214c-4.977-4.597-5.779-12.233-1.865-17.764 2.178-3.078 5.433-5.062 9.167-5.586 3.734-.522 7.411.487 10.354 2.847l108.488 87.048c3.029 2.431 7.415 2.148 10.105-.657 2.689-2.803 2.793-7.197.238-10.124l-94.198-107.933c-5.534-6.341-5.008-15.762 1.198-21.448 6.252-5.727 15.998-5.3 21.724.951l104.005 113.526c2.475 2.7 6.536 3.218 9.608 1.228 3.073-1.991 4.259-5.91 2.806-9.271l-61.294-141.745c-1.752-4.052-1.799-8.535-.131-12.622s4.837-7.258 8.923-8.928c7.87-3.219 16.749.057 20.646 7.616l9.72 18.851c1.897 3.683 6.421 5.126 10.104 3.229 3.681-1.898 5.127-6.421 3.229-10.103l-9.72-18.851c-7.486-14.518-24.532-20.808-39.653-14.628-7.849 3.208-13.935 9.297-17.138 17.148-3.203 7.85-3.113 16.459.252 24.241l43.609 100.849-73.906-80.672c-11.314-12.35-30.566-13.192-42.917-1.879-12.26 11.232-13.3 29.844-2.366 42.372l38.635 44.268-42.582-34.167c-6.111-4.902-14.062-7.091-21.825-6.001-7.759 1.089-14.803 5.382-19.327 11.777-8.25 11.659-6.559 27.757 3.935 37.447l43.469 40.143-27.366-16.52c-6.972-4.208-15.386-5.105-23.088-2.456-7.7 2.647-13.785 8.527-16.695 16.131-4.652 12.158-.042 26.029 10.962 32.983l131.035 82.805 18.351 19.142c-15.442 3.973-26.89 18.007-26.89 34.671 0 19.742 16.062 35.803 35.804 35.803 2.762 0 5.486-.325 8.133-.948v3.544c0 4.142 3.357 7.5 7.5 7.5s7.5-3.358 7.5-7.5v-22.313c0-9.036 3.15-17.865 8.87-24.86l26.175-32.014c6.18-7.561 17.288-9.093 25.284-3.489 7.893 5.529 10.314 16.051 5.634 24.475l-16.788 30.213c-1.568 2.821-1.154 6.329 1.025 8.709l7.491 8.177c11.384 12.425 17.652 28.549 17.652 45.401v15.028c0 4.142 3.357 7.5 7.5 7.5s7.5-3.358 7.5-7.5v-15.028c0-4.351-.362-8.657-1.032-12.894l84.392 86.744c1.471 1.511 3.423 2.27 5.377 2.27 1.885 0 3.771-.706 5.229-2.125 2.97-2.888 3.034-7.637.146-10.605zm-88.044 7.831c-11.472 0-20.804-9.333-20.804-20.803 0-11.442 9.286-20.756 20.718-20.803.085.002.182.004.243.004 4.143 0 7.5-3.362 7.5-7.504 0-8.288 6.742-15.03 15.03-15.03 5.184 0 9.883 2.638 12.605 6.837l-14.902 18.228c-7.904 9.666-12.258 21.867-12.258 34.354v3.065c-2.554 1.087-5.312 1.652-8.132 1.652z"/><path d="m425.253 155.377c0 16.095 13.094 29.189 29.188 29.189s29.189-13.094 29.189-29.189-13.095-29.189-29.189-29.189-29.188 13.094-29.188 29.189zm43.377 0c0 7.824-6.365 14.189-14.189 14.189-7.823 0-14.188-6.365-14.188-14.189s6.365-14.189 14.188-14.189c7.824 0 14.189 6.365 14.189 14.189z"/><path d="m384.816 41.235c3.877 1.456 8.202-.506 9.658-4.384 4.344-11.561 15.558-19.328 27.906-19.328 16.434 0 29.804 13.37 29.804 29.803s-13.37 29.804-29.804 29.804c-10.554 0-20.424-5.677-25.757-14.816-2.089-3.578-6.682-4.786-10.258-2.697-3.577 2.087-4.785 6.68-2.697 10.258 8.011 13.728 22.845 22.256 38.712 22.256 24.705 0 44.804-20.099 44.804-44.804s-20.099-44.803-44.804-44.803c-18.563 0-35.42 11.676-41.947 29.054-1.457 3.876.506 8.201 4.383 9.657z"/><path d="m79.923 407.985c-21.194 0-38.437 17.243-38.437 38.438s17.242 38.437 38.437 38.437 38.438-17.243 38.438-38.437-17.243-38.438-38.438-38.438zm0 61.874c-12.923 0-23.437-10.514-23.437-23.437s10.514-23.438 23.437-23.438c12.924 0 23.438 10.514 23.438 23.438s-10.514 23.437-23.438 23.437z"/></g></g></svg>