<svg id="Capa_1" enable-background="new 0 0 512.314 512.314" height="512" viewBox="0 0 512.314 512.314" width="512" xmlns="http://www.w3.org/2000/svg"><g><g><path d="m83.82 33.5h30.213v61.831h-30.213z" fill="#e5e1e5"/><g><g><g><path d="m135.179 153.505h-72.506v-51.942c0-8.964 7.267-16.231 16.231-16.231h40.043c8.964 0 16.231 7.267 16.231 16.231v51.942z" fill="#efedef"/></g></g></g><path d="m189.774 475.004c0 16.464-13.347 29.811-29.811 29.811h-122.074c-16.464 0-29.811-13.347-29.811-29.811v-261.918c0-15.086 5.868-29.581 16.363-40.418l31.315-32.337c2.369-2.446 5.628-3.827 9.033-3.827h68.273c3.405 0 6.664 1.381 9.033 3.827l31.315 32.337c10.495 10.837 16.363 25.332 16.363 40.418v261.918z" fill="#c8effe"/><path d="m65.673 475.004v-261.918c0-15.086 5.868-29.581 16.363-40.418l31.315-32.337c2.369-2.446 5.628-3.827 9.033-3.827h-57.595c-3.405 0-6.665 1.381-9.033 3.827l-31.315 32.337c-10.495 10.838-16.363 25.332-16.363 40.418v261.917c0 16.464 13.347 29.811 29.811 29.811h57.595c-16.464.001-29.811-13.346-29.811-29.81z" fill="#99e6fc"/><g><path d="m227.969 331.572-57.575-57.575c-8.056-8.056-21.117-8.056-29.173 0-8.056 8.056-8.056 21.117 0 29.173l72.654 72.654 40.505 39.752 23.506-39.749z" fill="#ffdfcf"/><path d="m226.799 363.033-72.654-72.654c-5.772-5.772-7.371-14.138-4.87-21.367-2.936.981-5.716 2.647-8.053 4.985-8.056 8.056-8.056 21.117 0 29.173l72.654 72.654 40.505 39.752 9.532-16.119z" fill="#ffcebf"/><path d="m229.175 332.779-41.275-41.276c-8.313-8.313-8.313-21.791 0-30.104 8.313-8.313 21.791-8.313 30.104 0l20.315 20.315 66.529 65.629-42.281 20.984z" fill="#ffdfcf"/><path d="m275.655 360.439-33.391-35.548-41.276-41.276c-7.681-7.681-8.231-19.781-1.718-28.133-4.158.73-8.16 2.704-11.371 5.916-8.313 8.313-8.313 21.791 0 30.104l41.276 41.276 33.391 35.548 42.281-20.984-.938-.926z" fill="#ffcebf"/><g id="XMLID_382_"><path d="m333.283 321.889h-71.332c-14.933 0-27.039-12.106-27.039-27.039v-1.367c0-14.933 12.106-27.039 27.039-27.039h71.332c14.933 0 27.039 12.106 27.039 27.039v1.367c0 14.933-12.106 27.039-27.039 27.039z" fill="#f9f3f1"/><path d="m263.912 294.85v-1.366c0-14.933 12.106-27.039 27.039-27.039h-29c-14.933 0-27.039 12.106-27.039 27.039v1.366c0 14.933 12.106 27.039 27.039 27.039h29c-14.933 0-27.039-12.106-27.039-27.039z" fill="#f3eae6"/><g><path d="m250.825 375.827c-14.89 0-26.97-12.08-26.97-26.97 0-7.44 3.02-14.19 7.9-19.07s11.63-7.9 19.07-7.9h66.49c3.11 0 5.94-1.74 7.4-4.49 9.53-17.99 28.46-30.25 50.24-30.25 26.59 0 48.91 18.26 55.12 42.92l65.953 65.953c4.824 4.824 5.747 12.311 2.239 18.161l-44.545 74.296c-4.976 8.299-16.426 9.71-23.268 2.868l-49.978-49.978h-150.24c-10.47 0-20.51-4.18-27.88-11.61l-107.97-108.81c-8.92-8.92-8.92-23.39 0-32.31 4.46-4.46 10.31-6.69 16.16-6.69 5.84 0 11.69 2.23 16.15 6.69l87.18 87.19z" fill="#ffeee6"/></g><g><path d="m445.482 467.864-38.93-38.93c-7.074-7.074-16.669-11.049-26.674-11.049h-134.615c-10.47 0-20.51-4.18-27.88-11.61l-107.97-108.81c-3.95-3.95-6.158-9.012-6.61-14.174-3.077 1.103-5.955 2.883-8.418 5.346-8.92 8.92-8.92 23.39 0 32.31l107.97 108.81c7.37 7.43 17.41 11.61 27.88 11.61h150.24l49.979 49.978c6.842 6.842 18.293 5.431 23.268-2.868l11.842-19.751c-5.695 4.797-14.448 4.773-20.082-.862z" fill="#ffdfcf"/></g></g><g><g><g><path d="m231.105 80.066h-21.138c-4.38 0-7.931-3.551-7.931-7.931v-24.323c0-1.829-1.483-3.312-3.312-3.312h-162.955c-4.83 0-8.745-3.915-8.745-8.745v-19.51c0-4.83 3.915-8.745 8.745-8.745h162.956c22.263 0 40.312 18.048 40.312 40.312v24.323c-.001 4.38-3.551 7.931-7.932 7.931z" fill="#efedef"/></g></g></g><path d="m335.099 231.89h-21.345c0-12.661-8.011-23.935-19.966-28.102l-12.711-4.43c-1.982-.691-4.053.781-4.053 2.879v25.564c0 2.258-1.83 4.088-4.088 4.088h-12.171c-9.668 0-17.901 7.518-18.245 17.179-.361 10.143 7.755 18.479 17.818 18.479h75.188c10.063 0 18.178-8.336 17.817-18.479-.343-9.661-8.577-17.178-18.244-17.178z" fill="#f9f3f1"/><g><path d="m257.651 258.521c.596-9.468 8.779-16.683 18.265-16.683h12.125c2.258 0 4.088-1.83 4.088-4.088v-16.175c0-6.69 6.601-11.38 12.918-9.179l2.007.699c-3.401-4.175-7.939-7.45-13.268-9.308l-12.711-4.43c-1.982-.691-4.053.781-4.053 2.879v25.564c0 2.258-1.83 4.088-4.088 4.088h-12.171c-9.559 0-17.745 7.347-18.232 16.894-.509 9.965 7.193 18.257 16.925 18.743-1.315-2.683-2.009-5.766-1.805-9.004z" fill="#f3eae6"/></g></g></g><g><path d="m385.78 436.062c-1.407-1.407-3.314-2.197-5.304-2.197h-98.684c-4.143 0-7.5 3.358-7.5 7.5s3.357 7.5 7.5 7.5h95.577l61.252 61.252c1.465 1.464 3.385 2.197 5.304 2.197s3.839-.732 5.304-2.197c2.929-2.929 2.929-7.678 0-10.606z"/><path d="m509.539 398.924-36.725-36.725c-2.93-2.929-7.678-2.93-10.607 0-2.929 2.929-2.929 7.678 0 10.606l36.725 36.725c1.465 1.465 3.384 2.197 5.304 2.197 1.919 0 3.839-.732 5.304-2.197 2.928-2.928 2.928-7.677-.001-10.606z"/><path d="m436.792 326.177c-7.886-27.504-33.012-46.533-61.834-46.533-3.284 0-6.527.257-9.71.74-2.515-5.41-6.384-10.035-11.13-13.474 4.573-4.94 6.961-11.345 6.72-18.107-.487-13.689-11.793-24.412-25.739-24.412h-14.608c-2.606-12.664-11.695-23.314-24.236-27.684l-12.709-4.43c-3.22-1.121-6.803-.614-9.582 1.361-2.78 1.975-4.44 5.19-4.44 8.601v22.152h-8.758c-13.947 0-25.253 10.723-25.74 24.413-.24 6.749 2.138 13.143 6.696 18.08-1.464 1.062-2.845 2.23-4.123 3.503l-14.29-14.289c-5.437-5.437-12.666-8.432-20.355-8.432s-14.918 2.995-20.355 8.432c-3.533 3.533-5.951 7.765-7.26 12.254-5.271-5.091-12.183-7.895-19.529-7.895-7.514 0-14.577 2.926-19.89 8.239-3.433 3.433-5.791 7.54-7.074 11.899-5.243-3.983-11.606-6.144-18.303-6.144-8.104 0-15.725 3.156-21.455 8.887-5.731 5.73-8.888 13.35-8.888 21.455s3.156 15.725 8.866 21.435l107.968 108.811c8.72 8.788 20.821 13.828 33.201 13.828h19.598c4.143 0 7.5-3.358 7.5-7.5s-3.357-7.5-7.5-7.5h-19.598c-8.409 0-16.63-3.424-22.554-9.394l-107.991-108.833c-2.897-2.897-4.493-6.75-4.493-10.848s1.596-7.951 4.494-10.849c2.897-2.898 6.75-4.494 10.849-4.494 4.098 0 7.95 1.596 10.848 4.494l87.184 87.184c1.407 1.407 3.314 2.197 5.304 2.197h114.014c4.143 0 7.5-3.358 7.5-7.5s-3.357-7.5-7.5-7.5h-77.064c-10.734 0-19.467-8.733-19.467-19.467s8.732-19.467 19.467-19.467h66.494c5.878 0 11.25-3.248 14.019-8.476 8.587-16.203 25.301-26.269 43.62-26.269 22.65 0 42.323 15.317 47.841 37.25.331 1.315 1.012 2.515 1.97 3.474l14.823 14.824c2.93 2.929 7.679 2.929 10.606 0 2.93-2.929 2.93-7.677.001-10.606zm-219.811 42.147-70.456-70.458c-5.119-5.119-5.119-13.448 0-18.566 2.479-2.479 5.775-3.845 9.282-3.845s6.803 1.366 9.282 3.845l54.659 54.659c-2.172 4.512-3.39 9.565-3.39 14.898 0 7.219 2.235 13.924 6.044 19.467zm12.135-46.212-35.913-35.912c-5.375-5.375-5.375-14.122 0-19.498 2.604-2.604 6.065-4.038 9.748-4.038s7.146 1.434 9.749 4.038l16.678 16.678c-1.269 3.591-1.966 7.45-1.966 11.47 0 8.76 3.286 16.76 8.682 22.853-2.507 1.191-4.847 2.675-6.978 4.409zm31.649-82.722h24.66c4.143 0 7.5-3.358 7.5-7.5s-3.357-7.5-7.5-7.5h-.902v-15.888l6.796 2.369c8.933 3.112 14.935 11.56 14.935 21.019 0 4.142 3.357 7.5 7.5 7.5h21.346c5.731 0 10.554 4.461 10.749 9.945.101 2.838-.925 5.521-2.889 7.556-1.966 2.036-4.605 3.157-7.434 3.157h-75.188c-2.828 0-5.468-1.121-7.434-3.157-1.964-2.035-2.989-4.718-2.889-7.556.195-5.483 5.018-9.945 10.75-9.945zm57.318 74.501c-.162.308-.455.499-.764.499h-16.072-39.297c-10.773 0-19.538-8.765-19.538-19.539s8.765-19.539 19.538-19.539h71.961c6.825 0 13.039 3.619 16.546 9.17-13.653 5.614-25.195 15.862-32.374 29.409z"/><path d="m8.078 243.086c4.143 0 7.5-3.358 7.5-7.5v-22.5c0-13.209 5.061-25.71 14.25-35.2l32.812-33.881h72.572l32.811 33.881c9.189 9.489 14.251 21.99 14.251 35.2v13.79c0 4.142 3.357 7.5 7.5 7.5s7.5-3.358 7.5-7.5v-13.79c0-17.126-6.562-33.333-18.476-45.635l-35.021-36.164c-.337-.348-.707-.658-1.099-.931v-28.794c0-12.212-9.272-22.296-21.146-23.588v-25.974h73.004v20.135c0 8.509 6.923 15.431 15.432 15.431h21.137c8.509 0 15.432-6.922 15.432-15.431v-24.323c-.001-26.364-21.449-47.812-47.812-47.812h-162.956c-8.957 0-16.244 7.287-16.244 16.245v19.511c0 8.957 7.287 16.244 16.244 16.244h40.551v25.974c-11.874 1.293-21.146 11.376-21.146 23.588v28.793c-.392.273-.761.583-1.099.931l-35.021 36.164c-11.914 12.303-18.475 28.51-18.475 45.635v22.5c-.001 4.143 3.357 7.501 7.499 7.501zm27.691-206.086c-.686 0-1.244-.558-1.244-1.245v-19.51c0-.686.559-1.245 1.244-1.245h162.956c18.093 0 32.812 14.719 32.812 32.812v24.323c0 .238-.193.431-.432.431h-21.137c-.238 0-.432-.193-.432-.431v-24.323c0-5.962-4.851-10.812-10.813-10.812zm70.764 15v25.831h-15.213v-25.831zm-36.36 49.563c0-4.814 3.917-8.731 8.731-8.731h40.043c4.814 0 8.731 3.917 8.731 8.731v27.442h-57.505z"/><path d="m189.774 450.78c-4.143 0-7.5 3.358-7.5 7.5v16.724c0 12.302-10.009 22.311-22.311 22.311h-122.074c-12.302 0-22.311-10.008-22.311-22.311v-207.456c0-4.142-3.357-7.5-7.5-7.5s-7.5 3.358-7.5 7.5v207.456c0 20.573 16.737 37.311 37.311 37.311h122.074c20.573 0 37.311-16.737 37.311-37.311v-16.724c0-4.142-3.358-7.5-7.5-7.5z"/></g></g></svg>