<svg id="Capa_1" enable-background="new 0 0 511.744 511.744" height="512" viewBox="0 0 511.744 511.744" width="512" xmlns="http://www.w3.org/2000/svg"><g><g><g fill="#ffdfcf"><path d="m248.403 64.694c0-14.881-12.063-26.944-26.944-26.944-14.881 0-26.944 12.063-26.944 26.944v135.685h53.887v-135.685z"/><path d="m302.29 32.594c0-14.881-12.063-26.944-26.944-26.944-14.881 0-26.944 12.063-26.944 26.944v135.685h53.887v-135.685z"/><path d="m356.178 70.745c0-14.881-12.063-26.944-26.944-26.944-14.881 0-26.944 12.063-26.944 26.944v135.685h53.887v-135.685z"/><path d="m410.065 100.298c0-14.881-12.063-26.944-26.944-26.944-14.881 0-26.944 12.063-26.944 26.944v135.685h53.887v-135.685z"/></g><path d="m234.939 41.36c-3.964-2.294-8.571-3.609-13.48-3.609-14.881 0-26.944 12.063-26.944 26.944v135.685h26.944v-135.686c0-9.971 5.429-18.675 13.48-23.334z" fill="#ffcebf"/><path d="m288.83 9.261c-3.964-2.294-8.574-3.611-13.483-3.611-14.881 0-26.944 12.063-26.944 26.944v135.685h26.944v-135.685c0-9.971 5.432-18.673 13.483-23.333z" fill="#ffcebf"/><path d="m342.718 47.413c-3.964-2.294-8.575-3.612-13.484-3.612-14.881 0-26.944 12.063-26.944 26.944v135.685h26.944v-135.685c0-9.971 5.433-18.673 13.484-23.332z" fill="#ffcebf"/><path d="m396.603 76.965c-3.964-2.294-8.573-3.61-13.482-3.61-14.881 0-26.944 12.063-26.944 26.944v135.685h26.944v-135.686c0-9.972 5.431-18.674 13.482-23.333z" fill="#ffcebf"/><path d="m202.551 254.073v43.571h207.514v-96.569h-207.06z" fill="#ffdfcf"/><path d="m437.606 145.632c0-18.071-14.517-32.751-32.525-33.016-18.202-.267-33.42 14.638-33.514 32.842-.035 6.7 1.934 12.934 5.33 18.153-5.167 5.033-8.207 12.238-7.629 20.144.918 12.558 11.18 22.706 23.747 23.493 14.802.927 27.096-10.803 27.096-25.405 0-1.639-.157-3.241-.455-4.793-.206-1.075.283-2.165 1.234-2.707 9.982-5.678 16.716-16.406 16.716-28.711z" fill="#f9f3f1"/><g><g id="XMLID_384_"><g><path d="m379.155 143.555c5.84 34 5.88 67.74.14 101.22-1.2 6.97-4.12 13.19-8.25 18.34l-19.65 12.85-49.37-2.12c-23.2-2.52-46.94-3.79-70.7-3.81l-114.09 5.93-24.92-10.57c-5.3-5.66-9.06-12.86-10.45-21.03-5.71-33.5-5.63-67.1.15-100.78 3.78-22.02 24.69-36.76 46.75-33.23 65.53 10.5 137.69 10.49 203.65-.04 22.06-3.53 42.96 11.23 46.74 33.24z" fill="#b0e7c9"/></g></g></g><path d="m257.158 270.555c-10.49-15.175-24.14-28.341-39.703-38.299v-45.467c0-27.375-21.994-50.05-49.028-50.546-.311-.006-.623-.009-.933-.009-13.334 0-25.877 5.191-35.345 14.642-.015.015-.03.03-.046.046-1.312 1.318-3.546.229-3.267-1.609.29-1.909.598-3.818.926-5.728 2.339-13.624 11.247-24.45 22.916-29.897-8.049-.959-16.035-2.07-23.914-3.333-22.06-3.53-42.97 11.21-46.75 33.23-5.78 33.68-5.86 67.28-.15 100.78 1.39 8.17 5.15 15.37 10.45 21.03l24.92 10.57 42.536-2.211 71.554-3.719c8.623.007 17.242.184 25.834.52z" fill="#91deb6"/><g><g fill="#f9f3f1"><circle cx="134.679" cy="188.445" r="32.205"/><path d="m137.535 267.466c-5.825-6.455-14.254-10.514-23.634-10.514-17.577 0-31.826 14.249-31.826 31.826 0 4.892 1.107 9.525 3.079 13.666v58.874c0 8.767 7.107 15.873 15.873 15.873 8.767 0 15.873-7.107 15.873-15.873v-40.86c8.168-.764 15.437-4.617 20.634-10.375l11.706-3.816v-25.194z"/><path d="m226.871 186.688c.887-3.178 1.169-6.609.702-10.164-1.499-11.412-10.797-20.484-22.242-21.707-15.188-1.623-28.025 10.238-28.025 25.096 0 8.424 4.13 15.88 10.472 20.466-1.41 3.566-2.011 7.54-1.546 11.704 1.303 11.648 10.997 20.822 22.697 21.512 14.103.831 25.8-10.36 25.8-24.282 0-6.344-2.431-12.117-6.41-16.446-1.524-1.66-2.053-4.008-1.448-6.179z"/></g><path d="m241.305 282.785c-9.71-14.32-22.5-26.48-37.6-35.52l-6.25-3.75v-56.725c0-16.426-12.972-30.248-29.395-30.55-8.504-.156-16.202 3.222-21.755 8.765-5.42 5.43-8.77 12.91-8.77 21.19v57.32 68.23c0 22.7 8.25 44.62 23.21 61.69l36.68 41.86v77.147c0 6.518 5.284 11.802 11.803 11.802h139.695c6.518 0 11.803-5.284 11.803-11.802v-67.927l34.72-54.57c9.55-15.02 14.62-32.44 14.62-50.23v-22.071h-168.515z" fill="#ffdfcf"/><path d="m231.383 501.775v-88.595c0-5.513-2.003-10.838-5.636-14.984l-31.044-35.428c-14.96-17.07-23.21-38.99-23.21-61.69v-68.23-57.32c0-6.598 2.142-12.688 5.748-17.637-2.878-1.013-5.967-1.592-9.181-1.651-8.504-.156-16.202 3.222-21.755 8.765-5.42 5.43-8.77 12.91-8.77 21.19v57.32 68.23c0 22.7 8.25 44.62 23.21 61.69l36.68 41.86v77.147c0 6.518 5.284 11.802 11.802 11.802h22.418c-.169-.796-.262-1.621-.262-2.469z" fill="#ffcebf"/><path d="m371.09 263.435c-1.107-10.738-9.831-19.364-20.58-20.358-9.827-.909-18.522 4.401-22.603 12.446-.698 1.377-2.224 2.103-3.745 1.843-1.886-.322-3.867-.367-5.904-.079-8.634 1.222-15.472 8.349-16.299 17.029-1.086 11.389 7.841 20.972 19.007 20.972h.029c1.557-.003 2.969.925 3.453 2.405 3.235 9.895 13.031 16.822 24.249 15.636 10.676-1.129 19.252-9.804 20.282-20.49.333-3.455-.106-6.77-1.163-9.796-.726-2.08-.414-4.348.638-6.283 2.117-3.897 3.137-8.475 2.636-13.325z" fill="#f9f3f1"/><path d="m322.461 104.299c-5.849 0-11.223 2.081-15.471 5.559-1.401 1.147-3.402 1.01-4.677-.276-3.631-3.664-11.201 3.012-16.772 3.03-10.474.034-16.79-.522-17.349 9.937-.616 11.532 8.552 21.075 19.949 21.075 3.01 0 5.861-.671 8.418-1.866 1.682-.786 3.648-.194 4.588 1.407 4.359 7.425 12.273 12.39 21.314 12.39 13.747 0 24.89-11.474 24.89-25.628s-11.143-25.628-24.89-25.628z" fill="#f9f3f1"/></g></g><g><path d="m360.728 468.053c-4.142 0-7.5 3.358-7.5 7.5v28.691c0 4.142 3.358 7.5 7.5 7.5s7.5-3.358 7.5-7.5v-28.691c0-4.142-3.358-7.5-7.5-7.5z"/><path d="m441.594 146.104c0-15.716-10.033-29.129-24.029-34.18v-10.979c0-18.656-14.552-34.449-33.197-35.112-7.684-.273-14.835 1.99-20.691 6.01v-.408c0-18.657-14.552-34.449-33.197-35.112-7.684-.273-14.835 1.99-20.691 6.01v-7.203c0-19.272-15.77-35.453-35.039-35.125-18.719.319-33.848 15.645-33.848 34.439v1.839c-5.856-4.02-13.007-6.283-20.691-6.01-18.645.663-33.197 16.455-33.197 35.112v43.908c-4.989-.326-9.969-.691-14.929-1.131-4.2-.371-7.897 2.791-8.151 7.029-.245 4.096 3.033 7.577 7.12 7.938 29.838 2.636 60.286 3.243 90.337 1.874 0 .039-.004.077-.004.116 0 14.471 11.773 26.245 26.245 26.245 2.284 0 4.549-.301 6.74-.888 6.314 8.173 16.194 13.178 26.739 13.178 18.604 0 33.739-15.135 33.739-33.739 0-3.148-.444-6.237-1.283-9.195 9.281 4.546 16.335 13.277 18.194 24.104 5.666 33.002 5.712 66.205.137 98.685-.145.845-.335 1.681-.546 2.51-4.99-5.784-12.122-9.667-20.151-10.41-11.569-1.071-22.5 4.379-28.576 14.039-1.801-.111-3.614-.042-5.417.213-9.268 1.312-17.053 7.565-20.663 15.887-20.304-2-41.07-3.07-61.878-3.191-7.613-8.036-16.31-15.107-25.935-21.01.797.063 1.597.107 2.4.107 3.063 0 6.155-.458 9.188-1.388 14.846-4.552 24.079-19.511 21.476-34.795-1.135-6.669-4.388-12.717-9.184-17.295 2.013-6.564 1.803-13.671-.709-20.243-5.589-14.626-21.875-22.873-36.993-18.798-3.352.903-6.486 2.348-9.325 4.272-5.366-2.972-11.532-4.67-18.088-4.67-7.749 0-14.955 2.365-20.936 6.41-3.918-1.466-8.09-2.241-12.297-2.241-19.368 0-35.125 15.757-35.125 35.126 0 17.936 13.517 32.766 30.897 34.862v30.049c-5.024-2.267-10.517-3.489-16.134-3.489-7.346 0-14.224 2.03-20.113 5.55-2.253-3.624-3.809-7.641-4.533-11.892-5.523-32.427-5.473-65.486.15-98.258 3.058-17.821 20.188-29.97 38.171-27.089 3.377.541 6.874 1.067 10.682 1.605 4.066.575 8.052-2.066 8.745-6.114.716-4.186-2.168-8.107-6.344-8.696-3.833-.541-7.337-1.067-10.71-1.607-26.072-4.182-50.889 13.481-55.329 39.364-5.91 34.449-5.961 69.208-.153 103.313 1.203 7.062 3.951 13.697 8.024 19.515-4.967 6.584-7.917 14.77-7.917 23.634 0 5.306 1.035 10.434 3.079 15.27v56.697c0 12.657 9.823 23.452 22.471 23.93 13.297.503 24.275-10.169 24.275-23.356v-34.639c2.217-.612 4.36-1.433 6.421-2.425 1.943 15.66 7.515 30.641 16.426 43.893 1.448 2.153 3.817 3.316 6.23 3.316 1.657-.001 3.336-.549 4.749-1.701 3.035-2.474 3.507-6.934 1.331-10.189-9.502-14.217-14.523-30.749-14.523-47.826v-125c0-12.163 9.439-22.536 21.594-22.996 12.778-.484 23.328 9.772 23.328 22.445v57.323c0 2.637 1.385 5.081 3.648 6.435l6.249 3.741c22.482 13.461 39.361 34.095 48.099 58.603 1.334 3.741 5.325 5.815 9.141 4.716 4.144-1.193 6.454-5.636 5.007-9.699-3.759-10.555-8.852-20.476-15.115-29.56 16.073.389 32.065 1.348 47.77 2.885.848 4.975 3.09 9.658 6.528 13.439 4.433 4.875 10.528 7.919 17.027 8.575 4.807 11.188 15.667 18.31 27.849 18.309 1.098 0 2.208-.058 3.325-.176 14.245-1.507 25.583-12.958 26.958-27.229.426-4.419-.085-8.761-1.518-12.906.01-.058.041-.169.118-.313 2.496-4.593 3.733-9.708 3.656-14.934 4.045-5.761 6.788-12.396 7.984-19.359 1.869-10.891 3.132-21.857 3.8-32.868 1.523.218 3.061.332 4.602.332 2.574 0 5.076-.308 7.48-.873v107.073c0 16.367-4.666 32.396-13.45 46.206l-34.714 54.574c-.766 1.203-1.172 2.6-1.172 4.025v18.759c0 4.107 3.164 7.688 7.269 7.811 4.247.128 7.731-3.278 7.731-7.497v-16.89l33.543-52.733c10.315-16.216 15.794-35.037 15.794-54.256v-115.178c6.301-5.968 10.244-14.403 10.244-23.746 0-1.955-.172-3.89-.515-5.794 8.944-6.804 14.3-17.406 14.3-28.889zm-327.456 41.926c0-11.098 9.028-20.126 20.125-20.126.182 0 .362.022.544.027-3.034 5.408-4.772 11.635-4.772 18.265v21.504c-9.072-1.949-15.897-10.024-15.897-19.67zm2.065 124.961c-3.854.36-6.801 3.596-6.801 7.467v40.859c0 4.617-3.756 8.374-8.374 8.374-4.617 0-8.373-3.756-8.373-8.374v-58.874c0-1.116-.249-2.217-.729-3.225-1.56-3.275-2.351-6.788-2.351-10.442 0-13.413 10.913-24.326 24.326-24.326 5.961 0 11.707 2.205 16.134 6.125v36.398c-3.852 3.423-8.675 5.536-13.832 6.018zm84.633-149.787c7.271-1.021 14.443 3.229 17.06 10.094 1.711 4.49 1.361 9.447-.96 13.603-1.964 3.515-.803 7.953 2.631 10.055 4.006 2.452 6.649 6.37 7.442 11.031 1.319 7.747-3.55 15.626-11.086 17.937-3.681 1.128-7.527.906-10.965-.559v-39.17c0-8.307-2.722-15.988-7.315-22.207 1.023-.358 2.087-.629 3.193-.784zm128.398-111.902c10.721 0 19.444 8.723 19.444 19.444v32.578c-5.597-1.167-11.485-1.369-17.441-.419-7.076 1.13-14.234 2.125-21.446 3.011v-35.17c-.001-10.722 8.722-19.444 19.443-19.444zm-73.331-16.858c0-10.721 8.722-19.444 19.443-19.444s19.444 8.723 19.444 19.444v73.128c-12.838 1.263-25.828 2.143-38.887 2.643zm-53.888 75.676v-45.426c0-10.721 8.723-19.444 19.444-19.444s19.444 8.723 19.444 19.444v45.934c-12.957.205-25.947.042-38.888-.508zm119.097 38.534c-7.213 0-13.868-4.219-16.953-10.749-.91-1.924-2.594-3.372-4.633-3.982-2.041-.61-4.243-.324-6.058.786-1.771 1.082-3.789 1.654-5.834 1.654-6.2 0-11.245-5.044-11.245-11.245 0-.327.026-.651.055-.975 19.382-1.318 58.188-6.576 58.701-6.634 3.014 3.406 4.706 7.795 4.706 12.405.001 10.333-8.406 18.74-18.739 18.74zm42.566-39.475v-8.924c0-10.721 8.722-19.443 19.443-19.443s19.444 8.722 19.444 19.443v9.621c-9.712.706-18.463 5.195-24.618 12.237-3.854-5.232-8.723-9.625-14.269-12.934zm-1.814 163.999c-2.104 3.87-2.515 8.367-1.129 12.336.735 2.108.997 4.33.778 6.605-.684 7.091-6.532 13.003-13.605 13.751-7.339.778-14.054-3.545-16.331-10.508-1.482-4.533-5.729-7.575-10.56-7.575-.029 0-.062 0-.097 0-3.29-.013-6.32-1.361-8.537-3.799-2.225-2.446-3.274-5.628-2.957-8.961.499-5.237 4.655-9.576 9.882-10.315 1.205-.17 2.415-.155 3.592.046 4.804.818 9.507-1.528 11.696-5.843 2.878-5.674 8.855-8.958 15.223-8.371 7.138.66 13.075 6.532 13.81 13.659.326 3.148-.285 6.251-1.765 8.975zm53.261-108.163c-3.386 1.77-4.9 5.801-3.517 9.362.797 2.051 1.201 4.207 1.201 6.41 0 9.773-7.951 17.724-17.724 17.724-1.391 0-2.75-.161-4.072-.472.199-18.55-1.278-37.183-4.467-55.753-.255-1.485-.585-2.939-.97-4.368 3.276-7.936 10.943-13.141 19.691-13.141 11.76 0 21.327 9.567 21.327 21.327 0 7.966-4.395 15.212-11.469 18.911z"/><path d="m179.675 383.657c-2.73-3.116-7.469-3.427-10.583-.697-3.115 2.73-3.427 7.468-.697 10.583l21.535 24.57v86.13c0 4.142 3.358 7.5 7.5 7.5s7.5-3.358 7.5-7.5v-88.952c0-1.819-.661-3.576-1.86-4.943z"/></g></g></svg>