<svg id="Capa_1" enable-background="new 0 0 510.952 510.952" height="512" viewBox="0 0 510.952 510.952" width="512" xmlns="http://www.w3.org/2000/svg"><g><g><path d="m391.181 372.471c-.311-8.542-6.641-15.441-14.736-17.176l9.55-18.714v-180.49h-37.284-199.1v235.32h223.3c10.1 0 18.28-8.18 18.28-18.27 0-.22 0-.45-.01-.67z" fill="#f3eae6"/><path d="m149.611 156.091h131.576v235.32h-131.576z" fill="#efe2dd"/><path d="m261.187 119.538v271.875c0 37.767-56.79 68.384-126.843 68.384s-126.844-30.617-126.844-68.384v-271.875z" fill="#f9f3f1"/><path d="m66.145 119.538h-58.645v271.875c0 24.63 24.157 46.216 60.391 58.255-1.143-3.69-1.747-7.477-1.747-11.342v-318.788z" fill="#f3eae6"/><g><ellipse cx="134.343" cy="119.538" fill="#faf7f7" rx="126.843" ry="68.384"/><path d="m37.696 134.62c0-37.767 56.79-68.384 126.843-68.384 25.856 0 49.9 4.175 69.954 11.336-23.209-16.075-59.438-26.418-100.15-26.418-70.053.001-126.843 30.617-126.843 68.384 0 23.828 22.61 44.805 56.889 57.047-16.727-11.585-26.693-26.147-26.693-41.965z" fill="#f9f3f1"/><ellipse cx="134.343" cy="119.538" fill="#fed2a4" rx="68.199" ry="29.031"/><g id="XMLID_426_"><g><path d="m357.987 289.921-8.439 36.029-.817 9.971c-.01.22-.01.44-.01.66-.01 10.1 8.18 18.28 18.27 18.28h5.48c9.91 0 18.35 7.71 18.71 17.61.01.22.01.45.01.67v-54.83-28.389h-33.204z" fill="#efe2dd"/><path d="m348.731 335.921c-.01.22-.01.44-.01.66h-.01v-180.49-54.83c0-10.09 8.19-18.27 18.28-18.27h134.52c1.07 0 1.94.86 1.94 1.94v231.44c0 1.07-.87 1.94-1.94 1.94h-110.32-23.76c-9.91 0-18.35 7.7-18.7 17.61z" fill="#f9f3f1"/></g></g></g></g><g><path d="m134.343 83.007c-36.697 0-75.699 12.803-75.699 36.531s39.002 36.531 75.699 36.531 75.699-12.803 75.699-36.531-39.002-36.531-75.699-36.531zm0 58.062c-37.053 0-60.699-12.752-60.699-21.531s23.646-21.531 60.699-21.531 60.699 12.752 60.699 21.531-23.646 21.531-60.699 21.531z"/><path d="m501.51 75.486h-20.647c-4.143 0-7.5 3.358-7.5 7.5s3.357 7.5 7.5 7.5h15.089v220.323h-76.965v-2.551c0-4.142-3.357-7.5-7.5-7.5s-7.5 3.358-7.5 7.5v2.551h-36.558c-4.016 0-7.817.875-11.214 2.443v-211.99c0-5.942 4.834-10.776 10.776-10.776h36.995v3.236c0 4.142 3.357 7.5 7.5 7.5s7.5-3.358 7.5-7.5v-3.236h29.914c4.143 0 7.5-3.358 7.5-7.5s-3.357-7.5-7.5-7.5h-81.909c-14.213 0-25.776 11.563-25.776 25.776v47.328h-72.528v-29.052c0-19.089-12.195-37.214-34.339-51.038-3.516-2.195-8.141-1.123-10.334 2.391s-1.123 8.141 2.391 10.334c17.593 10.982 27.282 24.588 27.282 38.313 0 33.002-54.653 60.883-119.344 60.883s-119.343-27.881-119.343-60.883 54.652-60.884 119.343-60.884c22.837 0 45.084 3.399 64.335 9.83 3.929 1.312 8.178-.809 9.49-4.738s-.809-8.177-4.738-9.49c-20.764-6.936-44.654-10.602-69.087-10.602-35.102 0-68.219 7.432-93.25 20.928-26.499 14.286-41.093 33.803-41.093 54.956v209.243c0 4.142 3.358 7.5 7.5 7.5s7.5-3.358 7.5-7.5v-173.911c6.64 7.236 15.395 13.857 26.093 19.624 25.032 13.495 58.149 20.927 93.25 20.927s68.219-7.432 93.251-20.927c10.698-5.767 19.452-12.388 26.093-19.624v236.543c0 33.002-54.653 60.884-119.344 60.884s-119.343-27.881-119.343-60.884v-30.659c0-4.142-3.358-7.5-7.5-7.5s-7.5 3.358-7.5 7.5v30.659c0 21.153 14.594 40.67 41.093 54.956 25.032 13.496 58.149 20.928 93.25 20.928s68.219-7.432 93.251-20.928c23.335-12.58 37.432-29.218 40.467-47.456h104.851c7.059 0 13.646-2.797 18.549-7.877 4.659-4.828 7.198-11.112 7.222-17.792 0-.036.005-.071.005-.107v-47.329h102.822c5.206 0 9.441-4.236 9.441-9.442v-231.438c.001-5.207-4.235-9.442-9.441-9.442zm-120.842 305.133c-2.051 2.125-4.805 3.294-7.756 3.294h-104.225v-220.323h72.528v172.995c0 .036.005.071.005.107.023 6.679 2.562 12.963 7.222 17.791 4.902 5.08 11.49 7.877 18.549 7.877h5.482c5.977 0 11.004 4.655 11.208 10.376.106 2.961-.965 5.76-3.013 7.883zm3.021-30.814c-3.398-1.569-7.198-2.444-11.215-2.444h-5.482c-2.951 0-5.705-1.17-7.756-3.294-2.048-2.123-3.118-4.922-3.014-7.882.204-5.722 5.231-10.376 11.207-10.376h16.26z"/><path d="m411.487 263.327c-4.143 0-7.5 3.358-7.5 7.5v10.051c0 4.142 3.357 7.5 7.5 7.5s7.5-3.358 7.5-7.5v-10.051c0-4.142-3.358-7.5-7.5-7.5z"/><path d="m418.987 233.396c0-4.142-3.357-7.5-7.5-7.5s-7.5 3.358-7.5 7.5v10.051c0 4.142 3.357 7.5 7.5 7.5s7.5-3.358 7.5-7.5z"/><path d="m418.987 195.965c0-4.142-3.357-7.5-7.5-7.5s-7.5 3.358-7.5 7.5v10.051c0 4.142 3.357 7.5 7.5 7.5s7.5-3.358 7.5-7.5z"/><path d="m418.987 158.534c0-4.142-3.357-7.5-7.5-7.5s-7.5 3.358-7.5 7.5v10.051c0 4.142 3.357 7.5 7.5 7.5s7.5-3.358 7.5-7.5z"/><path d="m418.987 121.103c0-4.142-3.357-7.5-7.5-7.5s-7.5 3.358-7.5 7.5v10.051c0 4.142 3.357 7.5 7.5 7.5s7.5-3.358 7.5-7.5z"/></g></g></svg>