<svg id="Capa_1" enable-background="new 0 0 512.474 512.474" height="512" viewBox="0 0 512.474 512.474" width="512" xmlns="http://www.w3.org/2000/svg"><g><g><path d="m231.936 27.5h36.542v58.653h-36.542z" fill="#f3eae6"/><g><path d="m393.626 232.506-90.6-85.18-12.144-23.105h-78.357l-17.399 23.105-90.6 85.18c-10.13 9.53-15.88 22.81-15.88 36.72v200.98c0 19.2 15.57 34.77 34.76 34.77h251.34c19.19 0 34.76-15.57 34.76-34.77v-200.98c0-13.91-5.75-27.19-15.88-36.72z" fill="#f2fbff"/><path d="m161.576 470.206v-200.98c0-13.91 5.75-27.19 15.88-36.72l90.6-85.18 17.399-23.105h-72.93l-17.399 23.105-90.6 85.18c-10.13 9.53-15.88 22.81-15.88 36.72v200.98c0 19.2 15.57 34.77 34.76 34.77h72.93c-19.19 0-34.76-15.57-34.76-34.77z" fill="#dff6fd"/><g id="XMLID_433_"><g><path d="m301.906 96.486-21.49-22.92c-1.44-1.54-3.46-2.41-5.57-2.41h-51.17c-2.11 0-4.13.87-5.57 2.41l-21.5 22.92c-.95 1.02-1.48 2.36-1.48 3.76v.87l14.951 17.723h78.945l14.374-17.723v-.87c0-1.4-.53-2.74-1.49-3.76z" fill="#f9f3f1"/><path d="m232.956 170.866h31.24v120.64h-31.24z" fill="#dff6fd"/><path d="m290.883 137.329h-84.613v33.284c0 8.423 6.828 15.25 15.25 15.25h54.112c8.423 0 15.25-6.828 15.25-15.25v-33.284z" fill="#dff6fd"/><path d="m206.27 137.329v33.284c0 8.423 6.828 15.25 15.25 15.25h5.546l40.99-38.537 7.528-9.997z" fill="#c8effe"/><path d="m229.537 100.246c0-1.4.53-2.74 1.48-3.76l21.5-22.92c1.44-1.54 3.46-2.41 5.57-2.41h-34.41c-2.11 0-4.13.87-5.57 2.41l-21.5 22.92c-.95 1.02-1.48 2.36-1.48 3.76v.87l14.951 17.723h34.41l-14.951-17.723z" fill="#f3eae6"/><path d="m195.126 101.116h108.27v46.21h-108.27z" fill="#f3eae6"/><path d="m195.126 101.116h34.41v46.21h-34.41z" fill="#efe2dd"/></g></g><path d="m378.959 64.634h25.985c2.982 0 5-3.041 3.84-5.789l-1.965-4.654c-11.945-28.298-39.673-46.691-70.388-46.691h-159.571c-2.325 0-4.21 1.885-4.21 4.21v23.58c0 2.325 1.885 4.21 4.21 4.21h159.573c16.343 0 31.15 8.89 38.893 22.993.727 1.324 2.122 2.141 3.633 2.141z" fill="#f9f3f1"/><path d="m423.826 138.916c0 16.477-13.358 29.835-29.835 29.835s-29.835-13.358-29.835-29.835c0-11.882 15.513-30.975 24.167-40.701 3.021-3.395 8.316-3.395 11.336 0 8.654 9.726 24.167 28.819 24.167 40.701z" fill="#c8effe"/><g id="XMLID_428_"><g><path d="m379.506 276.506v193.7c0 2.63-2.14 4.77-4.76 4.77h-251.34c-2.62 0-4.76-2.14-4.76-4.77v-193.7z" fill="#fef48b"/></g></g><path d="m161.576 470.206v-193.7h-42.93v193.7c0 2.63 2.14 4.77 4.76 4.77h38.504c-.214-1.561-.334-3.151-.334-4.77z" fill="#fef056"/><g id="XMLID_429_"><g><path d="m264.196 276.506v107.5c0 2.49-2.02 4.51-4.5 4.51h-22.24c-2.48 0-4.5-2.02-4.5-4.51v-107.5z" fill="#fef056"/></g></g></g></g><g><path d="m398.766 227.041-87.871-82.613v-44.184c0-3.315-1.248-6.472-3.516-8.89l-21.492-22.918c-2.59-2.763-6.153-4.439-9.909-4.724v-16.712h60.455c13.465 0 25.849 7.32 32.32 19.105 2.043 3.718 5.954 6.028 10.205 6.028h25.985c3.921 0 7.555-1.95 9.723-5.217 2.167-3.267 2.552-7.374 1.026-10.988l-1.964-4.654c-13.148-31.148-43.488-51.274-77.297-51.274h-159.571c-6.457 0-11.71 5.253-11.71 11.71v23.58c0 6.457 5.253 11.71 11.71 11.71h47.576v16.653h-.765c-4.167 0-8.191 1.743-11.04 4.782l-21.493 22.92c-2.268 2.417-3.516 5.574-3.516 8.889v43.841l-43.118 40.538c-3.018 2.837-3.164 7.584-.326 10.602 2.838 3.019 7.584 3.165 10.602.327l43.314-40.724h.676v15.784c0 12.544 10.206 22.75 22.751 22.75h3.935v75.644h-29.648c-4.143 0-7.5 3.358-7.5 7.5s3.357 7.5 7.5 7.5h29.648v100.001c0 6.619 5.385 12.003 12.003 12.003h22.236c6.618 0 12.003-5.385 12.003-12.003v-100h100.308v183.467h-245.858v-183.467h37.696c4.143 0 7.5-3.358 7.5-7.5s-3.357-7.5-7.5-7.5h-45.196c-4.143 0-7.5 3.358-7.5 7.5v193.703c0 6.763 5.501 12.264 12.264 12.264h251.33c6.763 0 12.264-5.501 12.264-12.264v-193.703c0-4.142-3.357-7.5-7.5-7.5h-107.808v-75.644h3.935c12.545 0 22.751-10.206 22.751-22.75v-15.784h1.676l88.432 83.141c8.589 8.074 13.515 19.467 13.515 31.256v131.888c0 4.142 3.357 7.5 7.5 7.5s7.5-3.358 7.5-7.5v-131.888c-.002-15.912-6.65-31.287-18.241-42.185zm-196.144-87.212v-31.217h93.272v31.217zm-22.472-124.829h156.281c27.765 0 52.681 16.528 63.479 42.108l.011.026h-19.025c-9.345-15.555-26.198-25.134-44.463-25.134h-156.283zm59.286 32h21.542v16.653h-21.542zm-15.863 31.695c.025-.026.061-.042.098-.042h51.174c.038 0 .073.016.1.043l13.987 14.916h-79.347zm33.125 302.317h-16.242v-97.005h16.242zm0-112.005h-16.242v-75.644h16.242zm26.685-98.394c0 4.273-3.478 7.75-7.751 7.75h-54.111c-4.273 0-7.751-3.477-7.751-7.75v-15.784h69.613z"/><path d="m409.505 425.576c-4.143 0-7.5 3.358-7.5 7.5v37.134c0 15.034-12.23 27.264-27.264 27.264h-251.33c-15.033 0-27.264-12.23-27.264-27.264v-200.984c0-11.79 4.926-23.182 13.515-31.256l21.811-20.505c3.018-2.837 3.164-7.584.326-10.602-2.837-3.019-7.583-3.164-10.602-.327l-21.811 20.505c-11.591 10.898-18.239 26.274-18.239 42.185v200.984c0 23.305 18.959 42.264 42.264 42.264h251.33c23.305 0 42.264-18.959 42.264-42.264v-37.134c0-4.142-3.357-7.5-7.5-7.5z"/><path d="m405.263 93.229c-2.861-3.216-6.97-5.061-11.271-5.061s-8.41 1.845-11.271 5.061c-17.294 19.438-26.063 34.81-26.063 45.687 0 20.586 16.748 37.335 37.335 37.335s37.335-16.749 37.335-37.335c-.002-10.876-8.771-26.248-26.065-45.687zm-11.272 68.022c-12.315 0-22.335-10.02-22.335-22.335 0-5.166 5.851-17.26 22.271-35.716 0 .001.13 0 .129 0 16.42 18.456 22.271 30.55 22.271 35.716-.001 12.315-10.02 22.335-22.336 22.335z"/></g></g></svg>