<svg id="Capa_1" enable-background="new 0 0 511.308 511.308" height="512" viewBox="0 0 511.308 511.308" width="512" xmlns="http://www.w3.org/2000/svg"><g><g><g><g><g id="XMLID_436_"><g><path d="m404.104 285.644c6.9 2.53 10.45 10.19 7.91 17.09l-7.66 20.87c-2.53 6.91-10.19 10.45-17.09 7.92-6.15-2.26-9.62-8.58-8.52-14.81l-23.34-6.78c-4.97 9.29-11.2 17.8-18.47 25.31l13.75 20.33c5.44-2.36 11.98-.88 15.8 4.01 4.53 5.79 3.5 14.16-2.3 18.69l-17.51 13.69c-5.8 4.53-14.17 3.51-18.7-2.29-4.03-5.16-3.65-12.35.57-17.07l-16.25-18.07c-10.14 5.88-21.28 10.23-33.11 12.73l.05 24.52c5.83 1.08 10.43 5.96 10.86 12.14.52 7.34-5 13.71-12.34 14.23l-22.17 1.58c-7.34.52-13.71-5.01-14.23-12.35-.47-6.53 3.87-12.29 10-13.84l-3.38-24.08c-23.43-1.58-44.89-10.28-62.25-23.97l-34.96-46.56c-4.06-10.08-6.72-20.87-7.72-32.14l-24.37-2.89c-1.77 5.66-7.16 9.64-13.36 9.34-7.34-.36-13.01-6.61-12.65-13.96l1.09-22.2c.36-7.35 6.61-13.01 13.96-12.65 6.54.32 11.74 5.31 12.54 11.59l24.31-.48c1.98-10.48 5.4-20.45 10.05-29.69l-19.16-15.29c-4.49 3.87-11.17 4.41-16.27.89-6.06-4.19-7.57-12.48-3.39-18.53l12.64-18.29c4.18-6.06 12.48-7.57 18.53-3.39 5.39 3.72 7.17 10.71 4.54 16.47l20.92 12.41c8.02-8.72 17.4-16.17 27.79-22.03l-7.36-23.4c-5.88.71-11.72-2.58-13.99-8.35-2.68-6.85.69-14.58 7.54-17.26l20.7-8.11c6.85-2.69 14.58.69 17.26 7.54 2.39 6.1-.03 12.88-5.42 16.19l10.4 21.96c8.44-2.01 17.25-3.08 26.31-3.08 25.81 0 49.6 8.66 68.63 23.22l35.64 46.04c5.67 13.48 8.8 28.28 8.8 43.81 0 8.2-.88 16.2-2.54 23.9l22.39 10.02c3.37-4.88 9.71-7.07 15.53-4.93z" fill="#a8d3d8"/></g></g></g><g><path d="m245.64 226.687c-.588-3.25-1.794-6.399-3.67-9.29-8.375-12.911-26.829-15.812-41.22-6.478-14.39 9.334-19.267 27.367-10.892 40.279 2.781 4.288 6.678 7.465 11.165 9.463l23.176 4.905 24.721-16.85z" fill="#8ebac5"/><circle cx="313.03" cy="255.958" fill="#8ebac5" r="21.951"/><g><path d="m279.234 391.784-.028-13.743c-53.692-14.806-93.127-63.988-93.127-122.387 0-48.513 27.223-90.675 67.216-112.046-8.228.17-16.248 1.222-23.95 3.056l-10.4-21.96c5.39-3.31 7.81-10.09 5.42-16.19-2.68-6.85-10.41-10.23-17.26-7.54l-20.7 8.11c-6.85 2.68-10.22 10.41-7.54 17.26 2.27 5.77 8.11 9.06 13.99 8.35l7.36 23.4c-10.39 5.86-19.77 13.31-27.79 22.03l-20.92-12.41c2.63-5.76.85-12.75-4.54-16.47-6.05-4.18-14.35-2.67-18.53 3.39l-12.64 18.29c-4.18 6.05-2.67 14.34 3.39 18.53 5.1 3.52 11.78 2.98 16.27-.89l19.16 15.29c-4.65 9.24-8.07 19.21-10.05 29.69l-24.31.48c-.8-6.28-6-11.27-12.54-11.59-7.35-.36-13.6 5.3-13.96 12.65l-1.09 22.2c-.36 7.35 5.31 13.6 12.65 13.96 6.2.3 11.59-3.68 13.36-9.34l24.37 2.89c1 11.27 3.66 22.06 7.72 32.14l34.96 46.56c17.36 13.69 38.82 22.39 62.25 23.97l3.38 24.08c-6.13 1.55-10.47 7.31-10 13.84.52 7.34 6.89 12.87 14.23 12.35l22.17-1.58c7.34-.52 12.86-6.89 12.34-14.23-.431-6.18-5.031-11.06-10.861-12.14z" fill="#8ebac5"/></g><g id="XMLID_438_"><g><path d="m255.654 7.504c137.05 0 248.15 111.1 248.15 248.15s-111.1 248.15-248.15 248.15-248.15-111.1-248.15-248.15 111.1-248.15 248.15-248.15zm-3.38 443.42c112.04 1.9 203.28-91.79 198.49-203.74-1.2-28.06-8.32-54.58-20.14-78.36-1.84-3.69-6.57-4.81-9.85-2.31l-294.93 224.58c-3.29 2.5-3.45 7.37-.37 10.13 33.77 30.22 78.11 48.87 126.8 49.7zm133.19-330.71c3.29-2.5 3.45-7.37.37-10.13-33.77-30.22-78.11-48.87-126.8-49.7-112.04-1.9-203.28 91.79-198.49 203.75 1.2 28.05 8.32 54.57 20.14 78.35 1.84 3.69 6.57 4.81 9.85 2.31z" fill="#f37c7c"/></g></g></g><circle cx="282.29" cy="322.69" fill="#8ebac5" r="15.508"/></g></g><g><path d="m436.428 74.879c-48.286-48.286-112.487-74.879-180.774-74.879-57.844 0-112.41 18.845-157.797 54.497-3.257 2.559-3.824 7.273-1.265 10.531s7.274 3.824 10.531 1.265c42.719-33.556 94.08-51.293 148.531-51.293 64.281 0 124.714 25.032 170.168 70.486s70.486 105.887 70.486 170.168-25.032 124.714-70.486 170.168-105.887 70.486-170.168 70.486-124.714-25.032-170.168-70.486-70.486-105.887-70.486-170.168c0-63.467 24.504-123.359 68.997-168.643 2.903-2.955 2.861-7.703-.093-10.606s-7.703-2.861-10.606.093c-47.267 48.106-73.298 111.731-73.298 179.156 0 68.288 26.593 132.488 74.879 180.774s112.487 74.879 180.774 74.879 132.488-26.593 180.774-74.879 74.879-112.487 74.879-180.774-26.591-132.488-74.878-180.775z"/><path d="m121.383 124.762c17.713-18.175 38.453-32.369 61.644-42.189 24.069-10.191 49.608-15.137 75.88-14.686 15.924.27 31.725 2.547 46.965 6.768 3.993 1.107 8.125-1.234 9.23-5.226s-1.234-8.125-5.226-9.23c-16.461-4.559-33.524-7.018-50.714-7.31-28.394-.481-55.973 4.858-81.984 15.872-25.038 10.602-47.424 25.921-66.537 45.532-19.124 19.622-33.871 42.412-43.831 67.735-10.346 26.304-14.976 54.034-13.763 82.421 1.219 28.527 8.258 55.905 20.921 81.371 1.877 3.775 5.307 6.489 9.409 7.447 1.064.248 2.139.37 3.207.37 3.04 0 6.019-.99 8.493-2.874l294.934-224.583c3.341-2.545 5.353-6.41 5.519-10.605.167-4.218-1.546-8.256-4.699-11.078-14.888-13.324-31.611-24.352-49.706-32.777-3.756-1.748-8.217-.122-9.965 3.633-1.749 3.755-.122 8.217 3.633 9.965 16.426 7.648 31.631 17.612 45.213 29.626l-55.83 42.513c-11.328-7.855-23.725-13.61-36.802-17.159l3.075-19.038c.661-4.089-2.119-7.939-6.208-8.6-4.085-.66-7.939 2.119-8.6 6.208l-2.975 18.418c-5.59-.784-11.266-1.204-17.013-1.204-7.41 0-14.807.679-22.066 2.023l-5.485-11.579c4.646-5.687 6.057-13.586 3.247-20.754-4.19-10.688-16.296-15.974-26.983-11.786l-20.696 8.113c-10.688 4.189-15.976 16.294-11.787 26.983 2.648 6.755 8.538 11.486 15.379 12.825l4.022 12.786c-7.258 4.589-13.996 9.931-20.128 15.959l-11.033-6.551c.677-7.311-2.564-14.652-8.898-19.028-4.576-3.161-10.108-4.353-15.579-3.352-5.471 1-10.225 4.07-13.386 8.646l-12.637 18.289c-3.162 4.575-4.352 10.108-3.352 15.579s4.07 10.225 8.646 13.386c5.969 4.125 13.496 4.759 19.918 2.048l10.467 8.352c-2.867 6.497-5.149 13.235-6.822 20.138l-12.806.253c-3.281-6.569-9.906-11.095-17.596-11.473-5.55-.273-10.883 1.634-15.004 5.37-4.12 3.735-6.54 8.851-6.812 14.405l-1.089 22.204c-.272 5.554 1.635 10.882 5.37 15.003s8.851 6.54 14.406 6.813c7.238.345 13.977-3.076 18.003-8.766l13.315 1.576c1.09 7.77 2.948 15.396 5.526 22.793l-54.892 41.798c-11.409-23.287-17.756-48.287-18.869-74.326-1.123-26.28 3.162-51.948 12.736-76.29 9.227-23.457 22.891-44.571 40.615-62.757zm74.768 122.355c-6.111-9.421-2.217-22.836 8.681-29.905 5.406-3.506 11.666-4.923 17.62-3.986 5.653.888 10.351 3.819 13.227 8.253.495.763.909 1.568 1.279 2.394l-36.515 27.805c-1.697-1.268-3.152-2.803-4.292-4.561zm-45.639 19.012c-.314-3.535-3.064-6.367-6.589-6.784l-24.371-2.885c-3.592-.43-6.966 1.767-8.042 5.214-.789 2.53-3.179 4.21-5.827 4.077-3.205-.157-5.685-2.893-5.527-6.098l1.089-22.204c.076-1.553.752-2.983 1.904-4.027s2.642-1.578 4.195-1.5c2.813.138 5.115 2.265 5.475 5.057.489 3.798 3.776 6.611 7.587 6.541l24.302-.481c3.549-.07 6.563-2.619 7.221-6.106 1.819-9.63 4.977-18.951 9.385-27.701 1.596-3.169.753-7.023-2.021-9.237l-19.167-15.293c-2.822-2.251-6.849-2.172-9.582.188-2.004 1.733-4.924 1.894-7.101.391-1.279-.884-2.137-2.213-2.417-3.742-.279-1.529.054-3.076.938-4.355l12.637-18.289c.884-1.279 2.212-2.137 3.742-2.417 1.53-.282 3.076.054 4.355.937 2.317 1.601 3.151 4.623 1.984 7.185-1.587 3.484-.296 7.604 2.996 9.559l20.916 12.418c3.049 1.811 6.948 1.239 9.349-1.371 7.542-8.198 16.275-15.122 25.957-20.579 3.087-1.74 4.535-5.404 3.471-8.784l-7.359-23.396c-1.083-3.444-4.465-5.631-8.054-5.195-2.633.316-5.143-1.18-6.107-3.642-1.171-2.988.307-6.372 3.295-7.543l20.696-8.113c2.986-1.171 6.372.307 7.543 3.295 1.028 2.622.032 5.594-2.367 7.068-3.263 2.003-4.493 6.142-2.854 9.602l10.403 21.96c1.517 3.203 5.068 4.906 8.517 4.084 8.017-1.911 16.283-2.88 24.57-2.88 20.031 0 39.151 5.517 55.873 16.006l-62.456 47.558c-.261-.448-.525-.895-.808-1.332-5.225-8.056-13.564-13.351-23.482-14.909-9.616-1.509-19.598.698-28.112 6.22-17.836 11.57-23.714 34.292-13.103 50.652 1.345 2.073 2.929 3.964 4.696 5.672l-33.82 25.753c-1.987-6.693-3.309-13.579-3.93-20.574z"/><path d="m389.924 386.546c-17.713 18.175-38.454 32.37-61.644 42.188-24.069 10.191-49.606 15.134-75.88 14.686-8.746-.148-17.545-.91-26.156-2.265-4.092-.645-7.931 2.151-8.574 6.243-.644 4.092 2.151 7.931 6.243 8.574 9.295 1.462 18.794 2.285 28.232 2.445 1.177.02 2.351.03 3.524.03 27.147 0 53.526-5.344 78.459-15.901 25.038-10.602 47.424-25.92 66.538-45.532 19.124-19.622 33.871-42.411 43.831-67.735 10.346-26.304 14.977-54.035 13.764-82.421-1.219-28.528-8.258-55.905-20.921-81.372-1.877-3.775-5.307-6.489-9.409-7.446-4.094-.957-8.357-.044-11.699 2.503l-294.935 224.584c-3.341 2.545-5.353 6.41-5.519 10.605-.167 4.218 1.546 8.256 4.699 11.078 20.808 18.622 44.739 32.516 71.13 41.298 3.928 1.31 8.177-.818 9.484-4.748 1.308-3.93-.818-8.177-4.748-9.484-24.087-8.016-45.964-20.634-65.042-37.513l54.468-41.476c3.994 2.848 8.129 5.448 12.398 7.771l-4.306 11.701c-1.431 3.888.561 8.198 4.448 9.629.854.314 1.729.463 2.589.463 3.054 0 5.923-1.879 7.04-4.912l3.881-10.548c9.449 3.688 19.358 6.185 29.551 7.387l1.785 12.698c-6.13 4.043-9.832 11.162-9.287 18.841.394 5.547 2.924 10.609 7.125 14.254 3.82 3.313 8.604 5.094 13.611 5.094.5 0 1.002-.018 1.506-.054l22.174-1.573c11.451-.812 20.107-10.79 19.294-22.242-.514-7.237-4.725-13.509-10.855-16.826l-.027-13.39c8.308-2.207 16.338-5.295 23.988-9.227l8.561 9.523c-2.827 6.778-1.921 14.75 2.82 20.816 3.425 4.382 8.351 7.167 13.871 7.844 5.518.677 10.973-.836 15.354-4.261l17.515-13.689c9.045-7.07 10.652-20.18 3.583-29.226-4.469-5.717-11.463-8.57-18.402-7.895l-7.516-11.115c4.675-5.349 8.866-11.094 12.524-17.167l12.306 3.578c1.173 7.25 6.147 13.545 13.375 16.198 5.221 1.917 10.875 1.685 15.922-.652 5.046-2.336 8.881-6.499 10.797-11.719l7.66-20.869c3.956-10.777-1.594-22.764-12.372-26.719-6.813-2.501-14.259-1.231-19.798 2.999l-12.235-5.472c1.045-6.429 1.574-12.956 1.574-19.475 0-2.726-.097-5.438-.276-8.136l12.646-1.849c4.099-.599 6.936-4.407 6.336-8.506-.599-4.099-4.406-6.938-8.506-6.336l-12.396 1.813c-1.199-6.201-2.883-12.295-5.057-18.255l55.435-42.212c11.409 23.287 17.756 48.287 18.869 74.327 1.123 26.28-3.162 51.948-12.736 76.291-9.226 23.458-22.891 44.572-40.614 62.757zm-62.444-130.892c0 8.549-6.955 15.504-15.504 15.504-4.023 0-7.817-1.584-10.652-4.263l24.317-18.517c1.182 2.217 1.839 4.701 1.839 7.276zm33.744 1c0 7.501-.798 15.013-2.372 22.326-.746 3.464 1.035 6.978 4.27 8.424l22.386 10.013c3.296 1.474 7.176.391 9.23-2.58 1.508-2.18 4.296-3.065 6.777-2.154 3.013 1.105 4.564 4.456 3.458 7.469l-7.66 20.869c-1.106 3.013-4.459 4.563-7.47 3.458-2.644-.97-4.208-3.687-3.718-6.459.666-3.771-1.616-7.437-5.292-8.505l-23.336-6.785c-3.405-.991-7.035.538-8.706 3.663-4.617 8.627-10.419 16.58-17.245 23.638-2.466 2.549-2.809 6.477-.822 9.415l13.75 20.333c2.023 2.992 5.891 4.117 9.202 2.677 2.43-1.057 5.267-.34 6.895 1.745 1.976 2.528 1.527 6.194-1.001 8.17l-17.515 13.689c-1.225.958-2.749 1.382-4.292 1.191-1.543-.189-2.92-.968-3.877-2.193-1.734-2.219-1.63-5.352.249-7.45 2.554-2.852 2.55-7.17-.01-10.017l-16.248-18.074c-2.373-2.639-6.27-3.256-9.34-1.474-9.628 5.584-20.025 9.583-30.903 11.886-3.472.735-5.954 3.803-5.947 7.353l.049 24.522c.007 3.611 2.587 6.705 6.138 7.36 2.606.481 4.557 2.659 4.744 5.297.228 3.201-2.192 5.99-5.394 6.217l-22.175 1.574c-1.544.105-3.051-.39-4.225-1.409-1.175-1.019-1.882-2.434-1.992-3.985-.2-2.809 1.637-5.35 4.367-6.041 3.711-.939 6.119-4.523 5.586-8.314l-3.385-24.086c-.494-3.515-3.384-6.202-6.925-6.439-17.985-1.207-35.125-6.942-50.124-16.668l90.975-69.275c5.699 6.321 13.9 10.126 22.651 10.126 16.82 0 30.504-13.684 30.504-30.504 0-5.9-1.707-11.577-4.815-16.431l18.714-14.25c3.212 10.198 4.844 20.814 4.844 31.678z"/><path d="m282.29 299.682c-12.687 0-23.008 10.321-23.008 23.008s10.321 23.008 23.008 23.008 23.008-10.321 23.008-23.008-10.321-23.008-23.008-23.008zm0 31.016c-4.416 0-8.008-3.592-8.008-8.008s3.592-8.008 8.008-8.008 8.008 3.592 8.008 8.008-3.592 8.008-8.008 8.008z"/></g></g></svg>