<svg id="Capa_1" enable-background="new 0 0 511.308 511.308" height="512" viewBox="0 0 511.308 511.308" width="512" xmlns="http://www.w3.org/2000/svg"><g><g><path d="m380.561 251.949v11.79l11.53 8.964c11.02 8.567 17.465 21.743 17.465 35.701v14.844c0 4.716-3.823 8.54-8.54 8.54h-91.172l14.774-45.62c2.904-5.149 6.82-9.743 11.607-13.464l11.53-8.964v-11.79-26.854h34.034z" fill="#ffdfcf"/><path d="m351.445 272.703 2.222-1.727c5.873-4.566 9.308-11.588 9.308-19.027v-26.854h-15.22v26.854 11.79l-11.53 8.964c-4.787 3.721-8.703 8.315-11.607 13.464l-14.774 45.62h15.22l14.774-45.62c2.904-5.148 6.821-9.742 11.607-13.464z" fill="#ffcebf"/><path d="m365.001 255.654c14.41 0 26.091-11.681 26.091-26.091v-18.059c0-14.41-11.681-26.091-26.091-26.091-14.41 0-26.091 11.681-26.091 26.091v18.059c-.001 14.409 11.681 26.091 26.091 26.091z" fill="#ffdfcf"/><path d="m293.089 263.74 31.127 26.979c15.27 13.235 24.042 32.447 24.042 52.655v11.829c0 4.94-4.005 8.945-8.945 8.945h-175.264-46.078v-35.649l138.183-83.044z" fill="#99e6fc"/><path d="m309.845 171.268v-20.436c0-16.893-13.695-30.588-30.588-30.588h-42.28l-8.523-12.273c-1.382-1.99-4.097-2.517-6.123-1.189-12.398 8.126-19.867 21.953-19.867 36.777v27.709l5.443 7.308 25.593 34.013s68.685-18.001 68.685-18.053 7.66-23.268 7.66-23.268z" fill="#baafb9"/><path d="m234.471 178.576-5.443-7.308v-27.709c0-8.753 2.622-17.148 7.307-24.238l-7.882-11.35c-1.382-1.99-4.097-2.517-6.123-1.189-12.398 8.126-19.867 21.953-19.867 36.777v27.709l5.443 7.308 25.593 34.013s9.904-2.596 22.188-5.818z" fill="#aa9ea9"/><path d="m217.955 247.769c-9.576-9.696-15.492-23.015-15.492-37.72v-38.781c35.794-9.333 71.588-9.333 107.381 0v6.529 61.562l-61.664 29.699z" fill="#ffdfcf"/><path d="m244.567 238.499c-9.576-9.696-15.492-23.015-15.492-37.72v-34.726c-8.87 1.167-17.741 2.903-26.612 5.216v38.781c0 14.704 5.916 28.023 15.492 37.72l30.226 21.29 23.621-11.376z" fill="#ffcebf"/><g><g><path d="m180.297 276.444c-1.321-1.323-2.72-2.579-4.215-3.741l-11.53-8.964v-11.79-31.416h-32.806v31.416 11.79l-11.53 8.964c-11.02 8.567-17.465 21.743-17.465 35.701v26.384 24.083l89.111-50.811z" fill="#ffdfcf"/></g><path d="m117.971 334.787v-26.384c0-13.958 6.446-27.134 17.465-35.701l7.429-5.776c2.587-2.011 4.1-5.105 4.1-8.382v-6.596-31.416h-15.22v31.416 11.79l-11.53 8.964c-11.02 8.567-17.465 21.743-17.465 35.701v26.384 24.083l15.22-8.678v-15.405z" fill="#ffcebf"/><path d="m354.129 229.563v-18.059c0-11.762 7.784-21.703 18.481-24.96-2.408-.733-4.962-1.131-7.61-1.131-14.41 0-26.091 11.681-26.091 26.091v18.059c0 14.41 11.681 26.091 26.091 26.091 2.648 0 5.212-.397 7.62-1.13-10.696-3.258-18.491-13.199-18.491-24.961z" fill="#ffcebf"/><g><g id="XMLID_440_"><g><path d="m255.654 7.504c137.05 0 248.15 111.1 248.15 248.15s-111.1 248.15-248.15 248.15-248.15-111.1-248.15-248.15 111.1-248.15 248.15-248.15zm-3.38 443.42c112.04 1.9 203.28-91.79 198.49-203.74-1.2-28.06-8.32-54.58-20.14-78.36-1.84-3.69-6.57-4.81-9.85-2.31l-294.93 224.58c-3.29 2.5-3.45 7.37-.37 10.13 33.77 30.22 78.11 48.87 126.8 49.7zm133.19-330.71c3.29-2.5 3.45-7.37.37-10.13-33.77-30.22-78.11-48.87-126.8-49.7-112.04-1.9-203.28 91.79-198.49 203.75 1.2 28.05 8.32 54.57 20.14 78.35 1.84 3.69 6.57 4.81 9.85 2.31z" fill="#f37c7c"/></g></g></g><path d="m148.149 255.654c14.41 0 26.091-11.681 26.091-26.091v-18.059c0-14.41-11.681-26.091-26.091-26.091-14.41 0-26.091 11.681-26.091 26.091v18.059c0 14.409 11.682 26.091 26.091 26.091z" fill="#ffdfcf"/><path d="m137.278 229.563v-18.059c0-11.762 7.798-21.707 18.495-24.964-2.408-.733-4.976-1.127-7.624-1.127-14.41 0-26.091 11.681-26.091 26.091v18.059c0 14.41 11.681 26.091 26.091 26.091 2.648 0 5.216-.398 7.624-1.131-10.697-3.258-18.495-13.198-18.495-24.96z" fill="#ffcebf"/></g></g><g><path d="m436.428 74.879c-48.286-48.286-112.487-74.879-180.774-74.879-86.415 0-166.362 43.196-213.857 115.548-2.273 3.463-1.309 8.112 2.154 10.386 3.462 2.272 8.112 1.309 10.386-2.154 44.713-68.114 119.972-108.78 201.317-108.78 64.281 0 124.714 25.032 170.168 70.486s70.486 105.887 70.486 170.168-25.032 124.714-70.486 170.168-105.887 70.486-170.168 70.486-124.714-25.032-170.168-70.486-70.486-105.887-70.486-170.168c0-36.731 8.063-71.994 23.966-104.81 1.807-3.727.249-8.213-3.478-10.02-3.728-1.805-8.214-.249-10.02 3.478-16.9 34.872-25.468 72.336-25.468 111.352 0 68.288 26.593 132.488 74.879 180.774s112.487 74.879 180.774 74.879 132.488-26.593 180.774-74.879 74.879-112.487 74.879-180.774-26.591-132.488-74.878-180.775z"/><path d="m121.383 124.762c17.713-18.175 38.453-32.369 61.644-42.189 24.069-10.191 49.607-15.128 75.88-14.686 14.328.243 28.585 2.113 42.375 5.556 4.017 1 8.09-1.441 9.093-5.459 1.004-4.019-1.441-8.09-5.459-9.093-14.895-3.719-30.288-5.738-45.754-6.001-28.394-.481-55.973 4.858-81.984 15.872-25.038 10.602-47.424 25.921-66.537 45.532-19.124 19.622-33.871 42.412-43.831 67.735-10.346 26.304-14.976 54.034-13.763 82.421 1.219 28.527 8.258 55.905 20.921 81.371 1.877 3.775 5.307 6.489 9.409 7.447 1.064.248 2.139.37 3.207.37 3.04 0 6.019-.99 8.493-2.874l294.934-224.583c3.341-2.545 5.353-6.41 5.519-10.605.167-4.218-1.546-8.256-4.699-11.078-16.184-14.484-34.467-26.214-54.341-34.865-3.798-1.652-8.217.086-9.87 3.884s.086 8.217 3.884 9.87c18.069 7.865 34.717 18.479 49.503 31.559l-62.662 47.715v-11.827c0-21.002-17.086-38.088-38.088-38.088h-38.357l-6.286-9.052c-3.728-5.367-10.93-6.767-16.395-3.183-14.563 9.544-23.256 25.638-23.256 43.049v27.709 38.78c0 13.342 4.281 26.039 12.151 36.549l-26.467 20.154-8.594-6.681v-6.936c5.986-6.069 9.688-14.395 9.688-23.573v-18.059c0-18.522-15.069-33.591-33.591-33.591s-33.591 15.069-33.591 33.591v18.059c0 9.177 3.703 17.504 9.688 23.573v6.935l-8.633 6.712c-12.94 10.06-20.362 25.23-20.362 41.622v23.373l-8.35 6.358c-11.409-23.287-17.756-48.287-18.869-74.326-1.123-26.28 3.162-51.948 12.736-76.29 9.226-23.457 22.89-44.571 40.614-62.757zm102.659-9.993 6.774 9.754c1.401 2.019 3.703 3.222 6.16 3.222h42.28c12.73 0 23.088 10.357 23.088 23.088v10.965c-30.696-6.632-61.686-6.632-92.382 0v-18.238c.001-11.349 5.213-21.908 14.08-28.791zm-14.079 95.28v-32.905c29.64-6.879 59.593-7.092 89.254-.68l-80.174 61.05c-5.883-7.91-9.08-17.447-9.08-27.465zm-80.405 1.454c0-10.251 8.34-18.591 18.591-18.591s18.591 8.34 18.591 18.591v18.059c0 10.251-8.34 18.591-18.591 18.591s-18.591-8.34-18.591-18.591zm-19.307 96.901c0-11.728 5.31-22.582 14.569-29.78l11.53-8.964c1.828-1.421 2.896-3.606 2.896-5.921v-1.792c2.837.781 5.821 1.207 8.903 1.207s6.065-.426 8.903-1.207v1.793c0 2.315 1.069 4.5 2.897 5.921l8.351 6.492-58.048 44.202v-11.951z"/><path d="m240.813 303.546c-2.509-3.295-7.216-3.932-10.51-1.423l-109.006 83.004c-3.341 2.545-5.353 6.41-5.519 10.605-.167 4.218 1.546 8.256 4.699 11.078 36.265 32.454 83.026 50.782 131.669 51.608 1.177.02 2.351.03 3.524.03 27.147 0 53.526-5.344 78.459-15.901 25.038-10.602 47.424-25.92 66.538-45.532 19.124-19.622 33.871-42.411 43.831-67.735 10.346-26.304 14.977-54.035 13.764-82.421-1.219-28.528-8.258-55.905-20.921-81.372-1.877-3.775-5.307-6.489-9.409-7.446-4.093-.957-8.356-.044-11.699 2.503l-160.475 122.195c-3.295 2.509-3.933 7.215-1.423 10.51 2.51 3.296 7.216 3.934 10.51 1.423l27.937-21.273 26.521 22.987c13.635 11.818 21.455 28.944 21.455 46.987v13.274h-157.301l55.933-42.591c3.296-2.509 3.933-7.214 1.423-10.51zm141.937-92.043v18.059c0 10.251-8.34 18.591-18.591 18.591-9.09 0-16.664-6.562-18.266-15.195l35.883-27.323c.631 1.879.974 3.857.974 5.868zm-49.535 31.108c1.671 3.948 4.072 7.514 7.04 10.523v6.936l-8.633 6.711c-4.118 3.201-7.692 6.948-10.675 11.179l-15.973-13.844zm-.916 45.349c2.301-3.579 5.159-6.716 8.529-9.335l11.53-8.963c1.828-1.421 2.897-3.606 2.897-5.921v-1.787c2.837.781 5.821 1.201 8.903 1.201s6.065-.426 8.903-1.207v1.793c0 2.315 1.069 4.5 2.897 5.921l11.529 8.963c9.259 7.198 14.569 18.052 14.569 29.78v14.844c0 .573-.466 1.04-1.04 1.04h-47.658c-3.501-13.732-10.742-26.33-21.059-36.329zm-168.25 83.687h184.21c4.142 0 7.5-3.358 7.5-7.5v-20.774c0-1.367-.037-2.729-.109-4.086h45.367c8.844 0 16.04-7.195 16.04-16.04v-14.844c0-16.391-7.422-31.562-20.362-41.622l-8.633-6.711v-6.935c5.986-6.069 9.688-14.395 9.688-23.573v-18.059c0-5.332-1.279-10.549-3.67-15.238l30.327-23.093c11.409 23.287 17.756 48.287 18.869 74.327 1.123 26.28-3.162 51.948-12.736 76.291-9.226 23.457-22.891 44.571-40.614 62.756-17.713 18.175-38.454 32.37-61.644 42.188-24.069 10.191-49.605 15.134-75.88 14.686-44.676-.758-87.636-17.46-121.1-47.058l32.476-24.729c.09.004.179.014.271.014z"/></g></g></svg>