<svg id="Capa_1" enable-background="new 0 0 513.505 513.505" height="512" viewBox="0 0 513.505 513.505" width="512" xmlns="http://www.w3.org/2000/svg"><g><g><path d="m272.292 227.773 46.021-16.46-42.726-56.009-38.95 26.494z" fill="#ffdfcf"/><path d="m168.422 328.053 39.19-34.54-40.147-48.763-38.003 33.226z" fill="#ffdfcf"/><path d="m416.621 361.443-104.679-148.688-149.276 105.332 29.688 40.437 7.615 9.769c17.951 23.028 43.85 38.526 72.628 43.461l6.658 1.142c2.106.361 4.002 1.495 5.316 3.181l20.042 25.711 20.766 31.325 114.089-86.886z" fill="#ffdfcf"/><path d="m324.506 426.906-20.042-25.71c-1.314-1.686-3.21-2.82-5.316-3.181l-6.658-1.142c-28.777-4.935-54.677-20.433-72.628-43.461l-7.615-9.769-29.28-39.881-20.301 14.325 29.688 40.437 7.615 9.769c17.951 23.028 43.85 38.526 72.628 43.46l6.658 1.142c2.106.361 4.002 1.495 5.316 3.181l20.042 25.711 20.766 31.325 19.775-15.06z" fill="#ffcebf"/><path d="m207.612 293.513 35.32-24.12-1.45-1.92-36.428-47.364-33.184 29.991z" fill="#ffdfcf"/><path d="m241.482 267.473 1.45 1.92 2.43 3.23 36.24-32.72-8.84-11.52-.47-.61-29.242-37.775-36.308 32.307z" fill="#ffdfcf"/><g fill="#ffcebf"><path d="m147.988 261.779-18.526 16.197 38.96 50.077 18.465-16.274z"/><path d="m226.928 278.348-36.657-44.879-18.401 16.631 35.742 43.413 35.32-24.12-.983-1.303z"/><path d="m263.997 253.989-2.43-3.23-1.45-1.921-33.824-43.929-19.551 17.396 34.74 45.168 1.45 1.92 2.43 3.23 36.24-32.72-.82-1.07z"/><path d="m290.756 220.109-38.141-49.179-15.978 10.868 35.655 45.975 46.021-16.46-.636-.833z"/><path d="m376.947 324.67 9.97-5.42-74.974-106.495-26.755 18.879 8.347 2.69c-.812 3.963-1.434 7.962-1.858 11.961-1.157 10.817-.897 21.759.735 32.495 2.713 17.855 14.513 32.977 31.134 40.041 16.905 7.187 39.158 13.592 53.401 5.849z"/></g><path d="m415.21 330.819 18.872-2.766 22.324 17.72-45.428 61.511-17.986-16.571-4.587-31.678z" fill="#ffdfcf"/><g><g><g id="XMLID_444_"><g><path d="m235.336 9.486c136.562-11.552 256.631 89.788 268.183 226.351s-89.788 256.631-226.351 268.183-256.631-89.789-268.183-226.351 89.789-256.632 226.351-268.183zm34.007 442.127c111.801-7.55 194.82-108.597 180.611-219.745-3.561-27.859-12.891-53.684-26.673-76.384-2.144-3.522-6.952-4.239-10.01-1.472l-274.951 248.64c-3.068 2.768-2.817 7.635.485 10.125 36.197 27.266 81.951 42.113 130.538 38.836zm104.841-340.76c3.068-2.768 2.817-7.635-.485-10.125-36.197-27.266-81.951-42.112-130.538-38.835-111.801 7.55-194.82 108.597-180.61 219.755 3.56 27.849 12.89 53.675 26.672 76.374 2.144 3.522 6.952 4.239 10.01 1.472z" fill="#f37c7c"/></g></g></g></g><g><g><g id="XMLID_460_"><g><path d="m235.336 9.486c136.562-11.552 256.631 89.788 268.183 226.351s-89.788 256.631-226.351 268.183-256.631-89.789-268.183-226.351 89.789-256.632 226.351-268.183zm34.007 442.127c111.801-7.55 194.82-108.597 180.611-219.745-3.561-27.859-12.891-53.684-26.673-76.384-2.144-3.522-6.952-4.239-10.01-1.472l-274.951 248.64c-3.068 2.768-2.817 7.635.485 10.125 36.197 27.266 81.951 42.113 130.538 38.836zm104.841-340.76c3.068-2.768 2.817-7.635-.485-10.125-36.197-27.266-81.951-42.112-130.538-38.835-111.801 7.55-194.82 108.597-180.61 219.755 3.56 27.849 12.89 53.675 26.672 76.374 2.144 3.522 6.952 4.239 10.01 1.472z" fill="#f37c7c"/></g></g></g></g><g id="XMLID_446_"><g><path d="m227.069 58.729c-8.394-10.757-21.037-16.926-34.687-16.926-9.728 0-19.322 3.299-27.024 9.295-2.122 1.653-4.049 3.461-5.783 5.392-.668.743-1.731.954-2.667.604-4.86-1.818-10.073-2.781-15.446-2.781-9.739 0-19.337 3.302-27.035 9.303-10.762 8.4-16.934 21.042-16.934 34.686v.017c0 .992-.573 1.877-1.48 2.278-3.278 1.449-6.388 3.294-9.237 5.513-9.262 7.221-15.158 17.615-16.604 29.268-.626 5.047-.377 10.066.686 14.889.22 1-.24 2.036-1.125 2.553-2.174 1.27-4.247 2.728-6.188 4.372-18.07 15.307-20.816 41.922-6.268 60.572l6.203 7.973c3.172-19.47 9.283-38.097 17.877-55.365l-.002-.008c13.052-26.236 31.852-49.324 54.891-67.411-4.939-2.937-10.434-4.878-16.217-5.696l28.883-18.517c-.794 4.916-.753 9.967.174 14.938 23.845-15.785 51.441-26.51 81.381-30.497z" fill="#ee6161"/><path d="m167.465 244.75-56.593-68.738c-4.74-6.08-11.8-9.24-18.92-9.24-5.47 0-10.97 1.86-15.48 5.68-9.81 8.31-11.32 22.89-3.41 33.03l56.4 72.493z" fill="#ffdfcf"/><path d="m91.661 189.38c-5.094-6.531-6.26-14.896-3.839-22.249-4.052.707-7.978 2.465-11.35 5.322-9.81 8.31-11.32 22.89-3.41 33.03l56.4 72.493 18.525-16.197z" fill="#ffcebf"/><g><path d="m205.054 220.109-72.341-94.056c-4.72-6.07-11.78-9.24-18.91-9.24-5.16 0-10.35 1.66-14.73 5.07-10.44 8.14-12.31 23.2-4.17 33.64l15.97 20.49 60.997 74.087z" fill="#ffdfcf"/></g><path d="m114.218 140.358c-5.358-6.872-6.366-15.767-3.46-23.352-4.123.53-8.171 2.14-11.685 4.876-10.44 8.14-12.31 23.2-4.17 33.64l15.97 20.49 60.997 74.088 18.401-16.63z" fill="#ffcebf"/><g><path d="m243.05 189.998-44.238-57.145s-26.15-33.45-26.52-34.02l-.03-.05-11.88-15.24c-8.14-10.44-23.21-12.3-33.65-4.16-6.06 4.73-9.24 11.79-9.24 18.92 0 5.15 1.66 10.34 5.07 14.72l10.15 13.03 74.03 96.252z" fill="#ffdfcf"/></g><path d="m141.197 94.388c-3.41-4.38-5.07-9.57-5.07-14.72 0-1.633.175-3.261.505-4.86-3.5.719-6.892 2.229-9.899 4.574-6.06 4.73-9.24 11.79-9.24 18.92 0 5.15 1.66 10.34 5.07 14.72l10.15 13.03 74.03 96.252 19.55-17.396z" fill="#ffcebf"/><path d="m236.637 181.798 38.951-26.494-64.285-84.271c-4.73-6.06-11.78-9.23-18.92-9.23-5.15 0-10.35 1.66-14.73 5.07-9.88 7.7-12.07 21.59-5.39 31.91l.03.05z" fill="#ffdfcf"/><path d="m190.756 91.169-.03-.05c-5.982-9.242-4.82-21.34 2.577-29.299-.303-.011-.617-.018-.92-.018-5.15 0-10.35 1.66-14.73 5.07-9.88 7.7-12.07 21.59-5.39 31.91l.03.05 64.344 82.965 15.978-10.868z" fill="#ffcebf"/></g></g><g id="XMLID_442_"><g><g><path d="m352.977 154.269-19.584-6.528-78.006 70.542c4.636 3.917 10.076 6.991 16.131 8.945l10.643 3.43c6.361 2.05 10.331 8.31 9.588 14.952-.025.225-.05.45-.074.675-.645 6.036-.828 12.153-.6 18.229l95.459-86.325c-8.58-11.178-20.158-19.444-33.557-23.92z" fill="#ee6161"/></g><path d="m413.732 301.953 20.35 26.1c-9.49 23.58-23.55 44.84-41.09 62.66l-63.383-77.771c-10.821-13.277-17.404-29.57-18.452-46.665-.365-5.952-.23-11.928.405-17.864.656-6.174 1.857-12.308 3.598-18.327 1.448-5.003-1.371-10.246-6.328-11.843l-31.18-10.049c-11.71-3.78-19.06-14.61-19.06-26.18 0-3.34.61-6.74 1.91-10.05 5.35-13.6 20.41-20.63 34.28-16.01l51.87 17.29c9.73 3.25 18.24 9.39 24.39 17.6l2.53 3.38 31.66 42.26c8.87 11.84 12.58 26.77 10.3 41.39l-3.03 19.33c-.26 1.689.18 3.409 1.23 4.749z" fill="#ffdfcf"/></g></g></g><g><path d="m438.304 75.201c-48.494-48.494-112.971-75.201-181.552-75.201s-133.057 26.707-181.551 75.201-75.201 112.971-75.201 181.552 26.707 133.057 75.201 181.551 112.97 75.201 181.551 75.201 133.058-26.707 181.552-75.201 75.201-112.97 75.201-181.551-26.707-133.057-75.201-181.552zm-10.606 352.497c-45.661 45.661-106.371 70.808-170.945 70.808s-125.284-25.146-170.945-70.808-70.808-106.371-70.808-170.945 25.146-125.284 70.808-170.945 106.37-70.808 170.944-70.808 125.284 25.146 170.945 70.808 70.808 106.371 70.808 170.945-25.146 125.283-70.807 170.945z"/><path d="m424.832 150.982c-1.169-1.854-3.091-3.104-5.26-3.421s-4.368.332-6.019 1.773l-38.925 34.01c-6.818-7.956-15.597-13.875-25.608-17.213l-16.222-5.409 51.421-44.929c1.651-1.443 2.589-3.536 2.565-5.728-.023-2.193-1.006-4.265-2.688-5.672-14.602-12.218-30.849-22.256-48.289-29.836-3.8-1.652-8.217.09-9.867 3.889-1.651 3.799.09 8.217 3.889 9.868 13.43 5.837 26.096 13.252 37.755 22.095l-51.286 44.812-19.145-6.384c-5.586-1.863-11.323-2.236-16.772-1.332l-55.717-71.52c25.087-4.401 51.339-3.582 76.062 2.499.602.148 1.204.219 1.797.219 3.372 0 6.436-2.291 7.277-5.711.989-4.022-1.47-8.085-5.492-9.074-15.493-3.81-31.492-5.742-47.555-5.742-14.441 0-28.829 1.577-42.817 4.65-4.831-4.554-10.958-7.453-17.672-8.285-8.345-1.032-16.588 1.243-23.219 6.412-4.873 3.799-8.313 8.759-10.253 14.188-11.112-10.247-28.366-11.268-40.67-1.677-11.119 8.667-14.825 23.37-10.105 35.92-6.179.344-12.316 2.498-17.555 6.582-6.63 5.168-10.851 12.609-11.885 20.952-.999 8.064 1.104 16.033 5.912 22.543-6.169.669-11.995 3.148-16.858 7.265-11.778 9.97-14.463 26.651-6.988 39.648-4.28 16.367-6.467 33.305-6.467 50.378 0 37.554 10.546 74.129 30.498 105.771 1.169 1.854 3.091 3.104 5.26 3.421.361.053.724.079 1.084.079 1.803 0 3.559-.65 4.935-1.852l171.892-150.191c1.139.509 2.307.961 3.502 1.347l33.192 10.704c-1.898 6.126-3.259 12.361-4.1 18.642l-131.004 114.464c-3.12 2.726-3.438 7.463-.713 10.583 1.483 1.697 3.562 2.565 5.651 2.565 1.751 0 3.51-.61 4.932-1.852l5.249-4.586 5.501 7.057c19.143 24.557 46.587 40.979 77.275 46.242l6.659 1.142c.265.045.501.187.667.4l12.745 16.349c-11.225 2.153-22.805 3.294-34.648 3.294-40.042 0-79.059-13.163-110.83-37.235l13.259-11.584c3.119-2.726 3.438-7.463.713-10.583-2.726-3.118-7.463-3.438-10.583-.713l-20.026 17.498c-1.651 1.443-2.588 3.536-2.564 5.729.023 2.192 1.005 4.265 2.687 5.671 35.621 29.804 80.846 46.217 127.345 46.217 109.496 0 198.577-89.082 198.577-198.577-.001-37.556-10.547-74.131-30.499-105.772zm-8.173 15.558c15.513 27.442 23.671 58.446 23.671 90.213 0 19.496-3.066 38.287-8.722 55.93l-11.604-14.885 2.936-18.761c2.585-16.521-1.682-33.67-11.706-47.051l-27.485-36.69zm-319.812 180.426c-15.513-27.443-23.671-58.446-23.671-90.213 0-11.691 1.117-23.308 3.292-34.693l9.998 12.825c2.545 3.267 7.258 3.851 10.526 1.304 3.267-2.546 3.851-7.259 1.304-10.526l-19.323-24.788c-5.454-6.997-4.422-16.968 2.349-22.7 3.455-2.924 7.836-4.276 12.338-3.813 4.501.466 8.513 2.688 11.295 6.257l54.991 70.544c1.479 1.897 3.688 2.89 5.92 2.89 1.611 0 3.236-.518 4.605-1.585 3.267-2.546 3.851-7.259 1.304-10.526l-3.195-4.098s0 0 0-.001l-67.763-86.928c-2.705-3.47-3.897-7.786-3.356-12.153s2.75-8.261 6.22-10.966c3.47-2.704 7.786-3.896 12.153-3.356 4.367.541 8.261 2.75 10.966 6.22l66.585 85.417 1.005 1.289c1.479 1.897 3.688 2.89 5.92 2.89 1.611 0 3.236-.518 4.605-1.585 3.267-2.546 3.851-7.259 1.304-10.526l-77.743-99.731c-5.584-7.164-4.299-17.535 2.864-23.119 7.165-5.583 17.535-4.299 23.119 2.864l71.026 90.922c1.479 1.889 3.683 2.876 5.91 2.876 1.617 0 3.247-.521 4.619-1.596 3.261-2.554 3.834-7.268 1.281-10.529l-58.878-75.342c-4.407-7.059-2.854-16.479 3.851-21.706 3.47-2.705 7.784-3.895 12.153-3.356 4.367.541 8.261 2.75 10.965 6.219l60.58 77.76c-5.431 3.813-9.836 9.2-12.437 15.812-3.523 8.954-3.183 19.078.933 27.775 1.344 2.84 3.067 5.46 5.089 7.811l-105.592 92.261-36.01-46.194c-2.546-3.266-7.258-3.851-10.526-1.304-3.267 2.546-3.851 7.259-1.304 10.526l36.527 46.857zm210.589 86.243-16.949-21.743c-2.469-3.168-6.008-5.286-9.964-5.963l-6.658-1.142c-26.997-4.629-51.14-19.076-67.98-40.679l-6.018-7.72 103.716-90.622c.62 12.543 3.308 25.012 8.093 36.931 1.544 3.845 5.913 5.708 9.755 4.166 3.844-1.543 5.708-5.911 4.165-9.754-9.393-23.392-9.556-49.221-.46-72.729.744-1.924.663-4.071-.225-5.934-.889-1.863-2.505-3.277-4.469-3.911l-40.491-13.058c-5.309-1.712-9.547-5.432-11.933-10.474s-2.574-10.677-.532-15.867c3.892-9.891 14.838-15.005 24.923-11.644l51.867 17.295c8.322 2.775 15.501 7.953 20.76 14.974l34.192 45.643c7.613 10.164 10.854 23.19 8.891 35.739l-3.022 19.322c-.584 3.72.409 7.558 2.726 10.529l17.612 22.592c-21.599 50.121-64.897 88.774-117.999 104.049z"/></g></g></svg>