<svg id="Capa_1" enable-background="new 0 0 511.854 511.854" height="512" viewBox="0 0 511.854 511.854" width="512" xmlns="http://www.w3.org/2000/svg"><g><g><g><g id="XMLID_463_"><g><path d="m417.337 172.878-33.83-6.23c-22.68-4.18-43.41-15.55-59.11-32.43l-7.35-7.89c-33.02-35.49-89.22-35.49-122.24 0l-7.35 7.89c-15.7 16.88-36.43 28.25-59.11 32.43l-33.83 6.23c-3.19.59-5.51 3.37-5.51 6.62v24.64l23.14 21.793 298.041 3.527 12.659-23.55v-26.41c0-3.25-2.32-6.03-5.51-6.62z" fill="#f3eae6"/><path d="m422.847 205.908v80.41c0 69.49-56.34 125.82-125.83 125.82h-82.18c-69.49 0-125.83-56.33-125.83-125.82v-82.18h2.46l42.32-7.99c28.81-5.31 55.67-20.04 75.64-41.49l7.34-7.89c10.23-11 24.14-17.05 39.16-17.05s28.93 6.05 39.16 17.05l7.34 7.89c19.97 21.45 46.83 36.18 75.64 41.49z" fill="#f9f3f1"/></g></g><g id="XMLID_465_"><g><path d="m383.497 272.698v28.42c0 16.9-13.7 30.6-30.6 30.6h-27.81c-16.9 0-30.61-13.7-30.61-30.6v-28.42c0-16.9 13.71-30.6 30.61-30.6h27.81c16.9 0 30.6 13.7 30.6 30.6z" fill="#efe2dd"/></g></g></g><g><path d="m139.129 166.312v-2.255c-3.537 1.039-7.131 1.918-10.782 2.591l-33.83 6.23c-3.19.59-5.51 3.37-5.51 6.62v24.64l23.14 21.793 26.983.319v-59.938z" fill="#efe2dd"/></g><path d="m347.139 398.312h-82.18c-36.656 0-69.647-15.678-92.644-40.691-3.828-4.164-.814-10.903 4.842-10.903h10.61c25.19 0 45.61-20.42 45.61-45.61v-28.399c0-25.19-20.42-45.61-45.61-45.61h-27.81c-4.376 0-8.608.623-12.615 1.783-4.121 1.192-8.213-2.012-8.213-6.302v-27.53c-1.773.402-3.554.769-5.342 1.098l-42.32 7.99h-2.46v82.17c0 69.494 56.336 125.83 125.83 125.83h82.18c20.863 0 40.55-5.087 57.874-14.074-2.561.155-5.152.248-7.752.248z" fill="#f3eae6"/><path d="m218.377 272.698v28.42c0 16.9-13.71 30.6-30.61 30.6h-27.81c-16.9 0-30.6-13.7-30.6-30.6v-28.42c0-16.9 13.7-30.6 30.6-30.6h27.81c16.9 0 30.61 13.7 30.61 30.6z" fill="#efe2dd"/></g><g><path d="m236.873 180.204 7.346-7.893c3.148-3.383 7.088-5.098 11.708-5.098 4.621 0 8.56 1.715 11.707 5.097l7.347 7.895c6.247 6.711 13.119 12.997 20.427 18.683 1.369 1.065 2.99 1.581 4.601 1.581 2.234 0 4.445-.995 5.924-2.895 2.544-3.269 1.956-7.981-1.313-10.525-6.678-5.195-12.955-10.936-18.657-17.063l-7.347-7.894c-6.013-6.462-13.858-9.878-22.688-9.878-8.828 0-16.674 3.416-22.688 9.879l-7.346 7.893c-5.696 6.121-11.973 11.861-18.657 17.062-3.27 2.543-3.857 7.256-1.313 10.525 2.544 3.27 7.258 3.857 10.524 1.314 7.313-5.692 14.186-11.978 20.425-18.683z"/><path d="m187.771 234.598h-27.813c-21.01 0-38.102 17.092-38.102 38.101v28.419c0 21.009 17.092 38.101 38.102 38.101h27.813c21.009 0 38.101-17.092 38.101-38.101v-28.419c0-21.008-17.092-38.101-38.101-38.101zm23.101 66.521c0 12.738-10.363 23.101-23.101 23.101h-27.813c-12.738 0-23.102-10.363-23.102-23.101v-28.419c0-12.738 10.363-23.101 23.102-23.101h27.813c12.737 0 23.101 10.363 23.101 23.101z"/><path d="m192.108 263.634h-36.487c-4.143 0-7.5 3.358-7.5 7.5s3.357 7.5 7.5 7.5h36.487c4.143 0 7.5-3.358 7.5-7.5s-3.357-7.5-7.5-7.5z"/><path d="m192.108 295.185h-36.487c-4.143 0-7.5 3.358-7.5 7.5s3.357 7.5 7.5 7.5h36.487c4.143 0 7.5-3.358 7.5-7.5s-3.357-7.5-7.5-7.5z"/><path d="m352.895 234.598h-27.813c-21.009 0-38.101 17.092-38.101 38.101v28.419c0 21.009 17.092 38.101 38.101 38.101h27.813c21.01 0 38.102-17.092 38.102-38.101v-28.419c-.001-21.008-17.093-38.101-38.102-38.101zm23.101 66.521c0 12.738-10.363 23.101-23.102 23.101h-27.813c-12.737 0-23.101-10.363-23.101-23.101v-28.419c0-12.738 10.363-23.101 23.101-23.101h27.813c12.738 0 23.102 10.363 23.102 23.101z"/><path d="m357.232 263.634h-36.487c-4.143 0-7.5 3.358-7.5 7.5s3.357 7.5 7.5 7.5h36.487c4.143 0 7.5-3.358 7.5-7.5s-3.357-7.5-7.5-7.5z"/><path d="m357.232 295.185h-36.487c-4.143 0-7.5 3.358-7.5 7.5s3.357 7.5 7.5 7.5h36.487c4.143 0 7.5-3.358 7.5-7.5s-3.357-7.5-7.5-7.5z"/><path d="m430.544 171.993h-2.353c-2.057-3.309-5.438-5.743-9.498-6.491l-33.832-6.233c-20.944-3.858-40.469-14.569-54.979-30.161l-7.346-7.892c-17.153-18.432-41.432-29.003-66.61-29.003s-49.457 10.571-66.61 29.003l-7.346 7.893c-14.51 15.591-34.034 26.302-54.979 30.16l-33.831 6.233c-4.06.748-7.441 3.182-9.498 6.491h-2.352c-44.834 0-81.31 36.476-81.31 81.309s36.476 81.309 81.31 81.309h9.258c19.387 49.711 67.779 85.028 124.27 85.028h82.18c33.436 0 65.418-12.436 90.056-35.017 3.054-2.799 3.261-7.543.462-10.597-2.799-3.055-7.543-3.26-10.597-.462-21.864 20.039-50.248 31.075-79.921 31.075h-82.18c-65.245 0-118.326-53.081-118.326-118.326v-9.946c0-4.142-3.357-7.5-7.5-7.5s-7.5 3.358-7.5 7.5v9.946c0 11.493 1.462 22.651 4.209 33.297h-4.41c-36.563 0-66.31-29.747-66.31-66.31s29.746-66.309 66.31-66.309h.201v57.412c0 4.142 3.357 7.5 7.5 7.5s7.5-3.358 7.5-7.5v-33.589l38.634-7.292c30.388-5.598 58.716-21.138 79.768-43.759l7.346-7.893c8.798-9.454 20.755-14.66 33.669-14.66s24.871 5.206 33.669 14.659l7.346 7.894c13.327 14.32 29.989 26.092 48.188 34.045 3.794 1.658 8.216-.073 9.875-3.869 1.659-3.795-.073-8.217-3.869-9.876-16.331-7.137-31.273-17.69-43.213-30.519l-7.346-7.894c-11.667-12.537-27.524-19.44-44.649-19.44-17.126 0-32.982 6.904-44.649 19.441l-7.346 7.893c-18.871 20.277-44.265 34.208-71.536 39.232l-35.885 6.772v-15.414l33.198-6.116c24.093-4.438 46.553-16.759 63.242-34.693l7.346-7.893c14.536-15.62 34.293-24.222 55.63-24.222s41.094 8.602 55.63 24.223l7.346 7.892c16.689 17.934 39.149 30.255 63.242 34.693l33.198 6.116v16.459l-34.971-7.622c-4.045-.879-8.043 1.684-8.925 5.731s1.684 8.043 5.731 8.925l38.164 8.318v74.365c0 22.881-6.545 45.084-18.927 64.209-2.251 3.477-1.257 8.121 2.22 10.372 1.26.815 2.673 1.205 4.069 1.205 2.458 0 4.867-1.208 6.303-3.425 4.937-7.626 9.033-15.692 12.288-24.064h9.248c44.834 0 81.31-36.475 81.31-81.31-.002-44.827-36.478-81.303-81.312-81.303zm0 147.619h-4.405c2.778-10.8 4.203-21.975 4.203-33.297v-99.321h.201c36.563 0 66.31 29.746 66.31 66.309s-29.746 66.309-66.309 66.309z"/></g></g></svg>