<svg id="Capa_1" enable-background="new 0 0 510.835 510.835" height="512" viewBox="0 0 510.835 510.835" width="512" xmlns="http://www.w3.org/2000/svg"><g><g><g id="XMLID_545_"><g><path d="m340.167 364.303v116.96c0 12.19-9.88 22.07-22.07 22.07h-123.36c-12.19 0-22.07-9.88-22.07-22.07v-116.96z" fill="#f9f3f1"/></g></g><path d="m172.667 364.302v116.96c0 12.189 9.881 22.07 22.07 22.07h54.323c-12.19 0-22.07-9.88-22.07-22.07v-50.776c0-12.252 9.932-22.183 22.183-22.183h83.213c2.651 0 5.248-.228 7.78-.65v-43.351z" fill="#f3eae6"/><path d="m103.357 19.411v21.741l9.66 63.96 26.263 23.142 27.82 165.905-23.353 14.404h-.001l8.661 57.34c1.95 12.88 13.02 22.4 26.04 22.4h153.94c13.02 0 24.09-9.52 26.04-22.4l8.661-57.34h-.001l-20.933-17.438v-141.12l51.662-44.892 9.661-63.96 2.398-23.058z" fill="#f9f3f1"/><g><path d="m290.272 462.24h-67.709c-3.789 0-6.86-3.071-6.86-6.86v-19.118c0-3.789 3.071-6.86 6.86-6.86h67.709c3.789 0 6.86 3.071 6.86 6.86v19.118c0 3.789-3.071 6.86-6.86 6.86z" fill="#efe2dd"/><path d="m103.357 19.411v21.741l9.66 63.96 19.687 30.224 29.337 154.776-18.294 18.45h-.001l8.661 57.34c1.95 12.88 13.02 22.4 26.04 22.4h53.427c-13.02 0-24.09-9.52-26.04-22.4l-39.453-261.21c-3.461-22.917 14.283-43.542 37.46-43.542h200.616l3.02-19.998 2.374-22.828.024-.229z" fill="#f3eae6"/><g id="XMLID_544_"><g><path d="m397.817 105.113-30.73 203.45h-223.34l-30.73-203.45z" fill="#99e6fc"/></g></g><path d="m166.422 104.962-53.404.151 13.449 89.04 17.28 114.41 53.404-.15z" fill="#62dbfb"/><path d="m299.566 187.168h-24.128v-24.128c0-3.137-2.543-5.681-5.681-5.681h-27.679c-3.137 0-5.681 2.543-5.681 5.681v24.128h-24.128c-3.137 0-5.681 2.543-5.681 5.681v27.679c0 3.137 2.543 5.681 5.681 5.681h24.128v24.128c0 3.137 2.543 5.681 5.681 5.681h27.679c3.137 0 5.681-2.543 5.681-5.681v-24.128h24.128c3.137 0 5.681-2.543 5.681-5.681v-27.679c0-3.138-2.544-5.681-5.681-5.681z" fill="#f37c7c"/></g><path d="m409.925 41.15h-309.015c-4.763 0-8.625-3.861-8.625-8.625v-16.401c0-4.763 3.861-8.625 8.625-8.625h309.015c4.763 0 8.625 3.861 8.625 8.625v16.402c0 4.763-3.862 8.624-8.625 8.624z" fill="#f9f3f1"/></g><g><path d="m409.925 0h-309.015c-8.892 0-16.125 7.233-16.125 16.124v16.401c0 7.478 5.123 13.764 12.039 15.58l48.17 318.918c1.816 12.023 9.636 21.667 20.177 26.116v88.125c0 16.305 13.265 29.57 29.57 29.57h123.353c16.305 0 29.57-13.266 29.57-29.57v-89.054c9.521-4.778 16.478-13.939 18.177-25.187l28.975-191.834c.619-4.096-2.2-7.917-6.296-8.536-4.101-.622-7.917 2.2-8.536 6.296l-19.327 127.96h-210.479l-28.463-188.442h34.975c4.142 0 7.5-3.357 7.5-7.5s-3.358-7.5-7.5-7.5h-37.24l-7.373-48.816h286.682l-7.373 48.816h-202.734c-4.142 0-7.5 3.357-7.5 7.5s3.358 7.5 7.5 7.5h200.468l-4.362 28.877c-.619 4.096 2.2 7.917 6.296 8.536.38.058.757.085 1.129.085 3.647 0 6.845-2.665 7.407-6.381l14.421-95.479c6.915-1.816 12.039-8.103 12.039-15.58v-16.401c0-8.891-7.234-16.124-16.125-16.124zm-310.14 16.124c0-.62.505-1.124 1.125-1.124h309.015c.62 0 1.125.504 1.125 1.124v16.401c0 .62-.505 1.125-1.125 1.125h-309.015c-.62 0-1.125-.505-1.125-1.125zm218.309 479.711h-123.353c-8.034 0-14.57-6.536-14.57-14.57v-27.943h28.032v2.059c0 7.918 6.442 14.36 14.36 14.36h67.709c7.918 0 14.36-6.442 14.36-14.36v-2.059h28.032v27.943c0 8.034-6.536 14.57-14.57 14.57zm-94.891-41.095v-17.838h66.43v17.838zm135.188-138.831-7.382 48.874c-1.402 9.285-9.236 16.024-18.625 16.024h-100.7c-4.142 0-7.5 3.357-7.5 7.5s3.358 7.5 7.5 7.5h100.7c.094 0 .187-.006.28-.006v42.52h-28.032v-2.06c0-7.918-6.442-14.359-14.36-14.359h-67.709c-7.918 0-14.36 6.441-14.36 14.359v2.06h-28.032v-42.514h19.55c4.142 0 7.5-3.357 7.5-7.5s-3.358-7.5-7.5-7.5h-21.27c-9.39 0-17.223-6.739-18.625-16.024l-7.382-48.874z"/><path d="m242.078 263.518h27.679c7.268 0 13.181-5.913 13.181-13.181v-16.629h16.628c7.268 0 13.181-5.913 13.181-13.181v-27.679c0-7.268-5.913-13.181-13.181-13.181h-16.628v-16.627c0-7.268-5.913-13.181-13.181-13.181h-27.679c-7.268 0-13.181 5.913-13.181 13.181v16.628h-16.628c-7.268 0-13.181 5.913-13.181 13.181v27.679c0 7.268 5.913 13.181 13.181 13.181h16.628v16.629c0 7.266 5.913 13.18 13.181 13.18zm-27.99-44.81v-24.04h22.309c4.142 0 7.5-3.357 7.5-7.5v-22.309h24.04v22.309c0 4.143 3.358 7.5 7.5 7.5h22.309v24.04h-22.309c-4.142 0-7.5 3.357-7.5 7.5v22.31h-24.04v-22.31c0-4.143-3.358-7.5-7.5-7.5z"/></g></g></svg>