<svg id="Capa_1" enable-background="new 0 0 515.625 515.625" height="512" viewBox="0 0 515.625 515.625" width="512" xmlns="http://www.w3.org/2000/svg"><g><g><g id="XMLID_548_"><g><path d="m471.953 144.977v278.09c-134.09 28.36-294.19 28.36-428.28 0v-278.09c20.59-4.36 54.17-8.04 74.76-11.05 0 0 129.74-21.82 277.83-.14 20.9 3.04 54.789 6.77 75.69 11.19z" fill="#99e6fc"/></g></g><path d="m122.326 383.35c-26.09-3.236-45.652-25.458-45.652-51.748v-180.376c0-3.961-.508-7.806-1.459-11.474-11.535 1.618-22.729 3.359-31.542 5.225v225.33 20.135 32.625c134.09 28.36 294.19 28.36 428.28 0v-52.76c-108.693 22.988-234.464 27.326-349.627 13.043z" fill="#62dbfb"/><path d="m504.399 443.252h-19.712c-14.213 0-25.734-11.522-25.734-25.734v-266.292c0-14.213 11.522-25.734 25.734-25.734h19.712c2.058 0 3.726 1.668 3.726 3.726v310.308c0 2.058-1.668 3.726-3.726 3.726z" fill="#dff6fd"/><path d="m11.226 443.252h19.712c14.213 0 25.734-11.522 25.734-25.734v-266.292c0-14.213-11.522-25.734-25.734-25.734h-19.712c-2.058 0-3.726 1.668-3.726 3.726v310.308c0 2.058 1.668 3.726 3.726 3.726z" fill="#dff6fd"/><path d="m372.116 226.067c13.798 0 24.983 11.185 24.983 24.983v92.226c0 13.798-11.185 24.983-24.983 24.983h-229.607c-13.798 0-24.983-11.185-24.983-24.983v-92.226c0-13.798 11.185-24.983 24.983-24.983z" fill="#f3eae6"/><path d="m367.099 260.333v73.659c0 2.356-1.91 4.266-4.266 4.266h-211.04c-2.356 0-4.266-1.91-4.266-4.266v-73.659c0-2.356 1.91-4.266 4.266-4.266h211.04c2.356 0 4.266 1.91 4.266 4.266z" fill="#f9f3f1"/><g id="XMLID_551_"><g><path d="m383.962 77.777c2.51.41 3.93 3.11 2.86 5.41l-36.25 77.44-24.78 140.54h-136.96l-24.78-140.54-36.25-77.44c-1.07-2.3.35-5 2.86-5.41l20.62-3.36c14.71-2.39 29.78-1.44 44.07 2.79l16.2 4.81 9.6-3.77c23.25-9.11 49.07-9.11 72.32 0l9.6 3.77 16.2-4.81c14.29-4.23 29.36-5.18 44.07-2.79z" fill="#f2fbff"/></g></g><g><path d="m330.642 273.663h-47.313c-34.812 0-64.599-24.995-70.644-59.278l-10.802-61.262-36.25-77.44c-.388-.834-.445-1.72-.245-2.531-4.714.086-9.428.505-14.106 1.266l-20.62 3.36c-2.51.41-3.93 3.11-2.86 5.41l36.25 77.44 24.78 140.54h136.96l1.323-7.504z" fill="#dff6fd"/></g></g><g><path d="m508.125 369.583c4.143 0 7.5-3.357 7.5-7.5v-232.866c0-6.19-5.036-11.227-11.227-11.227h-19.712c-13.03 0-24.327 7.542-29.771 18.485-19.127-3.931-38.466-7.333-57.575-10.114-4.089-.599-7.905 2.242-8.502 6.342-.597 4.099 2.243 7.905 6.342 8.502 18.676 2.718 37.576 6.038 56.275 9.872 0 .049-.004.098-.004.147v265.727c-64.295 13.183-129.407 19.885-193.639 19.885s-129.344-6.701-193.64-19.885v-265.725c0-.05-.004-.099-.004-.148 18.346-3.761 36.934-7.033 55.348-9.731 4.099-.601 6.934-4.41 6.333-8.509s-4.411-6.93-8.508-6.333c-18.843 2.762-37.865 6.115-56.634 9.972-5.444-10.943-16.74-18.484-29.77-18.484h-19.71c-6.191-.001-11.227 5.035-11.227 11.224v310.309c0 6.19 5.036 11.227 11.227 11.227h19.712c13.287 0 24.771-7.84 30.086-19.134 65.307 13.399 131.047 20.12 196.788 20.12 65.74 0 131.48-6.72 196.788-20.12 5.315 11.294 16.8 19.134 30.086 19.134h19.712c6.19 0 11.227-5.036 11.227-11.227v-45.48c0-4.143-3.357-7.5-7.5-7.5s-7.5 3.357-7.5 7.5v41.707h-15.938c-10.055 0-18.234-8.18-18.234-18.234v-266.294c0-10.055 8.18-18.234 18.234-18.234h15.938v229.092c-.001 4.142 3.356 7.5 7.499 7.5zm-477.186 66.169h-15.939v-302.76h15.939c10.055 0 18.234 8.18 18.234 18.234v266.292c0 10.055-8.179 18.234-18.234 18.234z"/><path d="m202.022 375.758h170.094c17.911 0 32.482-14.571 32.482-32.482v-92.227c0-17.911-14.571-32.482-32.482-32.482h-2.77c-4.143 0-7.5 3.357-7.5 7.5s3.357 7.5 7.5 7.5h2.77c9.64 0 17.482 7.843 17.482 17.482v92.227c0 9.64-7.843 17.482-17.482 17.482h-170.094c-4.142 0-7.5 3.357-7.5 7.5s3.358 7.5 7.5 7.5z"/><path d="m142.509 233.567h2.605c4.142 0 7.5-3.357 7.5-7.5s-3.358-7.5-7.5-7.5h-2.605c-17.912 0-32.483 14.571-32.483 32.482v92.227c0 17.911 14.572 32.482 32.483 32.482h27.551c4.142 0 7.5-3.357 7.5-7.5s-3.358-7.5-7.5-7.5h-27.551c-9.64 0-17.483-7.843-17.483-17.482v-92.227c0-9.639 7.843-17.482 17.483-17.482z"/><path d="m374.599 338.258v-82.191c0-4.143-3.357-7.5-7.5-7.5h-7.76c-4.143 0-7.5 3.357-7.5 7.5s3.357 7.5 7.5 7.5h.26v67.191h-204.573v-67.191h.711c4.142 0 7.5-3.357 7.5-7.5s-3.358-7.5-7.5-7.5h-8.211c-4.142 0-7.5 3.357-7.5 7.5v82.191c0 4.143 3.358 7.5 7.5 7.5h219.573c4.142 0 7.5-3.357 7.5-7.5z"/><path d="m156.835 162.904 2.597 14.73c.719 4.079 4.609 6.807 8.688 6.083 4.079-.719 6.803-4.608 6.084-8.688l-2.77-15.708c-.115-.648-.314-1.279-.593-1.876l-34.185-73.043 15.834-2.58c13.516-2.201 27.601-1.309 40.728 2.581l12.23 3.624 3.77 54.691c.273 3.957 3.567 6.984 7.475 6.984.173 0 .348-.006.523-.018 4.132-.285 7.251-3.866 6.967-7.998l-3.797-55.082 3.506-1.375c21.552-8.451 45.29-8.451 66.84 0l4.481 1.757-3.771 54.7c-.285 4.132 2.834 7.713 6.967 7.998.176.012.35.018.523.018 3.907 0 7.201-3.027 7.475-6.984l3.791-54.994 11.208-3.321c13.129-3.891 27.211-4.784 40.728-2.581l15.834 2.58-34.185 73.043c-.279.597-.479 1.228-.593 1.876l-23.687 134.342h-124.381l-15.344-87.026c-.719-4.079-4.607-6.806-8.688-6.083-4.079.719-6.803 4.608-6.084 8.688l14.885 84.421h-.805c-4.142 0-7.5 3.357-7.5 7.5s3.358 7.5 7.5 7.5h159.789c4.143 0 7.5-3.357 7.5-7.5s-3.357-7.5-7.5-7.5h-4.138l23.055-130.759 35.822-76.541c1.518-3.246 1.429-6.926-.245-10.095-1.674-3.168-4.662-5.315-8.197-5.891l-20.624-3.36c-15.728-2.562-32.119-1.524-47.401 3.003l-13.731 4.069-7.204-2.825c-25.084-9.836-52.711-9.836-77.792 0l-7.205 2.825-13.735-4.069c-15.279-4.526-31.67-5.565-47.401-3.003l-20.622 3.36c-3.538.575-6.527 2.723-8.2 5.893-1.674 3.169-1.762 6.849-.243 10.094z"/></g></g></svg>