<svg id="Capa_1" enable-background="new 0 0 513.11 513.11" height="512" viewBox="0 0 513.11 513.11" width="512" xmlns="http://www.w3.org/2000/svg"><g><g><path d="m287.548 88.092v-47.873l19.466-26.933c1.744-2.413.02-5.786-2.957-5.786h-28.863c-6.342 0-12.435 2.472-16.984 6.891l-1.655 1.607-1.655-1.607c-4.549-4.419-10.641-6.891-16.984-6.891h-28.863c-2.977 0-4.701 3.373-2.957 5.786l19.466 26.933v47.873 19.742h62.486z" fill="#c9bfc8"/><g><path d="m246.302 45.179c0-3.224-1.017-6.367-2.905-8.98l-16.561-22.913c-1.744-2.413-.02-5.786 2.957-5.786h-20.74c-2.977 0-4.701 3.373-2.957 5.786l19.466 26.933v47.873 19.742h20.74v-19.742z" fill="#baafb9"/></g><g><g id="XMLID_552_"><g><path d="m376.625 173.858v128.9h-239.14v-128.9c0-41.65 33.76-75.42 75.42-75.42h88.3c41.66 0 75.42 33.77 75.42 75.42z" fill="#c9bfc8"/></g></g></g><g><g id="XMLID_554_"><g><path d="m373.924 153.858h-165.599c-12.771 0-20.161-14.547-12.567-24.815 13.732-18.566 35.778-30.606 60.649-30.606h-43.502c-41.66 0-75.42 33.77-75.42 75.42v128.9h36.86 6.642 195.638v-128.9c0-6.926-.952-13.627-2.701-19.999z" fill="#baafb9"/><path d="m409.605 173.858c6.26 0 11.13 5.43 10.46 11.66l-32.73 302.02c-1.12 10.28-9.79 18.07-20.13 18.07h-221.3c-10.34 0-19.01-7.79-20.13-18.07l-32.73-302.02c-.67-6.23 4.2-11.66 10.46-11.66z" fill="#f9f3f1"/><path d="m214.096 490.675c-10.34 0-19.01-7.79-20.13-18.07l-32.375-298.747h-58.086c-6.26 0-11.13 5.43-10.46 11.66l32.73 302.02c1.12 10.28 9.79 18.07 20.13 18.07h221.3c9.256 0 17.156-6.25 19.518-14.933z" fill="#f3eae6"/></g></g><g id="XMLID_555_"><g><path d="m416.875 214.948-3.68 33.95h-313.28l-3.65-33.63z" fill="#f3eae6"/></g><path d="m166.023 215.198-69.754.07 3.646 33.63h69.76z" fill="#efe2dd"/><g><g id="XMLID_558_"><g><path d="m140.765 295.318v162.62c0 2.44-1.98 4.43-4.43 4.43h-13.29l-15.36-141.81v-25.24c0-2.45 1.98-4.43 4.43-4.43h24.22c2.45 0 4.43 1.98 4.43 4.43z" fill="#efe2dd"/><path d="m207.435 295.318v162.62c0 2.44-1.99 4.43-4.43 4.43h-24.23c-2.45 0-4.43-1.99-4.43-4.43v-162.62c0-2.45 1.98-4.43 4.43-4.43h24.23c2.44 0 4.43 1.98 4.43 4.43z" fill="#f3eae6"/><path d="m178.775 462.368h14.033l-18.245-168.358c-.129.416-.218.849-.218 1.308v162.62c0 2.44 1.98 4.43 4.43 4.43z" fill="#efe2dd"/><g fill="#f3eae6"><path d="m273.095 295.318v162.62c0 2.44-1.98 4.43-4.43 4.43h-24.22c-2.45 0-4.43-1.99-4.43-4.43v-162.62c0-2.45 1.98-4.43 4.43-4.43h24.22c2.45 0 4.43 1.98 4.43 4.43z"/><path d="m339.765 295.318v162.62c0 2.44-1.98 4.43-4.43 4.43h-24.23c-2.44 0-4.43-1.99-4.43-4.43v-162.62c0-2.45 1.99-4.43 4.43-4.43h24.23c2.45 0 4.43 1.98 4.43 4.43z"/><path d="m406.425 311.328-16.36 151.04h-12.29c-2.45 0-4.43-1.99-4.43-4.43v-162.62c0-2.45 1.98-4.43 4.43-4.43h24.22c2.45 0 4.43 1.98 4.43 4.43z"/></g></g></g></g></g><path d="m290.502 98.442h-64.94c-8.933 0-16.175-7.242-16.175-16.175 0-8.933 7.242-16.175 16.175-16.175h64.94c8.933 0 16.175 7.242 16.175 16.175.001 8.934-7.241 16.175-16.175 16.175z" fill="#baafb9"/><path d="m234.035 82.267c0-8.933 7.242-16.175 16.175-16.175h-24.647c-8.933 0-16.175 7.242-16.175 16.175s7.242 16.175 16.175 16.175h24.647c-8.933 0-16.175-7.241-16.175-16.175z" fill="#aa9ea9"/></g></g><g><path d="m427.521 186.325c.551-5.082-1.092-10.178-4.507-13.981-3.413-3.803-8.303-5.984-13.413-5.984h-25.827c-1.306-14.583-6.408-28.461-14.979-40.508-2.401-3.375-7.085-4.165-10.459-1.764-3.375 2.401-4.165 7.084-1.764 10.459 6.751 9.489 10.869 20.367 12.125 31.813h-223.289c3.746-33.932 32.579-60.417 67.493-60.417h88.309c11.932 0 23.683 3.155 33.983 9.125 1.184.686 2.478 1.012 3.754 1.012 2.588 0 5.105-1.341 6.496-3.74 2.077-3.584.855-8.173-2.729-10.25-9.394-5.444-19.774-8.969-30.494-10.408 1.256-2.887 1.957-6.069 1.957-9.413 0-11.5-8.243-21.107-19.13-23.233v-16.39l18.046-24.968c2.464-3.41 2.806-7.856.891-11.604s-5.719-6.074-9.927-6.074h-28.863c-6.771 0-13.243 2.108-18.639 6.011-5.396-3.903-11.868-6.011-18.638-6.011h-28.863c-4.208 0-8.012 2.327-9.927 6.074s-1.573 8.193.892 11.604l18.045 24.967v17.171c-9.388 3.145-16.175 12.018-16.175 22.451 0 3.258.662 6.364 1.857 9.192-38.969 4.302-69.884 35.708-73.416 74.9h-26.82c-5.11 0-10 2.182-13.413 5.984-3.415 3.804-5.058 8.899-4.507 13.982l32.731 302.024c1.53 14.115 13.391 24.76 27.589 24.76h221.291c14.198 0 26.059-10.645 27.589-24.761zm-210.932-171.325h21.327c4.415 0 8.591 1.694 11.759 4.771l1.655 1.607c2.91 2.826 7.539 2.826 10.449 0l1.656-1.608c3.167-3.076 7.343-4.771 11.758-4.771h21.327l-15.052 20.825c-.925 1.278-1.422 2.816-1.422 4.394v18.373h-46.984v-18.372c0-1.577-.497-3.115-1.422-4.394zm8.974 58.592h64.939c4.783 0 8.675 3.892 8.675 8.676 0 4.783-3.892 8.675-8.675 8.675h-64.939c-4.783 0-8.675-3.892-8.675-8.675 0-4.785 3.892-8.676 8.675-8.676zm-124.305 108.771c.337-.375 1.077-1.004 2.251-1.004h306.092c1.174 0 1.914.629 2.251 1.004.337.376.883 1.18.757 2.348l-2.464 22.732h-307.18l-2.464-22.731c-.126-1.169.42-1.973.757-2.349zm13.922 137.794v-21.771h18.087v156.479h-3.488zm252.021 177.953h-221.291c-6.523 0-11.974-4.891-12.677-11.376l-1.828-16.87h4.932c6.578 0 11.931-5.353 11.931-11.931v-162.616c0-6.579-5.353-11.932-11.931-11.932h-24.225c-.307 0-.611.014-.913.037l-2.943-27.153h32.511c4.143 0 7.5-3.357 7.5-7.5s-3.357-7.5-7.5-7.5h-34.136l-2.04-18.826h303.929l-2.04 18.826h-233.75c-4.143 0-7.5 3.357-7.5 7.5s3.357 7.5 7.5 7.5h232.125l-2.939 27.116h-24.141c-6.578 0-11.931 5.353-11.931 11.932v162.616c0 6.578 5.353 11.931 11.931 11.931h3.932l-1.828 16.869c-.705 6.487-6.155 11.377-12.678 11.377zm16.13-43.246h-2.488v-156.478h18.087v12.542z"/><path d="m268.667 283.386h-24.225c-6.578 0-11.931 5.353-11.931 11.931v162.617c0 6.578 5.353 11.931 11.931 11.931h24.225c6.578 0 11.931-5.353 11.931-11.931v-162.618c0-6.578-5.352-11.93-11.931-11.93zm-3.069 171.478h-18.086v-156.478h18.086z"/><path d="m335.333 283.386h-24.224c-6.579 0-11.932 5.353-11.932 11.932v162.616c0 6.578 5.353 11.931 11.932 11.931h24.224c6.579 0 11.932-5.353 11.932-11.931v-27.37c0-4.143-3.357-7.5-7.5-7.5s-7.5 3.357-7.5 7.5v24.301h-18.087v-156.479h18.087v100.216c0 4.143 3.357 7.5 7.5 7.5s7.5-3.357 7.5-7.5v-103.285c-.001-6.579-5.353-11.931-11.932-11.931z"/><path d="m203.001 283.386h-24.225c-6.578 0-11.931 5.353-11.931 11.931v162.617c0 6.578 5.353 11.931 11.931 11.931h24.225c6.579 0 11.932-5.353 11.932-11.931v-162.618c0-6.578-5.352-11.93-11.932-11.93zm-3.068 171.478h-18.087v-156.478h18.087z"/></g></g></svg>