<svg id="Capa_1" enable-background="new 0 0 511.19 511.19" height="512" viewBox="0 0 511.19 511.19" width="512" xmlns="http://www.w3.org/2000/svg"><g><g><path d="m192.339 66.215-8.641-44.976c-1.532-7.974-8.509-13.739-16.629-13.739h-13.833c-8.12 0-15.097 5.764-16.629 13.738l-8.641 44.976-1.899 20.768h67.441z" fill="#f3eae6"/><path d="m215.309 142.132h-110.313v-60.227c0-8.665 7.025-15.69 15.69-15.69h78.934c8.665 0 15.69 7.025 15.69 15.69v60.227z" fill="#efe2dd"/><path d="m461.483 358.718c13.35 0 24.17 10.82 24.17 24.16 0 6.67-2.7 12.71-7.08 17.09-4.37 4.37-10.42 7.07-17.09 7.07h-24.16-186.42v-48.32h44.86z" fill="#fef48b"/><path d="m461.483 310.398c13.35 0 24.17 10.81 24.17 24.16 0 6.67-2.7 12.71-7.08 17.08-4.37 4.37-10.42 7.08-17.09 7.08h-165.72-44.86v-48.32h18.25 26.61 141.56z" fill="#dff6fd"/><path d="m471.493 421.198c8.75 8.74 14.16 20.83 14.16 34.17 0 26.69-21.64 48.32-48.33 48.32h-186.42v-96.65h186.42c13.35 0 25.43 5.41 34.17 14.16z" fill="#dff6fd"/><g id="XMLID_561_"><g><path d="m471.493 227.898c8.75 8.75 14.16 20.83 14.16 34.17 0 26.69-21.64 48.33-48.33 48.33h-141.56-26.61v-96.65h26.17 142c13.35 0 25.43 5.41 34.17 14.15z" fill="#fef48b"/></g></g><g id="XMLID_559_"><g><path d="m193.673 102.128h-32.275c-9.112 0-16.498-7.387-16.498-16.498v-3.725c0-8.665 7.024-15.69 15.69-15.69h-39.904c-8.665 0-15.69 7.025-15.69 15.69v60.228h30.004 9.9 70.409v-38.066c-7.022-1.272-14.252-1.939-21.636-1.939z" fill="#e1d3ce"/><path d="m294.763 223.228v236.6c0 24.22-19.64 43.86-43.86 43.86h-181.5c-24.23 0-43.86-19.64-43.86-43.86v-236.6c0-55.83 45.26-101.1 101.09-101.1h67.04c55.83 0 101.09 45.27 101.09 101.1zm-38 12.66v-12.66c0-34.85-28.25-63.1-63.09-63.1-5.48 0-10.43 2.22-14.02 5.81-3.58 3.59-5.8 8.54-5.8 14.01v55.86c0 10.99 8.91 19.9 19.9 19.9h43.2c10.94 0 19.81-8.87 19.81-19.82z" fill="#c8effe"/></g></g><g><path d="m90.86 459.828v-236.6c0-55.83 45.26-101.1 101.09-101.1h-65.317c-55.83 0-101.09 45.27-101.09 101.1v236.6c0 24.22 19.63 43.86 43.86 43.86h65.317c-24.23 0-43.86-19.64-43.86-43.86z" fill="#99e6fc"/></g><g><path d="m55.54 377.28v82.547c0 7.656 6.207 13.863 13.863 13.863h181.5c7.656 0 13.862-6.206 13.862-13.862v-82.548c0-8.416-6.822-15.238-15.238-15.238h-178.75c-8.415 0-15.237 6.822-15.237 15.238z" fill="#f9f3f1"/></g><path d="m90.86 459.828v-97.786h-20.083c-8.416 0-15.238 6.822-15.238 15.238v82.547c0 7.656 6.207 13.863 13.863 13.863h23.706c-1.45-4.358-2.248-9.016-2.248-13.862z" fill="#f3eae6"/></g><g><path d="m48.04 377.28v82.547c0 11.779 9.584 21.363 21.363 21.363h181.5c11.779 0 21.362-9.583 21.362-21.362v-82.548c0-12.538-10.2-22.738-22.737-22.738h-17.885c-4.143 0-7.5 3.357-7.5 7.5s3.357 7.5 7.5 7.5h17.885c4.267 0 7.737 3.472 7.737 7.738v82.548c0 3.508-2.854 6.362-6.362 6.362h-181.5c-3.509 0-6.363-2.854-6.363-6.363v-82.547c0-4.267 3.472-7.738 7.738-7.738h128.902c4.143 0 7.5-3.357 7.5-7.5s-3.357-7.5-7.5-7.5h-128.902c-12.538 0-22.738 10.2-22.738 22.738z"/><path d="m236.95 263.208c15.062 0 27.315-12.254 27.315-27.315v-12.663c0-38.927-31.67-70.597-70.597-70.597-15.062 0-27.315 12.254-27.315 27.315v55.855c0 15.11 12.294 27.404 27.404 27.404h43.193zm-55.597-27.404v-55.855c0-6.791 5.524-12.315 12.315-12.315 30.656 0 55.597 24.94 55.597 55.597v12.663c0 6.791-5.524 12.315-12.315 12.315h-43.192c-6.841-.001-12.405-5.565-12.405-12.405z"/><path d="m493.151 334.556c0-13.428-8.406-24.922-20.229-29.518 12.349-10.248 20.229-25.705 20.229-42.969 0-30.781-25.043-55.824-55.824-55.824h-75.969c-4.143 0-7.5 3.357-7.5 7.5s3.357 7.5 7.5 7.5h75.969c22.511 0 40.824 18.313 40.824 40.824s-18.313 40.824-40.824 40.824h-135.061v-33.324h143.442c4.143 0 7.5-3.357 7.5-7.5s-3.357-7.5-7.5-7.5h-143.442v-31.34c0-.665-.03-1.322-.042-1.984h27.171c4.143 0 7.5-3.357 7.5-7.5s-3.357-7.5-7.5-7.5h-28.475c-6.654-42.169-37.649-76.353-78.111-87.637v-36.704c0-12.787-10.402-23.189-23.189-23.189h-.914l-7.643-38.891c-2.207-11.487-12.298-19.824-23.994-19.824h-13.833c-11.696 0-21.787 8.337-23.988 19.793l-7.648 38.922h-.914c-12.787 0-23.189 10.402-23.189 23.189v36.704c-45.775 12.766-79.457 54.832-79.457 104.621v7.639c0 4.143 3.357 7.5 7.5 7.5s7.5-3.357 7.5-7.5v-7.639c0-51.61 41.987-93.598 93.597-93.598h67.032c51.61 0 93.598 41.987 93.598 93.598v236.598c0 20.051-16.313 36.363-36.363 36.363h-181.5c-20.051 0-36.363-16.313-36.363-36.363v-196.996c0-4.143-3.357-7.5-7.5-7.5s-7.5 3.357-7.5 7.5v196.996c0 28.322 23.041 51.363 51.363 51.363h181.5 186.424c30.781 0 55.824-25.043 55.824-55.824 0-17.264-7.88-32.721-20.229-42.969 11.823-4.595 20.229-16.089 20.229-29.518 0-9.678-4.369-18.35-11.232-24.162 6.862-5.812 11.231-14.484 11.231-24.161zm-349.179-311.902c.853-4.436 4.748-7.654 9.264-7.654h13.833c4.516 0 8.411 3.219 9.27 7.686l7.08 36.029h-46.532zm63.837 92.898c-4.63-.605-9.349-.92-14.141-.92h-67.032c-4.792 0-9.511.315-14.141.92v-33.648c0-4.516 3.674-8.189 8.189-8.189h78.935c4.516 0 8.189 3.674 8.189 8.189v33.648zm270.342 339.814c0 22.511-18.313 40.824-40.824 40.824h-150.185c8.666-8.636 14.265-20.34 15.027-33.324h143.54c4.143 0 7.5-3.357 7.5-7.5s-3.357-7.5-7.5-7.5h-143.443v-33.324h135.061c22.51 0 40.824 18.313 40.824 40.824zm0-72.486c0 9.188-7.475 16.662-16.662 16.662h-24.162-135.061v-33.324h159.223c9.187 0 16.662 7.474 16.662 16.662zm-175.885-31.662v-33.324h135.061 24.162c9.188 0 16.662 7.475 16.662 16.662s-7.475 16.662-16.662 16.662z"/></g></g></svg>