<svg id="Capa_1" enable-background="new 0 0 511.65 511.65" height="512" viewBox="0 0 511.65 511.65" width="512" xmlns="http://www.w3.org/2000/svg"><g><g><path d="m275.673 180.77h-61.948v45.955c0 9.332 7.565 16.897 16.897 16.897h28.154c9.332 0 16.897-7.565 16.897-16.897z" fill="#f3eae6"/><g id="XMLID_562_"><g><path d="m275.673 210.768v-29.999h-34.307-7.615-20.027v45.955c0 9.332 7.565 16.897 16.897 16.897h27.642c-9.332 0-16.897-7.565-16.897-16.897v-4.507c0-6.323 5.126-11.449 11.449-11.449z" fill="#efe2dd"/><path d="m320.02 69.267h-133.355l-26.316 29.07 8.53 77.21c1.27 11.51 10.99 20.22 22.57 20.22h106.5c11.58 0 21.3-8.71 22.57-20.22l8.53-77.21z" fill="#f9f3f1"/><path d="m223.006 175.548-8.53-77.21 26.316-29.07h-54.127l-26.316 29.07 8.53 77.21c1.27 11.51 10.99 20.22 22.57 20.22h54.127c-11.58 0-21.3-8.71-22.57-20.22z" fill="#f3eae6"/><path d="m338.512 12.629-9.463 85.709h-168.7l-9.463-85.709c-.302-2.738 1.841-5.131 4.596-5.131h178.436c2.753 0 4.897 2.393 4.594 5.131z" fill="#99e6fc"/></g></g><path d="m209.608 7.498h-54.127c-2.754 0-4.898 2.393-4.596 5.131l9.464 85.709h54.127l-9.464-85.709c-.302-2.738 1.842-5.131 4.596-5.131z" fill="#62dbfb"/><g><path d="m156.427 410.41-77.77-77.77c-8.623-8.623-8.623-22.604 0-31.227 8.623-8.623 22.604-8.623 31.227 0l61.629 61.629 65.57 57.951-29.158 26.802z" fill="#ffcebf"/><path d="m225.597 352.678-64.75-64.75c-8.898-8.898-23.326-8.898-32.224 0-8.898 8.898-8.898 23.326 0 32.224l44.182 44.182 70.126 64.971 23.908-29.779z" fill="#ffcebf"/><path d="m170.785 398.563-77.77-77.77c-6.796-6.796-8.203-16.938-4.287-25.144-3.685.954-7.185 2.878-10.071 5.764-8.623 8.623-8.623 22.604 0 31.227l77.77 77.77 51.497 37.385 13.537-12.443z" fill="#ffb09e"/><path d="m187.163 352.487-44.182-44.182c-7.095-7.095-8.503-17.72-4.283-26.241-3.685 1.011-7.18 2.968-10.075 5.864-8.898 8.898-8.898 23.326 0 32.224l44.182 44.182 70.126 64.971 11.579-14.422z" fill="#ffb09e"/><g id="XMLID_564_"><g><path d="m195.979 410.408c-7.97 0-15.19-3.23-20.41-8.45-5.367-5.356-8.628-12.819-8.453-21.037.335-15.794 13.645-28.243 29.443-28.243h70.6c3.32 0 6.35-1.86 7.91-4.8 10.21-19.27 30.46-32.39 53.78-32.39 27.97 0 51.54 18.88 58.64 44.59.25.88.71 1.69 1.36 2.32l98.045 95.415c1.534 1.493.933 4.082-1.102 4.746l-125.792 41.047c-1.019.332-2.138.064-2.896-.693l-20.105-20.105c-1.434-1.434-3.38-2.24-5.408-2.24h-157.652c-11.21 0-21.95-4.48-29.84-12.43l-115.57-116.47c-9.437-9.438-9.549-24.666-.334-34.24 9.508-9.878 25.608-9.646 35.303.049l92.931 92.931z" fill="#ffdfcf"/></g></g><path d="m278.601 318.776c0 18.724-15.179 33.902-33.902 33.902-18.724 0-33.902-15.179-33.902-33.902 0-16.167 25.276-36.824 32.179-42.164 1.018-.788 2.429-.788 3.447 0 6.902 5.339 32.178 25.997 32.178 42.164z" fill="#c8effe"/><path d="m283.71 77.786h-21.288v-21.288c0-2.768-2.244-5.012-5.012-5.012h-24.421c-2.768 0-5.012 2.244-5.012 5.012v21.288h-21.288c-2.768 0-5.012 2.244-5.012 5.012v24.421c0 2.768 2.244 5.012 5.012 5.012h21.288v21.288c0 2.768 2.244 5.012 5.012 5.012h24.421c2.768 0 5.012-2.244 5.012-5.012v-21.288h21.288c2.768 0 5.012-2.244 5.012-5.012v-24.421c0-2.768-2.244-5.012-5.012-5.012z" fill="#f37c7c"/></g><g><path d="m351.37 462.263c-.9-.901-2.122-1.406-3.395-1.406h-158.831c-11.21 0-21.95-4.48-29.84-12.43l-115.57-116.47c-5.517-5.517-7.833-13.021-6.976-20.209-3.146 1.212-6.083 3.104-8.562 5.68-9.215 9.574-9.104 24.802.334 34.24l115.57 116.47c7.89 7.95 18.63 12.43 29.84 12.43h157.652c2.028 0 3.974.806 5.408 2.24l20.105 20.105c.758.758 1.877 1.026 2.896.693l26.426-8.623z" fill="#ffcebf"/></g></g><g><path d="m495.503 455.718-60.036-58.422c-2.968-2.89-7.717-2.825-10.605.145-2.889 2.969-2.824 7.717.145 10.605l60.036 58.422c1.458 1.419 3.345 2.125 5.23 2.125 1.954 0 3.905-.759 5.375-2.27 2.888-2.968 2.824-7.716-.145-10.605z"/><path d="m394.552 357.48c-8.35-29.173-35.276-49.494-65.699-49.494-15.97 0-31.055 5.525-43.009 15.211.156-1.455.258-2.926.258-4.421 0-9.817-6.437-21.271-19.132-34.044-8.792-8.847-17.483-15.218-17.849-15.484-2.635-1.924-6.209-1.924-8.844 0-.366.267-9.056 6.638-17.849 15.484-12.695 12.772-19.132 24.227-19.132 34.044 0 .346.026.686.034 1.03l-37.181-37.181c-5.72-5.72-13.326-8.87-21.415-8.87-8.09 0-15.695 3.15-21.416 8.87-3.941 3.941-6.559 8.708-7.87 13.748l-.263-.263c-11.534-11.534-30.3-11.532-41.833 0-3.808 3.808-6.351 8.406-7.644 13.271-5.635-4.504-12.575-6.955-19.895-6.955-8.534 0-16.558 3.324-22.592 9.358-12.458 12.458-12.458 32.728-.021 45.164l18.146 18.289c2.919 2.942 7.667 2.96 10.607.042s2.959-7.666.042-10.606l-18.167-18.311c-6.609-6.608-6.609-17.362 0-23.972 3.202-3.201 7.458-4.965 11.986-4.965s8.784 1.764 11.986 4.966l15.551 15.551c.001.001.001.001.002.002l14.973 14.973 62.797 62.797c1.406 1.406 3.314 2.196 5.303 2.196h122.044c4.142 0 7.5-3.357 7.5-7.5s-3.358-7.5-7.5-7.5h-82.49c-11.781 0-21.366-9.584-21.366-21.365 0-11.782 9.584-21.367 21.366-21.367h71.176c6.095 0 11.666-3.368 14.539-8.791 9.283-17.518 27.353-28.4 47.158-28.4 23.908 0 45.048 16.073 51.41 39.09.606 2.191 1.775 4.169 3.36 5.699l18.395 17.901c2.967 2.889 7.716 2.823 10.605-.145 2.889-2.969 2.824-7.717-.145-10.605zm-149.853-72.711c12.156 9.813 26.402 24.892 26.402 34.007 0 14.546-11.823 26.38-26.364 26.401h-.077c-14.54-.021-26.364-11.856-26.364-26.401.001-9.116 14.248-24.195 26.403-34.007zm-85.166 118.141-65.305-65.305-10.268-10.269c-5.685-5.685-5.685-14.935 0-20.619 5.686-5.685 14.935-5.687 20.621 0l58.777 58.777c-2.393 4.844-3.744 10.291-3.744 16.05 0 7.979 2.59 15.362 6.964 21.365h-7.045zm13.172-49.283-38.779-38.779c-2.887-2.887-4.477-6.726-4.477-10.809 0-4.082 1.59-7.921 4.477-10.808 5.959-5.961 15.657-5.963 21.618 0l51.945 51.945h-11.509c-8.847.001-16.964 3.18-23.275 8.451z"/><path d="m340.062 475.262c-1.406-1.406-3.314-2.196-5.303-2.196h-160.823c-9.142 0-18.078-3.722-24.517-10.21l-74.91-75.495c-2.917-2.941-7.665-2.959-10.606-.042-2.94 2.918-2.958 7.667-.041 10.606l74.91 75.495c9.235 9.308 22.052 14.646 35.165 14.646h157.716l21.387 21.388c1.464 1.464 3.384 2.196 5.303 2.196s3.839-.732 5.303-2.196c2.929-2.93 2.929-7.678 0-10.607z"/><path d="m161.421 176.374c1.693 15.332 14.603 26.895 30.029 26.895h14.775v23.455c0 13.453 10.945 24.397 24.397 24.397h28.153c13.453 0 24.397-10.944 24.397-24.397v-23.455h14.775c15.426 0 28.335-11.563 30.029-26.895l2.114-19.14c.455-4.117-2.514-7.823-6.631-8.278-4.108-.448-7.823 2.516-8.278 6.632l-2.114 19.14c-.853 7.72-7.353 13.541-15.12 13.541h-106.497c-7.767 0-14.267-5.821-15.12-13.541l-7.608-68.89h25.453v1.382c0 6.899 5.613 12.512 12.512 12.512h13.789v13.788c0 6.899 5.613 12.513 12.512 12.513h24.422c6.899 0 12.512-5.613 12.512-12.513v-13.788h13.789c6.899 0 12.512-5.612 12.512-12.512v-1.382h24.453l-1.964 17.788c-.455 4.117 2.514 7.823 6.631 8.278.28.03.557.046.833.046 3.773 0 7.021-2.841 7.445-6.678l12.916-116.95c.455-4.117-2.514-7.823-6.631-8.278-4.108-.441-7.823 2.516-8.278 6.632l-9.295 84.162h-26.11v-8.04c0-6.899-5.613-12.512-12.512-12.512h-13.789v-13.789c0-6.899-5.613-12.512-12.512-12.512h-24.422c-6.899 0-12.512 5.612-12.512 12.512v13.789h-13.789c-6.899 0-12.512 5.612-12.512 12.512v8.04h-27.11l-9.295-84.162c-.454-4.117-4.159-7.077-8.278-6.632-4.117.455-7.086 4.161-6.631 8.278zm106.752 50.35c0 5.182-4.216 9.397-9.397 9.397h-28.153c-5.182 0-9.397-4.216-9.397-9.397v-23.455h46.948v23.455zm-58.997-141.437h18.801c4.142 0 7.5-3.357 7.5-7.5v-18.801h19.445v18.801c0 4.143 3.358 7.5 7.5 7.5h18.801v19.445h-18.801c-4.142 0-7.5 3.357-7.5 7.5v18.801h-19.445v-18.801c0-4.143-3.358-7.5-7.5-7.5h-18.801z"/></g></g></svg>