<svg id="Capa_1" enable-background="new 0 0 512.098 512.098" height="512" viewBox="0 0 512.098 512.098" width="512" xmlns="http://www.w3.org/2000/svg"><g><g><path d="m228.337 352.877-64.75-64.75c-8.898-8.898-23.326-8.898-32.224 0-8.898 8.898-8.898 23.326 0 32.224l44.182 44.182 70.126 64.971 23.908-29.779z" fill="#ffcebf"/><path d="m159.168 410.61-77.77-77.77c-8.623-8.623-8.623-22.604 0-31.227 8.623-8.623 22.604-8.623 31.227 0l61.629 61.629 65.57 57.951-29.158 26.802z" fill="#ffcebf"/><g><path d="m173.526 398.763-77.77-77.77c-6.796-6.796-8.203-16.938-4.287-25.144-3.685.954-7.185 2.878-10.071 5.764-8.623 8.623-8.623 22.604 0 31.227l77.77 77.77 51.497 37.385 13.537-12.443z" fill="#ffb09e"/><path d="m189.904 352.687-44.182-44.182c-7.095-7.095-8.503-17.72-4.283-26.241-3.685 1.011-7.18 2.968-10.075 5.864-8.898 8.898-8.898 23.326 0 32.224l44.182 44.182 70.126 64.971 11.579-14.422z" fill="#ffb09e"/><g><path d="m198.72 410.607c-7.97 0-15.19-3.23-20.41-8.45-5.367-5.356-8.628-12.819-8.453-21.037.335-15.794 13.645-28.243 29.443-28.243h70.6c3.32 0 6.35-1.86 7.91-4.8 10.21-19.27 30.46-32.39 53.78-32.39 27.97 0 51.54 18.88 58.64 44.59.25.88.71 1.69 1.36 2.32l98.045 95.415c1.534 1.493.933 4.082-1.102 4.746l-125.793 41.048c-1.019.332-2.138.064-2.896-.693l-20.105-20.105c-1.434-1.434-3.38-2.24-5.408-2.24h-157.651c-11.21 0-21.95-4.48-29.84-12.43l-115.57-116.471c-9.437-9.438-9.549-24.666-.334-34.24 9.508-9.878 25.608-9.646 35.303.049l92.931 92.931z" fill="#ffdfcf"/></g><g><path d="m354.11 462.463c-.9-.901-2.122-1.406-3.395-1.406h-158.831c-11.21 0-21.95-4.48-29.84-12.43l-115.57-116.47c-5.517-5.517-7.833-13.021-6.976-20.209-3.146 1.212-6.083 3.104-8.562 5.68-9.215 9.574-9.104 24.802.334 34.24l115.57 116.47c7.89 7.95 18.63 12.43 29.84 12.43h157.652c2.028 0 3.974.806 5.408 2.24l20.105 20.105c.758.758 1.877 1.026 2.896.693l26.426-8.623z" fill="#ffcebf"/></g><g id="XMLID_565_"><g><path d="m314.173 320.867v83.17c0 4.34-1.76 8.26-4.6 11.1-2.865 2.865-6.84 4.621-11.215 4.59-8.703-.062-15.585-7.46-15.585-16.164v-42.456c0-4.54-3.68-8.23-8.23-8.23h-78.34c-5.74 0 32.489-7.035 27.999-4.135l-44.553-34.524c-.165-7.409 2.655-14.637 8.005-19.765 6.404-6.137 15.095-9.906 24.669-9.906 1.761 0 3.502.135 5.19.383 3.45.508 6.53-2.216 6.53-5.703v-158.6h42.76v158.63c0 3.533 3.157 6.159 6.653 5.651 3.242-.471 6.614-.501 10.087-.011 17.7 2.511 30.63 18.09 30.63 35.97z" fill="#99e6fc"/></g></g><path d="m298.473 504.598c-8.67 0-15.698-7.028-15.698-15.698v-19.99c0-8.67 7.028-15.698 15.698-15.698 8.67 0 15.698 7.028 15.698 15.698v19.99c-.001 8.67-7.029 15.698-15.698 15.698z" fill="#99e6fc"/><g id="XMLID_567_"><g><path d="m285.107 83.228h-82.251l-7.013 12.02v32.72c0 7 5.67 12.66 12.66 12.66h72.84c6.99 0 12.66-5.66 12.66-12.66v-32.72z" fill="#efe2dd"/><path d="m294.003 30.718v64.53h-98.16v-31.444c0-2.329-1.888-4.216-4.216-4.216h-99.75c-3.045 0-5.514-2.469-5.514-5.514v-41.062c0-3.045 2.469-5.514 5.514-5.514h178.906c12.824-.001 23.22 10.395 23.22 23.22z" fill="#f3eae6"/></g></g><g fill="#c8effe"><path d="m380.268 186.834c3.732 9.757-1.153 20.692-10.91 24.424s-34.816-6.936-34.816-6.936 11.546-24.667 21.303-28.398c9.757-3.732 20.692 1.153 24.423 10.91z"/><path d="m371.564 95.222c5.215 5.941 4.626 14.986-1.315 20.201s-26.529 4.239-26.529 4.239 1.702-20.54 7.644-25.755 14.985-4.627 20.2 1.315z"/><path d="m110.577 186.834c-3.732 9.757 1.153 20.692 10.91 24.424s34.816-6.936 34.816-6.936-11.546-24.667-21.303-28.398-20.691 1.153-24.423 10.91z"/><path d="m119.281 95.222c-5.215 5.941-4.626 14.986 1.315 20.201s26.529 4.239 26.529 4.239-1.702-20.54-7.644-25.755-14.985-4.627-20.2 1.315z"/></g></g></g><g><path d="m495.727 455.918-60.595-58.966c-2.969-2.89-7.717-2.825-10.605.145-2.889 2.969-2.824 7.717.145 10.605l60.595 58.966c1.458 1.419 3.345 2.125 5.23 2.125 1.954 0 3.905-.759 5.375-2.27 2.888-2.968 2.824-7.716-.145-10.605z"/><path d="m394.775 357.68c-8.35-29.173-35.276-49.494-65.699-49.494-3.043 0-6.08.224-9.087.624-4.615-16.252-18.303-28.914-35.393-31.334-3.428-.485-6.883-.558-10.295-.221v-129.124h7.041c11.116 0 20.159-9.043 20.159-20.158v-58.896c0-4.143-3.358-7.5-7.5-7.5s-7.5 3.357-7.5 7.5v18.671h-83.156v-28.164c0-4.143-3.358-7.5-7.5-7.5h-109.479c-4.142 0-7.5 3.357-7.5 7.5s3.358 7.5 7.5 7.5h101.979v60.888c0 11.116 9.043 20.159 20.159 20.159h8.041v129.125c-1.404-.14-2.819-.21-4.225-.21-13.799 0-26.458 6.539-34.484 17.24l-11.461-11.461c-5.72-5.72-13.326-8.87-21.415-8.87-8.09 0-15.695 3.15-21.416 8.87-3.941 3.941-6.559 8.708-7.87 13.748l-.263-.263c-11.533-11.534-30.3-11.532-41.833 0-3.808 3.808-6.351 8.406-7.644 13.271-5.635-4.503-12.575-6.954-19.895-6.954-8.534 0-16.558 3.323-22.592 9.357-12.458 12.458-12.458 32.728-.021 45.164l20.001 20.158c2.919 2.942 7.667 2.96 10.607.042s2.958-7.666.042-10.606l-20.022-20.18c-3.202-3.201-4.965-7.458-4.965-11.985s1.763-8.784 4.965-11.986c3.202-3.201 7.458-4.964 11.986-4.964s8.784 1.763 11.986 4.965l93.323 93.322c1.406 1.406 3.314 2.196 5.303 2.196h39.553 25.976 13.077c4.142 0 7.5-3.357 7.5-7.5s-3.358-7.5-7.5-7.5h-13.077-25.976c-11.781 0-21.366-9.585-21.366-21.366s9.584-21.365 21.366-21.365h78.338c.404 0 .733.328.733.732v42.924c0 12.791 10.406 23.197 23.198 23.197 12.791 0 23.197-10.406 23.197-23.197v-80.322c2.447-.339 4.924-.526 7.407-.526 23.908 0 45.048 16.073 51.41 39.09.606 2.191 1.775 4.169 3.36 5.699l17.836 17.357c1.458 1.419 3.344 2.125 5.23 2.125 1.953 0 3.905-.759 5.375-2.27 2.889-2.968 2.824-7.717-.145-10.605zm-191.43-229.708v-25.224h83.156v25.225c0 2.844-2.314 5.158-5.159 5.158h-72.839c-2.844 0-5.158-2.315-5.158-5.159zm-43.588 275.137-75.573-75.573c-5.685-5.685-5.685-14.935 0-20.619s14.935-5.687 20.621 0l58.777 58.777c-2.393 4.844-3.744 10.291-3.744 16.049 0 7.98 2.59 15.363 6.965 21.366zm13.172-49.282-38.779-38.78c-2.887-2.887-4.477-6.726-4.477-10.809 0-4.082 1.59-7.921 4.477-10.808 5.959-5.961 15.657-5.963 21.618 0l51.946 51.946h-11.51c-8.847.002-16.963 3.181-23.275 8.451zm133.741 50.207c0 4.52-3.677 8.197-8.198 8.197-4.52 0-8.197-3.678-8.197-8.197v-42.924c0-8.675-7.058-15.732-15.733-15.732h-45.615l-40.327-40.328c5.112-8.019 13.983-13.004 23.719-13.004 1.34 0 2.692.099 4.019.293 3.83.561 7.704-.566 10.626-3.092 2.911-2.515 4.58-6.165 4.58-10.015v-131.101h27.757v131.126c0 3.829 1.659 7.461 4.552 9.965 2.933 2.538 6.827 3.671 10.691 3.111 2.617-.38 5.292-.382 7.948-.006 13.783 1.952 24.177 14.22 24.177 28.535v83.172z"/><path d="m340.286 475.463c-1.406-1.407-3.314-2.197-5.303-2.197h-13.313v-4.355c0-12.791-10.406-23.197-23.197-23.197-12.792 0-23.198 10.406-23.198 23.197v4.355h-101.115c-9.142 0-18.078-3.722-24.517-10.21l-73.055-73.626c-2.917-2.941-7.666-2.958-10.606-.042-2.94 2.918-2.958 7.666-.041 10.606l73.055 73.626c9.235 9.308 22.052 14.646 35.165 14.646h101.115v.635c0 12.791 10.406 23.197 23.198 23.197 12.791 0 23.197-10.406 23.197-23.197v-.635h10.206l21.387 21.388c1.464 1.465 3.384 2.197 5.303 2.197s3.839-.732 5.303-2.196c2.929-2.929 2.929-7.678 0-10.606zm-33.616 13.437c0 4.52-3.677 8.197-8.197 8.197s-8.198-3.678-8.198-8.197v-19.99c0-4.52 3.678-8.197 8.198-8.197s8.197 3.678 8.197 8.197z"/><path d="m86.366 15h184.421c8.665 0 15.713 7.049 15.713 15.713v6.401c0 4.143 3.358 7.5 7.5 7.5s7.5-3.357 7.5-7.5v-6.401c.001-16.936-13.777-30.713-30.712-30.713h-184.422c-4.142 0-7.5 3.357-7.5 7.5s3.358 7.5 7.5 7.5z"/><path d="m331.604 211.223c5.242 2.231 20.584 8.29 32.477 8.29 2.928 0 5.648-.367 7.956-1.25 6.59-2.52 11.804-7.456 14.682-13.898s3.075-13.619.555-20.209v-.001c-5.203-13.604-20.501-20.443-34.108-15.235-11.679 4.466-22.407 25.794-25.417 32.224-.863 1.844-.939 3.958-.213 5.858.727 1.9 2.196 3.424 4.068 4.221zm26.92-28.294c5.879-2.245 12.491.707 14.739 6.584 1.089 2.848 1.004 5.949-.239 8.733s-3.497 4.917-6.345 6.007c-2.909 1.111-12.065-.655-21.646-3.942 4.943-8.844 10.581-16.269 13.491-17.382z"/><path d="m343.365 127.152c1.375.065 3.132.121 5.127.121 8.307 0 20.724-.965 26.705-6.215 9.04-7.935 9.939-21.744 2.005-30.784-7.937-9.041-21.747-9.939-30.785-2.005-7.417 6.511-9.583 23.688-10.171 30.772-.168 2.027.496 4.037 1.838 5.566s3.248 2.45 5.281 2.545zm12.946-27.609c1.292-1.134 2.895-1.689 4.491-1.689 1.895 0 3.781.783 5.125 2.315 2.478 2.824 2.197 7.138-.603 9.597-1.394 1.075-6.62 2.068-13.051 2.388 1.15-6.336 2.808-11.383 4.038-12.611z"/><path d="m103.572 184.155c-2.52 6.59-2.323 13.767.555 20.209s8.092 11.379 14.682 13.898c2.309.883 5.027 1.25 7.956 1.25 11.893 0 27.236-6.059 32.477-8.29 1.873-.797 3.341-2.32 4.068-4.222.727-1.9.65-4.015-.213-5.858-3.01-6.43-13.738-27.758-25.417-32.224-13.603-5.203-28.904 1.634-34.108 15.237zm14.01 5.359c2.25-5.88 8.864-8.831 14.74-6.585 2.91 1.113 8.549 8.54 13.492 17.381-9.581 3.288-18.736 5.057-21.646 3.943-2.848-1.09-5.102-3.223-6.345-6.007s-1.33-5.886-.241-8.732z"/><path d="m115.649 121.059c5.981 5.251 18.398 6.215 26.705 6.215 1.995 0 3.752-.056 5.127-.121 2.033-.096 3.939-1.015 5.281-2.544s2.006-3.539 1.838-5.566c-.587-7.084-2.753-24.262-10.171-30.772-9.04-7.935-22.85-7.037-30.785 2.005-7.934 9.038-7.035 22.848 2.005 30.783zm9.269-20.89c2.479-2.822 6.793-3.103 9.593-.647 1.247 1.243 2.91 6.297 4.06 12.632-6.43-.317-11.65-1.308-13.027-2.368-2.823-2.479-3.104-6.793-.626-9.617z"/></g></g></svg>