<svg id="Capa_1" enable-background="new 0 0 512.098 512.098" height="512" viewBox="0 0 512.098 512.098" width="512" xmlns="http://www.w3.org/2000/svg"><g><g><path d="m160.037 405.492c-6.154 12.603-19.45 21.079-34.621 20.148-17.354-1.065-31.65-14.708-33.506-31.995-.15-1.395-.218-2.776-.21-4.138.017-2.881-1.97-5.323-4.751-6.072-11.634-3.132-20.197-13.749-20.197-26.373 0-9.114 4.468-17.18 11.328-22.143l54.227-29.367 56.095 51.293z" fill="#f9f3f1"/><path d="m171.112 200.908c-5.553 9.532-16.238 15.562-27.968 14.611-16.286-1.32-28.417-15.592-27.097-31.877.49-6.043 2.766-11.511 6.263-15.935-5.92-4.563-9.488-11.932-8.839-19.937 1.019-12.567 12.032-21.929 24.599-20.91 5.909.479 11.108 3.168 14.854 7.189l37.594 25.973z" fill="#f9f3f1"/><g id="XMLID_571_"><g><path d="m442.408 68.503c10.3 5.15 15.53 16.84 12.51 27.95l-49.62 182.42-1.84 81.28c-.51 22.49-7.6 44.34-20.39 62.85l-14.04 20.32v44.404c0 8.277-6.71 14.986-14.986 14.986h-144.948c-8.277 0-14.986-6.71-14.986-14.986v-52.474c-22.31-10.64-38.24-31.24-42.92-55.51l-1.42-7.36-77.98-42.8c-11.16-6.13-17.49-17.66-17.49-29.57 0-5.37 1.28-10.81 3.99-15.87 8.38-15.66 27.48-22.12 43.65-14.77l59.92 27.24 3.3-4.46c3.45-4.66 7.25-9.04 11.39-13.08 4.13-4.04 8.58-7.75 13.32-11.09l-56.54-207.86c-.69-2.53-1.02-5.08-1.02-7.59 0-11.81 7.3-22.78 18.86-27.05 15.17-5.6 31.97 2.35 37.26 17.62l61.3 176.93v-186.68c0-7.66 3.1-14.6 8.12-19.62s11.95-8.12 19.61-8.12c15.06 0 27.37 12.02 27.73 27.07l4.19 173.65 25.69-166.68c1.96-12.68 12.88-21.63 25.18-21.63 1.79 0 3.61.19 5.43.58 12.52 2.72 21.09 14.29 20.02 27.06l-13.45 160.67 36.19-123.04c3.14-10.69 12.88-17.35 23.19-17.35 3.61 0 7.29.82 10.78 2.56z" fill="#ffdfcf"/></g></g><g fill="#f9f3f1"><path d="m428.573 292.966c3.02-4.936 4.606-10.844 4.177-17.148-1.005-14.784-13.327-26.583-28.14-26.994-16.412-.455-29.859 12.713-29.859 29.023 0 5.18 1.363 10.039 3.74 14.25-11.17 1.64-19.746 11.26-19.746 22.885 0 12.777 10.358 23.135 23.135 23.135.495 0 .985-.021 1.473-.052 3.907 11.503 15.163 19.612 28.18 18.713 13.659-.943 24.721-12.015 25.654-25.674.534-7.819-2.181-15.001-6.929-20.335-4.424-4.969-5.157-12.129-1.685-17.803z"/><path d="m244.559 356.025c.792-4.398.397-9.088-1.425-13.608-4.538-11.257-16.919-17.572-28.7-14.652-13.934 3.453-21.861 17.864-17.603 31.338 1.434 4.536 4.06 8.363 7.423 11.248 3.18 2.728 4.593 6.896 3.85 11.019-.792 4.399-.397 9.088 1.425 13.608 4.539 11.257 16.92 17.571 28.701 14.651 13.933-3.454 21.861-17.864 17.603-31.338-1.434-4.536-4.06-8.363-7.423-11.248-3.181-2.727-4.594-6.895-3.851-11.018z"/></g><g><g id="XMLID_568_"><g fill="#ffdfcf"><path d="m438.555 66.022c-.19-.02-.38-.03-.56-.04.19 0 .38.02.56.04z"/><path d="m438.785 66.042c.4.02.8.07 1.2.13-.4-.05-.8-.1-1.2-.13z"/></g></g></g><path d="m189.863 267.986c13.733-11.202 19.59-29.443 14.938-46.544l-48.774-179.312c-.69-2.53-1.02-5.08-1.02-7.59 0-3.654.703-7.227 2.01-10.547-1.958.286-3.917.777-5.849 1.491-11.56 4.27-18.86 15.24-18.86 27.05 0 2.51.33 5.06 1.02 7.59l56.54 207.86c-.004.001-.009.005-.005.002z" fill="#ffcebf"/><g><path d="m222.739 421.4c0-5.56-2.922-10.675-7.641-13.613-18.28-11.381-31.152-29.927-35.279-51.326-.9-4.662-3.829-8.682-7.991-10.967l-71.409-39.193c-11.16-6.13-17.49-17.66-17.49-29.57 0-3.41.529-6.853 1.6-10.204-10.777 1.124-20.786 7.421-26.242 17.616-2.71 5.06-3.99 10.5-3.99 15.87 0 11.91 6.33 23.44 17.49 29.57l77.98 42.8 1.42 7.36c4.68 24.27 20.61 44.87 42.92 55.51v52.474c0 8.277 6.71 14.986 14.986 14.986h13.646z" fill="#ffcebf"/></g><g fill="#ffcebf"><path d="m249.727 220.128c14.183 0 25.7-11.46 25.771-25.642l.861-172.44c.011-2.622.374-5.168 1.045-7.587.857-3.091 2.22-5.977 3.992-8.563-1.287-.183-2.601-.282-3.938-.282-7.66 0-14.59 3.1-19.61 8.12s-8.12 11.96-8.069 19.624z"/><path d="m309.498 205.555c14.961 0 27.678-10.931 29.926-25.722l23.159-152.431c.392-2.593 1.122-5.059 2.137-7.354.225-.508.488-1 .741-1.491-1.745-.358-3.496-.534-5.213-.534-12.3 0-23.22 8.95-25.18 21.63z"/><path d="m372.572 205.555c14.904 0 27.977-9.942 31.959-24.304l31.02-111.892c.276-.996.619-1.966.984-2.906-1.631-.342-3.28-.51-4.906-.51-10.31 0-20.05 6.66-23.19 17.35l-34.055 115.782z"/></g></g><g><path d="m402.078 378.795c-4.029-.966-8.074 1.528-9.033 5.559-3.108 13.057-8.542 25.258-16.147 36.266l-14.043 20.32c-.866 1.253-1.33 2.74-1.33 4.264v59.395c0 4.143 3.357 7.5 7.5 7.5s7.5-3.357 7.5-7.5v-57.055l12.713-18.396c8.668-12.544 14.858-26.445 18.399-41.318.959-4.031-1.53-8.076-5.559-9.035z"/><path d="m198.334 430.373c-20.069-9.579-34.567-28.333-38.78-50.169l-1.42-7.358c-.423-2.19-1.799-4.079-3.755-5.153l-77.985-42.804c-12.527-6.875-17.233-22.719-10.489-35.318 6.495-12.137 21.398-17.182 33.929-11.484l6.198 2.817c3.771 1.712 8.217.047 9.931-3.725 1.714-3.771.047-8.217-3.724-9.932l-6.198-2.817c-19.705-8.955-43.147-1.023-53.362 18.063-10.052 18.782-3.919 42.14 13.524 53.734-4.446 5.956-6.95 13.26-6.95 20.836 0 15.434 10.218 29.046 24.954 33.392.022 1.332.105 2.671.247 3.991 2.229 20.771 19.642 37.4 40.503 38.682.909.056 1.813.083 2.714.083 12.778 0 24.678-5.566 32.841-14.985 7.216 9.571 16.42 17.636 27.091 23.496v62.876c0 4.143 3.358 7.5 7.5 7.5s7.5-3.357 7.5-7.5v-67.456c.001-2.891-1.66-5.524-4.269-6.769zm-72.458-12.219c-13.653-.838-25.049-11.719-26.508-25.312-.117-1.09-.173-2.198-.167-3.29.038-6.225-4.199-11.719-10.301-13.359-8.624-2.322-14.647-10.189-14.647-19.131 0-4.979 1.905-9.748 5.217-13.373l64.602 35.458.752 3.899c1.447 7.499 3.901 14.695 7.218 21.428-5.463 9.026-15.464 14.345-26.166 13.68z"/><path d="m446.765 63.683c-8.408-4.205-18.173-4.463-26.791-.711-8.619 3.751-15.083 11.075-17.735 20.093l-15.361 52.229 7.246-86.573c1.398-16.702-9.656-31.976-25.715-35.527-8.876-1.961-18.268-.145-25.769 4.987-7.501 5.133-12.598 13.228-13.982 22.211l-12.822 83.169-2.148-89.172c-.465-19.284-15.938-34.389-35.227-34.389-19.43 0-35.237 15.807-35.237 35.236v142.124l-46.712-134.826c-3.224-9.306-9.902-16.75-18.805-20.961-8.904-4.21-18.895-4.653-28.134-1.239-17.798 6.572-27.465 25.334-22.484 43.642l15.215 55.931c-1.192-.243-2.401-.423-3.628-.522-8.076-.649-15.922 1.874-22.094 7.121s-9.932 12.584-10.587 20.659c-.641 7.914 1.813 15.605 6.712 21.603-2.318 4.4-3.729 9.237-4.136 14.269-.3 3.705-.047 7.412.751 11.02.774 3.498 3.875 5.881 7.315 5.881.537 0 1.083-.059 1.628-.18 4.044-.895 6.597-4.899 5.702-8.943-.475-2.145-.625-4.354-.445-6.565.353-4.359 1.968-8.472 4.671-11.891 1.244-1.572 1.805-3.578 1.56-5.568-.246-1.99-1.277-3.799-2.866-5.022-4.141-3.191-6.362-8.197-5.941-13.391.331-4.081 2.231-7.789 5.351-10.441s7.092-3.926 11.167-3.599c3.819.31 7.361 2.022 9.971 4.825.046.05.097.092.144.14l16.125 59.279c-4.453 6.42-12.103 10.097-19.955 9.464-.918-.074-1.878-.218-2.854-.426-4.05-.867-8.036 1.717-8.901 5.767-.866 4.051 1.717 8.036 5.768 8.901 1.607.344 3.214.582 4.776.709.987.08 1.971.119 2.953.119 8.302 0 16.312-2.835 22.762-7.818l14.034 51.592c-8.253 6.403-15.585 13.875-21.848 22.27l-19.093-8.68c-3.771-1.712-8.218-.047-9.932 3.725-1.714 3.771-.047 8.217 3.724 9.932l24.618 11.191c1 .454 2.057.673 3.101.673 2.321 0 4.583-1.079 6.035-3.043l3.298-4.461c6.427-8.697 14.167-16.268 23.003-22.501 2.577-1.818 3.742-5.055 2.914-8.098l-56.544-207.86c-2.925-10.753 2.752-21.772 13.207-25.633 5.428-2.004 11.295-1.745 16.524.729 5.229 2.473 9.151 6.845 11.044 12.311l58.625 169.214c1.424 4.108 5.568 6.563 9.859 5.845 4.288-.722 7.401-4.402 7.401-8.751v-178.517c0-11.158 9.078-20.236 20.236-20.236 11.078 0 19.964 8.675 20.23 19.749l3.812 158.163c.11 4.629 3.679 8.345 8.299 8.645 4.596.296 8.638-2.925 9.344-7.504l23.337-151.376c.768-4.973 3.477-9.276 7.629-12.117 4.151-2.843 9.146-3.809 14.059-2.721 8.76 1.938 14.781 10.376 14.007 19.629l-12.274 146.645c-.381 4.556 2.722 8.624 7.216 9.463 4.486.832 8.854-1.836 10.142-6.221l32.37-110.058c1.396-4.745 4.797-8.598 9.331-10.572 4.536-1.974 9.673-1.836 14.097.374 7.072 3.536 10.698 11.64 8.622 19.27l-6.525 23.994c-1.087 3.996 1.272 8.118 5.27 9.205 3.987 1.083 8.117-1.271 9.205-5.27l6.525-23.993c3.944-14.5-2.948-29.903-16.39-36.622z"/><path d="m442.97 145.936c-3.992-1.08-8.118 1.271-9.206 5.269l-18.589 68.341c-1.087 3.997 1.271 8.118 5.269 9.206.659.179 1.321.265 1.974.265 3.3 0 6.324-2.195 7.232-5.533l18.589-68.341c1.087-3.998-1.272-8.12-5.269-9.207z"/><path d="m434.97 296.88c3.962-6.477 5.781-13.936 5.262-21.571-1.26-18.539-16.815-33.465-35.414-33.981-9.981-.269-19.373 3.393-26.505 10.329-7.134 6.938-11.063 16.24-11.063 26.19 0 3.243.435 6.467 1.279 9.577-10.281 5.027-17.285 15.651-17.285 27.558 0 15.702 11.875 28.684 27.115 30.434 6.016 11.542 18.053 18.929 31.246 18.929.81 0 1.626-.027 2.443-.084 17.407-1.202 31.431-15.236 32.62-32.646.652-9.543-2.477-18.718-8.81-25.832-2.244-2.524-2.601-6.101-.888-8.903zm-5.265 33.712c-.682 9.974-8.716 18.015-18.688 18.703-9.19.647-17.62-4.978-20.563-13.642-1.038-3.056-3.905-5.088-7.099-5.088-.155 0-.312.005-.468.015-.334.021-.669.036-1.008.036-8.621 0-15.635-7.014-15.635-15.635 0-7.699 5.733-14.348 13.336-15.465 2.446-.358 4.558-1.9 5.646-4.121 1.088-2.22 1.011-4.833-.204-6.986-1.813-3.211-2.771-6.863-2.771-10.563 0-5.865 2.316-11.348 6.521-15.438 4.203-4.088 9.753-6.246 15.63-6.088 10.958.304 20.123 9.091 20.865 20.005.307 4.516-.763 8.917-3.092 12.726-5.188 8.479-4.19 19.21 2.48 26.703 3.632 4.08 5.425 9.35 5.05 14.838z"/><path d="m253.292 361.351c-1.124-.963-1.629-2.457-1.352-3.997v.001c1.071-5.947.432-12.083-1.85-17.742-5.937-14.726-22.042-22.956-37.461-19.127-8.732 2.164-15.956 7.664-20.339 15.484-4.322 7.712-5.274 16.967-2.611 25.394 1.806 5.716 5.158 10.792 9.691 14.682 1.124.963 1.629 2.457 1.352 3.995-1.071 5.947-.432 12.083 1.851 17.743 4.958 12.298 17.006 20.06 29.826 20.06 2.531 0 5.094-.303 7.636-.934 8.732-2.164 15.956-7.664 20.339-15.485 4.322-7.711 5.273-16.967 2.61-25.393-1.807-5.716-5.158-10.792-9.692-14.681zm-6.004 32.74c-2.336 4.169-6.194 7.102-10.863 8.26-8.209 2.031-16.781-2.341-19.94-10.177-1.224-3.035-1.57-6.312-1-9.475 1.23-6.831-1.143-13.575-6.349-18.04-2.409-2.066-4.191-4.77-5.154-7.815-1.44-4.559-.946-9.367 1.393-13.54 2.336-4.169 6.194-7.102 10.863-8.26 1.354-.335 2.718-.496 4.066-.496 6.823 0 13.236 4.13 15.874 10.674 1.224 3.035 1.569 6.311 1 9.473v.001c-1.23 6.832 1.143 13.576 6.349 18.041 2.41 2.067 4.192 4.77 5.154 7.814 1.44 4.558.946 9.367-1.393 13.54z"/></g></g></svg>