<svg id="Capa_1" enable-background="new 0 0 511.731 511.731" height="512" viewBox="0 0 511.731 511.731" width="512" xmlns="http://www.w3.org/2000/svg"><g><g><g id="XMLID_579_"><g><path d="m384.234 210.475-129.14 144.74c-7.11 6.56-15.43 11.72-24.54 15.16l-33.55 10.64c-2.1 1.51-3.93 3.42-5.37 5.63l-70.093 107.37c-3.031 4.643-9.886 4.484-12.698-.295l-90.481-153.762c-2.002-3.402-1.905-7.645.25-10.952l32.023-49.151c1.99-3.07 2.67-6.81 1.89-10.38l8-31.03 128.46-165.73z" fill="#ffdfcf"/></g></g><path d="m188.985 72.715-2.445 3.154 166.136 117.218-129.14 144.74c-7.11 6.56-15.43 11.72-24.54 15.16l-33.55 10.64c-2.1 1.51-3.93 3.42-5.37 5.63l-65.464 100.278 14.231 24.184c2.812 4.779 9.667 4.938 12.698.295l70.093-107.37c1.44-2.21 3.27-4.12 5.37-5.63l33.55-10.64c9.11-3.44 17.43-8.6 24.54-15.16l129.14-144.74z" fill="#ffcebf"/><path d="m458.729 97.987c.519.034 1.039.063 1.567.063 13.727 0 24.684-11.862 23.178-25.895-1.137-10.6-9.565-19.198-20.141-20.544-1.81-.23-3.585-.251-5.304-.084-4.239.412-8.186-1.94-10.182-5.702-4.645-8.754-13.85-14.716-24.451-14.716-15.282 0-27.671 12.389-27.671 27.671v52.62l46.351 3.445z" fill="#f9f3f1"/><g><path d="m173.408 274.671.005-.01c11.168-26.873 11.173-57.703.013-84.584l-6.176-14.878c7.216-11.425 19.806-31.294 27.197-42.614 5.022-7.718 7.678-16.643 7.678-25.81 0-12.661-5.007-24.546-13.705-33.332l-127.896 165.002-3.275 12.701 61.376 38.552c19.133 12.018 44.456 5.068 54.783-15.027z" fill="#ffcebf"/><path d="m156.025 269.495c6.663 11.272 18.901 18.532 32.49 18.532h6.299c2.145 0 3.883 1.739 3.883 3.883v115.132c0 8.796 7.131 15.927 15.927 15.927 8.796 0 15.927-7.131 15.927-15.927v-155.643-106.299h-91.499v108.49z" fill="#f9f3f1"/><path d="m139.052 145.1v108.49l16.973 15.905c3.065 5.185 7.32 9.507 12.333 12.678 1.926-2.247 3.633-4.746 5.049-7.502l.005-.01c11.168-26.873 11.173-57.703.013-84.584l-6.176-14.878c4.974-7.876 12.502-19.764 19.121-30.099z" fill="#f3eae6"/><path d="m268.163 69.119c7.412-11.377 4.199-26.609-7.178-34.021-11.377-7.412-26.609-4.199-34.021 7.178l-36.156 55.883 39.743 28.687z" fill="#ffdfcf"/><g><path d="m99.955 141.965c-2.172-1.379-4.346-2.747-6.525-4.091-19.741-12.176-25.086-38.439-11.973-57.571 15.408-22.479 32.91-43.035 52.555-61.62 16.847-15.938 43.64-14.714 58.728 2.899 19.707 23.005 41.855 45.225 65.523 65.871l98.701 96.207-93.319 99.036-27.893-25.574c-27.115-30.224-58.14-58.77-90.945-83.826l-.002-.005z" fill="#b0e7c9"/></g><path d="m173.426 190.077-2.378-5.729c-2.383-5.741-1.823-12.279 1.502-17.53 4.286-6.767 9.268-14.61 13.821-21.718h-47.318v24.174l5.753 4.018.002.005c10.877 8.308 21.552 17.007 31.961 26.017-.976-3.122-2.085-6.206-3.343-9.237z" fill="#91deb6"/><g id="XMLID_574_"><g><path d="m404.244 74.535 5.01 26.45c-.29-1.55-.43-3.09-.43-4.61 0-11.57 8.22-21.88 20.01-24.12 13.34-2.52 26.21 6.25 28.73 19.59l16.64 87.92 19.8 104.6c3.49 18.45-.03 37.52-9.86 53.51l-10.73 17.42c-2.44 3.97-3.32 8.71-2.45 13.3l23.939 126.492c.899 4.75-2.745 9.145-7.579 9.141l-163.898-.119c-3.702-.003-6.88-2.637-7.568-6.275l-19.644-103.82c-1.18-6.23-4.89-11.69-10.24-15.09l-15.27-9.71c-9.97-6.34-16.86-16.52-19.06-28.12l-14.11-74.56-9.73-51.39c-.33-1.72-.48-3.43-.48-5.12 0-12.88 9.14-24.35 22.26-26.83 10.67-2.02 21.06 2.46 27.11 10.65l-18.42-97.31c-2.53-13.34 6.24-26.2 19.58-28.73 1.54-.29 3.08-.43 4.59-.43 11.59 0 21.91 8.22 24.14 20.02l-5.13-27.12c-2.53-13.34 6.24-26.21 19.59-28.73 1.55-.29 3.09-.43 4.61-.43 11.57 0 21.88 8.22 24.11 20.01l13.62 71.93-7.45-39.38c-2.53-13.34 6.24-26.2 19.58-28.73 1.55-.29 3.09-.43 4.61-.43 11.57.001 21.88 8.221 24.12 20.021z" fill="#ffdfcf"/></g></g><g id="XMLID_582_"><g><path d="m404.244 74.535s4.58 23.36 4.58 21.84c0-11.57 8.22-21.88 20.01-24.12 13.34-2.52 26.21 6.25 28.73 19.59l16.64 87.92 19.8 104.6c3.49 18.45-.03 37.52-9.86 53.51l-10.73 17.42c-2.44 3.97-3.32 8.71-2.45 13.3l23.939 126.492c.899 4.75-2.745 9.145-7.579 9.141l-163.898-.119c-3.702-.003-6.88-2.637-7.568-6.275l-19.644-103.82c-1.18-6.23-4.89-11.69-10.24-15.09l-15.27-9.71c-9.97-6.34-16.86-16.52-19.06-28.12l-14.11-74.56-9.73-51.39c-.33-1.72-.48-3.43-.48-5.12 0-12.88 9.14-24.35 22.26-26.83 10.67-2.02 21.06 2.46 27.11 10.65l-18.42-97.31c-2.53-13.34 6.24-26.2 19.58-28.73 1.54-.29 3.08-.43 4.59-.43 11.59 0 21.91 8.22 24.14 20.02l-5.13-27.12c-2.53-13.34 6.24-26.21 19.59-28.73 1.55-.29 3.09-.43 4.61-.43 11.57 0 21.88 8.22 24.11 20.01l6.17 32.55c-2.53-13.34 6.24-26.2 19.58-28.73 1.55-.29 3.09-.43 4.61-.43 11.57.001 21.88 8.221 24.12 20.021z" fill="#ffdfcf"/></g></g><g><path d="m323.855 374.583c-1.18-6.23-4.89-11.69-10.24-15.09l-15.27-9.71c-9.97-6.34-16.86-16.52-19.06-28.12l-14.11-74.56-9.73-51.39c-.33-1.72-.48-3.43-.48-5.12 0-2.697.429-5.338 1.183-7.842-2.15-.115-4.353.024-6.564.443-13.12 2.48-22.26 13.95-22.26 26.83 0 1.69.15 3.4.48 5.12l9.73 51.39 14.11 74.56c2.2 11.6 9.09 21.78 19.06 28.12l15.27 9.71c5.35 3.4 9.06 8.86 10.24 15.09l19.644 103.82c.688 3.638 3.866 6.272 7.568 6.275l25.823.019z" fill="#ffcebf"/></g><path d="m221.074 109.66c0-16.762-13.588-30.351-30.351-30.351-16.762 0-30.351 13.588-30.351 30.351 0 6.955 2.345 13.36 6.28 18.478-5.622 3.558-9.367 9.816-9.367 16.962 0 11.09 8.99 20.079 20.079 20.079s20.079-8.99 20.079-20.079c0-1.97-.296-3.868-.824-5.667 13.94-2.745 24.455-15.029 24.455-29.773z" fill="#f9f3f1"/><g id="XMLID_576_"><g><path d="m182.124 106.775c0 5.12-1.44 10.29-4.44 14.9-10.95 16.77-32.88 51.62-32.88 51.62l10.15 24.45c9.2 22.16 9.2 47.08-.01 69.24l-10.14 24.41c-13.91 16.841-38.679 19.595-55.948 6.22l-36.332-28.14c-.02-.1-.04-.21-.07-.31l-5.26-21.49c-2.81-11.47-.74-23.6 5.71-33.49l78.95-122.47c8.21-12.63 25.12-16.21 37.74-7.98 8.13 5.29 12.53 14.08 12.53 23.04z" fill="#ffdfcf"/></g></g><g fill="#f9f3f1"><path d="m450.892 281.087c0-15.186-12.311-27.496-27.496-27.496s-27.496 12.311-27.496 27.496c0 11.362 6.892 21.112 16.722 25.303v31.774c0 8.789 7.125 15.914 15.914 15.914s15.914-7.125 15.914-15.914v-39.397c4.017-4.781 6.442-10.946 6.442-17.68z"/><path d="m370.865 358.146c-1.268-.946-1.945-2.459-1.943-4.041 0-.009 0-.018 0-.027 0-15.886-13.753-28.56-30.002-26.765-12.582 1.39-22.623 11.665-23.755 24.273-1.273 14.173 8.44 26.33 21.589 28.919 1.486.293 2.739 1.305 3.382 2.677 3.477 7.429 11.283 12.426 20.177 11.723 9.918-.784 17.971-8.865 18.724-18.786.557-7.357-2.787-13.955-8.172-17.973z"/><path d="m135.81 362.645c-.89-9.932-8.921-17.993-18.849-18.918-7.166-.668-13.66 2.283-17.893 7.231-2.661 3.11-6.412 5.187-10.503 5.328-.806.028-1.623.102-2.448.226-9.44 1.418-16.841 9.281-17.686 18.79-.989 11.133 6.746 20.639 17.133 22.507-.002.118-.018.232-.018.35 0 11.942 9.996 21.55 22.077 20.913 10.844-.572 19.594-9.644 19.804-20.501.043-2.205-.258-4.332-.852-6.333-1.341-4.522-.311-9.444 3.056-12.747 4.287-4.207 6.771-10.238 6.179-16.846z"/></g></g><g fill="#ffcebf"><path d="m324.851 184.526.108-.021c13.429-2.664 22.183-15.673 19.585-29.115-6.339-32.802-17.527-90.923-23.601-123.823-13.293 2.566-22.012 15.402-19.489 28.708z"/><path d="m373.029 174.001c13.419-2.666 22.167-15.663 19.581-29.097-5.596-29.067-12.419-64.707-17.124-89.953-12.665 2.418-21.195 14.15-19.836 26.753z"/><path d="m440.984 134.438c-4.161-21.718-8.467-44.335-11.813-62.244-11.935 2.1-20.294 12.443-20.342 24.082l12.658 67.221.153-.032c13.289-2.778 21.898-15.693 19.344-29.027z"/><path d="m295.632 165.534c-4.794-26.255-12.594-68.979-17.831-97.718-13.309 2.555-22.052 15.396-19.526 28.718l18.42 97.31c12.925-2.772 21.311-15.305 18.937-28.31z"/></g></g><g><path d="m504.008 502.835-25.674-135.639c-.521-2.754.001-5.586 1.471-7.974l10.723-17.421c10.842-17.614 14.695-38.506 10.849-58.827l-22.677-119.808c-.771-4.07-4.698-6.742-8.764-5.975-4.07.771-6.745 4.694-5.975 8.764l22.677 119.808c3.149 16.642-.005 33.751-8.884 48.175l-10.723 17.421c-3.433 5.577-4.653 12.191-3.436 18.626l25.674 135.639c.681 3.599 3.827 6.106 7.36 6.106.463 0 .933-.043 1.403-.132 4.071-.769 6.746-4.693 5.976-8.763z"/><path d="m466.78 140.523c4.07-.771 6.745-4.694 5.975-8.764l-5.131-27.109c5.965-1.463 11.427-4.681 15.601-9.327 5.835-6.494 8.645-15.23 7.707-23.969-1.5-13.976-12.708-25.409-26.651-27.184-2.324-.296-4.673-.333-6.978-.109-1.097.101-2.209-.581-2.831-1.752-6.121-11.535-18.029-18.701-31.076-18.701-15.817 0-29.214 10.499-33.621 24.891-5.002-1.591-10.35-1.928-15.654-.924-6.168 1.167-11.585 4.044-15.868 8.039l-1.113-5.882c-1.594-8.421-6.372-15.718-13.453-20.545-7.083-4.829-15.621-6.608-24.04-5.015-8.421 1.594-15.718 6.372-20.545 13.453-4.828 7.082-6.608 15.619-5.015 24.04l.086.457c-4.595-1.817-9.651-2.593-14.824-2.089 1.604-11.901-3.557-24.24-14.271-31.22-14.822-9.656-34.74-5.455-44.398 9.367l-1.182 1.813c-7.294-7.663-14.33-15.433-21.063-23.292-8.593-10.032-20.61-15.938-33.835-16.631-13.338-.707-26.029 3.976-35.741 13.165-4.702 4.449-9.427 9.16-14.043 14.002-2.857 2.998-2.744 7.745.254 10.604 2.998 2.856 7.745 2.743 10.604-.254 4.438-4.656 8.979-9.183 13.494-13.455 6.701-6.339 15.472-9.56 24.647-9.082 9.084.476 17.334 4.528 23.229 11.411 19.024 22.207 40.321 43.738 63.34 64.049-.111 2.438.048 4.924.521 7.424l14.983 79.161c-5.516-1.888-11.574-2.425-17.7-1.267-18.874 3.573-31.324 21.836-27.752 40.711l3.14 16.591c-21.265-21.865-44.312-42.5-68.798-61.593 1.479-2.344 3.328-5.269 5.406-8.554 4.625 4.479 10.897 7.214 17.635 7.214 13.99 0 25.372-11.382 25.372-25.372 0-.947-.054-1.895-.161-2.835 13.028-4.9 22.06-17.426 22.06-31.99 0-18.853-15.337-34.189-34.189-34.189-5.186 0-10.192 1.173-14.771 3.385-.786-.611-1.595-1.199-2.439-1.749-7.785-5.072-17.081-6.807-26.17-4.883-9.091 1.923-16.886 7.272-21.966 15.087l-28.24 43.805c-7.674-4.754-12.933-12.249-14.811-21.114-1.908-9.014-.082-18.176 5.142-25.797 5.408-7.891 11.222-15.714 17.279-23.254 2.595-3.229 2.08-7.949-1.149-10.544-3.228-2.595-7.949-2.079-10.544 1.149-6.295 7.834-12.337 15.966-17.959 24.168-7.566 11.04-10.21 24.316-7.443 37.385 2.715 12.819 10.297 23.671 21.36 30.61l-23.905 37.08c-2.244 3.481-1.241 8.123 2.24 10.367 3.48 2.245 8.122 1.242 10.367-2.24l60.255-93.464c2.879-4.429 7.311-7.47 12.479-8.563s10.451-.107 14.877 2.776c4.5 2.932 7.587 7.414 8.692 12.621 1.102 5.188.11 10.495-2.791 14.94-10.854 16.632-32.725 51.372-32.944 51.721-1.297 2.061-1.513 4.622-.579 6.871l10.151 24.453c8.373 20.173 8.37 43.312-.007 63.482l-10.144 24.42c-1.59 3.825.224 8.214 4.049 9.803.94.392 1.915.576 2.874.576 2.94 0 5.731-1.74 6.929-4.625l4.937-11.885c8.376 8.277 19.825 13.136 31.848 13.136h2.682v77.879l-5.843 9.134-76.681 117.462c-2.265 3.468-1.288 8.115 2.181 10.38 1.265.826 2.687 1.221 4.093 1.221 2.448 0 4.849-1.198 6.287-3.401l69.963-107.171v6.011c0 12.918 10.509 23.427 23.427 23.427s23.427-10.509 23.427-23.427v-31.684c6.034-2.72 11.684-6.134 16.891-10.207 3.323 4.024 7.272 7.547 11.739 10.388l15.274 9.713c3.587 2.28 6.097 5.982 6.887 10.158l20.837 110.087c.681 3.599 3.828 6.106 7.36 6.106.463 0 .933-.043 1.403-.132 4.07-.771 6.745-4.694 5.975-8.764l-20.84-110.086c-1.558-8.232-6.506-15.532-13.576-20.027l-15.274-9.713c-8.185-5.204-13.913-13.654-15.717-23.185l-23.839-125.947c-2.034-10.749 5.056-21.148 15.804-23.184 10.75-2.03 21.148 5.056 23.183 15.804l12.732 67.266c.771 4.07 4.7 6.741 8.764 5.975 4.07-.771 6.745-4.694 5.975-8.764l-12.732-67.266c-.88-4.652-2.657-8.912-5.112-12.64l-18.144-95.797c-.688-3.633-.176-7.299 1.401-10.568l2.449-3.759c2.514-2.927 5.913-4.911 9.76-5.639 4.486-.848 9.03.1 12.802 2.67 3.771 2.571 6.315 6.456 7.164 10.94l22.677 119.805c.681 3.599 3.828 6.106 7.36 6.106.463 0 .933-.043 1.403-.132 4.07-.771 6.745-4.694 5.975-8.764l-27.81-146.927c-1.752-9.257 4.354-18.214 13.61-19.966 4.488-.85 9.031.101 12.802 2.67 3.771 2.571 6.315 6.456 7.164 10.94l27.81 146.927c.681 3.599 3.828 6.106 7.36 6.106.463 0 .933-.043 1.403-.132 4.07-.771 6.745-4.694 5.975-8.764l-21.65-114.377c-.849-4.484.1-9.031 2.67-12.802 2.571-3.771 6.456-6.315 10.94-7.164 9.265-1.753 18.214 4.354 19.966 13.61l21.649 114.38c.681 3.599 3.828 6.106 7.36 6.106.463 0 .933-.043 1.403-.132 4.07-.771 6.745-4.694 5.975-8.764l-16.642-87.924c-1.751-9.256 4.354-18.212 13.611-19.964 4.487-.85 9.031.1 12.802 2.67 3.771 2.571 6.315 6.456 7.164 10.94l7.819 41.311c.771 4.072 4.703 6.744 8.764 5.976zm-282.818-14.748c5.099-7.812 6.84-17.136 4.903-26.256-.602-2.836-1.54-5.549-2.78-8.094 1.556-.406 3.169-.616 4.814-.616 10.581 0 19.189 8.608 19.189 19.189 0 9.878-7.396 18.084-17.202 19.088-2.476.254-4.665 1.719-5.843 3.911-1.178 2.191-1.192 4.825-.037 7.03.785 1.499 1.184 3.112 1.184 4.796 0 5.719-4.653 10.372-10.372 10.372-3.893 0-7.411-2.225-9.172-5.555 5.503-8.652 11.208-17.571 15.316-23.865zm30.662 289.694c-4.646 0-8.427-3.78-8.427-8.427v-115.131c0-6.276-5.106-11.383-11.383-11.383h-6.299c-10.247 0-19.861-5.283-25.396-13.847 8.315-22.231 8.232-47.173-.257-69.347 21.42 17.871 41.571 36.953 60.188 57.012v152.696c.001 4.647-3.78 8.427-8.426 8.427zm32.533-63.292c-2.866 2.371-5.91 4.481-9.106 6.339v-48.911l6.224 32.881c.631 3.339 1.605 6.583 2.882 9.691zm9.733-310.795c7.895 5.144 10.132 15.75 4.989 23.643l-4.589 7.043c-.695.879-1.345 1.793-1.945 2.74-8.641-7.778-17.021-15.725-25.107-23.817l3.011-4.621c5.142-7.893 15.75-10.131 23.641-4.988zm170.552 23.507c-6.17 1.168-11.589 4.046-15.873 8.043-1.193-6.091-4.057-11.583-8.253-15.969.922-10.273 9.57-18.355 20.079-18.355 7.482 0 14.313 4.112 17.826 10.732 3.48 6.56 10.362 10.343 17.531 9.65 1.193-.116 2.415-.095 3.633.059 7.132.908 12.864 6.757 13.632 13.905.491 4.578-.912 8.962-3.951 12.344-1.965 2.187-4.49 3.748-7.255 4.574-3.55-17.057-20.179-28.237-37.369-24.983z"/><path d="m60.556 216.154c2.244-3.481 1.242-8.123-2.239-10.368-3.481-2.243-8.121-1.241-10.368 2.239l-1.331 2.065c-7.548 11.585-9.993 25.933-6.708 39.365l5.258 21.493c.401 1.642.103 3.396-.82 4.813l-35.54 54.545c-2.261 3.471-1.28 8.117 2.189 10.379 1.265.823 2.684 1.217 4.088 1.217 2.45 0 4.853-1.2 6.291-3.406l35.539-54.547c3.176-4.875 4.205-10.913 2.822-16.564l-5.258-21.492c-2.304-9.423-.589-19.487 4.726-27.644z"/><path d="m423.395 246.09c-19.297 0-34.996 15.699-34.996 34.996 0 12.32 6.424 23.558 16.722 29.854v27.223c0 12.91 10.504 23.414 23.414 23.414s23.414-10.504 23.414-23.414v-36.849c4.172-5.889 6.442-12.969 6.442-20.229.001-19.295-15.699-34.995-34.996-34.995zm15.313 47.85c-1.136 1.352-1.759 3.061-1.759 4.826v39.397c0 4.64-3.774 8.414-8.414 8.414s-8.414-3.774-8.414-8.414v-31.773c0-3.005-1.794-5.721-4.559-6.899-7.389-3.15-12.163-10.374-12.163-18.404 0-11.026 8.971-19.996 19.996-19.996s19.996 8.97 19.996 19.996c.001 4.696-1.663 9.26-4.683 12.853z"/><path d="m376.403 352.96c-.305-9.371-4.439-18.263-11.449-24.541-7.283-6.521-17.074-9.64-26.857-8.563-16.16 1.785-28.946 14.846-30.402 31.057-1.544 17.186 9.665 32.696 26.246 36.652 4.867 9.253 14.269 14.905 24.677 14.905.757 0 1.52-.03 2.285-.091 13.57-1.073 24.581-12.119 25.611-25.695.696-9.164-3.067-17.934-10.111-23.724zm-4.846 22.59c-.477 6.275-5.564 11.381-11.836 11.877-5.466.438-10.479-2.482-12.794-7.427-1.659-3.543-4.92-6.105-8.725-6.855-9.772-1.925-16.465-10.904-15.568-20.89.82-9.129 8.016-16.484 17.109-17.488.758-.084 1.51-.125 2.257-.125 4.806 0 9.337 1.719 12.946 4.951 4.115 3.686 6.476 8.965 6.476 14.503-.005 3.98 1.849 7.741 4.959 10.062 3.58 2.672 5.514 6.93 5.176 11.392zm3.794-23.415c.001.001.003.002.006.004-.003-.001-.004-.003-.006-.004z"/><path d="m134.927 398.716c.057-2.929-.334-5.827-1.16-8.611-.59-1.99-.162-4.006 1.118-5.262 6.102-5.986 9.161-14.322 8.395-22.868-1.222-13.631-11.998-24.446-25.623-25.717-9.211-.852-18.291 2.814-24.287 9.822-1.421 1.66-3.266 2.647-5.059 2.709-1.1.038-2.213.141-3.309.305-12.786 1.922-22.897 12.665-24.042 25.544-1.135 12.788 6.187 24.335 17.61 28.926 1.127 5.774 4.033 11.141 8.347 15.232 5.341 5.065 12.23 7.806 19.546 7.805.517 0 1.035-.014 1.556-.041 14.801-.779 26.621-13.011 26.908-27.844zm-37.687 9.198c-2.662-2.525-4.146-5.922-4.192-9.58.008-.133.014-.267.016-.401.061-3.677-2.553-6.855-6.172-7.506-6.888-1.238-11.612-7.455-10.99-14.461.539-6.069 5.305-11.132 11.332-12.037.527-.08 1.061-.129 1.589-.147 5.985-.205 11.797-3.102 15.944-7.947 2.875-3.36 7.064-5.057 11.498-4.64 6.317.589 11.508 5.8 12.075 12.121.363 4.052-1.08 7.995-3.961 10.821-5.252 5.153-7.166 12.906-4.993 20.234.388 1.305.57 2.669.543 4.055-.133 6.892-5.83 12.794-12.7 13.156-3.743.19-7.288-1.107-9.989-3.668z"/></g></g></svg>