<svg id="Capa_1" enable-background="new 0 0 512.688 512.688" height="512" viewBox="0 0 512.688 512.688" width="512" xmlns="http://www.w3.org/2000/svg"><g><g><g><g><g id="XMLID_587_"><g><path d="m198.444 139.069c0-5.78 2.34-11.02 6.14-14.81 3.79-3.79 9.02-6.14 14.81-6.14 2.87 0 5.59.58 8.08 1.62l12.87 11.82v219.75 20.09c0 18.58-6.12 36.64-17.41 51.4l-12.48 16.32v55.073c0 5.875-4.762 10.637-10.637 10.637h-157.296c-5.875 0-10.637-4.762-10.637-10.637v-62.053-104.27l31.97-51.72v-36.98l7.62-116.641c.72-11.014 9.863-19.579 20.9-19.579h1.32c11.57 0 20.95 9.38 20.95 20.95v-19.33c0-5.78 2.34-11.02 6.14-14.81 3.851-3.851 9.189-6.215 15.091-6.138 11.539.151 20.669 9.883 20.669 21.422v21.556c0-5.79 2.34-11.02 6.14-14.81 3.838-3.848 9.154-6.199 15.032-6.139 11.572.119 20.728 9.907 20.728 21.479z" fill="#ffdfcf"/></g></g></g><path d="m63.884 425.437v-104.27l31.97-51.72v-36.98l7.62-116.641c.208-3.191 1.159-6.181 2.623-8.812-3.472-2.554-7.763-4.065-12.403-4.065h-1.32c-11.037 0-20.18 8.565-20.9 19.579l-7.62 116.641v36.98l-31.97 51.72v104.27 62.053c0 5.875 4.762 10.637 10.637 10.637h21.399z" fill="#ffcebf"/><g id="XMLID_585_"><g><path d="m102.763 417.613c14.467 0 26.431-11.617 26.46-26.084 0-.094 0-.188 0-.283-.061-23.012-11.027-45.054-29.357-58.977-2.643-2.008-4.163-5.162-4.163-8.481v-8.397l22.718-33.63c4.999-7.394 7.642-16.012 7.642-24.922 0-13.778-6.223-26.558-17.064-35.056-7.8-6.119-17.552-9.489-27.461-9.489-5.568 0-11.032 1.054-16.127 3.034l-1.557 23.841v36.98l-31.97 51.72v89.743h70.879z" fill="#ffcebf"/><path d="m109.221 391.44c0 22.478-18.222 40.7-40.7 40.7h-36.64v-.61c0-1.17-.39-2.31-1.1-3.23l-11.35-14.76c-7.74-10.06-11.93-22.39-11.93-35.08v-56.5c0-12.88 4.78-25.29 13.43-34.82l42.42-46.79c8.64-9.53 23.18-10.77 33.3-2.83 6.15 4.82 9.41 12.02 9.41 19.32 0 4.74-1.37 9.52-4.21 13.72l-26.15 38.71v26.63c0 1.96.91 3.8 2.47 4.99l9.64 7.34c13.49 10.27 21.41 26.25 21.41 43.21z" fill="#ffdfcf"/><path d="m62.799 428.299-11.35-14.76c-7.74-10.06-11.93-22.39-11.93-35.08v-56.5c0-12.88 4.78-25.29 13.43-34.82l42.42-46.79c.685-.756 1.427-1.439 2.182-2.089-.291-.25-.592-.502-.897-.741-10.12-7.94-24.66-6.7-33.3 2.83l-42.42 46.79c-8.65 9.53-13.43 21.94-13.43 34.82v56.5c0 12.69 4.19 25.02 11.93 35.08l11.35 14.76c.71.92 1.1 2.06 1.1 3.23v.61h32.003l.012-.61c0-1.17-.39-2.31-1.1-3.23z" fill="#ffcebf"/></g></g><g id="XMLID_591_"><g><path d="m399.393 123.899c0-11.57 9.38-20.95 20.95-20.95h1.32c11.037 0 20.18 8.565 20.9 19.579l7.62 116.641 27.59 133.74 4.38 58.62v58.74c0 8.041-6.519 14.56-14.56 14.56h-149.45c-8.041 0-14.56-6.519-14.56-14.56v-51.15l-12.48-16.32c-11.29-14.76-17.41-32.82-17.41-51.4v-20.09-225.7l11.87-5.4c2.75-1.32 5.82-2.09 9.08-2.09 11.57 0 20.95 9.38 20.95 20.95v-11.94c0-11.572 9.157-21.36 20.728-21.479 5.878-.061 11.193 2.29 15.032 6.139 3.8 3.79 6.14 9.02 6.14 14.81v-21.556c0-11.54 9.131-21.271 20.669-21.422 5.902-.077 11.24 2.287 15.091 6.138 3.8 3.79 6.14 9.03 6.14 14.81z" fill="#ffdfcf"/></g></g><g id="XMLID_589_"><g><path d="m412.759 332.316c-18.344 13.966-29.295 36.067-29.295 59.123 0 .094 0 .188.001.283.072 14.376 11.987 25.891 26.363 25.891h71.285l-3.34-44.703-27.59-133.74-1.52-23.269c-5.483-2.345-11.435-3.606-17.513-3.606-9.909 0-19.661 3.37-27.452 9.483-10.851 8.504-17.073 21.283-17.073 35.062 0 8.91 2.643 17.528 7.637 24.915l22.723 33.637v13.708z" fill="#ffcebf"/><path d="m505.184 321.959v56.5c0 12.69-4.19 25.02-11.93 35.08l-11.35 14.76c-.01.01-.02.02-.02.03l-42.513-.531c-19.903-.249-35.907-16.454-35.907-36.359 0-16.96 7.92-32.94 21.41-43.21l9.64-7.34c1.56-1.19 2.47-3.03 2.47-4.99v-26.63l-26.15-38.71c-2.84-4.2-4.21-8.98-4.21-13.72 0-7.3 3.26-14.5 9.41-19.32 10.12-7.94 24.66-6.7 33.3 2.83l42.42 46.79c8.65 9.53 13.43 21.94 13.43 34.82z" fill="#ffdfcf"/></g></g><g><path d="m333.274 490.269v-46.145c0-3.246-1.068-6.402-3.04-8.981l-9.44-12.344c-11.29-14.76-17.41-32.82-17.41-51.4v-20.09-223.493c0-1.464.211-2.92.628-4.323l.813-2.738c-3.014-1.679-6.487-2.636-10.181-2.636-3.26 0-6.33.77-9.08 2.09l-11.87 5.4v225.7 20.09c0 18.58 6.12 36.64 17.41 51.4l12.48 16.32v51.15c0 8.041 6.519 14.56 14.56 14.56h29.691c-8.043 0-14.561-6.518-14.561-14.56z" fill="#ffcebf"/></g><path d="m284.214 311.696v-261.257h-56.74v261.257c0 3.102 2.515 5.617 5.617 5.617h45.507c3.101 0 5.616-2.515 5.616-5.617z" fill="#c8effe"/><path d="m281.837 73.439h-51.986c-7.489 0-13.559-6.071-13.559-13.559v-32.263h79.104v32.263c0 7.488-6.071 13.559-13.559 13.559z" fill="#f3eae6"/><path d="m329.817 12.327v8.911c0 11.807-9.572 21.379-21.379 21.379h-105.189c-11.807 0-21.379-9.572-21.379-21.379v-8.911c0-2.466 1.999-4.465 4.465-4.465h139.016c2.467-.001 4.466 1.999 4.466 4.465z" fill="#f9f3f1"/><g fill="#c8effe"><path d="m353.642 385.301c-8.064 6.641-19.985 5.486-26.625-2.578-4.907-5.959-5.016-22.341-4.739-30.487.087-2.566 2.396-4.467 4.931-4.06 8.048 1.291 24.104 4.541 29.011 10.5 6.64 8.064 5.486 19.985-2.578 26.625z"/><path d="m372.174 312.756c-2.617 7.46-10.786 11.386-18.246 8.769-5.096-1.788-11.029-10.947-14.277-16.573-1.376-2.383-.311-5.419 2.252-6.42 6.051-2.363 16.406-5.809 21.502-4.021 7.46 2.617 11.386 10.786 8.769 18.245z"/><path d="m158.046 385.301c8.064 6.641 19.985 5.486 26.625-2.578 4.907-5.959 5.016-22.341 4.739-30.487-.087-2.566-2.396-4.467-4.931-4.06-8.048 1.291-24.104 4.541-29.011 10.5-6.641 8.064-5.487 19.985 2.578 26.625z"/><path d="m139.513 312.756c2.617 7.46 10.786 11.386 18.246 8.769 5.096-1.788 11.029-10.947 14.277-16.573 1.376-2.383.311-5.419-2.252-6.42-6.051-2.363-16.406-5.809-21.502-4.021-7.46 2.617-11.386 10.786-8.769 18.245z"/></g></g><g fill="#ffcebf"><path d="m424.993 184.963.212-81.715c-1.146-.195-2.342-.299-3.542-.299h-1.32c-11.434 0-20.712 9.165-20.93 20.547l-.445 93.57c14.369-.116 25.981-14.439 26.025-32.103z"/><path d="m341.218 202.698.215-96.476c-1.636-.391-3.35-.59-5.112-.572-11.374.117-20.395 9.581-20.699 20.894l-.029 5.607-.399 102.649c14.369-.115 25.98-14.438 26.024-32.102z"/><path d="m182.122 202.55.214-96.322c-1.484-.363-3.026-.561-4.62-.577-5.866-.06-11.151 2.301-15.006 6.116-3.533 3.496-5.786 8.225-6.096 13.451-.027.459-.07.916-.07 1.382l-.447 108.052c14.369-.116 25.981-14.439 26.025-32.102z"/><path d="m224.131 202.632.189-83.927c-1.577-.381-3.227-.586-4.926-.586-5.79 0-11.02 2.35-14.81 6.14-3.591 3.582-5.852 8.465-6.093 13.869l-.385 96.606c14.369-.115 25.981-14.438 26.025-32.102z"/><path d="m383.141 202.912.214-110.59 1.005-7.859c-1.958-.576-4.045-.87-6.198-.842-11.539.151-20.669 9.883-20.669 21.423v14.62l-.376 115.351c14.369-.117 25.98-14.439 26.024-32.103z"/><path d="m140.345 184.952.214-92.59 1.005-7.859c-1.958-.576-4.045-.87-6.198-.842-11.539.151-20.669 9.883-20.669 21.423l-.376 111.97c14.369-.116 25.98-14.439 26.024-32.102z"/></g></g><g><path d="m240.344 343.813c-4.143 0-7.5 3.357-7.5 7.5v20.083c0 16.838-5.634 33.476-15.864 46.849l-12.484 16.319c-1.001 1.308-1.543 2.909-1.543 4.557v65.707c0 4.143 3.357 7.5 7.5 7.5s7.5-3.357 7.5-7.5v-63.167l10.941-14.303c12.22-15.975 18.95-35.849 18.95-55.962v-20.083c0-4.143-3.358-7.5-7.5-7.5z"/><path d="m31.883 472.677c-4.143 0-7.5 3.357-7.5 7.5v24.65c0 4.143 3.357 7.5 7.5 7.5s7.5-3.357 7.5-7.5v-24.65c0-4.142-3.358-7.5-7.5-7.5z"/><path d="m92.357 342.261-9.157-6.971v-23.725l24.868-36.813c9.368-13.868 6.387-32.816-6.786-43.139-8.457-6.627-19.367-8.315-29.066-5.392l3.539-54.198c.27-4.133-2.862-7.702-6.996-7.973-4.102-.253-7.702 2.862-7.973 6.996l-4.29 65.7-41.12 45.352c-9.915 10.939-15.376 25.092-15.376 39.857v56.504c0 14.265 4.789 28.346 13.486 39.65l10.896 14.167v15.938c0 4.143 3.357 7.5 7.5 7.5s7.5-3.357 7.5-7.5v-16.688c0-2.806-.942-5.576-2.652-7.801l-11.355-14.763c-6.69-8.696-10.375-19.529-10.375-30.504v-56.504c0-11.032 4.08-21.607 11.49-29.779l42.422-46.788c5.967-6.585 16.124-7.447 23.118-1.967 7.004 5.488 8.589 15.563 3.608 22.936l-26.153 38.715c-.838 1.24-1.285 2.702-1.285 4.198v26.628c0 4.275 2.031 8.374 5.432 10.961l9.64 7.339c11.555 8.795 18.453 22.716 18.453 37.238v23.048c0 4.143 3.357 7.5 7.5 7.5s7.5-3.357 7.5-7.5v-23.048c0-19.177-9.11-37.56-24.368-49.174z"/><path d="m295.708 418.245c-10.23-13.373-15.864-30.011-15.864-46.849v-20.083c0-4.143-3.357-7.5-7.5-7.5s-7.5 3.357-7.5 7.5v20.083c0 20.113 6.73 39.987 18.95 55.962l10.941 14.303v63.167c0 4.143 3.357 7.5 7.5 7.5s7.5-3.357 7.5-7.5v-65.707c0-1.647-.542-3.249-1.543-4.557z"/><path d="m405.54 220.615v-96.72c0-7.416 6.034-13.45 13.45-13.45h1.322c7.065 0 12.961 5.523 13.421 12.573l1.14 17.452c.271 4.135 3.865 7.255 7.973 6.996 4.134-.271 7.266-3.84 6.996-7.973l-1.14-17.453c-.975-14.913-13.444-26.596-28.39-26.596h-1.322c-5.078 0-9.846 1.344-13.977 3.685-2.545-13.094-14.095-23.013-27.922-23.013-14.692 0-26.818 11.196-28.297 25.503-4.043-2.21-8.678-3.469-13.602-3.469-11.71 0-21.788 7.114-26.147 17.245-4.513-3.013-9.931-4.774-15.753-4.774-.529 0-1.055.015-1.579.044v-32.198c6.645-3.546 11.182-10.544 11.182-18.588v-9.763h5.543c15.924 0 28.879-12.955 28.879-28.879v-13.376c0-4.143-3.357-7.5-7.5-7.5s-7.5 3.357-7.5 7.5v13.377c0 7.653-6.226 13.879-13.879 13.879h-13.043-79.104-13.043c-7.653 0-13.879-6.226-13.879-13.879v-13.377c0-4.143-3.357-7.5-7.5-7.5s-7.5 3.357-7.5 7.5v13.377c0 15.924 12.955 28.879 28.879 28.879h5.543v9.763c0 8.043 4.537 15.042 11.182 18.588v32.169c-.193-.004-.385-.014-.579-.014-5.822 0-11.239 1.761-15.752 4.774-4.359-10.131-14.437-17.245-26.147-17.245-4.924 0-9.558 1.259-13.602 3.469-1.479-14.307-13.605-25.503-28.297-25.503-13.827 0-25.377 9.918-27.922 23.013-4.132-2.341-8.899-3.685-13.977-3.685h-1.322c-14.945 0-27.415 11.683-28.39 26.597l-1.112 17.044c-.27 4.133 2.862 7.702 6.996 7.973 4.116.259 7.703-2.862 7.973-6.996l1.112-17.043c.46-7.051 6.355-12.574 13.421-12.574h1.322c7.416 0 13.45 6.034 13.45 13.45v96.72c0 4.143 3.357 7.5 7.5 7.5s7.5-3.357 7.5-7.5v-116.051c0-7.416 6.033-13.449 13.449-13.449s13.449 6.033 13.449 13.449v132.511c0 4.143 3.357 7.5 7.5 7.5s7.5-3.357 7.5-7.5v-110.477c0-7.416 6.033-13.449 13.449-13.449s13.45 6.033 13.45 13.449v110.477c0 4.143 3.357 7.5 7.5 7.5s7.5-3.357 7.5-7.5v-98.006c0-7.416 6.033-13.449 13.449-13.449.195 0 .386.02.579.028v191.663c0 4.143 3.357 7.5 7.5 7.5s7.5-3.357 7.5-7.5v-236.374h41.74v236.374c0 4.143 3.357 7.5 7.5 7.5s7.5-3.357 7.5-7.5v-191.593c.522-.063 1.048-.099 1.579-.099 7.416 0 13.449 6.033 13.449 13.449v98.006c0 4.143 3.357 7.5 7.5 7.5s7.5-3.357 7.5-7.5v-110.476c0-7.416 6.034-13.449 13.45-13.449s13.449 6.033 13.449 13.449v110.477c0 4.143 3.357 7.5 7.5 7.5s7.5-3.357 7.5-7.5v-132.511c0-7.416 6.033-13.449 13.449-13.449s13.449 6.033 13.449 13.449v116.049c0 4.143 3.357 7.5 7.5 7.5s7.503-3.358 7.503-7.5zm-175.689-154.676c-3.341 0-6.059-2.719-6.059-6.06v-9.763h64.104v9.763c0 3.341-2.718 6.06-6.059 6.06z"/><path d="m497.311 282.099-41.119-45.351-4.267-65.36c-.271-4.135-3.857-7.254-7.973-6.996-4.134.271-7.266 3.84-6.996 7.973l3.516 53.857c-9.698-2.923-20.609-1.235-29.066 5.392-13.173 10.323-16.153 29.272-6.785 43.14l24.867 36.812v23.725l-9.157 6.972c-15.258 11.614-24.367 29.997-24.367 49.174v23.048c0 4.143 3.357 7.5 7.5 7.5s7.5-3.357 7.5-7.5v-23.048c0-14.522 6.898-28.443 18.453-37.238l9.638-7.338c3.402-2.588 5.434-6.687 5.434-10.962v-26.628c0-1.496-.447-2.958-1.285-4.198l-26.152-38.714c-4.98-7.373-3.396-17.448 3.607-22.937 6.994-5.48 17.149-4.619 23.117 1.966l42.423 46.789c7.41 8.172 11.491 18.748 11.491 29.779v56.504c0 10.973-3.686 21.807-10.376 30.506l-11.354 14.759c-1.712 2.225-2.655 4.996-2.655 7.804v73.301c0 4.143 3.357 7.5 7.5 7.5s7.5-3.357 7.5-7.5v-72.55l10.897-14.169c8.697-11.307 13.487-25.388 13.487-39.65v-56.504c-.001-14.766-5.462-28.92-15.378-39.858z"/><path d="m255.844 165.959c-4.143 0-7.5 3.357-7.5 7.5v12.768c0 4.143 3.357 7.5 7.5 7.5s7.5-3.357 7.5-7.5v-12.768c0-4.142-3.358-7.5-7.5-7.5z"/><path d="m255.844 215.557c-4.143 0-7.5 3.357-7.5 7.5v60.893c0 4.143 3.357 7.5 7.5 7.5s7.5-3.357 7.5-7.5v-60.893c0-4.142-3.358-7.5-7.5-7.5z"/><path d="m328.395 340.77c-3.329-.536-6.734.388-9.337 2.53-2.602 2.143-4.16 5.306-4.276 8.681-.601 17.64 1.568 29.587 6.445 35.51 4.485 5.446 10.823 8.821 17.846 9.501.868.084 1.733.126 2.594.126 6.104 0 11.97-2.096 16.743-6.026 5.446-4.485 8.821-10.823 9.501-17.847.68-7.022-1.416-13.89-5.9-19.337-4.878-5.922-16.188-10.343-33.616-13.138zm24.584 31.029c-.293 3.035-1.752 5.774-4.105 7.712-2.354 1.939-5.322 2.843-8.356 2.551-3.034-.294-5.773-1.753-7.711-4.106-1.194-1.45-3.242-7.803-3.115-21.74 13.703 2.55 19.545 5.778 20.738 7.228 1.938 2.352 2.843 5.32 2.549 8.355z"/><path d="m365.889 287.434c-2.109-.739-8.525-2.993-26.714 4.112-3.261 1.274-5.795 3.896-6.952 7.196-1.157 3.299-.816 6.93.934 9.961 9.766 16.909 16.182 19.159 18.29 19.898 2.363.829 4.805 1.241 7.237 1.241 3.227 0 6.438-.725 9.433-2.164 5.252-2.523 9.207-6.941 11.136-12.44s1.601-11.419-.924-16.67-6.943-9.206-12.44-11.134zm-.791 22.84c-1.245 3.547-5.142 5.417-8.657 4.185-.86-.364-3.894-2.903-8.451-10.187 8.108-2.841 12.061-2.925 12.934-2.684 1.718.603 3.098 1.838 3.886 3.478.788 1.641.89 3.49.288 5.208z"/><path d="m192.63 343.3c-2.602-2.142-6.005-3.065-9.338-2.53-17.428 2.795-28.737 7.216-33.614 13.138-4.484 5.447-6.58 12.314-5.9 19.337s4.055 13.361 9.501 17.847c4.774 3.931 10.639 6.026 16.743 6.026.86 0 1.727-.042 2.594-.126 7.022-.68 13.36-4.055 17.846-9.501 4.877-5.923 7.046-17.87 6.445-35.512-.117-3.373-1.676-6.536-4.277-8.679zm-13.749 34.656c-1.938 2.354-4.677 3.813-7.711 4.106-3.038.293-6.003-.611-8.356-2.551-2.354-1.938-3.813-4.677-4.105-7.712-.294-3.035.611-6.003 2.55-8.356 1.193-1.449 7.036-4.678 20.738-7.228.126 13.937-1.922 20.29-3.116 21.741z"/><path d="m160.241 328.602c2.108-.739 8.524-2.989 18.29-19.898 1.75-3.031 2.091-6.662.934-9.961-1.157-3.3-3.691-5.922-6.951-7.195-18.185-7.104-24.604-4.854-26.714-4.113-5.498 1.928-9.916 5.883-12.44 11.135-2.524 5.251-2.853 11.171-.924 16.67s5.884 9.917 11.136 12.44c2.994 1.439 6.205 2.164 9.433 2.164 2.432-.001 4.873-.413 7.236-1.242zm-13.651-18.328c-.603-1.718-.5-3.567.289-5.208.788-1.64 2.168-2.875 3.856-3.468.9-.252 4.854-.167 12.963 2.674-4.557 7.284-7.588 9.821-8.422 10.176-3.547 1.242-7.442-.628-8.686-4.174z"/></g></g></svg>