<svg id="Capa_1" enable-background="new 0 0 504.917 504.917" height="512" viewBox="0 0 504.917 504.917" width="512" xmlns="http://www.w3.org/2000/svg"><g><g><g><path d="m209.128 170.728c.71-4.87 3.01-9.21 6.37-12.47 4.042-3.939 9.614-6.315 15.731-6.163 11.892.294 21.229 10.361 21.229 22.257v95.916 65.78 24.94c0 14.52-4.91 28.63-13.94 40.01l-26.28 33.16v47.226c0 5.641-4.573 10.214-10.214 10.214h-114.776c-6.101 0-10.842-5.314-10.147-11.376l7.337-64.064 1.79-26.14-47.19-51.68 15.18-73.35 32.45-129.56c3.03-8.63 11.16-14.35 20.22-14.35.42 0 .85.01 1.28.04 12.85.77 22.13 12.61 19.81 25.27l6.13-32.84c2.31-11.79 13.79-19.43 25.56-17.01 10.14 2.09 17.22 11.03 17.22 21.12 0 .95-.06 1.91-.19 2.88l-2.39 23.59.18.02c.65-1.34 1.46-2.59 2.4-3.72 3.7-4.45 9.42-7.08 15.59-6.61 9.62.74 17.03 8.76 17.03 18.37 0 .17 0 .35-.01.53l-.37 18.01c-.12.83-.2 1.67-.22 2.53z" fill="#ffdfcf"/></g><g><path d="m104.26 482.588 7.337-64.064 1.79-26.14-47.19-51.68 15.18-73.35 32.45-129.56c1.547-4.407 4.439-8.05 8.091-10.565-3.547-3.492-8.333-5.787-13.75-6.112-.43-.03-.86-.04-1.28-.04-9.06 0-17.19 5.72-20.22 14.35l-32.45 129.56-15.18 73.35 47.19 51.68-1.79 26.14-7.337 64.064c-.694 6.062 4.046 11.375 10.147 11.375h20.641c-2.543-2.116-4.039-5.426-3.629-9.008z" fill="#ffcebf"/></g><path d="m162.184 108.117c.907-3.286 2.574-6.216 4.749-8.631-2.162-1.383-4.61-2.402-7.264-2.949-11.77-2.42-23.25 5.22-25.56 17.01l-5.961 31.936-18.354 125.309c15.621.473 29.218-10.599 31.919-25.992z" fill="#ffcebf"/><g><g id="XMLID_664_"><g><path d="m376.938 146.388c-2.32-12.66 6.96-24.5 19.81-25.27.43-.03.86-.04 1.28-.04 9.06 0 17.19 5.72 20.22 14.35l32.45 129.56 11.76 60.82-42.94 66.03.96 24.32 7.74 67.586c.479 4.185-2.794 7.854-7.006 7.854h-121.482c-3.895 0-7.052-3.157-7.052-7.052v-50.388l-26.28-33.16c-9.03-11.38-13.94-25.49-13.94-40.01v-187.12c0-6.02 2.44-11.46 6.38-15.4s9.38-6.38 15.4-6.38c10.93 0 20.02 8.07 21.55 18.64 0 0 .12.83 0 0l-.37-18.01c-.01-.18-.01-.36-.01-.53 0-9.61 7.41-17.63 17.03-18.37 7.38-.56 14.12 3.31 17.52 9.43l.55-.06-2.29-22.65c-.13-.97-.19-1.93-.19-2.88 0-10.09 7.08-19.03 17.22-21.12 11.77-2.42 23.25 5.22 25.56 17.01z" fill="#ffdfcf"/></g></g></g><g fill="#ffcebf"><path d="m321.676 485.359v-43.337c0-4.566-1.543-8.998-4.379-12.577l-21.901-27.634c-9.03-11.38-13.94-25.49-13.94-40.01v-187.12c0-6.02 2.44-11.46 6.38-15.4.429-.429.884-.86 1.347-1.252-3.905-3.691-9.163-5.941-14.945-5.941-6.02 0-11.46 2.44-15.4 6.38s-6.38 9.38-6.38 15.4v187.12c0 14.52 4.91 28.63 13.94 40.01l26.28 33.16v50.388c0 3.895 3.157 7.052 7.052 7.052h25.715c-2.24-1.182-3.769-3.53-3.769-6.239z"/><path d="m320.074 148.45c-.107-4.528.934-8.766 2.804-12.319-3.076-1.734-6.671-2.6-10.44-2.314-9.62.74-17.03 8.76-17.03 18.37 0 .17 2.278 137.743 2.278 137.743 13.68-.323 24.509-11.675 24.185-25.355z"/></g><g><path d="m419.667 395.597-.148-3.759 42.94-66.03-11.76-60.82-4.439-17.722c-10.39 5.004-19.496 12.631-26.289 22.351l-27.562 39.467-5.076.767c-22.938 3.45-42.128 19.139-50.079 40.93-.041.149-.081.299-.12.448-5.929 22.441 11.227 44.369 34.438 44.369h48.095z" fill="#ffcebf"/><path d="m426.168 405.768c-3.88 1.53-6.25 5.47-5.78 9.61l.001.78-15.021-.087c-21.214-.122-39.313-13.011-47.153-31.277-4.854-11.31-2.853-24.44 4.978-33.935 7.405-8.978 18.066-19.871 27.115-21.232l13.58-2.05 32.48-46.51c9.12-13.05 23.93-20.55 39.42-20.55 3.51 0 7.06.38 10.58 1.18 7.93 1.79 12.74 9.88 10.51 17.7l-23.05 81.1c-5.35 18.82-19.17 34.06-37.37 41.22z" fill="#ffdfcf"/></g><g><path d="m126.201 391.127c26.941 0 44.377-29.2 30.839-52.493-.81-1.395-1.67-2.635-2.58-3.685-13.12-15.13-25.183-23.341-36.868-25.099l-5.086-.768-27.565-39.472c-6.79-9.717-15.895-17.343-26.285-22.347l-4.439 17.723-15.18 73.35 47.19 51.68-.076 1.109h40.05z" fill="#ffcebf"/><path d="m149.857 379.002c-1.281 20.878-18.587 37.156-39.504 37.156h-25.915l.09-.78c.47-4.14-1.9-8.08-5.78-9.61l-10.29-4.05c-18.2-7.16-32.02-22.4-37.37-41.22l-23.05-81.1c-2.23-7.82 2.58-15.91 10.51-17.7 3.52-.8 7.07-1.18 10.58-1.18 15.49 0 30.3 7.5 39.42 20.55l32.48 46.51 13.58 2.05c8.121 1.222 17.542 10.122 24.741 18.424 7.408 8.544 11.202 19.632 10.509 30.92z" fill="#ffdfcf"/><path d="m111.838 415.378c.47-4.14-1.9-8.08-5.78-9.61l-10.29-4.05c-18.2-7.16-32.02-22.4-37.37-41.22l-23.05-81.1c-1.961-6.878 1.526-13.961 7.791-16.786-4.507-1.374-9.226-2.094-14.01-2.094-3.51 0-7.06.38-10.58 1.18-7.93 1.79-12.74 9.88-10.51 17.7l23.05 81.1c5.35 18.82 19.17 34.06 37.37 41.22l10.29 4.05c3.88 1.53 6.25 5.47 5.78 9.61l-.09.78h25.915c.469 0 .934-.018 1.399-.034z" fill="#ffcebf"/><g fill="#99e6fc"><path d="m279.617 308.884c0 15-12.16 27.159-27.159 27.159s-27.159-12.16-27.159-27.159c0-11.315 15.456-28.901 23.048-36.857 2.239-2.346 5.983-2.346 8.222 0 7.593 7.956 23.048 25.541 23.048 36.857z"/><path d="m291.906 66.215c0 21.786-17.661 39.448-39.448 39.448s-39.448-17.661-39.448-39.448c0-17.219 24.642-41.64 34.974-51.122 2.533-2.325 6.415-2.325 8.948 0 10.332 9.482 34.974 33.903 34.974 51.122z"/></g></g><g fill="#ffcebf"><path d="m192.384 246.825 9.771-109.353c-2.724-2.052-6.042-3.375-9.677-3.654-6.17-.47-11.89 2.16-15.59 6.61-.933 1.121-1.736 2.361-2.384 3.689l-3.845 30.963-8.483 98.727c15.468 0 28.469-11.613 30.208-26.982z"/><path d="m230.669 262.809 7.323-109.437c-2.117-.775-4.388-1.219-6.763-1.278-6.117-.151-11.689 2.225-15.731 6.163-3.208 3.113-5.433 7.216-6.247 11.819l-.272 2.364-8.261 117.366c15.425.001 28.355-11.655 29.951-26.997z"/><path d="m339.214 278.017c15.218-3.557 25.514-17.751 24.168-33.321l-10.199-148.026c.001-.092.017-.188.019-.28-2.563-.433-5.254-.408-7.954.147-9.771 2.014-16.681 10.393-17.172 20.028z"/><path d="m389.235 270.319c15.039-4.251 24.672-18.903 22.613-34.395l-11.238-114.691c-.865-.107-1.748-.118-2.635-.118-.42 0-.85.01-1.28.04-11.957.717-20.817 11.019-20.123 22.646z"/></g></g><g><path d="m501.883 264.454c-3.028-5.097-8.082-8.769-13.865-10.072-10.839-2.446-21.81-1.575-31.711 2.128l-18.958-75.692c-1.006-4.018-5.08-6.458-9.098-5.453-4.018 1.007-6.459 5.079-5.453 9.098l19.901 79.458c-4.732 3.517-8.961 7.823-12.475 12.854l-30.64 43.866-10.394 1.567c-18.414 2.777-33.816 15.37-40.196 32.865l-1.958 5.369c-1.419 3.892.585 8.196 4.477 9.615 3.891 1.422 8.196-.584 9.615-4.477l1.958-5.369c4.499-12.335 15.358-21.214 28.341-23.172l13.579-2.048c2.034-.307 3.852-1.436 5.03-3.121l32.484-46.507c9.483-13.575 26.045-19.992 42.198-16.35 1.806.407 3.322 1.509 4.268 3.101s1.188 3.45.681 5.231l-23.057 81.104c-4.679 16.458-16.978 30.025-32.9 36.292l-10.293 4.052c-7.026 2.766-11.334 9.937-10.476 17.439l8.72 76.215c.438 3.826 3.681 6.648 7.442 6.648.284 0 .572-.017.862-.05 4.115-.471 7.07-4.188 6.599-8.304l-8.72-76.215c-.087-.765.352-1.495 1.068-1.777l10.293-4.052c20.246-7.968 35.885-25.219 41.835-46.147l23.057-81.104c1.621-5.701.814-11.894-2.214-16.992z"/><path d="m351.269 273.725-15.592-153.941c-.008-.078-.017-.157-.028-.235-.973-7.295 3.911-14.174 11.119-15.66 3.716-.768 7.497-.031 10.653 2.068 3.156 2.101 5.295 5.307 6.01 8.966l21.821 155.299c.485 3.785 3.712 6.547 7.43 6.547.317 0 .64-.021.963-.062 4.109-.527 7.012-4.285 6.485-8.394l-15.754-122.88c-.017-.134-.038-.267-.062-.399-.73-3.98.243-7.927 2.74-11.111 2.498-3.186 6.098-5.072 10.139-5.313 6.084-.338 11.739 3.33 13.874 9.011l3.893 15.543c1.006 4.019 5.081 6.464 9.098 5.453 4.018-1.007 6.459-5.079 5.453-9.098l-3.985-15.913c-.056-.223-.122-.442-.198-.659-4.255-12.135-16.193-20.068-29.027-19.31-6.142.366-11.953 2.682-16.632 6.52l-1.503-8.049c-1.501-7.683-5.917-14.302-12.434-18.638-6.517-4.337-14.331-5.853-21.994-4.272-14.839 3.062-24.908 17.193-22.973 32.208l.607 5.993c-3.026-.923-6.239-1.308-9.497-1.057-12.195.928-21.816 10.128-23.647 21.758-4.15-2.239-8.912-3.509-13.991-3.509-8.639 0-16.414 3.764-21.778 9.735-5.364-5.971-13.138-9.735-21.778-9.735-5.082 0-9.845 1.271-13.997 3.515-1.843-11.653-11.458-20.836-23.642-21.764-3.243-.247-6.458.131-9.496 1.056l.607-5.991c1.935-15.015-8.133-29.146-22.972-32.208-7.666-1.58-15.478-.064-21.995 4.272s-10.932 10.955-12.445 18.699l-1.491 7.987c-4.679-3.837-10.49-6.153-16.631-6.519-12.834-.78-24.773 7.174-29.028 19.31-.076.217-.142.437-.198.659l-16.526 65.982c-1.006 4.019 1.435 8.091 5.453 9.098 4.02 1.011 8.092-1.435 9.098-5.453l16.432-65.614c2.135-5.683 7.795-9.362 13.875-9.012 4.041.241 7.641 2.128 10.139 5.313 2.497 3.185 3.47 7.131 2.74 11.111-.024.133-15.816 123.279-15.816 123.279-.527 4.108 2.376 7.866 6.485 8.394.324.041.645.062.963.062 3.717 0 6.945-2.763 7.43-6.547l21.809-155.237c.727-3.721 2.866-6.927 6.022-9.027 3.156-2.101 6.939-2.837 10.654-2.068 7.207 1.486 12.091 8.365 11.118 15.66-.011.078-.02.157-.028.235l-15.592 153.941c-.417 4.121 2.585 7.8 6.706 8.218.257.026.512.039.765.039 3.802-.001 7.062-2.881 7.453-6.745l13.007-128.42c.317-.56.667-1.101 1.08-1.597 2.264-2.723 5.721-4.193 9.246-3.922 5.827.443 10.263 5.365 10.097 11.264l-2.766 135.454c-.084 4.142 3.204 7.567 7.345 7.651.053.001.104.002.156.002 4.071 0 7.412-3.258 7.496-7.347l2.386-116.856c1.136-6.798 6.96-11.876 14.062-11.876 7.873 0 14.278 6.405 14.278 14.277v91.246c-.732.505-1.416 1.086-2.037 1.736-11.461 12.009-25.123 29.05-25.123 42.035 0 16.536 11.643 30.395 27.159 33.833v18.266c0 12.783-4.373 25.341-12.314 35.36l-26.279 33.156c-1.05 1.325-1.622 2.967-1.622 4.658v57.439c0 4.143 3.358 7.5 7.5 7.5s7.5-3.357 7.5-7.5v-54.828l24.657-31.109c3.137-3.958 5.833-8.23 8.058-12.727 2.225 4.497 4.921 8.769 8.058 12.727l24.657 31.109v54.828c0 4.143 3.358 7.5 7.5 7.5s7.5-3.357 7.5-7.5v-57.439c0-1.691-.572-3.333-1.622-4.658l-26.279-33.156c-7.941-10.02-12.314-22.577-12.314-35.36v-18.266c15.516-3.438 27.159-17.297 27.159-33.833 0-12.985-13.662-30.026-25.122-42.034-.621-.651-1.305-1.231-2.038-1.737v-91.246c0-7.872 6.405-14.277 14.278-14.277 7.101 0 12.924 5.077 14.06 11.804l2.387 116.929c.083 4.089 3.424 7.347 7.496 7.347.052 0 .104-.001.156-.002 4.141-.084 7.43-3.51 7.345-7.651l-2.767-135.512c-.164-5.841 4.271-10.763 10.099-11.206 4.204-.32 8.235 1.829 10.321 5.48l13.011 128.459c.392 3.864 3.65 6.745 7.453 6.745.252 0 .508-.013.765-.039 4.122-.418 7.124-4.097 6.707-8.218zm-79.152 35.159c0 10.836-8.814 19.653-19.65 19.659-.003 0-.006 0-.01 0s-.006 0-.01 0c-10.836-.005-19.65-8.822-19.65-19.659 0-4.347 5.181-14.829 19.659-30.289 14.48 15.459 19.661 25.942 19.661 30.289z"/><path d="m155.922 355.073c-6.38-17.495-21.782-30.088-40.196-32.865l-10.394-1.567-30.64-43.866c-3.514-5.031-7.744-9.338-12.475-12.854l7.433-29.679c1.006-4.019-1.435-8.091-5.453-9.098-4.015-1.003-8.091 1.436-9.098 5.453l-6.491 25.916c-9.902-3.702-20.872-4.573-31.711-2.13-5.783 1.304-10.837 4.976-13.865 10.072-3.028 5.098-3.835 11.291-2.214 16.994l23.057 81.104c5.95 20.929 21.589 38.18 41.834 46.147l10.293 4.052c.716.282 1.155 1.013 1.068 1.777l-8.72 76.215c-.471 4.115 2.483 7.833 6.599 8.304.29.033.577.05.862.05 3.761 0 7.004-2.822 7.442-6.648l8.72-76.215c.858-7.503-3.45-14.674-10.476-17.439l-10.294-4.052c-15.921-6.267-28.221-19.834-32.899-36.292l-23.057-81.104c-.506-1.781-.265-3.64.681-5.231s2.462-2.693 4.269-3.101c16.152-3.643 32.716 2.773 42.198 16.35l32.484 46.507c1.178 1.686 2.996 2.814 5.03 3.121l13.579 2.048c12.983 1.958 23.843 10.837 28.341 23.172l1.958 5.369c1.419 3.893 5.725 5.898 9.615 4.477 3.892-1.419 5.896-5.724 4.477-9.615z"/><path d="m252.458 113.162c25.887 0 46.948-21.061 46.948-46.947 0-1.032-.073-2.104-.229-3.371-.507-4.112-4.251-7.041-8.362-6.525-4.111.507-7.032 4.251-6.525 8.361.078.636.116 1.138.116 1.535 0 17.616-14.332 31.947-31.948 31.947s-31.948-14.331-31.948-31.947c0-9.606 12.222-26.826 31.948-45.046 4.208 3.892 11.663 11.11 18.298 19.187 2.629 3.201 7.355 3.664 10.556 1.034 3.201-2.629 3.664-7.355 1.035-10.556-7.167-8.724-15.019-16.38-20.343-21.266-5.443-4.998-13.65-4.999-19.09-.001-13.969 12.818-37.403 37.224-37.403 56.647-.001 25.888 21.06 46.948 46.947 46.948z"/></g></g></svg>