<svg id="Capa_1" enable-background="new 0 0 510.519 510.519" height="512" viewBox="0 0 510.519 510.519" width="512" xmlns="http://www.w3.org/2000/svg"><g><g><g><g><g><g id="XMLID_669_"><g><path d="m62.561 237.344c-15.35 0-27.8-12.45-27.8-27.8 0-7.67 3.11-14.62 8.14-19.65 5.04-5.03 11.98-8.14 19.66-8.14h204.08c5.53 0 8.37-6.62 4.56-10.63l-36.96-38.92c-11.87-12.49-11.09-32.32 1.72-43.85 5.83-5.24 13.16-7.86 20.49-7.86 7.45 0 14.9 2.71 20.76 8.12l85.39 78.77h57.515c4.786 0 8.665 3.88 8.665 8.665v185c0 4.786-3.879 8.665-8.665 8.665h-36.085l-12.15 12.28c-14.005 14.155-33.09 22.12-53.003 22.12h-238.037c-7.68 0-14.62-3.11-19.66-8.14-5.03-5.03-8.14-11.98-8.14-19.65 0-15.35 12.45-27.8 27.8-27.8h-30.17c-7.68 0-14.63-3.11-19.66-8.14s-8.14-11.98-8.14-19.66c0-15.35 12.44-27.79 27.8-27.79h-17.39c-7.68 0-14.62-3.11-19.66-8.14-5.145-5.155-8.281-12.298-8.135-20.187.282-15.233 13.104-27.263 28.339-27.263z" fill="#ffcebf"/></g></g></g><path d="m424.083 105.412c.32-1.508.496-3.057.496-4.639 0-14.952-14.89-27.074-33.257-27.074s-33.257 12.122-33.257 27.074c0 .203.013.404.019.606-15.802 2.759-27.44 14.65-26.156 28.56 1.234 13.364 14.663 24.119 31.096 24.929 8.387.413 16.149-1.711 22.251-5.512 6.086 3.791 13.823 5.914 22.185 5.515 16.475-.786 29.963-11.59 31.167-24.989.913-10.166-5.076-19.251-14.544-24.47z" fill="#f9f3f1"/><g><g id="XMLID_667_"><g><path d="m428.781 361.049v-185c0-4.786-3.879-8.665-8.665-8.665h-57.515l-79.576-73.406c-1.721 4.809-2.721 9.907-2.926 15.17-.537 13.769 4.394 26.85 13.877 36.828 5.652 5.952 1.433 15.777-6.775 15.777h-24.899l8.899 9.371c3.81 4.01.97 10.63-4.56 10.63h-168.729c-5.783 8.054-8.913 17.679-8.913 27.79 0 3.847.457 7.589 1.319 11.175-17.571 6.941-30.226 23.833-30.59 43.519-.242 13.095 4.721 25.413 14.003 34.713 1.968 1.964 4.077 3.735 6.303 5.307-1.891 5.136-2.925 10.685-2.925 16.468 0 12.771 4.971 24.774 14 33.804 5.003 5.002 10.919 8.758 17.374 11.113-.787 3.436-1.203 7.012-1.203 10.683 0 10.107 3.128 19.729 8.915 27.79h202.682c19.913 0 38.999-7.965 53.004-22.12l12.15-12.28h36.085c4.785-.002 8.665-3.881 8.665-8.667z" fill="#ffb09e"/><path d="m136.799 237.344c-15.35 0-27.8-12.45-27.8-27.8 0-7.67 3.11-14.62 8.14-19.65 5.04-5.03 11.98-8.14 19.66-8.14h204.08c5.53 0 8.37-6.62 4.56-10.63l-36.96-38.92c-11.87-12.49-11.09-32.32 1.72-43.85 5.83-5.24 13.16-7.86 20.49-7.86 7.45 0 14.9 2.71 20.76 8.12l85.39 78.77h57.515c4.786 0 8.665 3.88 8.665 8.665v185c0 4.786-3.88 8.665-8.665 8.665h-36.085l-12.15 12.28c-14.005 14.155-33.09 22.12-53.003 22.12h-238.037c-7.68 0-14.62-3.11-19.66-8.14-5.03-5.03-8.14-11.98-8.14-19.65 0-15.35 12.45-27.8 27.8-27.8h-30.17c-7.68 0-14.63-3.11-19.66-8.14s-8.14-11.98-8.14-19.66c0-15.35 12.44-27.79 27.8-27.79h-17.39c-7.68 0-14.62-3.11-19.66-8.14-5.145-5.155-8.281-12.298-8.135-20.187.282-15.233 13.104-27.263 28.339-27.263z" fill="#ffdfcf"/></g></g></g><g><path d="m497.988 336.956h-26.539c-6.109 0-11.964 2.443-16.26 6.786l-5.437 5.495c-14.005 14.155-33.09 22.119-53.002 22.119h-238.037c-7.68 0-14.62-3.11-19.66-8.14-1.706-1.706-3.182-3.646-4.4-5.746-4.574 4.955-7.374 11.582-7.374 18.855 0 7.67 3.11 14.62 8.14 19.65 5.04 5.03 11.98 8.14 19.66 8.14h238.036c19.913 0 38.998-7.965 53.004-22.12l12.15-12.28h36.085c4.786 0 8.665-3.879 8.665-8.665v-25.713c-1.419 1.015-3.153 1.619-5.031 1.619z" fill="#ffcebf"/></g></g><path d="m416.867 238.3c.261-1.508.404-3.057.404-4.639 0-14.952-12.121-27.074-27.073-27.074s-27.073 12.122-27.073 27.074c0 .203.011.404.015.606-12.864 2.759-22.338 14.65-21.293 28.56 1.004 13.364 11.937 24.119 25.314 24.929 6.828.413 13.146-1.711 18.114-5.512 4.955 3.791 11.253 5.914 18.06 5.515 13.411-.786 24.392-11.59 25.372-24.989.744-10.166-4.132-19.251-11.84-24.47z" fill="#f9f3f1"/></g><g fill="#ffcebf"><path d="m222.602 348.525c0-18.092-14.666-32.758-32.758-32.758h-70.769c-7.355 0-14.027-2.857-19.006-7.518-1.889 3.752-2.959 7.987-2.959 12.476 0 7.68 3.11 14.63 8.14 19.66s11.98 8.14 19.66 8.14h30.17c-.007 0-.014 0-.022 0z"/><path d="m106.127 292.899h113.905c0-18.092-14.666-32.758-32.758-32.758h-89.77c-5.915 0-11.387-1.851-15.893-4.999-1.161 2.939-1.826 6.125-1.887 9.464-.146 7.89 2.99 15.032 8.135 20.188 4.734 4.725 11.144 7.754 18.268 8.105z"/><path d="m109.763 203.047c-.498 2.082-.764 4.263-.764 6.497 0 14.671 11.375 26.685 25.784 27.719h106.339c0-18.092-14.666-32.758-32.758-32.758h-89.769c-3.09.001-6.059-.526-8.832-1.458z"/></g><path d="m317.935 360.67c-8.64 0-16.595 2.913-22.952 7.801-4.633-3.198-10.248-5.075-16.303-5.075-15.873 0-28.741 12.868-28.741 28.741 0 15.874 12.868 28.742 28.741 28.742 2.839 0 5.579-.418 8.169-1.185 6.796 9.888 18.181 16.375 31.086 16.375 20.821 0 37.7-16.879 37.7-37.7 0-20.82-16.879-37.699-37.7-37.699z" fill="#f9f3f1"/><path d="m118.347 103.284c-8.814 0-16.804 3.494-22.688 9.16-.305-.065-.613-.124-.921-.182-5.15-13.425-18.15-22.961-33.387-22.961-19.749 0-35.759 16.01-35.759 35.759 0 18.14 13.51 33.115 31.016 35.437 5.409 12.143 17.575 20.614 31.727 20.614 10.748 0 20.353-4.885 26.722-12.553 1.084.108 2.178.184 3.291.184 18.076 0 32.729-14.653 32.729-32.729s-14.655-32.729-32.73-32.729z" fill="#f9f3f1"/></g><g><path d="m212.822 189.25h128.057c5.519 0 10.493-3.276 12.671-8.348s1.13-10.935-2.671-14.938l-36.96-38.922c-4.333-4.564-6.584-10.541-6.338-16.83.247-6.288 2.959-12.07 7.637-16.281 8.93-8.034 22.32-7.954 31.149.192l85.382 78.775c1.385 1.277 3.201 1.987 5.086 1.987h66.183c4.142 0 7.5-3.357 7.5-7.5s-3.358-7.5-7.5-7.5h-63.251l-4.058-3.744c7.997-5.876 13.002-15.309 13.002-25.759 0-12.676-7.431-23.941-18.631-29.072-2.28-19.323-18.76-34.363-38.687-34.363-13.508 0-25.806 7.039-32.833 18.015l-2.021-1.864c-14.557-13.429-36.635-13.564-51.355-.316-7.713 6.941-12.185 16.475-12.591 26.843s3.304 20.223 10.449 27.746l35.02 36.879h-125.24c-4.142 0-7.5 3.357-7.5 7.5s3.358 7.5 7.5 7.5zm178.571-107.302c13.209 0 23.956 10.747 23.956 23.956l-.017.595c-.08 3.487 2.255 6.57 5.635 7.437 7.503 1.925 12.744 8.688 12.744 16.448 0 6.584-3.744 12.398-9.439 15.207l-54.396-50.187c3.957-8.091 12.272-13.456 21.517-13.456z"/><path d="m242.376 285.434h-65.346c-4.142 0-7.5 3.357-7.5 7.5s3.358 7.5 7.5 7.5h65.347c4.142 0 7.5-3.357 7.5-7.5s-3.358-7.5-7.501-7.5z"/><path d="m352.875 382.34c-4.03.956-6.522 4.998-5.566 9.028.547 2.308.825 4.663.825 7.002 0 16.652-13.547 30.2-30.2 30.2-9.947 0-19.257-4.906-24.906-13.124-1.84-2.677-5.194-3.87-8.31-2.943-1.964.581-3.996.876-6.04.876-11.713 0-21.242-9.528-21.242-21.241s9.529-21.241 21.242-21.241c4.327 0 8.491 1.296 12.043 3.747 2.68 1.851 6.249 1.758 8.831-.227 5.316-4.087 11.672-6.247 18.381-6.247 4.716 0 9.238 1.062 13.44 3.156 3.707 1.846 8.21.338 10.058-3.368 1.847-3.707.339-8.21-3.368-10.058-6.299-3.139-13.072-4.73-20.131-4.73-8.309 0-16.257 2.214-23.262 6.442-4.95-2.442-10.393-3.716-15.993-3.716-19.984 0-36.242 16.258-36.242 36.241s16.258 36.241 36.242 36.241c1.722 0 3.439-.123 5.139-.366 8.539 9.822 20.954 15.558 34.116 15.558 24.923 0 45.2-20.276 45.2-45.2 0-3.503-.414-7.024-1.23-10.465-.954-4.03-4.996-6.526-9.027-5.565z"/><path d="m503.019 362.217h-44.752c-2.003 0-3.922.801-5.332 2.225l-12.152 12.281c-12.508 12.643-29.883 19.894-47.669 19.894h-7.741c-4.142 0-7.5 3.357-7.5 7.5s3.358 7.5 7.5 7.5h7.741c21.764 0 43.025-8.873 58.332-24.343l9.95-10.057h41.622c4.142 0 7.5-3.357 7.5-7.5s-3.357-7.5-7.499-7.5z"/><path d="m155.075 356.025h84.301c4.142 0 7.5-3.357 7.5-7.5s-3.358-7.5-7.5-7.5h-114.472c-11.191 0-20.296-9.105-20.296-20.297 0-11.19 9.104-20.295 20.296-20.295h20.163c4.142 0 7.5-3.357 7.5-7.5s-3.358-7.5-7.5-7.5h-37.551c-11.191 0-20.296-9.104-20.296-20.296s9.104-20.296 20.296-20.296h134.86c4.142 0 7.5-3.357 7.5-7.5s-3.358-7.5-7.5-7.5h-105.58c-11.191 0-20.296-9.104-20.296-20.296s9.104-20.296 20.296-20.296h44.063c4.142 0 7.5-3.357 7.5-7.5s-3.358-7.5-7.5-7.5h-44.063c-19.462 0-35.296 15.834-35.296 35.296 0 7.551 2.391 14.55 6.446 20.296h-.43c-19.462 0-35.296 15.834-35.296 35.296 0 15.875 10.537 29.333 24.984 33.755-4.75 6.013-7.596 13.596-7.596 21.835 0 19.463 15.833 35.297 35.296 35.297h1.32c-4.054 5.746-6.445 12.744-6.445 20.295 0 19.462 15.833 35.296 35.296 35.296h66.102c4.142 0 7.5-3.357 7.5-7.5s-3.358-7.5-7.5-7.5h-66.102c-11.191 0-20.296-9.104-20.296-20.296 0-11.189 9.105-20.294 20.296-20.294z"/><path d="m252.157 156.914c1.474 1.553 3.455 2.336 5.439 2.336 1.854 0 3.712-.684 5.164-2.062 3.003-2.853 3.126-7.6.274-10.603l-18.558-19.543c-4.334-4.564-6.584-10.541-6.338-16.83.247-6.289 2.959-12.07 7.638-16.281 7.379-6.641 18.144-7.837 26.786-2.981 3.609 2.03 8.184.745 10.212-2.863 2.029-3.611.747-8.184-2.864-10.213-14.257-8.014-32.007-6.04-44.169 4.908-7.713 6.941-12.185 16.474-12.591 26.842-.407 10.369 3.304 20.223 10.449 27.747z"/><path d="m105.421 396.616h-22.566c-11.191 0-20.296-9.104-20.296-20.296 0-11.19 9.104-20.295 20.296-20.295 4.142 0 7.5-3.357 7.5-7.5s-3.358-7.5-7.5-7.5c-.582 0-1.16.016-1.735.044-.264-.028-.531-.044-.802-.044h-27.634c-11.191 0-20.296-9.105-20.296-20.297 0-11.19 9.104-20.295 20.296-20.295h9.566c4.142 0 7.5-3.357 7.5-7.5s-3.358-7.5-7.5-7.5h-9.566c-.879 0-1.747.043-2.61.107-.396-.064-.799-.107-1.213-.107h-13.565c-11.191 0-20.296-9.104-20.296-20.296s9.104-20.296 20.296-20.296h26.784c.269 0 .534-.016.796-.043.564.027 1.13.043 1.701.043 4.142 0 7.5-3.357 7.5-7.5s-3.358-7.5-7.5-7.5c-11.191 0-20.296-9.104-20.296-20.296s9.104-20.296 20.296-20.296h24.566c4.142 0 7.5-3.357 7.5-7.5s-3.358-7.5-7.5-7.5h-24.567c-19.462 0-35.296 15.834-35.296 35.296 0 7.551 2.391 14.55 6.446 20.296h-.43c-19.463.001-35.296 15.835-35.296 35.297 0 15.875 10.537 29.333 24.984 33.755-4.75 6.013-7.596 13.596-7.596 21.835 0 19.463 15.833 35.297 35.296 35.297h1.321c-4.054 5.746-6.445 12.744-6.445 20.295 0 19.462 15.833 35.296 35.296 35.296h22.566c4.142 0 7.5-3.357 7.5-7.5s-3.359-7.5-7.501-7.5z"/><path d="m43.496 153.963c2.929-2.93 2.929-7.678 0-10.607-5.2-5.199-8.063-12.112-8.063-19.465 0-15.18 12.349-27.529 27.528-27.529 12.037 0 22.874 8.041 26.352 19.554.794 2.629 2.961 4.613 5.649 5.173 2.686.561 5.467-.393 7.245-2.485 4.463-5.252 10.965-8.264 17.838-8.264 12.905 0 23.403 10.499 23.403 23.403 0 4.69-1.38 9.214-3.993 13.08-2.318 3.432-1.416 8.094 2.016 10.413 1.288.869 2.747 1.286 4.192 1.286 2.407 0 4.772-1.157 6.222-3.303 4.293-6.354 6.563-13.781 6.563-21.477 0-21.176-17.228-38.403-38.403-38.403-7.499 0-14.726 2.183-20.879 6.174-7.586-12.373-21.085-20.152-36.205-20.152-23.45 0-42.528 19.078-42.528 42.529 0 11.359 4.424 22.039 12.457 30.072 2.928 2.929 7.677 2.929 10.606.001z"/><path d="m403.774 295.247c17.221-1.01 31.156-14.736 32.413-31.93.788-10.773-3.527-21.262-11.441-28.357.017-.435.025-.867.025-1.299 0-19.063-15.51-34.573-34.574-34.573-17.358 0-31.77 12.859-34.209 29.552-13.734 5.521-22.763 19.545-21.62 34.75 1.287 17.121 15.19 30.815 32.34 31.854.702.042 1.401.063 2.101.063 5.772 0 11.432-1.438 16.466-4.158 5.625 3.039 12.027 4.483 18.499 4.098zm-36.16-14.976c-9.699-.587-17.561-8.327-18.288-18.006-.732-9.742 5.882-18.626 15.386-20.664 3.517-.754 6.004-3.899 5.925-7.496l-.013-.443c0-10.793 8.781-19.573 19.573-19.573 10.793 0 19.574 8.78 19.574 19.573 0 1.1-.099 2.23-.295 3.362-.502 2.905.745 5.835 3.186 7.488 5.883 3.982 9.084 10.604 8.564 17.712-.711 9.719-8.591 17.479-18.332 18.049-4.773.285-9.29-1.098-13.063-3.984-2.69-2.059-6.425-2.058-9.115-.001-3.783 2.896-8.313 4.274-13.102 3.983z"/></g></g></svg>