<svg id="Capa_1" enable-background="new 0 0 514.125 514.125" height="512" viewBox="0 0 514.125 514.125" width="512" xmlns="http://www.w3.org/2000/svg"><g><g><g><path d="m475.851 71.478h-438.882v-55.37c0-3.942 3.196-7.138 7.138-7.138h424.607c3.942 0 7.138 3.196 7.138 7.138v55.37z" fill="#fef48b"/><path d="m281.255 491.77v-296.718h-49.689v296.718c0 7.392 5.993 13.385 13.385 13.385h22.92c7.391 0 13.384-5.993 13.384-13.385z" fill="#f3eae6"/></g><g id="XMLID_672_"><g><path d="m309.938 167.426v39.94c0 15.84-12.84 28.69-28.68 28.69h-49.69c-15.85 0-28.69-12.85-28.69-28.69v-39.94z" fill="#e1d3ce"/><path d="m461.138 96.256v51.2c0 20.42-16.55 36.97-36.96 36.97h-114.24-107.06-114.23c-20.42 0-36.97-16.55-36.97-36.97v-51.2z" fill="#b0e7c9"/></g></g><path d="m461.138 138.26v-42.004h-336.958-6.577-65.925v51.2c0 20.418 16.552 36.97 36.97 36.97h72.502c-20.42 0-36.97-16.55-36.97-36.97 0-5.078 4.117-9.195 9.195-9.195h327.763z" fill="#91deb6"/><path d="m491.374 118.26h-468.623c-8.423 0-15.251-6.828-15.251-15.251v-42.057c0-4.68 3.794-8.474 8.474-8.474h482.176c4.68 0 8.474 3.794 8.474 8.474v42.057c.001 8.423-6.827 15.251-15.25 15.251z" fill="#b0e7c9"/><path d="m80.002 103.009v-42.057c0-4.68 3.794-8.474 8.474-8.474h-72.502c-4.68 0-8.474 3.794-8.474 8.474v42.057c0 8.423 6.828 15.251 15.251 15.251h72.502c-8.423 0-15.251-6.828-15.251-15.251z" fill="#91deb6"/></g><g><path d="m498.15 44.978h-14.799v-28.87c0-8.071-6.566-14.638-14.638-14.638h-424.606c-8.071 0-14.638 6.566-14.638 14.638v28.87h-13.494c-8.809 0-15.975 7.166-15.975 15.974v42.058c0 12.544 10.206 22.75 22.751 22.75h21.431v21.697c0 24.52 19.947 44.467 44.466 44.467h106.732v15.443c0 17.382 12.321 31.936 28.686 35.399v262.389c0 4.143 3.358 7.5 7.5 7.5s7.5-3.357 7.5-7.5v-261.603h34.689v41.006c0 4.143 3.357 7.5 7.5 7.5s7.5-3.357 7.5-7.5v-41.792c16.365-3.463 28.686-18.017 28.686-35.399v-15.443h47.582c4.143 0 7.5-3.357 7.5-7.5s-3.357-7.5-7.5-7.5h-55.083c-4.143 0-7.5 3.357-7.5 7.5v22.943c0 11.682-9.504 21.186-21.186 21.186h-49.689c-11.682 0-21.186-9.504-21.186-21.186v-15.443h27.741c4.142 0 7.5-3.357 7.5-7.5s-3.358-7.5-7.5-7.5h-35.241-114.232c-16.248 0-29.466-13.219-29.466-29.467v-21.697h23.187c4.142 0 7.5-3.357 7.5-7.5s-3.358-7.5-7.5-7.5h-59.617c-4.274 0-7.751-3.477-7.751-7.75v-42.058c0-.537.437-.974.975-.974h482.175c.537 0 .975.437.975.974v42.058c0 4.273-3.478 7.75-7.751 7.75h-377.043c-4.142 0-7.5 3.357-7.5 7.5s3.358 7.5 7.5 7.5h339.308v21.697c0 16.248-13.219 29.467-29.466 29.467h-27.188c-4.143 0-7.5 3.357-7.5 7.5s3.357 7.5 7.5 7.5h27.188c24.519 0 44.466-19.947 44.466-44.467v-21.697h22.735c12.545 0 22.751-10.206 22.751-22.75v-42.058c0-8.808-7.166-15.974-15.975-15.974zm-29.798 0h-21.557v-28.508h21.557zm-350.749-28.508h21.577v28.508h-21.577zm-15 28.508h-21.577v-28.508h21.577zm51.577-28.508h21.577v28.508h-21.577zm36.576 0h21.577v28.508h-21.577zm36.577 0h21.577v28.508h-21.577zm36.577 0h21.577v28.508h-21.577zm36.577 0h21.577v28.508h-21.577zm36.577 0h21.576v28.508h-21.576zm36.577 0h21.577v28.508h-21.577zm36.577 0h21.577v28.508h-21.577zm-365.749 0h21.557v28.508h-21.557z"/><path d="m281.255 309.021c-4.143 0-7.5 3.357-7.5 7.5v188.634c0 4.143 3.357 7.5 7.5 7.5s7.5-3.357 7.5-7.5v-188.634c0-4.143-3.358-7.5-7.5-7.5z"/></g></g></svg>