<svg id="Capa_1" enable-background="new 0 0 503.571 503.571" height="512" viewBox="0 0 503.571 503.571" width="512" xmlns="http://www.w3.org/2000/svg"><g><g><g><g id="XMLID_678_"><g><path d="m482.723 52.725-7.913 128.327-17.19 253.382c-1.11 16.43-14.83 29.202-31.38 29.202h-166.57-106.48v-20.286l-11.43-124.877-9.26-136.317v-128.318z" fill="#99e6fc"/></g></g></g><g><path d="m187.08 53.838h-54.58v44.366 83.95l9.26 136.317 11.43 124.877v20.286h54.58v-20.284l-11.43-124.877-9.26-136.317v-5.215c0-43.484 35.466-78.736 79.216-78.736h215.788c.238-.215.402-.364.641-.579l-.003-44.901z" fill="#62dbfb"/><g><path d="m303.467 305.262c-99.601 0-180.631-81.03-180.631-180.63v-65.156h30v65.156c0 83.058 67.572 150.63 150.631 150.63 83.058 0 150.63-67.572 150.63-150.63v-65.156h30v65.156c0 99.599-81.031 180.63-180.63 180.63z" fill="#f9f3f1"/></g><path d="m231.15 395.575v-22.06c0-23.944-19.48-43.425-43.425-43.425h-44.902l10.366 113.258v20.286h96.693c.234-1.41.361-2.854.361-4.33v-26.463c.001-15.319-7.538-28.904-19.093-37.266z" fill="#62dbfb"/><path d="m211.15 424.858h-184.556v-51.343c0-12.937 10.488-23.425 23.425-23.425h137.707c12.937 0 23.425 10.488 23.425 23.425v51.343z" fill="#d7d0d6"/><path d="m101.173 350.09h-51.155c-12.937 0-23.425 10.488-23.425 23.425v51.343h51.154v-51.343c.001-12.937 10.488-23.425 23.426-23.425z" fill="#c9bfc8"/><path d="m223.862 465.687h-209.98c-3.524 0-6.382-2.857-6.382-6.382v-26.463c0-14.351 11.634-25.984 25.984-25.984h170.776c14.351 0 25.984 11.634 25.984 25.984v26.463c0 3.525-2.857 6.382-6.382 6.382z" fill="#f9f3f1"/><path d="m58.654 459.306v-26.463c0-14.351 11.634-25.984 25.984-25.984h-51.154c-14.351 0-25.984 11.633-25.984 25.984v26.463c0 3.524 2.857 6.382 6.382 6.382h51.154c-3.525 0-6.382-2.858-6.382-6.382z" fill="#f3eae6"/></g><path d="m482.085 78.475h-356.94c-7.724 0-13.986-6.262-13.986-13.986v-12.619c0-7.724 6.262-13.986 13.986-13.986h356.94c7.724 0 13.986 6.262 13.986 13.986v12.619c0 7.724-6.261 13.986-13.986 13.986z" fill="#f3eae6"/></g><g><path d="m460.622 391.945c-4.137-.25-7.709 2.846-7.988 6.979l-2.493 36.923c-.845 12.527-11.344 22.341-23.9 22.341h-166.569c-4.143 0-7.5 3.357-7.5 7.5s3.357 7.5 7.5 7.5h166.568c20.42 0 37.492-15.958 38.867-36.331l2.493-36.923c.279-4.133-2.845-7.709-6.978-7.989z"/><path d="m482.085 30.384h-356.939c-11.848 0-21.486 9.639-21.486 21.486v12.619c0 8.313 4.753 15.522 11.677 19.094v41.049c0 20.892 3.428 40.996 9.743 59.787l9.194 136.177c.268 3.961 3.563 6.995 7.476 6.995.17 0 .341-.006.513-.017 4.133-.279 7.257-3.855 6.979-7.988l-6.575-97.391c33.043 54.258 92.762 90.566 160.803 90.566 68.274 0 128.166-36.561 161.138-91.129l-9.813 145.328c-.278 4.133 2.846 7.709 6.979 7.988.172.011.343.017.513.017 3.911 0 7.208-3.034 7.476-6.995l12.156-180.042c.064-.949-.059-1.866-.325-2.723 6.484-19.016 10.007-39.391 10.007-60.574v-40.904c7.083-3.517 11.975-10.808 11.975-19.237v-12.62c-.005-11.848-9.643-21.486-21.491-21.486zm-363.426 21.486c0-3.576 2.91-6.486 6.486-6.486h356.939c3.576 0 6.486 2.91 6.486 6.486v12.619c0 3.576-2.91 6.486-6.486 6.486h-42.351c-4.143 0-7.5 3.357-7.5 7.5s3.357 7.5 7.5 7.5h6.862v38.656c0 78.922-64.208 143.13-143.13 143.13-78.923 0-143.131-64.208-143.131-143.13v-38.655h247.436c4.143 0 7.5-3.357 7.5-7.5s-3.357-7.5-7.5-7.5h-282.624c-3.576 0-6.486-2.91-6.486-6.486v-12.62zm184.808 245.892c-95.465 0-173.131-77.666-173.131-173.13v-38.656h15v38.656c0 87.193 70.938 158.13 158.131 158.13s158.13-70.937 158.13-158.13v-38.656h15v38.656c0 95.464-77.666 173.13-173.13 173.13z"/><path d="m218.65 402.614v-29.1c0-17.052-13.873-30.924-30.925-30.924h-89.331c-4.143 0-7.5 3.357-7.5 7.5s3.357 7.5 7.5 7.5h89.332c8.781 0 15.925 7.144 15.925 15.924v25.844h-169.557v-25.844c0-8.78 7.144-15.924 15.925-15.924h16.413c4.143 0 7.5-3.357 7.5-7.5s-3.357-7.5-7.5-7.5h-16.413c-17.052 0-30.925 13.872-30.925 30.924v29.1c-11.281 5.392-19.094 16.914-19.094 30.229v26.463c0 7.654 6.228 13.882 13.882 13.882h209.98c7.654 0 13.882-6.228 13.882-13.882v-26.463c0-13.315-7.813-24.837-19.094-30.229zm4.094 55.574h-26.663v-12.876c0-4.143-3.357-7.5-7.5-7.5s-7.5 3.357-7.5 7.5v12.876h-20.39v-12.876c0-4.143-3.357-7.5-7.5-7.5s-7.5 3.357-7.5 7.5v12.876h-20.39v-12.876c0-4.143-3.357-7.5-7.5-7.5s-7.5 3.357-7.5 7.5v12.876h-20.39v-12.876c0-4.143-3.357-7.5-7.5-7.5s-7.5 3.357-7.5 7.5v12.876h-20.39v-12.876c0-4.143-3.357-7.5-7.5-7.5s-7.5 3.357-7.5 7.5v12.876h-24.521v-25.345c0-10.192 8.292-18.484 18.484-18.484h170.776c10.192 0 18.484 8.292 18.484 18.484z"/></g></g></svg>