<svg id="Capa_1" enable-background="new 0 0 511.924 511.924" height="512" viewBox="0 0 511.924 511.924" width="512" xmlns="http://www.w3.org/2000/svg"><g><g><path d="m212.132 183.445c.71-4.87 3.01-9.21 6.37-12.47 4.042-3.939 9.614-6.315 15.731-6.163 11.892.294 21.229 10.361 21.229 22.257v95.916 65.78 24.94c0 14.52-4.91 28.63-13.94 40.01l-26.28 33.16v47.226c0 5.641-4.573 10.214-10.214 10.214h-114.776c-6.101 0-10.842-5.314-10.147-11.376l7.337-64.064 1.79-26.14-47.19-51.68 15.18-73.35 32.45-129.56c3.03-8.63 11.16-14.35 20.22-14.35.42 0 .85.01 1.28.04 12.85.77 22.13 12.61 19.81 25.27l6.13-32.84c2.31-11.79 13.79-19.43 25.56-17.01 10.14 2.09 17.22 11.03 17.22 21.12 0 .95-.06 1.91-.19 2.88l-2.39 23.59.18.02c.65-1.34 1.46-2.59 2.4-3.72 3.7-4.45 9.42-7.08 15.59-6.61 9.62.74 17.03 8.76 17.03 18.37 0 .17 0 .35-.01.53l-.37 18.01c-.12.83-.2 1.67-.22 2.53z" fill="#ffdfcf"/></g><g fill="#ffcebf"><path d="m165.187 120.835c.907-3.286 2.574-6.216 4.749-8.631-2.162-1.383-4.61-2.401-7.264-2.949-11.77-2.42-23.25 5.22-25.56 17.01l-5.961 31.936-18.354 125.309c15.621.473 29.218-10.599 31.919-25.992z"/><path d="m195.388 263.543 9.771-113.353c-2.724-2.052-6.042-3.375-9.677-3.654-6.17-.47-11.89 2.16-15.59 6.61-.933 1.121-1.736 2.361-2.384 3.689l-3.845 30.963-8.483 102.727c15.468 0 28.469-11.613 30.208-26.982z"/><path d="m233.672 276.527 7.323-110.437c-2.117-.775-4.388-1.219-6.763-1.278-6.117-.151-11.689 2.225-15.731 6.163-3.208 3.113-5.433 7.216-6.247 11.819l-.272 2.364-8.261 118.366c15.426.001 28.356-11.655 29.951-26.997z"/></g><g><g id="XMLID_1_"><g><path d="m379.942 159.105c-2.32-12.66 6.96-24.5 19.81-25.27.43-.03.86-.04 1.28-.04 9.06 0 17.19 5.72 20.22 14.35l32.45 129.56 11.76 60.82-42.94 66.03.96 24.32 7.74 67.586c.479 4.185-2.794 7.854-7.006 7.854h-121.482c-3.895 0-7.052-3.157-7.052-7.052v-50.388l-26.28-33.16c-9.03-11.38-13.94-25.49-13.94-40.01v-187.12c0-6.02 2.44-11.46 6.38-15.4s9.38-6.38 15.4-6.38c10.93 0 20.02 8.07 21.55 18.64 0 0 .12.83 0 0l-.37-18.01c-.01-.18-.01-.36-.01-.53 0-9.61 7.41-17.63 17.03-18.37 7.38-.56 14.12 3.31 17.52 9.43l.55-.06-2.29-22.65c-.13-.97-.19-1.93-.19-2.88 0-10.09 7.08-19.03 17.22-21.12 11.77-2.42 23.25 5.22 25.56 17.01z" fill="#ffdfcf"/></g></g></g><path d="m429.172 418.485c-3.88 1.53-6.25 5.47-5.78 9.61l.001.78-15.021-.087c-21.214-.122-39.313-13.011-47.153-31.277-4.854-11.31-2.853-24.44 4.978-33.935 7.405-8.978 18.066-19.871 27.115-21.232l13.58-2.05 32.48-46.51c9.12-13.05 23.93-20.55 39.42-20.55 3.51 0 7.06.38 10.58 1.18 7.93 1.79 12.74 9.88 10.51 17.7l-23.05 81.1c-5.35 18.82-19.17 34.06-37.37 41.22z" fill="#ffdfcf"/><path d="m324.679 498.077v-43.337c0-4.566-1.543-8.998-4.379-12.577l-21.901-27.634c-9.03-11.38-13.94-25.49-13.94-40.01v-187.12c0-6.02 2.44-11.46 6.38-15.4.429-.429.884-.86 1.347-1.252-3.905-3.691-9.163-5.941-14.945-5.941-6.02 0-11.46 2.44-15.4 6.38s-6.38 9.38-6.38 15.4v187.12c0 14.52 4.91 28.63 13.94 40.01l26.28 33.16v50.388c0 3.895 3.157 7.052 7.052 7.052h25.715c-2.24-1.182-3.769-3.531-3.769-6.239z" fill="#ffcebf"/><g><path d="m107.264 495.306 7.337-64.064 1.79-26.14-47.19-51.68 15.18-73.35 32.45-129.56c1.547-4.407 4.439-8.05 8.091-10.565-3.547-3.492-8.333-5.787-13.75-6.112-.43-.03-.86-.04-1.28-.04-9.06 0-17.19 5.72-20.22 14.35l-32.45 129.56-15.18 73.35 47.19 51.68-1.79 26.14-7.337 64.064c-.694 6.062 4.046 11.375 10.147 11.375h20.641c-2.544-2.117-4.039-5.427-3.629-9.008z" fill="#ffcebf"/></g><path d="m323.078 161.168c-.107-4.528.934-8.766 2.804-12.319-3.076-1.734-6.671-2.6-10.44-2.314-9.62.74-17.03 8.76-17.03 18.37 0 .17 2.278 137.743 2.278 137.743 13.68-.323 24.509-11.675 24.185-25.355z" fill="#ffcebf"/><path d="m342.218 288.735c15.218-3.557 25.514-17.751 24.168-33.321l-10.199-146.025c.001-.092.017-.188.019-.28-2.563-.433-5.254-.408-7.954.147-9.771 2.014-16.681 10.393-17.172 20.028z" fill="#ffcebf"/><path d="m392.238 286.037c15.039-4.251 24.672-18.903 22.613-34.395l-11.238-117.691c-.865-.107-1.748-.118-2.635-.118-.42 0-.85.01-1.28.04-11.957.717-20.817 11.019-20.123 22.646z" fill="#ffcebf"/></g><path d="m152.861 391.72c-1.281 20.878-18.587 37.156-39.504 37.156h-25.915l.09-.78c.47-4.14-1.9-8.08-5.78-9.61l-10.29-4.05c-18.2-7.16-32.02-22.4-37.37-41.22l-23.05-81.1c-2.23-7.82 2.58-15.91 10.51-17.7 3.52-.8 7.07-1.18 10.58-1.18 15.49 0 30.3 7.5 39.42 20.55l32.48 46.51 13.58 2.05c8.121 1.222 17.542 10.122 24.741 18.424 7.408 8.544 11.202 19.632 10.509 30.92z" fill="#ffdfcf"/><path d="m114.841 428.095c.47-4.14-1.9-8.08-5.78-9.61l-10.29-4.05c-18.2-7.16-32.02-22.4-37.37-41.22l-23.05-81.1c-1.961-6.878 1.526-13.961 7.791-16.786-4.507-1.374-9.226-2.094-14.01-2.094-3.51 0-7.06.38-10.58 1.18-7.93 1.79-12.74 9.88-10.51 17.7l23.05 81.1c5.35 18.82 19.17 34.06 37.37 41.22l10.29 4.05c3.88 1.53 6.25 5.47 5.78 9.61l-.09.78h25.915c.469 0 .934-.018 1.399-.034z" fill="#ffcebf"/><g><g><path d="m194.338 79.148v16.873c0 13.438 10.934 24.372 24.373 24.372 13.438 0 24.372-10.934 24.372-24.372v-88.521c0-4.143-3.357-7.5-7.5-7.5s-7.5 3.357-7.5 7.5v88.521c0 5.168-4.204 9.372-9.372 9.372s-9.373-4.204-9.373-9.372v-16.873c0-4.143-3.357-7.5-7.5-7.5s-7.5 3.358-7.5 7.5z"/><path d="m177.966 66.275c15.093 0 27.372-12.279 27.372-27.372v-31.403c0-4.143-3.357-7.5-7.5-7.5s-7.5 3.357-7.5 7.5v31.403c0 6.822-5.55 12.372-12.372 12.372s-12.373-5.55-12.373-12.372v-13.873c0-4.143-3.357-7.5-7.5-7.5s-7.5 3.357-7.5 7.5v13.873c0 15.093 12.279 27.372 27.373 27.372z"/><path d="m293.213 120.394c13.439 0 24.373-10.934 24.373-24.372v-16.874c0-4.143-3.357-7.5-7.5-7.5s-7.5 3.357-7.5 7.5v16.873c0 5.168-4.205 9.372-9.373 9.372s-9.372-4.204-9.372-9.372v-88.521c0-4.143-3.357-7.5-7.5-7.5s-7.5 3.357-7.5 7.5v88.521c0 13.439 10.933 24.373 24.372 24.373z"/><path d="m333.958 66.275c15.094 0 27.373-12.279 27.373-27.372v-13.873c0-4.143-3.357-7.5-7.5-7.5s-7.5 3.357-7.5 7.5v13.873c0 6.822-5.551 12.372-12.373 12.372s-12.372-5.55-12.372-12.372v-31.403c0-4.143-3.357-7.5-7.5-7.5s-7.5 3.357-7.5 7.5v31.403c0 15.093 12.279 27.372 27.372 27.372z"/><path d="m505.387 277.28c-3.027-5.097-8.081-8.769-13.864-10.072-10.841-2.445-21.811-1.575-31.712 2.128l-16.869-67.351c-1.007-4.018-5.083-6.458-9.098-5.453-4.018 1.007-6.459 5.079-5.453 9.098l17.812 71.116c-4.731 3.517-8.96 7.824-12.475 12.855l-30.64 43.866-10.393 1.567c-18.414 2.777-33.816 15.37-40.197 32.865l-1.958 5.369c-1.419 3.892.585 8.196 4.477 9.615 3.892 1.422 8.197-.586 9.615-4.477l1.958-5.369c4.499-12.335 15.359-21.214 28.342-23.172l13.578-2.048c2.034-.307 3.853-1.436 5.03-3.121l32.484-46.507c9.483-13.575 26.048-19.989 42.198-16.35 1.807.407 3.322 1.509 4.268 3.101s1.188 3.45.682 5.231l-23.057 81.104c-4.68 16.459-16.979 30.025-32.9 36.292l-10.294 4.052c-7.026 2.766-11.334 9.938-10.476 17.439l8.721 76.215c.438 3.826 3.682 6.648 7.441 6.648.285 0 .573-.017.862-.05 4.115-.471 7.069-4.188 6.599-8.304l-8.721-76.215c-.087-.765.352-1.495 1.067-1.777l10.293-4.052c20.246-7.967 35.886-25.219 41.835-46.147l23.057-81.104c1.623-5.7.816-11.894-2.212-16.992z"/><path d="m354.772 286.551-15.592-153.942c-.008-.078-.018-.157-.027-.235-.973-7.295 3.911-14.174 11.118-15.66 3.716-.767 7.498-.031 10.654 2.068 3.156 2.101 5.295 5.307 6.01 8.966l21.82 155.299c.485 3.784 3.712 6.547 7.43 6.547.318 0 .64-.021.964-.062 4.108-.527 7.012-4.285 6.485-8.394l-15.754-122.88c-.018-.134-.038-.267-.063-.399-.73-3.98.242-7.927 2.739-11.111 2.497-3.186 6.098-5.072 10.139-5.313 6.074-.342 11.74 3.329 13.874 9.011l6.016 24.018c1.007 4.019 5.083 6.463 9.098 5.453 4.018-1.007 6.459-5.08 5.453-9.098l-6.108-24.388c-.056-.223-.122-.442-.197-.658-4.254-12.136-16.192-20.077-29.027-19.311-6.142.366-11.953 2.682-16.632 6.52l-1.503-8.049c-1.501-7.683-5.916-14.301-12.434-18.638-6.517-4.337-14.325-5.851-21.995-4.272-14.838 3.062-24.906 17.193-22.973 32.207l.607 5.997c-3.027-.924-6.24-1.311-9.496-1.061-12.195.928-21.816 10.128-23.647 21.758-4.15-2.239-8.912-3.509-13.992-3.509-8.639 0-16.414 3.764-21.777 9.735-5.364-5.971-13.138-9.735-21.777-9.735-5.082 0-9.846 1.271-13.997 3.515-1.843-11.654-11.458-20.837-23.642-21.764-3.242-.246-6.458.133-9.495 1.056l.607-5.993c1.934-15.014-8.135-29.146-22.973-32.207-7.663-1.579-15.477-.064-21.995 4.272-6.518 4.337-10.933 10.955-12.446 18.699l-1.491 7.986c-4.678-3.837-10.489-6.153-16.631-6.519-12.819-.766-24.773 7.175-29.027 19.311-.075.216-.142.436-.197.658l-18.169 72.544c-1.006 4.019 1.436 8.091 5.453 9.098 4.021 1.01 8.091-1.435 9.098-5.453l18.076-72.174c2.135-5.681 7.815-9.361 13.874-9.011 4.041.241 7.642 2.128 10.139 5.313s3.47 7.131 2.739 11.111c-.024.133-.045.266-.063.399l-15.754 122.88c-.526 4.108 2.377 7.866 6.485 8.394.324.041.646.062.964.062 3.717 0 6.944-2.763 7.43-6.547l21.808-155.237c.728-3.721 2.866-6.927 6.022-9.027s6.939-2.837 10.654-2.068c7.207 1.486 12.091 8.365 11.118 15.66-.01.078-.02.157-.027.235l-15.593 153.941c-.417 4.121 2.585 7.8 6.706 8.218.257.026.512.039.765.039 3.803-.001 7.062-2.881 7.453-6.745l13.008-128.422c.317-.56.667-1.1 1.079-1.596 2.265-2.724 5.741-4.201 9.246-3.922 5.827.443 10.263 5.365 10.098 11.264l-2.766 135.454c-.085 4.142 3.204 7.567 7.345 7.651.053.001.104.002.156.002 4.07 0 7.412-3.258 7.495-7.347l2.386-116.856c1.136-6.798 6.96-11.876 14.062-11.876 7.873 0 14.277 6.404 14.277 14.277v187.116c0 12.783-4.373 25.341-12.313 35.36l-26.279 33.156c-1.051 1.325-1.622 2.967-1.622 4.658v57.439c0 4.143 3.357 7.5 7.5 7.5s7.5-3.357 7.5-7.5v-54.828l24.657-31.109c3.137-3.958 5.833-8.23 8.058-12.726 2.225 4.496 4.921 8.768 8.058 12.726l24.657 31.109v54.828c0 4.143 3.357 7.5 7.5 7.5s7.5-3.357 7.5-7.5v-57.439c0-1.691-.571-3.333-1.622-4.658l-26.279-33.156c-7.94-10.02-12.313-22.577-12.313-35.36v-187.114c0-7.872 6.405-14.277 14.277-14.277 7.102 0 12.927 5.079 14.061 11.807l2.387 116.925c.083 4.089 3.424 7.347 7.495 7.347.052 0 .104-.001.156-.002 4.141-.084 7.43-3.51 7.345-7.651l-2.767-135.512c-.164-5.841 4.271-10.763 10.1-11.206 4.198-.328 8.232 1.827 10.32 5.477l13.012 128.463c.392 3.864 3.65 6.745 7.453 6.745.252 0 .508-.013.765-.039 4.12-.418 7.121-4.097 6.704-8.218z"/><path d="m85.002 411.62-10.293-4.052c-15.178-5.974-26.876-18.274-32.094-33.746-1.323-3.926-5.582-6.036-9.503-4.71-3.925 1.323-6.034 5.578-4.71 9.503 6.635 19.673 21.51 35.313 40.813 42.91l10.294 4.053c.716.281 1.154 1.012 1.067 1.776l-8.721 76.216c-.471 4.115 2.483 7.833 6.599 8.304.29.033.577.05.862.05 3.76 0 7.004-2.823 7.441-6.648l8.721-76.216c.859-7.503-3.45-14.675-10.476-17.44z"/><path d="m159.426 367.899c-6.381-17.496-21.784-30.09-40.196-32.865l-10.394-1.568-30.64-43.865c-3.514-5.031-7.744-9.338-12.475-12.854l5.79-23.119c1.006-4.019-1.436-8.091-5.453-9.098-4.019-1.004-8.091 1.436-9.098 5.453l-4.847 19.354c-9.903-3.703-20.874-4.573-31.71-2.13-5.784 1.304-10.838 4.976-13.865 10.073-3.028 5.097-3.835 11.291-2.213 16.993l15.028 52.863c1.132 3.983 5.279 6.299 9.265 5.163 3.984-1.133 6.296-5.28 5.163-9.265l-15.028-52.863c-.506-1.781-.265-3.64.682-5.231.945-1.592 2.461-2.693 4.269-3.101 16.151-3.64 32.715 2.774 42.197 16.35l32.484 46.506c1.178 1.686 2.996 2.814 5.029 3.121l13.579 2.049c12.982 1.957 23.843 10.836 28.342 23.171l1.957 5.369c1.109 3.043 3.984 4.933 7.047 4.933.853 0 1.72-.146 2.568-.456 3.891-1.418 5.896-5.724 4.477-9.614z"/></g></g></svg>