<svg id="Capa_1" enable-background="new 0 0 512.039 512.039" height="512" viewBox="0 0 512.039 512.039" width="512" xmlns="http://www.w3.org/2000/svg"><g><g><path d="m426.96 7.499h-341.88c-22.86 0-41.39 18.53-41.39 41.39v53.32l41.022 46.483h362.242l21.396-46.483v-53.32c0-22.86-18.53-41.39-41.39-41.39z" fill="#e1d3ce"/><path d="m447.122 356.648h-369.442l-33.991 32.69v73.81c0 2.44.21 4.83.62 7.16l31.63 19.06h362.045l29.745-19.06c.41-2.33.62-4.72.62-7.16v-73.81z" fill="#f3eae6"/><path d="m126.26 48.889c0-22.86 18.53-41.39 41.39-41.39h-82.57c-22.86 0-41.39 18.53-41.39 41.39v53.32l41.022 46.483h82.57l-41.022-46.483z" fill="#cdbfba"/><path d="m126.26 463.149v-73.81l33.991-32.69h-82.571l-33.991 32.69v73.81c0 2.44.21 4.83.62 7.16l31.63 19.06h82.57l-31.63-19.06c-.409-2.33-.619-4.72-.619-7.16z" fill="#e1d3ce"/><path d="m43.69 102.209h424.66v287.13h-424.66z" fill="#f9f3f1"/><g><g fill="#f3eae6"><circle cx="255.52" cy="55.59" r="18.033"/><circle cx="185.832" cy="55.59" r="18.033"/><circle cx="116.144" cy="55.59" r="18.033"/><circle cx="325.207" cy="55.59" r="18.033"/><circle cx="394.895" cy="55.59" r="18.033"/><path d="m43.69 102.209h82.57v287.13h-82.57z"/></g><circle cx="255.52" cy="282.642" fill="#e1d3ce" r="144.784"/><g id="XMLID_691_"><g><path d="m356.15 227.459c-20.21-36.7-59.92-61.23-105.08-59.52-59.6 2.27-107.91 50.52-110.24 110.12-.18 4.65-.09 9.25.28 13.78l42.706 38.754h142.209l9.085-53.194v-27.49c0-5.34 3.46-10.06 8.56-11.67l9.35-2.94c3.28-1.04 4.79-4.82 3.13-7.84z" fill="#f2fbff"/><path d="m203.865 282.642c0-46.685 22.113-88.212 56.417-114.689-3.039-.125-6.117-.131-9.212-.014-59.6 2.27-107.91 50.52-110.24 110.12-.18 4.65-.09 9.25.28 13.78l42.706 38.754h28.19c-5.267-15.009-8.141-31.143-8.141-47.951z" fill="#dff6fd"/><path d="m353.02 329.989c3.27 1.03 4.79 4.81 3.13 7.81-19.54 35.51-57.32 59.63-100.63 59.63-60.2 0-109.72-46.58-114.41-105.59l51.56-21.28c21.3-8.78 45.15-9.07 66.66-.81l14.67 5.64c18.71 7.188 39.279 7.932 58.453 2.113.223-.068.455-.103.688-.103h1.968v37.98c0 5.34 3.46 10.06 8.56 11.66z" fill="#99e6fc"/><path d="m203.865 282.642c0-5.439.31-10.806.895-16.09-4.097 1.044-8.138 2.378-12.09 4.007l-51.56 21.28c4.69 59.01 54.21 105.59 114.41 105.59 1.593 0 3.176-.042 4.754-.107-34.306-26.476-56.409-67.994-56.409-114.68z" fill="#62dbfb"/></g></g><path d="m429.984 164.852h-34.11c-3.436 0-6.221-2.785-6.221-6.221v-19.878c0-3.436 2.785-6.221 6.221-6.221h34.11c3.436 0 6.221 2.785 6.221 6.221v19.878c0 3.436-2.786 6.221-6.221 6.221z" fill="#f3eae6"/><g id="XMLID_689_"><g><path d="m44.31 470.309h423.42c-3.39 19.45-20.35 34.23-40.77 34.23h-341.88c-20.42 0-37.38-14.78-40.77-34.23z" fill="#e1d3ce"/></g></g><path d="m126.88 470.309h-82.57c3.39 19.45 20.35 34.23 40.77 34.23h82.57c-20.42 0-37.38-14.78-40.77-34.23z" fill="#cdbfba"/></g></g><g><path d="m468.352 140.211c4.142 0 7.5-3.357 7.5-7.5v-83.823c0-26.957-21.932-48.888-48.888-48.888h-341.889c-26.956 0-48.887 21.931-48.887 48.888v414.262c0 26.957 21.931 48.889 48.888 48.889h341.889c26.957 0 48.888-21.932 48.888-48.889v-298.477c0-4.143-3.358-7.5-7.5-7.5s-7.5 3.357-7.5 7.5v217.162h-66.704c-4.142 0-7.5 3.357-7.5 7.5s3.358 7.5 7.5 7.5h66.704v65.972h-409.665v-65.972h66.704c4.142 0 7.5-3.357 7.5-7.5s-3.358-7.5-7.5-7.5h-66.704v-272.126h37.216c4.142 0 7.5-3.357 7.5-7.5s-3.358-7.5-7.5-7.5h-37.216v-45.821c0-18.686 15.202-33.888 33.887-33.888h341.889c18.686 0 33.888 15.202 33.888 33.888v45.821h-340.486c-4.142 0-7.5 3.357-7.5 7.5s3.358 7.5 7.5 7.5h340.485v23.002c.001 4.143 3.358 7.5 7.501 7.5zm-41.388 356.828h-341.889c-13.439 0-25.076-7.864-30.551-19.232h402.991c-5.475 11.368-17.112 19.232-30.551 19.232z"/><path d="m281.053 55.59c0-14.079-11.454-25.533-25.533-25.533s-25.533 11.454-25.533 25.533 11.454 25.533 25.533 25.533 25.533-11.454 25.533-25.533zm-36.067 0c0-5.808 4.725-10.533 10.533-10.533s10.533 4.726 10.533 10.533-4.725 10.533-10.533 10.533-10.533-4.726-10.533-10.533z"/><path d="m211.365 55.59c0-14.079-11.454-25.533-25.533-25.533s-25.533 11.454-25.533 25.533 11.454 25.533 25.533 25.533 25.533-11.454 25.533-25.533zm-36.067 0c0-5.808 4.725-10.533 10.533-10.533s10.533 4.726 10.533 10.533-4.725 10.533-10.533 10.533-10.533-4.726-10.533-10.533z"/><path d="m141.677 55.59c0-14.079-11.454-25.533-25.533-25.533s-25.534 11.454-25.534 25.533 11.454 25.533 25.533 25.533 25.534-11.454 25.534-25.533zm-36.067 0c0-5.808 4.725-10.533 10.533-10.533s10.533 4.726 10.533 10.533-4.725 10.533-10.533 10.533-10.533-4.726-10.533-10.533z"/><path d="m350.741 55.59c0-14.079-11.454-25.533-25.533-25.533s-25.533 11.454-25.533 25.533 11.454 25.533 25.533 25.533 25.533-11.454 25.533-25.533zm-36.067 0c0-5.808 4.725-10.533 10.533-10.533s10.533 4.726 10.533 10.533-4.725 10.533-10.533 10.533-10.533-4.726-10.533-10.533z"/><path d="m420.429 55.59c0-14.079-11.454-25.533-25.533-25.533s-25.533 11.454-25.533 25.533 11.454 25.533 25.533 25.533 25.533-11.454 25.533-25.533zm-36.067 0c0-5.808 4.725-10.533 10.533-10.533s10.533 4.726 10.533 10.533-4.725 10.533-10.533 10.533-10.533-4.726-10.533-10.533z"/><path d="m110.83 291.68c-4.116.467-7.074 4.182-6.607 8.297 8.724 76.934 73.768 134.949 151.296 134.949 83.97 0 152.284-68.314 152.284-152.284s-68.314-152.285-152.283-152.285c-37.836 0-74.111 13.971-102.142 39.338-27.828 25.184-45.328 59.519-49.276 96.683-.438 4.118 2.546 7.813 6.666 8.25 4.114.436 7.813-2.547 8.25-6.666 3.559-33.49 19.336-64.439 44.425-87.145 25.268-22.867 57.968-35.46 92.077-35.46 75.699 0 137.284 61.585 137.284 137.284s-61.586 137.285-137.284 137.285c-69.893 0-128.528-52.293-136.392-121.639-.467-4.116-4.184-7.071-8.298-6.607z"/><path d="m250.787 160.448c-63.382 2.407-114.975 53.938-117.456 117.315-1.313 33.557 10.786 65.372 34.07 89.586 23.302 24.231 54.596 37.576 88.119 37.576 44.569 0 85.647-24.334 107.205-63.506 1.876-3.41 2.122-7.439.673-11.055s-4.411-6.36-8.126-7.531l-9.351-2.945c-1.98-.624-3.31-2.437-3.31-4.512v-65.471c0-2.075 1.33-3.888 3.309-4.512l9.352-2.945c3.713-1.169 6.673-3.913 8.122-7.527 1.451-3.621 1.204-7.658-.678-11.075-22.504-40.873-65.389-65.168-111.929-63.398zm97.557 175.93c-19.227 33.095-54.563 53.548-92.825 53.548-29.404 0-56.859-11.71-77.307-32.974-16.141-16.786-26.15-37.735-29.075-60.312l46.395-19.144c19.605-8.088 41.306-8.354 61.103-.746l14.678 5.641c17.907 6.883 37.627 8.285 56.297 4.125v28.861c0 8.654 5.547 16.217 13.802 18.818h.001zm-6.931-105.29c-8.255 2.602-13.802 10.164-13.802 18.818v21.174c-16.75 4.465-34.71 3.538-50.916-2.692l-14.678-5.641c-23.393-8.989-49.036-8.677-72.205.883l-41.557 17.148c.014-.809.033-1.618.065-2.429 2.176-55.596 47.435-100.801 103.037-102.913 1.396-.053 2.782-.079 4.169-.079 38.383 0 73.463 20.194 92.819 53.548z"/><path d="m359.483 261.759v42.783c0 4.143 3.358 7.5 7.5 7.5s7.5-3.357 7.5-7.5v-42.783c0-4.143-3.358-7.5-7.5-7.5s-7.5 3.357-7.5 7.5z"/><path d="m443.705 158.631v-19.878c0-7.565-6.155-13.721-13.721-13.721h-34.109c-7.566 0-13.721 6.155-13.721 13.721v19.878c0 7.565 6.155 13.721 13.721 13.721h34.109c7.565 0 13.721-6.156 13.721-13.721zm-15-1.279h-31.552v-17.319h31.552z"/></g></g></svg>