<svg id="Capa_1" enable-background="new 0 0 512.146 512.146" height="512" viewBox="0 0 512.146 512.146" width="512" xmlns="http://www.w3.org/2000/svg"><g><g><path d="m412.875 228.251c-3.078-7.5-10.443-12.785-19.052-12.785-11.374 0-20.594 9.22-20.594 20.594v86.996 46.716l44.366-39.29z" fill="#ffcebf"/><g><path d="m99.271 228.251c3.078-7.5 10.443-12.785 19.052-12.785 11.374 0 20.594 9.22 20.594 20.594v86.996 52.013l-41.56-39.542z" fill="#ffcebf"/><g id="XMLID_712_"><g><path d="m355.713 342.476 57.16-59.22v-67.79c0-13.62 11.04-24.66 24.67-24.66 6.81 0 12.97 2.76 17.44 7.22 4.46 4.46 7.22 10.63 7.22 17.44v83.95c0 3.35-1.13 6.59-3.2 9.22l-89.18 112.88v72.826c0 5.691-4.613 10.304-10.304 10.304h-103.446v-47.1-74.31c0-8.63 3.34-16.94 9.33-23.16l51.76-53.87c5.19-5.4 12.13-8.12 19.09-8.12 6.4 0 12.81 2.31 17.89 6.97 10.78 9.89 11.48 26.66 1.57 37.42z" fill="#ffdfcf"/><g><path d="m285.165 466.576v-74.31c0-8.63 3.34-16.94 9.33-23.16l51.76-53.87c3.137-3.264 6.928-5.54 10.962-6.836-.911-1.178-1.939-2.302-3.073-3.343-5.08-4.66-11.49-6.97-17.89-6.97-6.96 0-13.9 2.72-19.09 8.12l-51.76 53.87c-5.99 6.22-9.33 14.53-9.33 23.16v74.31 47.1h29.091z" fill="#ffcebf"/></g><path d="m156.433 342.476c-4.68-5.09-7-11.51-7-17.92 0-7.15 2.88-14.28 8.57-19.5 10.6-9.73 27.01-9.21 36.98 1.15l51.76 53.87c5.99 6.22 9.33 14.53 9.33 23.16v74.31 47.1h-103.445c-5.691 0-10.304-4.613-10.304-10.304v-72.826l-89.18-112.88c-2.07-2.63-3.2-5.87-3.2-9.22v-83.95c0-6.81 2.76-12.98 7.22-17.44 4.47-4.46 10.63-7.22 17.44-7.22 13.63 0 24.67 11.04 24.67 24.66v67.79z" fill="#ffdfcf"/><g><path d="m246.743 360.076-51.76-53.87c-8.435-8.765-21.478-10.484-31.714-4.915 2.333 1.267 4.514 2.903 6.45 4.915l51.76 53.87c5.99 6.22 9.33 14.53 9.33 23.16v74.31 47.1h25.263v-47.1-74.31c.001-8.63-3.339-16.94-9.329-23.16z" fill="#ffcebf"/></g><g><path d="m173.189 498.111v-84.825l-89.18-112.88c-2.07-2.63-3.2-5.87-3.2-9.22v-83.95c0-5.219 1.625-10.058 4.39-14.043-3.21-1.528-6.802-2.386-10.595-2.386-6.81 0-12.97 2.76-17.44 7.22-4.46 4.46-7.22 10.63-7.22 17.44v83.95c0 3.35 1.13 6.59 3.2 9.22l89.18 112.88v72.826c0 5.691 4.614 10.305 10.304 10.305h22.9c-1.461-1.78-2.339-4.056-2.339-6.537z" fill="#ffcebf"/></g></g></g><circle cx="256.073" cy="132.036" fill="#b9eacf" r="124.536"/><path d="m192.889 132.036c0-58.193 39.916-107.059 93.86-120.725-9.813-2.486-20.089-3.811-30.676-3.811-68.779 0-124.536 55.757-124.536 124.536s55.757 124.536 124.536 124.536c10.586 0 20.863-1.326 30.676-3.812-53.944-13.665-93.86-62.531-93.86-120.724z" fill="#91deb6"/><circle cx="256.073" cy="132.035" fill="#91deb6" r="94.536"/><path d="m233.205 40.302c-41.114 10.253-71.667 47.49-71.667 91.733s30.553 81.479 71.666 91.733c-24.781-22.762-40.314-55.432-40.314-91.732-.001-36.302 15.533-68.973 40.315-91.734z" fill="#6ed5a1"/><path d="m295.954 114.136h-21.737v-21.738c0-2.826-2.291-5.118-5.118-5.118h-24.936c-2.826 0-5.118 2.291-5.118 5.118v21.737h-21.737c-2.826 0-5.118 2.291-5.118 5.118v24.936c0 2.826 2.291 5.118 5.118 5.118h21.737v21.737c0 2.826 2.291 5.118 5.118 5.118h24.936c2.826 0 5.118-2.291 5.118-5.118v-21.737h21.737c2.826 0 5.118-2.291 5.118-5.118v-24.936c0-2.826-2.291-5.117-5.118-5.117z" fill="#f9f7f8"/></g></g><g><path d="m59.027 303.982c-1.022-1.293-1.585-2.914-1.585-4.563v-37.553c0-4.143-3.358-7.5-7.5-7.5s-7.5 3.357-7.5 7.5v37.553c0 5.011 1.71 9.934 4.815 13.863l87.562 110.842v80.522c0 4.143 3.358 7.5 7.5 7.5s7.5-3.357 7.5-7.5v-83.128c0-1.688-.569-3.325-1.615-4.649z"/><path d="m437.54 183.302c-16.086 0-29.45 11.868-31.798 27.308-3.651-1.706-7.698-2.643-11.917-2.643-15.491 0-28.095 12.603-28.095 28.094v71.614c-1.718-2.995-3.901-5.743-6.518-8.146-13.483-12.378-34.771-11.713-47.454 1.484l-51.765 53.861c-1.436 1.494-2.741 3.082-3.92 4.745-1.179-1.664-2.485-3.252-3.92-4.746l-51.764-53.86c-12.682-13.195-33.971-13.861-47.454-1.485-2.617 2.402-4.799 5.151-6.518 8.146v-71.613c0-15.491-12.603-28.094-28.094-28.094-4.219 0-8.268.937-11.918 2.644-2.348-15.44-15.712-27.309-31.798-27.309-17.735 0-32.164 14.429-32.164 32.165v14.438c0 4.143 3.358 7.5 7.5 7.5s7.5-3.357 7.5-7.5v-14.438c0-9.465 7.7-17.165 17.165-17.165s17.164 7.7 17.164 17.165v67.791c0 1.943.754 3.811 2.104 5.209l83.359 87.657c2.805 3.047 7.55 3.24 10.598.436 3.047-2.807 3.242-7.551.436-10.598l-26.313-28.568c-3.436-3.73-5.21-8.575-4.998-13.642.212-5.065 2.387-9.744 6.122-13.173 7.529-6.911 19.415-6.539 26.495.829l51.764 53.859c4.666 4.856 7.236 11.238 7.236 17.972v121.407c0 4.143 3.358 7.5 7.5 7.5 4.143 0 7.5-3.357 7.5-7.5v-121.407c0-6.733 2.569-13.115 7.235-17.971l51.764-53.86c7.084-7.37 18.969-7.74 26.495-.829 3.735 3.429 5.91 8.107 6.122 13.174.213 5.066-1.563 9.91-4.998 13.641l-26.313 28.568c-2.807 3.047-2.611 7.791.436 10.598 3.048 2.806 7.792 2.611 10.598-.436l83.358-87.657c1.351-1.398 2.104-3.266 2.104-5.209v-67.791c0-9.465 7.7-17.165 17.165-17.165 9.464 0 17.164 7.7 17.164 17.165v83.952c0 1.65-.563 3.271-1.586 4.564l-17.72 22.432c-2.567 3.251-2.014 7.967 1.236 10.535 3.251 2.566 7.968 2.013 10.535-1.236l17.718-22.431c3.106-3.929 4.816-8.853 4.816-13.864v-83.952c0-17.737-14.429-32.165-32.164-32.165zm-330.769 46.618c2.259-4.261 6.66-6.954 11.552-6.954 7.22 0 13.094 5.874 13.094 13.094v69.698l-24.646-25.53zm273.958 75.838v-69.697c0-7.22 5.874-13.094 13.095-13.094 4.892 0 9.292 2.693 11.551 6.953v50.309z"/><path d="m426.117 350.264c-3.251-2.568-7.967-2.014-10.534 1.235l-51.641 65.37c-1.046 1.324-1.615 2.962-1.615 4.649v83.128c0 4.143 3.357 7.5 7.5 7.5s7.5-3.357 7.5-7.5v-80.522l50.025-63.326c2.569-3.251 2.015-7.967-1.235-10.534z"/><path d="m256.073 264.072c69.747 0 127.636-54.49 131.789-124.053.247-4.135-2.904-7.688-7.039-7.934-4.141-.269-7.688 2.904-7.934 7.039-3.682 61.652-54.993 109.947-116.816 109.947-64.534 0-117.036-52.503-117.036-117.037 0-64.532 52.502-117.034 117.036-117.034 55.666 0 103.938 39.563 114.779 94.072.807 4.063 4.757 6.698 8.818 5.894 4.063-.809 6.701-4.757 5.893-8.819-12.231-61.506-66.69-106.147-129.49-106.147-72.805 0-132.036 59.23-132.036 132.035 0 72.806 59.231 132.037 132.036 132.037z"/><path d="m256.073 29.999c-56.263 0-102.036 45.773-102.036 102.036s45.773 102.036 102.036 102.036 102.036-45.773 102.036-102.036-45.773-102.036-102.036-102.036zm0 189.072c-47.992 0-87.036-39.044-87.036-87.036s39.044-87.036 87.036-87.036 87.036 39.044 87.036 87.036-39.044 87.036-87.036 87.036z"/><path d="m295.954 106.636h-14.237v-14.238c0-6.958-5.66-12.618-12.617-12.618h-24.937c-6.958 0-12.618 5.66-12.618 12.618v14.237h-14.237c-6.958 0-12.618 5.66-12.618 12.617v24.937c0 6.958 5.66 12.618 12.618 12.618h14.237v14.237c0 6.957 5.661 12.617 12.618 12.617h24.937c6.957 0 12.617-5.66 12.617-12.617v-14.237h14.237c6.958 0 12.618-5.66 12.618-12.618v-24.937c0-6.956-5.66-12.616-12.618-12.616zm-2.382 35.172h-19.355c-4.143 0-7.5 3.357-7.5 7.5v19.354h-20.172v-19.354c0-4.143-3.358-7.5-7.5-7.5h-19.355v-20.172h19.355c4.142 0 7.5-3.357 7.5-7.5v-19.356h20.172v19.355c0 4.143 3.357 7.5 7.5 7.5h19.355z"/></g></g></svg>