<svg id="Capa_1" enable-background="new 0 0 512.37 512.37" height="512" viewBox="0 0 512.37 512.37" width="512" xmlns="http://www.w3.org/2000/svg"><g><g><g><path d="m422.893 408.761-.148-3.759 42.94-66.03-11.76-60.82-4.439-17.722c-10.39 5.004-19.496 12.631-26.289 22.351l-27.562 39.467-5.076.767c-22.938 3.45-42.128 19.139-50.079 40.93-.041.149-.081.299-.12.448-5.929 22.441 11.227 44.369 34.438 44.369h48.095z" fill="#ffcebf"/></g><g><path d="m129.428 404.291c26.941 0 44.377-29.2 30.839-52.493-.81-1.395-1.67-2.635-2.58-3.685-13.12-15.13-25.183-23.341-36.868-25.099l-5.086-.768-27.565-39.472c-6.79-9.717-15.895-17.343-26.285-22.347l-4.439 17.723-15.18 73.35 47.19 51.68-.076 1.109h40.05z" fill="#ffcebf"/></g><g><g><path d="m212.355 183.892c.71-4.87 3.01-9.21 6.37-12.47 4.042-3.939 9.614-6.315 15.731-6.163 11.892.294 21.229 10.361 21.229 22.257v95.916 65.78 24.94c0 14.52-4.91 28.63-13.94 40.01l-26.28 33.16v47.226c0 5.641-4.573 10.214-10.214 10.214h-114.776c-6.101 0-10.842-5.314-10.147-11.376l7.337-64.064 1.79-26.14-47.19-51.68 15.18-73.35 32.45-129.56c3.03-8.63 11.16-14.35 20.22-14.35.42 0 .85.01 1.28.04 12.85.77 22.13 12.61 19.81 25.27l6.13-32.84c2.31-11.79 13.79-19.43 25.56-17.01 10.14 2.09 17.22 11.03 17.22 21.12 0 .95-.06 1.91-.19 2.88l-2.39 23.59.18.02c.65-1.34 1.46-2.59 2.4-3.72 3.7-4.45 9.42-7.08 15.59-6.61 9.62.74 17.03 8.76 17.03 18.37 0 .17 0 .35-.01.53l-.37 18.01c-.12.83-.2 1.67-.22 2.53z" fill="#ffdfcf"/></g><g fill="#ffcebf"><path d="m165.41 121.281c.907-3.286 2.574-6.216 4.749-8.631-2.162-1.383-4.61-2.401-7.264-2.949-11.77-2.42-23.25 5.22-25.56 17.01l-5.961 31.936-18.354 125.309c15.621.473 29.218-10.599 31.919-25.992z"/><path d="m195.611 263.989 9.771-113.353c-2.724-2.052-6.042-3.375-9.677-3.654-6.17-.47-11.89 2.16-15.59 6.61-.933 1.121-1.736 2.361-2.384 3.689l-3.845 30.963-8.483 102.727c15.468 0 28.469-11.613 30.208-26.982z"/><path d="m233.896 276.973 7.323-110.437c-2.117-.775-4.388-1.219-6.763-1.278-6.117-.151-11.689 2.225-15.731 6.163-3.208 3.113-5.433 7.216-6.247 11.819l-.272 2.364-8.261 118.366c15.425.001 28.355-11.655 29.951-26.997z"/></g><g><g id="XMLID_721_"><g><path d="m380.165 159.552c-2.32-12.66 6.96-24.5 19.81-25.27.43-.03.86-.04 1.28-.04 9.06 0 17.19 5.72 20.22 14.35l32.45 129.56 11.76 60.82-42.94 66.03.96 24.32 7.74 67.586c.479 4.185-2.794 7.854-7.006 7.854h-121.482c-3.895 0-7.052-3.157-7.052-7.052v-50.388l-26.28-33.16c-9.03-11.38-13.94-25.49-13.94-40.01v-187.12c0-6.02 2.44-11.46 6.38-15.4s9.38-6.38 15.4-6.38c10.93 0 20.02 8.07 21.55 18.64 0 0 .12.83 0 0l-.37-18.01c-.01-.18-.01-.36-.01-.53 0-9.61 7.41-17.63 17.03-18.37 7.38-.56 14.12 3.31 17.52 9.43l.55-.06-2.29-22.65c-.13-.97-.19-1.93-.19-2.88 0-10.09 7.08-19.03 17.22-21.12 11.77-2.42 23.25 5.22 25.56 17.01z" fill="#ffdfcf"/></g></g></g><path d="m429.395 418.932c-3.88 1.53-6.25 5.47-5.78 9.61l.001.78-15.021-.087c-21.214-.122-39.313-13.011-47.153-31.277-4.854-11.31-2.853-24.44 4.978-33.935 7.405-8.978 18.066-19.871 27.115-21.232l13.58-2.05 32.48-46.51c9.12-13.05 23.93-20.55 39.42-20.55 3.51 0 7.06.38 10.58 1.18 7.93 1.79 12.74 9.88 10.51 17.7l-23.05 81.1c-5.35 18.82-19.17 34.06-37.37 41.22z" fill="#ffdfcf"/><path d="m324.902 498.523v-43.337c0-4.566-1.543-8.998-4.379-12.577l-21.901-27.634c-9.03-11.38-13.94-25.49-13.94-40.01v-187.12c0-6.02 2.44-11.46 6.38-15.4.429-.429.884-.86 1.347-1.252-3.905-3.691-9.163-5.941-14.945-5.941-6.02 0-11.46 2.44-15.4 6.38s-6.38 9.38-6.38 15.4v187.12c0 14.52 4.91 28.63 13.94 40.01l26.28 33.16v50.388c0 3.895 3.157 7.052 7.052 7.052h25.715c-2.24-1.182-3.769-3.53-3.769-6.239z" fill="#ffcebf"/><g><path d="m107.487 495.752 7.337-64.064 1.79-26.14-47.19-51.68 15.18-73.35 32.45-129.56c1.547-4.407 4.439-8.05 8.091-10.565-3.547-3.492-8.333-5.787-13.75-6.112-.43-.03-.86-.04-1.28-.04-9.06 0-17.19 5.72-20.22 14.35l-32.45 129.56-15.18 73.35 47.19 51.68-1.79 26.14-7.337 64.064c-.694 6.062 4.046 11.375 10.147 11.375h20.641c-2.544-2.116-4.039-5.426-3.629-9.008z" fill="#ffcebf"/></g><path d="m323.301 161.614c-.107-4.528.934-8.766 2.804-12.319-3.076-1.734-6.671-2.6-10.44-2.314-9.62.74-17.03 8.76-17.03 18.37 0 .17 2.278 137.743 2.278 137.743 13.68-.323 24.509-11.675 24.185-25.355z" fill="#ffcebf"/><path d="m342.441 289.181c15.218-3.557 25.514-17.751 24.168-33.321l-10.199-146.026c.001-.092.017-.188.019-.28-2.563-.433-5.254-.408-7.954.147-9.771 2.014-16.681 10.393-17.172 20.028z" fill="#ffcebf"/><path d="m392.462 286.483c15.039-4.251 24.672-18.903 22.613-34.395l-11.238-117.691c-.865-.107-1.748-.118-2.635-.118-.42 0-.85.01-1.28.04-11.957.717-20.817 11.019-20.123 22.646z" fill="#ffcebf"/></g><g><circle cx="255.685" cy="119.121" fill="#b9eacf" r="111.622"/><path d="m194.542 119.121c0-52.967 36.893-97.316 86.383-108.756-8.111-1.874-16.56-2.865-25.24-2.865-61.647 0-111.622 49.975-111.622 111.622s49.975 111.622 111.622 111.622c8.68 0 17.129-.991 25.239-2.866-49.49-11.44-86.382-55.79-86.382-108.757z" fill="#91deb6"/><circle cx="255.685" cy="119.121" fill="#91deb6" r="81.622"/><path d="m223.534 194.133c-18.004-19.82-28.993-46.127-28.993-75.012s10.958-55.188 28.961-75.008c-29.064 12.505-49.439 41.413-49.439 75.008 0 33.596 20.406 62.507 49.471 75.012z" fill="#6ed5a1"/><path d="m291.43 103.078h-19.483v-19.484c0-2.533-2.054-4.587-4.587-4.587h-22.35c-2.533 0-4.587 2.054-4.587 4.587v19.483h-19.483c-2.533 0-4.587 2.054-4.587 4.587v22.35c0 2.533 2.054 4.587 4.587 4.587h19.483v19.483c0 2.533 2.054 4.587 4.587 4.587h22.35c2.533 0 4.587-2.054 4.587-4.587v-19.483h19.483c2.533 0 4.587-2.054 4.587-4.587v-22.35c.001-2.533-2.053-4.586-4.587-4.586z" fill="#f9f7f8"/></g><path d="m153.084 392.166c-1.281 20.878-18.587 37.156-39.504 37.156h-25.915l.09-.78c.47-4.14-1.9-8.08-5.78-9.61l-10.29-4.05c-18.2-7.16-32.02-22.4-37.37-41.22l-23.05-81.1c-2.23-7.82 2.58-15.91 10.51-17.7 3.52-.8 7.07-1.18 10.58-1.18 15.49 0 30.3 7.5 39.42 20.55l32.48 46.51 13.58 2.05c8.121 1.222 17.542 10.122 24.741 18.424 7.408 8.544 11.202 19.632 10.509 30.92z" fill="#ffdfcf"/><path d="m115.065 428.542c.47-4.14-1.9-8.08-5.78-9.61l-10.29-4.05c-18.2-7.16-32.02-22.4-37.37-41.22l-23.05-81.1c-1.961-6.878 1.526-13.961 7.791-16.786-4.507-1.374-9.226-2.094-14.01-2.094-3.51 0-7.06.38-10.58 1.18-7.93 1.79-12.74 9.88-10.51 17.7l23.05 81.1c5.35 18.82 19.17 34.06 37.37 41.22l10.29 4.05c3.88 1.53 6.25 5.47 5.78 9.61l-.09.78h25.915c.469 0 .934-.018 1.399-.034z" fill="#ffcebf"/><path d="m153.084 392.166c-1.281 20.878-18.587 37.156-39.504 37.156h-25.915l.09-.78c.47-4.14-1.9-8.08-5.78-9.61l-10.29-4.05c-18.2-7.16-32.02-22.4-37.37-41.22l-23.05-81.1c-2.23-7.82 2.58-15.91 10.51-17.7 3.52-.8 7.07-1.18 10.58-1.18 15.49 0 30.3 7.5 39.42 20.55l32.48 46.51 13.58 2.05c8.121 1.222 17.542 10.122 24.741 18.424 7.408 8.544 11.202 19.632 10.509 30.92z" fill="#ffdfcf"/><path d="m115.065 428.542c.47-4.14-1.9-8.08-5.78-9.61l-10.29-4.05c-18.2-7.16-32.02-22.4-37.37-41.22l-23.05-81.1c-1.961-6.878 1.526-13.961 7.791-16.786-4.507-1.374-9.226-2.094-14.01-2.094-3.51 0-7.06.38-10.58 1.18-7.93 1.79-12.74 9.88-10.51 17.7l23.05 81.1c5.35 18.82 19.17 34.06 37.37 41.22l10.29 4.05c3.88 1.53 6.25 5.47 5.78 9.61l-.09.78h25.915c.469 0 .934-.018 1.399-.034z" fill="#ffcebf"/></g><g><path d="m255.685 30c-49.142 0-89.122 39.979-89.122 89.121s39.98 89.122 89.122 89.122 89.122-39.98 89.122-89.122-39.98-89.121-89.122-89.121zm0 163.243c-40.871 0-74.122-33.251-74.122-74.122 0-40.87 33.251-74.121 74.122-74.121s74.122 33.251 74.122 74.121c0 40.871-33.251 74.122-74.122 74.122z"/><path d="m291.43 95.577h-11.982v-11.982c0-6.665-5.423-12.087-12.088-12.087h-22.35c-6.665 0-12.088 5.422-12.088 12.087v11.982h-11.982c-6.665 0-12.088 5.423-12.088 12.088v22.35c0 6.665 5.423 12.088 12.088 12.088h11.982v11.982c0 6.665 5.423 12.087 12.088 12.087h22.35c6.665 0 12.088-5.422 12.088-12.087v-11.982h11.982c6.665 0 12.088-5.423 12.088-12.088v-22.35c0-6.665-5.423-12.088-12.088-12.088zm-2.912 31.526h-16.57c-4.143 0-7.5 3.357-7.5 7.5v16.569h-16.525v-16.569c0-4.143-3.357-7.5-7.5-7.5h-16.57v-16.525h16.57c4.143 0 7.5-3.357 7.5-7.5v-16.57h16.525v16.569c0 4.143 3.357 7.5 7.5 7.5h16.57z"/><path d="m505.61 277.728c-3.027-5.098-8.081-8.77-13.864-10.073-10.841-2.446-21.811-1.575-31.712 2.127l-30.784-122.904c-.056-.223-.122-.442-.198-.659-4.254-12.135-16.183-20.079-29.026-19.312-6.142.366-11.953 2.682-16.632 6.52l-1.503-8.048c-1.052-5.383-3.645-10.353-7.378-14.326-.698-10.424-2.728-20.664-6.106-30.53-1.342-3.919-5.606-6.005-9.525-4.666-3.919 1.342-6.008 5.606-4.666 9.525 3.709 10.833 5.59 22.185 5.59 33.738 0 57.243-46.434 103.84-103.613 104.116-.003 0-.005 0-.008 0-.004 0-.009 0-.013 0-.163.001-.324.006-.487.006-57.412 0-104.121-46.709-104.121-104.122 0-57.411 46.709-104.12 104.121-104.12 33.604 0 65.325 16.362 84.856 43.77 2.402 3.372 7.086 4.16 10.46 1.755 3.373-2.403 4.159-7.087 1.755-10.46-22.339-31.349-58.628-50.065-97.071-50.065-63.383 0-115.356 49.762-118.919 112.268-3.167 3.76-5.334 8.238-6.3 13.172l-1.491 7.986c-4.679-3.837-10.49-6.153-16.631-6.519-12.819-.755-24.773 7.175-29.027 19.311-.075.216-.142.436-.197.658l-7.543 30.117c-1.006 4.019 1.436 8.091 5.453 9.098 4.021 1.009 8.091-1.435 9.098-5.453l7.45-29.747c2.135-5.681 7.815-9.362 13.874-9.011 4.041.241 7.642 2.128 10.139 5.313s3.47 7.131 2.739 11.111c-.024.133-.045.266-.063.399l-15.754 122.88c-.526 4.108 2.377 7.866 6.485 8.394.324.041.646.062.964.062 3.717 0 6.944-2.763 7.43-6.547l15.727-122.671 1.813-9.711c4.899 17.551 13.726 33.478 25.469 46.773l-9.026 89.113c-.417 4.121 2.585 7.8 6.706 8.218.257.026.512.039.765.039 3.803 0 7.062-2.881 7.453-6.745l7.835-77.358c7.423 6.104 15.594 11.329 24.353 15.515l-1.524 74.622c-.085 4.142 3.204 7.567 7.345 7.651.053.002.104.002.156.002 4.07 0 7.412-3.258 7.495-7.347l1.409-69.019c9.328 2.993 19.153 4.865 29.316 5.457v112.282 23.94c0 12.783-4.373 25.341-12.313 35.36l-26.279 33.156c-1.051 1.325-1.622 2.967-1.622 4.658v57.439c0 4.143 3.357 7.5 7.5 7.5s7.5-3.357 7.5-7.5v-54.828l24.657-31.109c3.137-3.958 5.833-8.23 8.058-12.726 2.225 4.496 4.921 8.768 8.058 12.726l24.657 31.109v54.828c0 4.143 3.357 7.5 7.5 7.5s7.5-3.357 7.5-7.5v-57.436c0-1.691-.571-3.333-1.622-4.658l-26.279-33.156c-7.94-10.02-12.313-22.577-12.313-35.36v-23.94-112.348c10.169-.678 19.992-2.635 29.31-5.716l1.416 69.342c.083 4.089 3.424 7.347 7.495 7.347.052 0 .104-.001.156-.002 4.141-.084 7.43-3.51 7.345-7.651l-1.533-75.102c8.748-4.282 16.896-9.605 24.284-15.807l7.914 78.131c.392 3.864 3.65 6.745 7.453 6.745.252 0 .508-.013.765-.039 4.121-.418 7.123-4.097 6.706-8.218l-9.13-90.131c11.777-13.642 20.519-29.974 25.164-47.937l2.224 11.909 15.724 122.655c.485 3.784 3.712 6.547 7.43 6.547.318 0 .64-.021.964-.062 4.108-.527 7.012-4.285 6.485-8.394l-15.754-122.88c-.018-.134-.038-.267-.063-.399-.73-3.98.242-7.927 2.739-11.112 2.498-3.186 6.098-5.072 10.139-5.313 6.087-.345 11.739 3.331 13.874 9.013l31.633 126.299c-4.731 3.517-8.961 7.824-12.475 12.855l-30.64 43.865-10.393 1.568c-18.413 2.775-33.816 15.369-40.197 32.866l-1.957 5.368c-1.419 3.891.586 8.196 4.477 9.614.849.31 1.716.456 2.568.456 3.063 0 5.938-1.89 7.047-4.933l1.957-5.368c4.499-12.336 15.359-21.215 28.343-23.172l13.578-2.049c2.033-.307 3.852-1.436 5.029-3.121l32.484-46.506c9.483-13.575 26.048-19.992 42.198-16.35 1.807.407 3.322 1.509 4.268 3.101s1.188 3.45.682 5.231l-9.494 33.396c-1.133 3.984 1.179 8.132 5.163 9.265 3.984 1.132 8.132-1.18 9.265-5.163l9.494-33.396c1.622-5.701.815-11.896-2.213-16.992z"/><path d="m484.153 350.556c-3.988-1.138-8.133 1.179-9.265 5.163l-4.55 16.004c-4.679 16.459-16.979 30.025-32.9 36.292l-10.292 4.051c-7.027 2.766-11.336 9.938-10.478 17.44l8.721 76.216c.438 3.826 3.682 6.648 7.441 6.648.285 0 .573-.017.862-.05 4.115-.471 7.069-4.188 6.599-8.304l-8.721-76.216c-.087-.765.352-1.495 1.068-1.777l10.292-4.052c20.246-7.968 35.886-25.219 41.835-46.147l4.55-16.004c1.134-3.984-1.178-8.132-5.162-9.264z"/><path d="m159.649 368.346c-6.381-17.495-21.783-30.088-40.197-32.865l-10.393-1.567-30.64-43.866c-3.514-5.031-7.744-9.337-12.476-12.853l16.417-65.549c1.006-4.019-1.436-8.091-5.453-9.098-4.019-1.003-8.09 1.436-9.098 5.453l-15.474 61.785c-9.902-3.703-20.873-4.574-31.71-2.131-5.784 1.304-10.838 4.976-13.865 10.072-3.028 5.098-3.835 11.292-2.213 16.994l23.057 81.104c5.949 20.929 21.589 38.181 41.834 46.147l10.294 4.052c.716.282 1.154 1.013 1.067 1.777l-8.721 76.215c-.471 4.115 2.483 7.833 6.599 8.304.29.033.577.05.862.05 3.76 0 7.004-2.823 7.441-6.648l8.721-76.215c.858-7.502-3.449-14.674-10.476-17.439l-10.295-4.052c-15.921-6.267-28.22-19.833-32.899-36.292l-23.057-81.104c-.506-1.781-.265-3.64.682-5.231.945-1.592 2.461-2.693 4.269-3.101 16.151-3.643 32.715 2.774 42.197 16.35l32.484 46.507c1.178 1.686 2.996 2.814 5.03 3.121l13.578 2.048c12.982 1.958 23.843 10.837 28.342 23.172l1.958 5.369c1.418 3.891 5.722 5.898 9.615 4.477 3.892-1.419 5.896-5.724 4.477-9.615z"/></g></g></svg>